<svg width="175" height="117" viewBox="0 0 175 117" fill="none" xmlns="http://www.w3.org/2000/svg">
<path fill-rule="evenodd" clip-rule="evenodd" d="M103.705 81.8304C95.8822 87.6128 84.5436 90.698 74.7813 90.698C61.093 90.698 48.77 85.6206 39.4471 77.1762C38.7148 76.512 39.371 75.6071 40.2499 76.1243C50.3111 81.9949 62.7513 85.5267 75.6017 85.5267C84.2682 85.5267 93.8019 83.7285 102.568 79.9969C103.892 79.4328 105 80.8666 103.705 81.8304Z" fill="#FF9900"/>
<path fill-rule="evenodd" clip-rule="evenodd" d="M106.957 78.099C105.961 76.8179 100.348 77.4937 97.8278 77.7934C97.0602 77.8875 96.9431 77.2175 97.6345 76.7357C102.105 73.58 109.442 74.4909 110.297 75.5486C111.153 76.6123 110.075 83.9872 105.873 87.5072C105.229 88.0479 104.613 87.7599 104.9 87.0429C105.844 84.6807 107.959 79.386 106.957 78.099Z" fill="#FF9900"/>
<path fill-rule="evenodd" clip-rule="evenodd" d="M98.0032 54.4578V51.3904C98.0032 50.9261 98.3549 50.6147 98.7767 50.6147H112.471C112.91 50.6147 113.262 50.9319 113.262 51.3904V54.0171C113.256 54.4578 112.887 55.0338 112.231 55.9446L105.135 66.105C107.771 66.0404 110.555 66.4341 112.946 67.7857C113.485 68.0912 113.631 68.5379 113.672 68.9786V72.2518C113.672 72.6984 113.18 73.2214 112.664 72.9511C108.451 70.7357 102.855 70.4948 98.1967 72.9746C97.722 73.2332 97.224 72.7161 97.224 72.2695V69.1608C97.224 68.6613 97.2297 67.8092 97.7278 67.0512L105.949 55.2277H98.7942C98.3549 55.2277 98.0032 54.9163 98.0032 54.4578ZM48.0492 73.5975H43.8829C43.4844 73.5682 43.1681 73.2685 43.1387 72.8864V51.4433C43.1387 51.0143 43.4961 50.6734 43.9414 50.6734H47.8264C48.2308 50.6909 48.5531 51.0025 48.5824 51.3902V54.1935H48.6586C49.6723 51.4845 51.5767 50.2211 54.1433 50.2211C56.7508 50.2211 58.3799 51.4845 59.5518 54.1935C60.5597 51.4845 62.8509 50.2211 65.3061 50.2211C67.0522 50.2211 68.9625 50.9439 70.1286 52.5658C71.447 54.3698 71.1775 56.9907 71.1775 59.2884L71.1716 72.8219C71.1716 73.2509 70.8142 73.5976 70.3689 73.5976H66.2084C65.7925 73.5683 65.4584 73.2334 65.4584 72.8219V61.4568C65.4584 60.5517 65.5405 58.2951 65.3412 57.4373C65.0307 55.9975 64.099 55.592 62.8918 55.592C61.8839 55.592 60.8292 56.2678 60.4014 57.3491C59.9737 58.4305 60.0148 60.2403 60.0148 61.4568V72.8218C60.0148 73.2508 59.6572 73.5975 59.2119 73.5975H55.0515C54.6296 73.5682 54.3014 73.2332 54.3014 72.8218L54.2956 61.4568C54.2956 59.065 54.6882 55.5451 51.7291 55.5451C48.7348 55.5451 48.8519 58.9768 48.8519 61.4568V72.8218C48.8519 73.2508 48.4945 73.5975 48.0492 73.5975ZM125.052 50.221C131.234 50.221 134.58 55.545 134.58 62.3147C134.58 68.8552 130.882 74.0442 125.052 74.0442C118.981 74.0442 115.676 68.7201 115.676 62.0855C115.676 55.4099 119.022 50.221 125.052 50.221ZM125.087 54.5989C122.016 54.5989 121.823 58.7947 121.823 61.4097C121.823 64.0307 121.782 69.625 125.052 69.625C128.281 69.625 128.433 65.1119 128.433 62.3617C128.433 60.5517 128.357 58.3892 127.812 56.6733C127.343 55.1806 126.411 54.5989 125.087 54.5989H125.087ZM142.596 73.5975H138.447C138.031 73.5682 137.697 73.2332 137.697 72.8218L137.691 51.3727C137.726 50.979 138.072 50.6734 138.494 50.6734H142.356C142.719 50.6909 143.018 50.938 143.1 51.2728V54.5519H143.176C144.342 51.6196 145.977 50.221 148.854 50.221C150.723 50.221 152.546 50.8967 153.718 52.7478C154.807 54.4636 154.807 57.3491 154.807 59.4236V72.9217C154.761 73.2978 154.415 73.5975 154.005 73.5975H149.827C149.446 73.5682 149.129 73.286 149.088 72.9217V61.2745C149.088 58.9299 149.358 55.4979 146.481 55.4979C145.467 55.4979 144.535 56.1796 144.073 57.2139C143.486 58.5245 143.41 59.829 143.41 61.2747V72.8218C143.404 73.2508 143.041 73.5975 142.596 73.5975ZM87.0866 63.3549C87.0866 64.9826 87.1277 66.3401 86.3072 67.7856C85.6451 68.961 84.5904 69.6837 83.4243 69.6837C81.8246 69.6837 80.887 68.4615 80.887 66.6574C80.887 63.0962 84.0689 62.4498 87.0866 62.4498V63.3549ZM91.288 73.5388C91.0127 73.7855 90.6142 73.8032 90.3036 73.6387C88.9207 72.4868 88.6687 71.9521 87.9129 70.8532C85.6275 73.1921 84.0045 73.8914 81.0452 73.8914C77.5352 73.8914 74.8105 71.7229 74.8105 67.3803C74.8105 63.9895 76.6387 61.6801 79.2521 60.5517C81.5141 59.5527 84.6724 59.3764 87.0867 59.1002V58.5597C87.0867 57.5665 87.1628 56.3912 86.5768 55.5333C86.073 54.7635 85.1001 54.4461 84.2388 54.4461C82.6508 54.4461 81.2386 55.2628 80.893 56.9553C80.8225 57.3315 80.5471 57.7016 80.1663 57.7193L76.1289 57.2845C75.7891 57.2081 75.4082 56.9319 75.5078 56.4089C76.4337 51.4962 80.8636 50.0153 84.8249 50.0153C86.8524 50.0153 89.5009 50.5559 91.1007 52.0956C93.128 53.9937 92.9347 56.5263 92.9347 59.2825V65.7935C92.9347 67.7505 93.7435 68.6083 94.5051 69.6661C94.769 70.0423 94.8274 70.4948 94.4876 70.7768C93.6379 71.4878 92.1261 72.81 91.294 73.5505L91.2882 73.5388H91.288ZM32.4682 63.3549C32.4682 64.9826 32.5092 66.3401 31.6887 67.7856C31.0267 68.961 29.9778 69.6837 28.8058 69.6837C27.2062 69.6837 26.2744 68.4615 26.2744 66.6574C26.2744 63.0962 29.4563 62.4498 32.4682 62.4498V63.3549ZM36.6695 73.5388C36.3942 73.7855 35.9958 73.8032 35.6852 73.6387C34.3023 72.4868 34.0561 71.9521 33.2944 70.8532C31.0091 73.1921 29.3919 73.8914 26.4268 73.8914C22.9227 73.8914 20.192 71.7229 20.192 67.3803C20.192 63.9895 22.0262 61.6801 24.6337 60.5517C26.8956 59.5527 30.054 59.3764 32.4682 59.1002V58.5597C32.4682 57.5665 32.5444 56.3912 31.9642 55.5333C31.4544 54.7635 30.4818 54.4461 29.6262 54.4461C28.0382 54.4461 26.6202 55.2628 26.2744 56.9553C26.2041 57.3315 25.9287 57.7016 25.5536 57.7193L21.5105 57.2845C21.1706 57.2081 20.7957 56.9319 20.8894 56.4089C21.821 51.4962 26.2452 50.0153 30.2064 50.0153C32.2337 50.0153 34.8824 50.5559 36.4821 52.0956C38.5094 53.9937 38.3161 56.5263 38.3161 59.2825V65.7935C38.3161 67.7505 39.1248 68.6083 39.8865 69.6661C40.1562 70.0423 40.2147 70.4948 39.8748 70.7768C39.0251 71.4878 37.5134 72.81 36.6814 73.5505L36.6696 73.5388" fill="black"/>
</svg>
