<svg width="175" height="117" viewBox="0 0 175 117" fill="none" xmlns="http://www.w3.org/2000/svg">
<path d="M28.7206 71.1615H23.6482V58.4804H20.1927V54.3517H23.6481V51.4139C23.6481 47.9325 25.1763 45.4357 30.2351 45.4357C31.305 45.4357 32.9847 45.6519 32.9847 45.6519V49.4857H31.2204C29.4228 49.4857 28.7209 50.034 28.7209 51.5501V54.3517H32.9174L32.5437 58.4804H28.7208L28.7206 71.1615ZM40.3595 54.0218C40.2856 54.0218 40.2095 54.0245 40.1343 54.0264C35.4308 54.0264 33.2788 57.5744 33.2788 62.611C33.2788 68.9557 36.0702 71.4951 40.171 71.4951C42.5172 71.4951 44.0587 70.5047 44.9956 68.6566V71.1633H49.8202V54.3535H44.9956V56.9386C44.2306 55.2754 42.6461 54.0415 40.3595 54.0218ZM41.5862 57.9939C43.5617 57.9939 44.7474 59.3758 44.7474 61.7262L44.752 64.1269C44.752 65.7112 43.7727 67.5646 41.5862 67.5646C38.2249 67.5646 38.3147 63.9247 38.3147 62.7124C38.3147 58.6345 40.1056 57.9939 41.5862 57.9939ZM51.7687 62.7593C51.7687 60.7166 51.6712 54.0327 60.3544 54.0327C63.84 54.0327 65.2955 55.1442 65.2955 55.1442L64.1257 58.7828C64.1257 58.7828 62.6721 57.9801 60.7781 57.9801C58.3522 57.9801 56.8042 59.3905 56.8042 61.8719L56.8069 63.6512C56.8069 66.0356 58.3005 67.6272 60.7831 67.6272C62.5086 67.6272 64.0989 66.8169 64.0989 66.8169L65.2658 70.3796C65.2658 70.3796 63.9349 71.4981 60.3788 71.4981C52.111 71.4981 51.7688 65.5014 51.7688 62.7593H51.7687ZM93.584 54.0264C98.2876 54.0264 100.473 57.5744 100.473 62.611C100.473 68.9557 97.6819 71.4951 93.5812 71.4951C91.2349 71.4951 89.5006 70.5049 88.5636 68.6566V71.1633L83.7997 71.1614V45.9468L88.8578 45.5044V56.7109C89.5878 54.7503 91.9869 54.0264 93.5841 54.0264H93.584ZM92.1659 57.9939C90.1905 57.9939 88.8578 59.3758 88.8578 61.7262L88.8531 64.1269C88.8501 65.7112 89.776 67.5646 92.1659 67.5646C95.5273 67.5646 95.4375 63.9247 95.4375 62.7124C95.4375 58.6345 93.6467 57.9939 92.1659 57.9939ZM74.0716 54.0403C68.7368 54.0403 65.9204 56.9572 65.9204 62.141V63.104C65.9204 69.832 69.8755 71.5642 74.5908 71.5642C79.1741 71.5642 81.2486 70.2786 81.2486 70.2786L80.3022 66.855C80.3022 66.855 77.8619 67.8963 75.1973 67.8963C72.435 67.8963 71.247 67.1902 70.9425 64.528H81.653V61.7815C81.653 56.1584 78.4921 54.0402 74.0715 54.0402L74.0716 54.0403ZM74.2002 57.4685C76.0468 57.4685 77.2434 58.6041 77.1777 61.2378H70.9518C71.0597 58.4659 72.3502 57.4686 74.2002 57.4686V57.4685ZM110.559 54.0172C105.081 54.0172 102.196 57.1133 102.196 62.6616C102.196 70.2743 107.168 71.4997 110.568 71.4997C115.546 71.4997 118.857 68.8122 118.857 62.7308C118.857 56.401 115.134 54.0172 110.559 54.0172ZM110.49 58.0077C112.899 58.0077 113.854 59.8157 113.854 61.8738V63.6432C113.854 66.1364 112.518 67.5785 110.481 67.5785C108.576 67.5785 107.237 66.2296 107.237 63.6432V61.8738C107.237 59.1155 108.83 58.0077 110.49 58.0077ZM128.934 54.0172C123.455 54.0172 120.571 57.1133 120.571 62.6616C120.571 70.2743 125.543 71.4997 128.943 71.4997C133.92 71.4997 137.232 68.8122 137.232 62.7308C137.232 56.401 133.508 54.0172 128.934 54.0172ZM128.865 58.0077C131.274 58.0077 132.228 59.8157 132.228 61.8738V63.6432C132.228 66.1364 130.893 67.5785 128.856 67.5785C126.951 67.5785 125.612 66.2296 125.612 63.6432V61.8738C125.612 59.1155 127.205 58.0077 128.865 58.0077ZM139.143 71.1615V45.9468L144.216 45.5045V62.405L149.249 54.3519H154.606L149.356 62.6926L154.808 71.1615H149.436L144.216 62.9381V71.1615H139.143Z" fill="#1877F2"/>
</svg>
