<svg width="175" height="117" viewBox="0 0 175 117" fill="none" xmlns="http://www.w3.org/2000/svg">
<path d="M77.7996 59.6666C77.7996 66.0601 72.8122 70.7714 66.6915 70.7714C60.5707 70.7714 55.5833 66.0601 55.5833 59.6666C55.5833 53.228 60.5707 48.5618 66.6915 48.5618C72.8122 48.5618 77.7996 53.228 77.7996 59.6666ZM72.937 59.6666C72.937 55.6712 70.0464 52.9376 66.6915 52.9376C63.3365 52.9376 60.4459 55.6712 60.4459 59.6666C60.4459 63.6219 63.3365 66.3956 66.6915 66.3956C70.0464 66.3956 72.937 63.6168 72.937 59.6666Z" fill="#EA4335"/>
<path d="M101.764 59.6666C101.764 66.0601 96.7765 70.7714 90.6558 70.7714C84.5351 70.7714 79.5477 66.0601 79.5477 59.6666C79.5477 53.233 84.5351 48.5618 90.6558 48.5618C96.7765 48.5618 101.764 53.228 101.764 59.6666ZM96.9013 59.6666C96.9013 55.6712 94.0107 52.9376 90.6558 52.9376C87.3009 52.9376 84.4103 55.6712 84.4103 59.6666C84.4103 63.6219 87.3009 66.3956 90.6558 66.3956C94.0107 66.3956 96.9013 63.6168 96.9013 59.6666Z" fill="#FBBC05"/>
<path d="M124.729 49.2327V69.1692C124.729 77.3702 119.906 80.7196 114.204 80.7196C108.838 80.7196 105.608 77.1198 104.389 74.1759L108.623 72.4086C109.377 74.216 111.224 76.3488 114.2 76.3488C117.849 76.3488 120.111 74.0908 120.111 69.8401V68.243H119.941C118.852 69.5898 116.756 70.7664 114.11 70.7664C108.573 70.7664 103.501 65.9299 103.501 59.7066C103.501 53.4383 108.573 48.5618 114.11 48.5618C116.751 48.5618 118.847 49.7383 119.941 51.0451H120.111V49.2377H124.729V49.2327ZM120.455 59.7066C120.455 55.7964 117.854 52.9376 114.544 52.9376C111.189 52.9376 108.378 55.7964 108.378 59.7066C108.378 63.5768 111.189 66.3955 114.544 66.3955C117.854 66.3955 120.455 63.5768 120.455 59.7066Z" fill="#4285F4"/>
<path d="M132.342 37.5471V70.0905H127.599V37.5471H132.342Z" fill="#34A853"/>
<path d="M150.824 63.3213L154.598 65.8447C153.38 67.6521 150.444 70.7663 145.372 70.7663C139.081 70.7663 134.384 65.8898 134.384 59.6615C134.384 53.0576 139.121 48.5566 144.828 48.5566C150.574 48.5566 153.385 53.1428 154.303 55.6211L154.808 56.8827L140.005 63.0309C141.138 65.2589 142.901 66.3954 145.372 66.3954C147.848 66.3954 149.565 65.1738 150.824 63.3213ZM139.206 59.326L149.101 55.2055C148.557 53.8187 146.919 52.8524 144.992 52.8524C142.521 52.8524 139.081 55.0403 139.206 59.326Z" fill="#EA4335"/>
<path d="M37.6309 56.7777V52.0664H53.4618C53.6166 52.8875 53.6964 53.8588 53.6964 54.9102C53.6964 58.4449 52.7329 62.8158 49.6276 65.9299C46.6072 69.0841 42.7481 70.7664 37.6359 70.7664C28.1603 70.7664 20.1924 63.0261 20.1924 53.5234C20.1924 44.0207 28.1603 36.2804 37.6359 36.2804C42.8779 36.2804 46.6122 38.3431 49.4179 41.0317L46.103 44.3562C44.091 42.4636 41.3652 40.9917 37.6309 40.9917C30.7114 40.9917 25.2996 46.5841 25.2996 53.5234C25.2996 60.4626 30.7114 66.0551 37.6309 66.0551C42.119 66.0551 44.6752 64.2477 46.3127 62.6055C47.6406 61.2737 48.5143 59.3712 48.8588 56.7727L37.6309 56.7777Z" fill="#4285F4"/>
</svg>
