<svg width="175" height="117" viewBox="0 0 175 117" fill="none" xmlns="http://www.w3.org/2000/svg">
<path d="M34.5053 43.1477C30.8248 43.1477 27.8649 46.1236 27.8392 49.824V57.2248C27.1443 57.2766 26.4493 57.3024 25.7287 57.3024C25.008 57.3024 24.3131 57.3283 23.6182 57.3801V49.824C23.5667 46.1753 20.6068 43.2253 16.9521 43.2253C13.2973 43.2253 10.3375 46.1494 10.286 49.824V67.5239C10.3375 71.1725 13.2973 74.1225 16.9521 74.1225C20.6068 74.1225 23.5667 71.1984 23.6182 67.5239V60.123C24.3131 60.0713 25.008 60.0454 25.7287 60.0454C26.4493 60.0454 27.1443 60.0195 27.8392 59.9678V67.5239C27.8906 71.1725 30.8505 74.1225 34.5053 74.1225C38.16 74.1225 41.1199 71.1984 41.1714 67.5239V49.824C41.1456 46.1494 38.16 43.1477 34.5053 43.1477ZM16.9521 45.8907C19.1141 45.8907 20.89 47.6503 20.89 49.824V57.6647C18.9339 57.9494 17.0293 58.4928 15.2276 59.2691C14.4555 59.6055 13.7091 60.0454 13.0399 60.5888V49.824C13.0142 47.6503 14.7901 45.8907 16.9521 45.8907ZM20.8642 67.5239C20.8642 69.6975 19.1141 71.483 16.9263 71.483C14.7386 71.483 12.9885 69.7234 12.9885 67.5239V65.7383C12.9885 64.1599 14.2239 62.6849 16.2829 61.7533C17.75 61.1322 19.2685 60.6665 20.8385 60.4077L20.8642 67.5239ZM34.5053 71.4572C32.3433 71.4572 30.5674 69.6975 30.5674 67.5239V59.6831C32.5235 59.3985 34.4281 58.8551 36.2297 58.0787C37.0018 57.7423 37.7482 57.3024 38.4174 56.759V67.5239C38.4174 69.6975 36.6672 71.4572 34.5053 71.4572ZM35.123 55.5687C33.6559 56.1897 32.1374 56.6555 30.5674 56.9143V49.824C30.5674 47.6503 32.3176 45.8648 34.5053 45.8648C36.693 45.8648 38.4432 47.6244 38.4432 49.824V51.6095C38.4174 53.1621 37.182 54.663 35.123 55.5687Z" fill="url(#paint0_linear_103_1322)"/>
<path d="M128.348 54.43C125.413 54.43 122.737 56.2155 121.63 58.9585C120.498 61.7014 121.115 64.8325 123.2 66.9286C125.285 69.0246 128.425 69.6457 131.127 68.5071C133.83 67.3685 135.631 64.7032 135.631 61.7532C135.631 57.7164 132.363 54.43 128.348 54.43ZM128.348 66.6957C126.366 66.6957 124.564 65.5053 123.792 63.6422C123.02 61.8049 123.457 59.6571 124.847 58.2598C126.263 56.8365 128.373 56.4225 130.201 57.1729C132.028 57.9493 133.238 59.7348 133.238 61.7532C133.264 64.4961 131.05 66.6957 128.348 66.6957ZM84.0528 54.4817C83.744 54.4817 83.4351 54.6111 83.2292 54.8181C82.9976 55.051 82.8946 55.3357 82.8946 55.6462V56.3449C79.9862 53.6537 75.4821 53.7831 72.7539 56.6295C70 59.476 70 64.0045 72.7539 66.851C75.5079 69.6974 80.012 69.8268 82.8946 67.1356V67.8343C82.8946 68.4812 83.4351 69.0246 84.0786 69.0246C84.722 69.0246 85.2625 68.4812 85.2625 67.8343V55.6721C85.2625 55.3616 85.1338 55.051 84.9279 54.844C84.6705 54.6111 84.3874 54.4817 84.0528 54.4817ZM77.953 66.6957C75.9711 66.6957 74.1695 65.4795 73.3974 63.6422C72.6252 61.8049 73.0628 59.6571 74.4526 58.2598C75.8682 56.8365 77.9787 56.4225 79.8061 57.1988C81.6335 57.9751 82.8431 59.7606 82.8431 61.7791C82.8431 63.0988 82.3284 64.3409 81.4018 65.2725C80.4753 66.204 79.2656 66.6957 77.953 66.6957ZM96.5614 55.6203C96.5614 56.2672 96.0209 56.8107 95.3774 56.8107C95.3517 56.8107 95.326 56.8107 95.3002 56.8107C95.2745 56.8107 95.2488 56.8107 95.223 56.8107C93.9104 56.8107 92.675 57.3282 91.7484 58.2598C90.8219 59.1914 90.3071 60.4334 90.3071 61.7532C90.2556 61.9861 90.2814 65.7641 90.2814 67.9895C90.2299 68.3001 90.0755 68.5847 89.8181 68.7659C89.5607 68.947 89.2519 69.0246 88.943 68.9987C88.351 68.8952 87.9392 68.3777 87.9392 67.7566V55.6462C87.9392 55.3098 88.0679 54.9993 88.2996 54.7923C88.5312 54.5594 88.84 54.4559 89.1746 54.4559C89.8181 54.5076 90.3071 55.051 90.2814 55.698V56.319C91.6197 55.0769 93.3699 54.3782 95.1973 54.3782H95.3517C95.6606 54.3782 95.9694 54.5076 96.1753 54.7146C96.4584 54.9993 96.5614 55.3098 96.5614 55.6203ZM149.839 60.5628V67.8343C149.839 68.4812 149.298 69.0246 148.655 69.0246C148.011 69.0246 147.471 68.4812 147.471 67.8343V66.6439V60.5628C147.471 59.5278 147.033 58.5444 146.287 57.8457C145.54 57.1471 144.537 56.7848 143.507 56.8624C141.551 56.9918 140.084 58.7256 140.084 60.6922V62.1413V66.6439V67.8343C140.084 68.4812 139.544 69.0246 138.9 69.0246C138.257 69.0246 137.716 68.4812 137.716 67.8343V55.6721C137.716 55.0252 138.257 54.4817 138.9 54.4817C139.544 54.4817 140.084 55.0252 140.084 55.6721V55.7756C141.062 54.9993 142.246 54.5335 143.481 54.4817C145.129 54.4041 146.75 54.9993 147.96 56.1379C149.169 57.2765 149.839 58.9067 149.839 60.5628ZM68.2498 49.5133V67.8602C68.2241 68.4812 67.7093 68.9987 67.0916 68.9987C66.4739 68.9987 65.9591 68.5071 65.9334 67.8602V59.5536H53.7852V67.886C53.7594 68.5071 53.2447 69.0246 52.627 69.0246C52.0092 69.0246 51.4945 68.533 51.4688 67.886V49.5133C51.4945 48.8923 52.0092 48.3748 52.627 48.3748C53.2447 48.3748 53.7594 48.8664 53.7852 49.5133V57.5093H65.9334V49.5133C65.9591 48.8923 66.4739 48.3748 67.0916 48.3748C67.7093 48.3748 68.2241 48.8664 68.2498 49.5133ZM118.928 61.1321V67.8343C118.928 68.4812 118.387 69.0246 117.744 69.0246C117.1 69.0246 116.56 68.4812 116.56 67.8343V61.7273V60.1229C116.585 58.9326 115.968 57.794 114.938 57.1988C113.909 56.5778 112.622 56.5778 111.592 57.1988C110.563 57.8199 109.945 58.9326 109.971 60.1229V67.8343C109.971 68.4812 109.43 69.0246 108.787 69.0246C108.143 69.0246 107.603 68.4812 107.603 67.8343V61.7273V60.1229C107.629 58.9326 107.011 57.794 105.981 57.1988C104.952 56.5778 103.665 56.5778 102.636 57.1988C101.606 57.8199 100.988 58.9326 101.014 60.1229V67.8343C101.014 68.4812 100.474 69.0246 99.8301 69.0246C99.1866 69.0246 98.6461 68.4812 98.6461 67.8343V55.698C98.6461 55.0769 99.1094 54.5335 99.7271 54.5076C100.345 54.4559 100.911 54.9216 100.988 55.5427C103.459 53.7313 106.908 54.2488 108.761 56.6813C110.228 54.7405 112.776 53.9901 115.067 54.7664C117.358 55.5427 118.902 57.7164 118.902 60.1488L118.928 61.1321ZM164.535 56.2155L156.582 73.5272C156.273 74.0706 155.604 74.2777 155.038 74.0189C154.471 73.7601 154.214 73.1132 154.42 72.518L156.556 67.8602L151.203 56.2155C150.971 55.8273 150.971 55.3357 151.228 54.9475C151.486 54.5594 151.923 54.3523 152.387 54.4041C152.85 54.4559 153.236 54.7664 153.365 55.2063L157.869 64.9878L162.373 55.2063C162.527 54.7664 162.913 54.4559 163.351 54.4041C163.814 54.3523 164.252 54.5594 164.509 54.9475C164.767 55.3098 164.767 55.8015 164.535 56.2155Z" fill="#555B68"/>
<defs>
<linearGradient id="paint0_linear_103_1322" x1="12.2376" y1="72.2387" x2="39.2815" y2="45.1922" gradientUnits="userSpaceOnUse">
<stop stop-color="#00AEE9"/>
<stop offset="1" stop-color="#69FABD"/>
</linearGradient>
</defs>
</svg>
