<svg width="175" height="117" viewBox="0 0 175 117" fill="none" xmlns="http://www.w3.org/2000/svg">
<path d="M136.532 55.374C135.917 55.374 135.41 55.585 135.003 56.0054C134.597 56.4263 134.398 56.9006 134.398 57.4375C134.398 58.1187 134.695 58.8757 135.291 59.7165C134.302 60.388 133.627 60.9541 133.278 61.395C132.929 61.8369 132.763 62.3772 132.763 63.0272C132.763 63.5958 132.906 64.0876 133.187 64.5209C133.466 64.9548 133.816 65.2974 134.262 65.5372C134.707 65.7771 135.18 65.9068 135.669 65.9068C136.666 65.9068 137.619 65.3945 138.515 64.3823C139.269 65.3945 140.142 65.9068 141.134 65.9068C141.592 65.9068 141.997 65.7673 142.345 65.5064C142.693 65.2461 142.919 64.8984 143.026 64.4747H142.663C142.404 64.9399 142.036 65.183 141.558 65.1831C141.207 65.1831 140.885 65.0726 140.574 64.8597C140.264 64.6473 139.831 64.1434 139.287 63.3506C139.516 63.0418 139.771 62.5623 140.044 61.9031C140.37 61.1049 140.691 60.5592 140.998 60.2708C141.306 59.9819 141.661 59.7835 142.073 59.6703V59.3007H138.803V59.6703C139.603 59.763 139.999 60.0943 139.999 60.6866C139.999 60.9335 139.909 61.2785 139.741 61.7183C139.574 62.1587 139.35 62.5841 139.06 62.9965C138.221 61.7853 137.368 60.5841 136.502 59.3931C137.963 58.6456 138.682 57.8782 138.682 57.0833C138.682 56.5723 138.473 56.1508 138.031 55.836C137.588 55.5212 137.081 55.374 136.532 55.374H136.532ZM150.429 55.4202C149.539 55.4202 148.721 55.6269 147.977 56.0516C147.232 56.4763 146.652 57.1303 146.236 58.0072C145.82 58.8836 145.615 59.8171 145.615 60.8098C145.615 62.3216 146.061 63.5404 146.962 64.4593C147.864 65.3782 149.038 65.8298 150.459 65.8298C151.804 65.8298 152.909 65.3294 153.774 64.3361C154.003 64.6428 154.155 64.9971 154.244 65.3987H154.577V61.8723H154.244C154.185 62.4549 153.99 63.0653 153.669 63.6894C153.347 64.314 152.917 64.7523 152.367 65.0137C151.815 65.2751 151.275 65.3987 150.747 65.3987C149.76 65.3987 148.928 65.0011 148.264 64.1975C147.602 63.3934 147.28 62.2408 147.28 60.7328C147.28 59.1402 147.582 57.9078 148.188 57.0525C148.796 56.196 149.61 55.7744 150.641 55.7744C151.482 55.7744 152.241 56.0427 152.912 56.5751C153.582 57.1076 154.026 58.0436 154.244 59.3931H154.577L154.486 55.5896H154.153C154.108 56.0385 153.988 56.4797 153.774 56.8985C153.48 56.525 153.024 56.1894 152.427 55.8822C151.829 55.575 151.163 55.4202 150.429 55.4202H150.429ZM92.2988 55.451C91.4092 55.451 90.5908 55.6577 89.8464 56.0824C89.1014 56.5071 88.5215 57.1611 88.1055 58.038C87.6896 58.9144 87.4849 59.8473 87.4849 60.8406C87.4849 62.3519 87.9304 63.5707 88.8322 64.4901C89.7329 65.409 90.8919 65.8606 92.3139 65.8606C93.6576 65.8606 94.7645 65.3761 95.6292 64.3823C95.8591 64.6901 96.0262 65.0428 96.1136 65.4448H96.4466V61.9031H96.1136C96.0553 62.4862 95.8605 63.0961 95.5383 63.7202C95.2172 64.3448 94.788 64.7831 94.2365 65.0445C93.6844 65.3059 93.1439 65.4448 92.6167 65.4448C91.6301 65.4448 90.7969 65.0314 90.134 64.2283C89.4712 63.4242 89.1501 62.2721 89.15 60.7636C89.15 59.171 89.4512 57.954 90.0583 57.0987C90.6655 56.2428 91.4807 55.8052 92.5107 55.8052C93.3531 55.8052 94.1117 56.0734 94.7814 56.6059C95.4516 57.1384 95.8953 58.0744 96.1135 59.4239H96.4466L96.3558 55.6358H96.0227C95.9782 56.0847 95.8427 56.5105 95.6291 56.9293C95.3346 56.5558 94.8947 56.2197 94.297 55.913C93.701 55.6058 93.0336 55.451 92.2988 55.451L92.2988 55.451ZM20.287 55.4818C19.7302 55.4818 18.9508 55.5041 17.9558 55.5434L16.7145 55.5896V55.9284H16.8961C17.4 55.9284 17.7285 55.9781 17.8801 56.067C18.0322 56.1564 18.1238 56.3115 18.1677 56.5443C18.2117 56.7772 18.2434 57.2987 18.2434 58.0996V63.0272C18.2434 63.8685 18.2117 64.414 18.1677 64.6441C18.1237 64.8742 18.0287 65.0434 17.8649 65.1523C17.7012 65.2611 17.3972 65.3062 16.9718 65.3062H16.7145V65.645H21.271V65.3062H20.9379C20.4929 65.3062 20.1913 65.2565 20.0297 65.1369C19.8681 65.0178 19.7635 64.8282 19.7269 64.5825C19.6898 64.3367 19.6815 63.8217 19.6815 63.0272V60.9022H20.7715C21.9063 60.9022 22.6978 60.796 23.1482 60.5788C23.599 60.3611 23.9359 60.0445 24.1775 59.6241C24.4186 59.2032 24.5409 58.7104 24.5409 58.1612C24.5409 57.5285 24.3649 57.006 24.011 56.5906C23.6571 56.175 23.2023 55.8915 22.6486 55.7282C22.0949 55.5649 21.3112 55.4818 20.287 55.4818ZM10.9166 55.5896V55.9284H11.1437C11.6454 55.9284 11.9642 55.9781 12.1125 56.067C12.2613 56.1559 12.3691 56.3126 12.4152 56.5443C12.4614 56.7766 12.4758 57.2998 12.4758 58.0996V61.5181C12.4758 62.6387 12.4477 63.4496 12.3698 63.9358C12.293 64.423 12.0513 64.8406 11.6735 65.1985C11.2957 65.5563 10.8328 65.7374 10.2808 65.7374C10.0095 65.7374 9.78394 65.6872 9.59957 65.5988C9.41626 65.5104 9.32708 65.3866 9.32708 65.2293C9.32708 65.17 9.34927 65.0855 9.4028 64.9674C9.46161 64.8344 9.49358 64.7059 9.49358 64.5825C9.49358 64.3755 9.42629 64.2017 9.28169 64.0589C9.13753 63.9155 8.9518 63.8434 8.73672 63.8434C8.52634 63.8434 8.35151 63.9302 8.20687 64.0897C8.06275 64.2492 7.99493 64.4416 7.99493 64.6749C7.99493 65.0619 8.19829 65.395 8.60046 65.6758C9.00364 65.9561 9.56454 66.0916 10.3111 66.0916C10.9755 66.0916 11.5653 65.9802 12.0671 65.7528C12.5688 65.5248 12.9777 65.2047 13.2781 64.7827C13.5785 64.3601 13.7568 63.9189 13.8231 63.4738C13.8883 63.0292 13.9139 62.3845 13.9139 61.5335V58.0996C13.9139 57.2642 13.9409 56.7361 13.9896 56.5135C14.0378 56.291 14.1419 56.1324 14.2924 56.0516C14.4423 55.9691 14.7607 55.9284 15.2461 55.9284H15.4883V55.5896H10.9166ZM25.873 55.5896V55.9284H26.1455C26.6493 55.9284 26.9649 55.9781 27.1143 56.067C27.2637 56.1564 27.371 56.3115 27.4171 56.5443C27.4637 56.7772 27.4776 57.2982 27.4776 58.0996V62.4729C27.4776 63.3039 27.4607 63.8749 27.4019 64.1821C27.3436 64.4888 27.1694 64.7584 26.9023 64.9675C26.6359 65.1777 26.299 65.282 25.873 65.3062V65.645H29.4304V65.3062C28.9731 65.2766 28.6235 65.1566 28.3708 64.9366C28.1169 64.7168 27.9648 64.4589 27.9166 64.1668C27.8679 63.8746 27.8409 63.3253 27.8409 62.5191V56.6367L31.7768 65.645H32.125L36.0155 56.6367V63.0426C36.0155 63.8839 36.001 64.414 35.955 64.6441C35.9088 64.8742 35.8008 65.0428 35.637 65.1523C35.4728 65.2611 35.1802 65.3062 34.759 65.3062H34.4108V65.645H39.1642V65.3062H38.7252C38.277 65.3062 37.9748 65.256 37.8169 65.1369C37.658 65.0183 37.5528 64.8426 37.5141 64.5979C37.4749 64.3532 37.4536 63.819 37.4536 63.0272V58.0996C37.4536 57.2637 37.4773 56.7367 37.5293 56.5135C37.5796 56.291 37.681 56.133 37.8321 56.0516C37.9831 55.9702 38.314 55.9284 38.8009 55.9284H39.1642V55.5896H36.1063L32.5186 63.9204L28.8855 55.5896L25.873 55.5896ZM136.562 55.759C136.934 55.759 137.228 55.8869 137.456 56.144C137.682 56.4016 137.804 56.7277 137.804 57.1449C137.804 57.8444 137.288 58.4985 136.275 59.1005C135.652 58.2312 135.351 57.5416 135.351 57.0371C135.351 56.6717 135.462 56.3754 135.684 56.1285C135.906 55.8823 136.194 55.759 136.562 55.759V55.759ZM20.4384 55.836C21.3402 55.836 21.9896 56.0315 22.3913 56.4211C22.7928 56.8103 22.9968 57.4204 22.9968 58.2536C22.9968 58.7996 22.8822 59.2676 22.6486 59.6395C22.4144 60.0114 22.1208 60.2458 21.7706 60.3632C21.4198 60.4796 20.9626 60.548 20.393 60.548H19.6815V55.8668C19.8569 55.8468 20.1078 55.836 20.4384 55.836ZM118.321 57.7454C117.743 57.7454 117.276 57.9174 116.898 58.2844C116.521 58.6514 116.323 59.1189 116.323 59.6703C116.323 60.0319 116.422 60.3675 116.595 60.6866C116.769 61.0062 116.997 61.2731 117.307 61.4719C117.616 61.6719 118.09 61.8992 118.7 62.1649C119.383 62.4619 119.85 62.7382 120.107 62.9964C120.365 63.2584 120.486 63.579 120.486 63.9665C120.486 64.3503 120.34 64.7037 120.047 65.0137C119.753 65.3236 119.34 65.4756 118.806 65.4756C117.617 65.4756 116.868 64.6627 116.55 63.0426H116.262V65.5372H116.55C116.61 65.2133 116.698 64.9611 116.822 64.7827C117.381 65.4327 118.076 65.7528 118.912 65.7528C119.638 65.7528 120.218 65.5508 120.652 65.1369C121.087 64.7219 121.303 64.1818 121.303 63.52C121.303 63.1018 121.21 62.7309 121.031 62.4112C120.85 62.0922 120.618 61.8527 120.319 61.6721C120.022 61.4916 119.537 61.2464 118.881 60.9484C118.196 60.6342 117.736 60.3505 117.473 60.1014C117.206 59.8568 117.065 59.5624 117.065 59.2083C117.065 58.9152 117.17 58.6396 117.383 58.3922C117.596 58.1459 117.926 58.0226 118.382 58.0226C118.86 58.0226 119.291 58.1961 119.653 58.5308C120.017 58.8666 120.267 59.3171 120.41 59.9013H120.652V57.884H120.41C120.388 58.1271 120.295 58.353 120.123 58.5615C119.823 58.2275 119.529 58.0056 119.244 57.8994C118.959 57.7927 118.645 57.7454 118.321 57.7454ZM43.8267 57.7609C42.6547 57.7609 41.6887 58.116 40.9051 58.8387C40.1214 59.561 39.7243 60.5245 39.7243 61.7183C39.7243 62.9428 40.1175 63.9184 40.89 64.6595C41.6624 65.4016 42.6511 65.7836 43.857 65.7836C45.0952 65.7836 46.0945 65.4016 46.8543 64.6595C47.6136 63.9184 47.9897 62.9621 47.9897 61.7645C47.9897 60.5287 47.5864 59.554 46.7938 58.8388C46.0006 58.1241 45.0093 57.7608 43.8267 57.7608V57.7609ZM61.402 57.7609C60.2184 57.7609 59.2908 58.1755 58.6014 59.0081C57.9121 59.8403 57.5569 60.8126 57.5569 61.9185C57.5569 63.0363 57.9263 63.9622 58.6469 64.6903C59.3669 65.4184 60.2699 65.7836 61.3566 65.7836C61.8976 65.7836 62.4774 65.656 63.1126 65.414C63.5789 65.2361 63.9608 65.1522 64.248 65.1522C64.319 65.1522 64.4017 65.152 64.4902 65.1677V64.3515C64.4902 63.6832 64.5094 63.2623 64.5507 63.0888C64.5915 62.9158 64.6788 62.7782 64.8081 62.7038C64.9368 62.6294 65.1874 62.596 65.5498 62.596V62.3343H62.2648V62.5961H62.4465C62.748 62.5961 62.9543 62.6251 63.0672 62.6731C63.1801 62.72 63.2548 62.8117 63.3094 62.9502C63.364 63.0893 63.4002 63.3662 63.4002 63.7818C63.4002 64.1359 63.3346 64.4278 63.2186 64.6595C63.1036 64.8918 62.8991 65.083 62.5828 65.2446C62.266 65.4074 61.9099 65.491 61.5231 65.491C60.7676 65.491 60.1254 65.2159 59.6157 64.6441C59.1055 64.0733 58.8588 63.0894 58.8588 61.7183C58.8588 60.3434 59.1308 59.3936 59.6612 58.8542C60.1915 58.3152 60.8089 58.038 61.5231 58.038C62.214 58.038 62.7954 58.2696 63.2791 58.731C63.7634 59.1928 64.0642 59.819 64.1723 60.6096H64.4296V58.0226H64.1722C64.1383 58.3347 64.0551 58.6303 63.93 58.9004C63.2625 58.142 62.4203 57.7608 61.402 57.7608V57.7609ZM160.541 57.7609C159.369 57.7609 158.403 58.116 157.62 58.8387C156.836 59.561 156.439 60.5245 156.439 61.7183C156.439 62.9428 156.817 63.9184 157.589 64.6595C158.362 65.4016 159.351 65.7836 160.556 65.7836C161.796 65.7836 162.794 65.4016 163.554 64.6595C164.313 63.9184 164.704 62.9621 164.704 61.7645C164.704 60.5287 164.301 59.554 163.508 58.8388C162.715 58.1241 161.723 57.7608 160.541 57.7608L160.541 57.7609ZM111.282 57.7762L109.072 63.135C108.913 63.5204 108.807 63.7406 108.784 63.7972C108.549 64.4035 108.359 64.7948 108.194 64.9829C108.028 65.1715 107.775 65.2991 107.437 65.3524V65.6142H109.723V65.3524C109.476 65.3524 109.273 65.2879 109.117 65.1677C108.963 65.048 108.89 64.8764 108.89 64.6441C108.89 64.4269 109.038 63.9701 109.329 63.2582L109.526 62.7654H112.402L112.993 64.1976C113.165 64.6125 113.25 64.8531 113.25 64.9367C113.25 65.1 113.181 65.2205 113.053 65.2754C112.924 65.3304 112.676 65.3524 112.311 65.3524V65.6142H115.293V65.3524C115.027 65.326 114.836 65.2573 114.703 65.1522C114.57 65.0483 114.464 64.9032 114.385 64.7211L114.037 63.9203L111.509 57.7762H111.282ZM51.8196 57.807C51.3942 57.807 50.8176 57.8209 50.0938 57.8533L49.0191 57.8994V58.1612H49.1402C49.5317 58.1612 49.794 58.2006 49.9122 58.269C50.0293 58.3375 50.1054 58.4602 50.1393 58.6386C50.1737 58.8169 50.1847 59.2088 50.1847 59.8243V63.6278C50.1847 64.274 50.1731 64.6824 50.1393 64.8597C50.1059 65.0365 50.0226 65.1616 49.8971 65.2447C49.772 65.3282 49.5417 65.3679 49.2158 65.3679H48.9736V65.6296H52.6219V65.3678H52.2586C51.9137 65.3678 51.6684 65.3203 51.5471 65.2293C51.4247 65.1387 51.3476 65.0011 51.3201 64.8135C51.292 64.6275 51.2898 64.232 51.2898 63.6278V61.9339H51.5925C51.7965 61.9339 51.9345 61.9722 52.0316 62.0417C52.1275 62.1117 52.3049 62.2913 52.5614 62.6115C52.8173 62.93 53.0647 63.2648 53.3032 63.6124C54.0454 64.7 54.608 65.3704 54.9683 65.6296H56.9969V65.3678C56.5523 65.3527 56.1727 65.2259 55.8464 64.9829C55.521 64.7387 55.0723 64.2255 54.499 63.443C53.7954 62.4761 53.2718 61.9192 52.955 61.7645C53.6586 61.6772 54.1972 61.4603 54.5596 61.1024C54.9231 60.7445 55.1046 60.3001 55.1046 59.7935C55.1046 59.3596 54.9605 58.9968 54.6807 58.6847C54.401 58.3716 54.0432 58.1447 53.5908 58.0072C53.1372 57.8703 52.5428 57.807 51.8196 57.807H51.8196ZM69.9399 57.807L67.7146 63.1504C67.5551 63.5352 67.467 63.756 67.4421 63.8126C67.209 64.4189 67.0024 64.8256 66.8365 65.0137C66.6707 65.2023 66.4328 65.3145 66.0948 65.3679V65.6296H68.3807V65.3678C68.1332 65.3678 67.9298 65.3186 67.7751 65.1985C67.6199 65.0782 67.5481 64.8918 67.5481 64.6595C67.5481 64.4423 67.6951 63.9856 67.9871 63.2736L68.1839 62.7809H71.0601L71.6353 64.2129C71.807 64.6279 71.9078 64.8839 71.9078 64.9675C71.9078 65.1308 71.8403 65.2359 71.711 65.2908C71.5823 65.3458 71.3348 65.3679 70.9693 65.3679V65.6296H73.9515V65.3678C73.686 65.3409 73.4935 65.2881 73.3611 65.183C73.2286 65.0791 73.121 64.934 73.0431 64.7519L72.695 63.9358L70.1669 57.807H69.9399ZM98.2178 57.8841V58.1458H98.3691C98.757 58.1458 98.9959 58.1857 99.1109 58.2536C99.2253 58.3221 99.3035 58.4442 99.338 58.6232C99.374 58.8016 99.3985 59.1939 99.3985 59.8089V63.597C99.3985 64.2437 99.374 64.667 99.338 64.8443C99.3035 65.0211 99.2213 65.1463 99.0958 65.2293C98.9697 65.3128 98.742 65.3524 98.4145 65.3524H98.2178V65.6142H101.669V65.3524H101.472C101.128 65.3524 100.884 65.3049 100.761 65.2138C100.638 65.1222 100.564 64.9862 100.534 64.7981C100.504 64.6095 100.488 64.2071 100.488 63.597V61.7337H104.455V63.597C104.455 64.2448 104.443 64.6516 104.409 64.8289C104.376 65.0062 104.29 65.1452 104.167 65.2293C104.043 65.3128 103.82 65.3524 103.501 65.3524H103.244V65.6142H106.68V65.3524H106.513C106.174 65.3524 105.941 65.3049 105.817 65.2138C105.694 65.1228 105.618 64.9862 105.59 64.7981C105.561 64.61 105.545 64.2054 105.545 63.597V59.8089C105.545 59.1675 105.566 58.7632 105.605 58.5923C105.645 58.4215 105.717 58.3001 105.832 58.2382C105.948 58.1751 106.201 58.1458 106.574 58.1458H106.68V57.884H103.244V58.1458H103.44C103.822 58.1458 104.069 58.1857 104.182 58.2536C104.296 58.3221 104.376 58.4442 104.409 58.6232C104.443 58.8016 104.455 59.1939 104.455 59.8089V61.3488H100.488V59.8089C100.488 59.1675 100.509 58.7632 100.549 58.5923C100.589 58.4215 100.674 58.3001 100.791 58.2382C100.908 58.1751 101.143 58.1458 101.518 58.1458H101.669V57.884L98.2178 57.8841ZM122.741 57.8841V58.1458C123.111 58.1458 123.353 58.1792 123.468 58.2536C123.583 58.3269 123.663 58.4526 123.695 58.6386C123.728 58.8245 123.741 59.2203 123.741 59.8089V63.597C123.741 64.2432 123.725 64.6556 123.695 64.8135C123.665 64.9708 123.593 65.0955 123.483 65.1985C123.374 65.3008 123.146 65.3524 122.772 65.3524H122.605V65.6142H128.872L129.039 63.212H128.781C128.647 63.7908 128.454 64.2426 128.221 64.5671C127.989 64.8926 127.751 65.1041 127.495 65.1985C127.237 65.2928 126.91 65.3371 126.511 65.3371H125.951C125.443 65.3371 125.128 65.2518 125.012 65.0907C124.897 64.9296 124.846 64.3889 124.846 63.4738V61.6413H125.663C125.986 61.6413 126.223 61.6741 126.359 61.7183C126.495 61.762 126.592 61.8494 126.662 61.9955C126.733 62.1426 126.768 62.4288 126.768 62.8578H127.026V60.2246H126.768C126.768 60.6036 126.739 60.8642 126.692 60.9946C126.646 61.1255 126.55 61.2225 126.405 61.2872C126.259 61.3519 126 61.3796 125.633 61.3796H124.846V58.1458H125.89C126.417 58.1458 126.788 58.1795 127.026 58.2382C127.263 58.2975 127.473 58.4287 127.646 58.654C127.818 58.8798 127.966 59.2704 128.085 59.8089H128.342L128.161 57.884L122.741 57.8841ZM74.9354 57.8994V58.1612C75.3455 58.1612 75.6039 58.1965 75.7226 58.2536C75.8413 58.3107 75.9254 58.4375 75.98 58.6386C76.0345 58.8396 76.0708 59.2309 76.0708 59.8243V63.9358C76.0708 64.403 76.0452 64.6879 76.0103 64.8135C75.9747 64.9385 75.8669 65.0588 75.6772 65.1677C75.488 65.2766 75.2195 65.3409 74.8598 65.3679V65.6296H77.6754V65.3678C77.2738 65.3678 76.9831 65.3165 76.7823 65.1985C76.5815 65.081 76.4473 64.9547 76.4038 64.8135C76.3609 64.6728 76.3432 64.3804 76.3432 63.9358V58.5615L81.7476 65.8144H81.9746V59.4085C81.9746 59.0776 82.0005 58.8546 82.0503 58.7155C82.1001 58.5771 82.2162 58.4446 82.3985 58.346C82.5818 58.2474 82.8375 58.1881 83.1554 58.1612V57.8994H80.4154V58.1612C80.7142 58.1612 80.9599 58.2046 81.1723 58.2844C81.3853 58.3641 81.5273 58.4714 81.5962 58.6078C81.6651 58.7453 81.7022 58.9898 81.7022 59.3315V63.9512L77.2061 57.8994H74.9354ZM43.8419 58.038C44.7675 58.038 45.4742 58.3673 45.9612 59.0081C46.4481 59.649 46.6878 60.5621 46.6878 61.7645C46.6878 63.0009 46.4398 63.9276 45.946 64.5517C45.4512 65.1758 44.7841 65.4911 43.9327 65.4911C42.9615 65.4911 42.2381 65.1758 41.7528 64.5517C41.2675 63.9276 41.0262 63.0084 41.0262 61.7645C41.0262 60.5395 41.2675 59.603 41.7528 58.9773C42.2381 58.3516 42.93 58.038 43.8419 58.038V58.038ZM160.556 58.038C161.482 58.038 162.189 58.3673 162.676 59.0081C163.164 59.649 163.402 60.5621 163.402 61.7645C163.402 63.0009 163.154 63.9276 162.66 64.5517C162.166 65.1758 161.498 65.4911 160.647 65.4911C159.676 65.4911 158.937 65.1758 158.452 64.5517C157.967 63.9276 157.725 63.0084 157.725 61.7645C157.725 60.5395 157.967 59.603 158.452 58.9773C158.937 58.3516 159.644 58.038 160.556 58.038V58.038ZM51.759 58.0842C52.6433 58.0842 53.221 58.2498 53.4848 58.577C53.7481 58.9042 53.8784 59.3421 53.8784 59.8859C53.8784 60.1985 53.8347 60.4578 53.7573 60.6712C53.6794 60.8841 53.574 61.0638 53.4394 61.1948C53.3048 61.3263 53.1273 61.4195 52.9095 61.4874C52.6923 61.5558 52.4326 61.5949 52.1375 61.6106C51.8424 61.6256 51.5664 61.6343 51.2898 61.6413V58.0996C51.4667 58.084 51.6224 58.0842 51.7591 58.0842H51.759ZM110.964 59.2083L112.296 62.4729H109.647L110.964 59.2083ZM69.6219 59.2237L70.9541 62.5037H68.2898L69.6219 59.2237ZM135.518 60.0399C136.291 61.0671 137.219 62.4022 138.288 64.0589C137.686 64.772 137.029 65.1369 136.32 65.1369C135.682 65.1369 135.1 64.8564 134.595 64.2899C134.089 63.724 133.838 63.1094 133.838 62.4729C133.838 62.06 133.984 61.6373 134.277 61.1948C134.568 60.7523 134.985 60.3708 135.518 60.0398V60.0399ZM166.173 64.1513C165.944 64.1513 165.745 64.2317 165.582 64.3977C165.418 64.5637 165.34 64.7665 165.34 64.9983C165.34 65.2257 165.422 65.4274 165.582 65.5988C165.742 65.7702 165.94 65.8452 166.173 65.8452C166.401 65.8452 166.597 65.7643 166.763 65.5988C166.929 65.4323 167.005 65.2354 167.005 64.9982C167.005 64.7665 166.926 64.5637 166.763 64.3977C166.599 64.2317 166.406 64.1513 166.172 64.1513H166.173Z" fill="black"/>
</svg>
