<svg width="175" height="117" viewBox="0 0 175 117" fill="none" xmlns="http://www.w3.org/2000/svg">
<g clip-path="url(#clip0_103_1328)">
<path d="M66.1823 0.893188L49.7462 17.4292V59.8692L64.0048 74.3471L98.1413 74.2761V89.0379H80.6516V79.4569H49.7462V102.664L63.8644 117H111.417L125.254 103.019V59.6563L110.925 45.6752H79.598V29.8489H96.877V40.7783H125.254V17.2163L109.45 0.893188H66.1823Z" fill="#A90533"/>
<path d="M51.6411 18.281V59.1597L64.7759 72.502C64.7759 72.502 96.5945 72.502 100.036 72.502C100.036 75.4118 100.036 88.1864 100.036 91.0962C97.0862 91.0962 81.6334 91.0962 78.6834 91.0962C78.6834 88.6122 78.6834 81.5152 78.6834 81.5152H51.6411V101.955L64.8462 115.439H110.361L123.496 102.167V60.721L110.081 47.6625C110.081 47.6625 81.0715 47.6625 77.6298 47.6625C77.6298 44.6818 77.6298 30.9846 77.6298 28.0039H98.7719V38.8623H123.496V18.281L108.676 2.88049H66.9534L51.6411 18.281Z" fill="white"/>
<path d="M67.7264 4.93872L53.538 19.2037V58.4501L65.6192 70.6569H101.933V93.0834H76.7873V83.5025H53.538V101.174L65.6192 113.594H109.589L121.6 101.387V61.6437L109.238 49.7208H75.7337V26.2297H100.669V37.0881H121.6V19.2037L107.903 4.93872H67.7264Z" fill="#A90533"/>
<path d="M94.9109 65.2631C94.9109 65.2631 94.9109 65.3344 94.8399 65.4058C94.9109 65.3344 94.9109 65.3344 94.9109 65.2631Z" fill="#B30838"/>
<path d="M88.6584 2.95203C87.8858 3.023 87.4643 3.30688 87.2536 3.59076C87.0429 3.87464 86.9726 4.15852 86.9726 4.4424C86.9726 4.65531 87.0429 4.86822 87.0429 5.08113C86.7619 5.64889 86.3405 6.5715 86.2703 6.5715H85.9191C84.6547 6.5715 84.444 7.13926 84.2333 7.63604C84.0928 7.91992 84.0226 8.2038 84.0226 8.48768C84.0226 9.26835 84.444 10.3329 84.5845 10.5458C84.5845 10.5458 84.7952 10.8297 84.8655 10.9716C82.8987 12.3201 82.969 13.5975 82.969 14.5201C82.969 14.733 83.0392 14.946 83.1797 15.2298C83.3202 15.4427 83.4607 15.6557 83.6714 15.7976C83.6011 15.8686 83.5309 15.9395 83.4607 16.0105C81.9154 17.217 80.2296 18.2815 80.1594 19.7009C80.1594 19.8429 80.3701 20.6235 80.5106 20.8365C79.457 21.3332 78.3332 22.3268 78.3332 23.5333C78.3332 23.6043 78.3332 23.6043 78.3332 23.6753C78.4737 25.1656 80.2296 25.7334 80.7916 25.8753L81.2832 26.0173L81.7047 25.8044C83.2499 24.8817 84.2333 24.6688 84.725 24.5979V24.6688C84.725 27.3657 81.0023 28.5722 80.7916 28.5722L81.0023 28.5012C76.0153 29.2109 74.1188 32.9723 73.6974 33.824C72.9247 34.6756 72.6438 35.4563 72.6438 36.024C72.6438 36.8047 73.1354 37.3015 73.1354 37.3725L73.2759 37.5144L73.4164 37.5854C75.1724 38.437 78.6141 36.4499 80.5106 35.2434L80.5808 35.1724L80.6511 35.1014C80.932 34.8175 81.2832 34.5337 81.6344 34.6046C81.9856 34.6046 82.2666 35.0305 82.2666 35.0305L82.4773 35.3143L82.7583 35.4563C83.1797 35.5982 83.3904 35.7402 83.6011 35.8111C82.8285 36.024 81.0725 36.7337 76.7177 38.8628L76.3665 39.0048L76.226 39.3596C75.7343 40.3532 73.7676 41.4887 72.5735 41.9855C70.7473 42.7662 69.6937 43.8307 69.4127 45.1082C69.3425 45.3921 69.3425 45.605 69.3425 45.8179C69.3425 46.9534 69.9747 47.7341 70.0449 47.805L70.3259 48.1599L70.7473 48.2309C71.8711 48.4438 77.2796 47.1663 80.4404 46.4566H80.5106H80.5808C81.9154 45.9598 82.3368 46.1018 82.4071 46.1727C82.4071 46.3147 82.4071 46.5276 82.4071 46.5276C82.4071 46.5276 82.4773 46.5986 82.6178 46.6695C82.4773 47.2373 81.494 48.6567 80.4404 49.7212L80.5106 49.6503L80.4404 49.9342C80.1594 50.9277 78.9653 51.4955 78.5439 51.6374H78.6141C72.5033 53.1988 72.433 55.6117 72.5033 56.3214L72.714 57.315L78.2629 56.8182L78.5439 56.6053C78.8951 56.3214 78.9653 56.3924 79.0356 56.5344L79.2463 56.7473L79.5975 56.8892C79.5975 56.8892 80.0189 56.9602 80.3701 57.1021C80.3701 57.1731 80.3701 57.1731 80.3701 57.1731C80.3701 57.6699 80.2296 58.4505 80.0892 59.1602H77.2093C77.2093 59.1602 77.0689 59.799 77.0689 60.0119C76.9284 60.1538 76.5772 60.2248 76.226 60.2248C74.8914 59.657 73.5569 61.0764 73.4164 61.2893L73.2759 61.4313L73.1354 61.6442C72.995 61.8571 72.3628 62.212 71.8009 62.4249L72.0116 62.3539C70.8878 62.6378 70.5366 63.2765 70.4663 63.7733C70.4663 63.8443 70.4663 63.9862 70.4663 64.0572C70.4663 64.6249 70.8175 65.0508 71.1687 65.4056C70.2556 65.6185 68.9211 65.9734 68.9211 67.2508V67.3218C68.9211 67.7476 69.202 68.1734 69.5532 68.3863C69.9747 68.6702 71.0985 69.3799 80.0892 65.6185C80.0892 65.6185 80.1594 65.6185 80.1594 65.5475C79.9487 65.7605 79.6677 66.0443 79.3868 66.2572L79.2463 66.3282L79.0356 66.3992C78.2629 67.3218 76.7879 67.7476 76.7879 67.7476H76.8581C73.2057 68.3154 72.0116 69.9477 71.5902 70.8703C71.239 71.7219 71.239 72.5026 71.6604 73.1413C72.0818 73.7801 72.1521 73.7801 76.226 73.0704C76.0153 73.5671 75.8045 74.4188 75.4533 75.0575C75.1724 75.2704 72.2926 77.9673 72.1521 78.0383C68.2889 80.2383 65.971 87.4773 65.69 88.2579L65.6198 88.3999V88.5418C65.6198 88.6128 65.6198 88.7547 65.6198 88.8257C65.6198 89.8193 66.1817 90.3161 66.4627 90.529C67.6567 91.3096 69.4127 90.387 70.0449 89.9612L70.3259 89.8193L70.8878 88.8967C71.4497 87.9031 73.1354 87.5482 73.7676 87.5482C75.5938 87.7611 77.4201 86.0579 77.7713 85.632L77.8415 85.5611L77.9117 85.4191C78.0522 85.1353 78.3332 85.0643 78.4034 85.0643C81.0023 85.4191 82.8988 82.5803 83.5309 81.3738C84.1631 81.2319 84.6547 81.3738 85.1464 82.3674C85.4976 83.0061 85.6381 85.0643 85.7083 86.3417V86.9805L85.5679 90.8129L85.4274 94.5033L85.4976 94.3614V94.5033L85.4274 96.4904C85.4274 98.1228 85.2869 99.4712 85.2167 100.039C84.9357 102.239 84.5143 102.452 84.3738 102.594C84.2333 102.665 83.8119 102.878 83.4607 102.949C82.8987 103.091 82.7583 103.233 82.0559 103.516C80.0189 104.368 79.457 105.929 78.8951 107.278C78.6141 107.988 78.2629 108.555 77.982 108.768C76.9284 109.478 76.9284 109.478 76.5069 109.549L75.6641 109.691C73.6974 110.117 72.714 112.104 72.6438 112.317L71.8711 113.949H105.305L105.165 112.459C105.024 110.897 104.322 109.833 100.95 108.768C99.5455 108.271 99.1943 107.917 98.7729 107.349C98.1408 106.639 97.3681 106 94.98 104.723C94.0669 104.226 93.224 102.168 92.6621 99.6131C92.3811 98.1227 92.5216 97.484 92.5216 97.484V97.4131L92.3109 92.3032V88.187C92.3109 88.187 92.3811 84.1417 92.3811 82.5094C93.5752 83.29 94.9097 83.361 95.1204 83.361L99.4051 83.5029H99.4753C100.318 83.432 102.917 84.9223 104.814 86.4127L104.884 86.4837L104.954 86.5546C106.289 87.3353 107.974 88.116 109.028 87.1934C109.73 86.6256 109.73 85.703 109.59 85.0643L109.66 85.2062C108.606 77.3995 104.111 76.1221 103.409 75.9801C103.128 75.9092 102.987 75.8382 102.917 75.7672C102.987 75.6963 102.987 75.6253 103.058 75.6253L102.987 75.6962C104.322 74.6317 104.884 73.5671 104.603 72.5736C104.252 71.0122 102.285 70.5864 101.863 70.5154H101.653H101.442C99.5455 70.7993 97.4384 69.5219 97.2276 69.3799C95.1907 67.8186 94.6288 66.6121 94.6288 65.9024C94.6288 65.6895 94.699 65.5475 94.699 65.4766V65.5475L94.8395 65.3346C94.8395 65.3346 94.8395 65.2637 94.8395 65.1927C95.4716 65.1927 97.2276 65.9734 98.7027 66.896V66.4701C100.388 67.9605 102.215 67.2508 102.917 66.6831L103.198 66.4701C103.198 66.4701 103.268 66.1863 103.338 66.1153C103.479 65.9024 104.111 65.1927 104.743 64.6959C105.656 63.9862 105.937 63.2765 105.867 62.7797C105.867 62.5668 105.867 62.4249 105.797 62.2829C105.305 60.6506 102.566 60.0829 100.178 59.8699C99.8265 59.657 98.5622 58.8764 98.5622 58.8764C96.5252 57.6699 95.3312 56.8892 94.6288 55.3988C96.0336 55.5408 97.4384 55.6827 98.211 55.7537C99.0539 56.1085 100.74 55.8247 101.161 55.6117C101.793 55.3279 102.074 54.7601 102.004 54.2633V54.1923C101.934 53.0568 100.529 51.3535 98.1408 50.289C96.0336 49.2954 94.4181 47.2373 94.2776 46.7405C94.1371 46.3147 94.1371 45.8179 94.0669 45.3921C94.0669 44.8953 94.1371 44.4695 94.1371 44.1146C95.1204 44.1856 96.174 45.3211 96.174 45.3921L96.5252 45.8179L97.0872 45.7469C97.4384 45.7469 98.1408 45.9598 98.4919 46.1727L98.9134 46.3856L99.4051 46.2437C99.967 46.0308 101.793 46.3147 102.777 46.4566C104.462 46.7405 105.094 47.0244 105.656 46.0308L105.797 45.8179L105.867 45.534C106.148 40.779 102.706 39.0048 102.566 38.9338L102.215 38.7919H102.144C101.934 38.5789 101.723 38.2241 101.512 37.8693C100.669 36.3079 99.0539 36.024 97.7896 36.095C97.3681 35.7402 96.8764 35.5982 96.3145 35.5272C96.174 35.3853 96.1038 35.3143 95.9633 35.1724C95.9633 35.0304 95.8931 34.8175 95.8228 34.6756C96.0336 34.6756 96.2443 34.7466 96.3848 34.7466C101.723 35.5272 102.425 35.5272 102.987 34.9595C103.338 34.6046 103.479 34.1788 103.479 33.682C103.479 33.5401 103.479 33.4691 103.409 33.3272C102.987 31.411 98.7027 29.4238 95.1907 28.0754C92.5918 27.0818 91.9597 26.0173 91.8192 25.8044C91.8192 25.7334 91.6787 25.5914 91.6787 25.4495C91.6787 25.2366 91.7489 25.0947 91.8192 25.0237C92.1001 24.8108 92.8025 24.8817 93.4347 25.0947L93.5752 25.1656H93.7157C95.8931 25.3076 96.9467 24.172 97.2276 23.4623L97.3681 23.1075L97.2276 22.7526C96.736 21.3332 95.6121 20.3397 94.6288 19.8429C94.7692 19.7009 95.4014 19.4171 95.3312 18.3525C95.3312 17.8557 94.7692 16.6492 93.0133 15.4427C94.2776 15.0169 93.0133 12.7459 91.5382 11.6104C91.5382 11.6104 91.1168 11.3265 91.0465 11.2555C91.9597 10.9716 92.4513 9.97805 92.5918 9.26835C92.5918 9.19738 92.5918 9.05544 92.5918 8.98447C92.5918 8.27477 92.1704 7.70701 91.6085 7.56507C90.4846 7.28119 90.1334 7.06828 90.0632 6.92634C90.3442 6.85538 90.0632 5.36501 89.8525 5.08113C89.8525 4.93919 89.993 4.58434 89.993 4.4424C89.993 3.94561 89.9227 3.66173 89.5715 3.30688C89.5013 2.95203 88.9394 2.95203 88.6584 2.95203Z" fill="white"/>
<path d="M91.397 81.4443L91.3268 87.8316V91.9478L91.5375 96.9867C91.5375 96.9867 91.3268 97.7674 91.678 99.3997C92.0994 101.6 92.9423 104.51 94.5578 105.361C99.0532 107.632 97.2972 108.271 100.739 109.477C104.321 110.684 104.11 111.536 104.181 112.458H73.8371C73.8371 112.458 74.6098 110.826 76.155 110.471C77.6301 110.116 77.2086 110.471 78.8242 109.406C80.1587 108.555 79.948 105.503 82.7576 104.297C83.8814 103.8 84.7243 103.658 85.216 103.303C85.5672 103.09 86.1993 102.664 86.5505 99.9674C86.691 99.0448 86.7612 95.8512 86.8315 94.3608L86.9719 90.4575L86.8315 90.6704L86.9719 86.838V86.1993C86.9719 86.1993 86.8315 82.9346 86.2696 81.7991C85.7076 80.5926 84.654 79.5991 82.898 80.3797C82.898 80.3797 80.9313 84.425 78.473 83.9282C78.473 83.9282 77.6301 83.9282 77.0682 84.7799C77.0682 84.7799 75.2419 86.6961 73.8371 86.3412C73.8371 86.3412 71.0276 86.4831 69.974 88.2574C69.9037 88.3993 69.5525 88.9671 69.5525 88.9671C69.5525 88.9671 66.6025 90.7413 66.8132 88.6122C66.8132 88.6122 69.2013 80.8765 72.8538 78.9603L76.3658 75.7667C76.3658 75.7667 78.3325 71.7924 77.0682 71.5795L72.5728 72.5021C72.5728 72.5021 72.7133 69.8052 77.1384 69.0955C77.1384 69.0955 78.8242 68.3858 79.8777 67.1793C79.8777 67.1793 82.4766 65.4051 81.6337 63.9857C81.6337 63.9857 80.7909 63.4889 79.5265 64.4825C79.5265 64.4825 69.974 68.4568 69.9037 67.1083C69.8335 66.3277 72.7133 66.3986 73.0645 65.547C73.0645 65.547 73.0645 63.6308 71.8704 64.4825C71.8704 64.4825 70.8168 63.7728 72.2216 63.4179C72.2216 63.4179 73.7669 62.7082 74.1181 61.9985C74.1181 61.9985 75.1717 60.934 76.0146 61.2888C76.0146 61.2888 77.911 61.2888 78.1218 60.2243H80.9313C80.9313 60.2243 81.9849 57.1016 81.2825 56.037L79.8777 55.6822C79.8777 55.6822 79.0349 54.6176 77.7706 55.6822L73.5562 56.037C73.5562 56.037 73.205 54.1208 78.8242 52.7014C78.8242 52.7014 80.9313 51.9917 81.423 50.2175C81.423 50.2175 84.935 46.669 83.6707 45.6044C83.6707 45.6044 83.5302 43.8302 80.3694 45.1076C80.3694 45.1076 72.1514 47.0238 71.0978 46.8819C71.0978 46.8819 69.2013 44.6109 73.205 42.8366C73.205 42.8366 76.5062 41.4172 77.4194 39.643C77.4194 39.643 83.7409 36.5913 84.4433 36.5913C84.4433 36.5913 86.691 35.3848 83.3897 34.1073C83.3897 34.1073 81.9849 32.1911 80.0885 34.1073C80.0885 34.1073 75.5229 37.088 74.1181 36.3783C74.1181 36.3783 73.4157 35.6686 74.8205 34.2492C74.8205 34.2492 76.3658 30.204 81.2825 29.4943C81.2825 29.4943 86.9017 27.791 85.8481 23.3908C85.8481 23.3908 84.5838 22.6102 81.2123 24.5973C81.2123 24.5973 77.4896 23.3908 81.704 21.4746L82.9683 19.7714C82.9683 19.7714 81.704 20.694 81.4933 19.7004C81.423 19.2036 81.3528 18.5649 82.6873 17.8552C84.3731 17.0035 84.0219 16.2229 85.9886 16.1519C85.9886 16.1519 86.2696 15.7261 86.0588 15.3003C84.0921 15.0874 83.179 12.6034 86.6207 11.113L86.9719 9.69363L85.4969 9.83557C85.4969 9.83557 84.2326 7.56454 86.6207 7.63551C86.6207 7.63551 87.7446 6.49999 88.0958 4.93865C88.0958 4.93865 87.4636 4.01604 88.5172 4.01604C88.5172 4.01604 89.2196 3.73216 88.8684 5.2935C88.8684 5.2935 89.2899 6.21611 89.2899 7.06775C89.2899 7.06775 88.8684 8.06133 91.397 8.70005C91.678 8.77102 91.678 10.6162 89.922 10.4033C89.922 10.4033 89.3601 11.5389 90.9756 12.8873C90.9756 12.8873 93.715 15.4422 91.2566 15.5841C91.2566 15.5841 95.0495 18.0681 93.9959 19.1326C93.5042 19.6294 92.0292 18.9197 91.8887 19.2036C91.678 19.6294 91.7482 19.7714 92.3102 20.0553C92.7316 20.2682 95.4709 20.9779 96.2436 23.1779C96.2436 23.1779 95.8221 24.3134 93.9257 24.1005C93.9257 24.1005 90.2732 22.7521 90.7649 26.0877C90.7649 26.0877 91.1863 27.791 94.8388 29.2104C94.8388 29.2104 103.759 32.6169 102.214 34.1783C101.793 34.6041 94.3471 33.2557 92.9423 33.2557L92.8018 34.3202C92.8018 34.3202 94.909 33.8234 94.909 35.7396L95.7519 36.6622C95.7519 36.6622 97.1567 36.6622 97.2972 37.3719C97.2972 37.3719 99.5448 36.8751 100.458 38.4365C100.458 38.4365 101.301 40.2107 102.003 39.9978C102.003 39.9978 104.953 41.4172 104.672 45.5335C104.462 45.8173 100.388 44.7528 99.0532 45.2496C99.0532 45.2496 97.9293 44.6109 97.0162 44.6818C97.0162 44.6818 95.0495 42.2689 93.153 43.2624C93.153 43.2624 92.6614 45.3915 93.153 47.1658C93.434 48.0884 95.3305 50.3594 97.6484 51.424C99.8258 52.4176 100.809 53.9079 100.809 54.4047C100.879 55.1144 98.9127 54.9015 98.6317 54.8305C98.3508 54.7596 92.9423 54.2628 92.9423 54.2628C92.9423 54.2628 92.9423 54.7596 93.2233 55.5402C94.2066 58.2371 96.3138 58.9468 99.7556 61.1469C99.7556 61.1469 106.92 61.6437 103.97 63.9857C103.97 63.9857 102.354 65.2631 102.144 65.9728C102.144 65.9728 100.739 67.0374 99.3341 65.8309C99.3341 65.8309 94.1364 62.4243 93.7852 64.6954C93.7852 64.6954 92.1697 66.8245 96.5948 70.231C96.5948 70.231 99.1936 71.9343 101.652 71.5795C101.652 71.5795 105.375 72.2891 102.214 74.7021C102.214 74.7021 100.458 76.2635 103.057 76.9732C103.057 76.9732 107.412 77.6829 108.465 85.2766C108.465 85.2766 109.168 87.5477 105.515 85.4186C105.515 85.4186 101.301 82.083 99.4044 82.2249L95.19 82.083C95.19 82.083 93.5042 82.012 92.5209 81.0184C92.6614 80.8765 91.4673 79.9539 91.397 81.4443Z" fill="#006F53"/>
<path d="M124.2 113.381C123.849 113.026 123.427 112.884 122.936 112.884C122.444 112.884 122.093 113.026 121.741 113.381C121.39 113.736 121.18 114.161 121.18 114.658C121.18 115.155 121.32 115.581 121.671 115.936C122.022 116.29 122.444 116.432 122.936 116.432C123.427 116.432 123.849 116.29 124.2 115.936C124.551 115.581 124.762 115.155 124.762 114.658C124.762 114.161 124.551 113.736 124.2 113.381Z" fill="#A90533"/>
<path d="M123.988 113.593C124.268 113.877 124.409 114.232 124.409 114.658C124.409 115.084 124.268 115.439 123.988 115.723C123.707 116.006 123.355 116.148 122.934 116.148C122.512 116.148 122.161 116.006 121.88 115.723C121.599 115.439 121.459 115.084 121.459 114.658C121.459 114.232 121.599 113.877 121.88 113.593C122.161 113.31 122.512 113.168 122.934 113.168C123.355 113.168 123.707 113.31 123.988 113.593Z" fill="white"/>
<path d="M123.215 114.516C123.144 114.587 123.074 114.587 122.934 114.587H122.723V114.019H122.863C123.004 114.019 123.074 114.019 123.144 114.09C123.285 114.161 123.285 114.232 123.285 114.303C123.285 114.374 123.285 114.445 123.215 114.516ZM122.723 114.942H122.863H123.004C123.074 114.942 123.144 114.942 123.215 114.942C123.285 114.942 123.355 115.013 123.355 115.084C123.355 115.155 123.355 115.226 123.355 115.297C123.355 115.439 123.355 115.509 123.355 115.58H123.847V115.51V115.439V115.368V115.155C123.847 114.942 123.777 114.8 123.706 114.729C123.636 114.658 123.566 114.658 123.425 114.587C123.566 114.587 123.706 114.516 123.777 114.445C123.847 114.374 123.917 114.232 123.917 114.09C123.917 113.877 123.847 113.735 123.636 113.593C123.566 113.522 123.425 113.522 123.215 113.522C123.215 113.522 123.074 113.522 122.793 113.522C122.582 113.522 122.372 113.522 122.231 113.522V115.51H122.723V114.942Z" fill="#A90533" stroke="white" stroke-width="0.11989"/>
</g>
<defs>
<clipPath id="clip0_103_1328">
<rect width="175" height="117" fill="white"/>
</clipPath>
</defs>
</svg>
