<svg width="182" height="36" viewBox="0 0 182 36" fill="none" xmlns="http://www.w3.org/2000/svg">
<g clip-path="url(#clip0_103_1280)">
<path d="M28.5437 0C24.206 0 20.7177 3.45865 20.6873 7.7594V16.3609C19.8683 16.4211 19.0493 16.4511 18.2 16.4511C17.3507 16.4511 16.5317 16.4812 15.7127 16.5414V7.7594C15.652 3.5188 12.1637 0.0902256 7.85633 0.0902256C3.549 0.0902256 0.0606667 3.48872 0 7.7594V28.3308C0.0606667 32.5714 3.549 36 7.85633 36C12.1637 36 15.652 32.6015 15.7127 28.3308V19.7293C16.5317 19.6692 17.3507 19.6391 18.2 19.6391C19.0493 19.6391 19.8683 19.609 20.6873 19.5489V28.3308C20.748 32.5714 24.2363 36 28.5437 36C32.851 36 36.3393 32.6015 36.4 28.3308V7.7594C36.3697 3.48872 32.851 0 28.5437 0ZM7.85633 3.18797C10.4043 3.18797 12.4973 5.23308 12.4973 7.7594V16.8722C10.192 17.203 7.94733 17.8346 5.824 18.7368C4.914 19.1278 4.03433 19.6391 3.24567 20.2707V7.7594C3.21533 5.23308 5.30833 3.18797 7.85633 3.18797ZM12.467 28.3308C12.467 30.8571 10.4043 32.9323 7.826 32.9323C5.24767 32.9323 3.185 30.8872 3.185 28.3308V26.2556C3.185 24.4211 4.641 22.7068 7.06767 21.6241C8.79667 20.9023 10.5863 20.3609 12.4367 20.0602L12.467 28.3308ZM28.5437 32.9023C25.9957 32.9023 23.9027 30.8571 23.9027 28.3308V19.218C26.208 18.8872 28.4527 18.2556 30.576 17.3534C31.486 16.9624 32.3657 16.4511 33.1543 15.8195V28.3308C33.1543 30.8571 31.0917 32.9023 28.5437 32.9023ZM29.2717 14.4361C27.5427 15.1579 25.753 15.6992 23.9027 16V7.7594C23.9027 5.23308 25.9653 3.15789 28.5437 3.15789C31.122 3.15789 33.1847 5.20301 33.1847 7.7594V9.83459C33.1543 11.6391 31.6983 13.3835 29.2717 14.4361Z" fill="url(#paint0_linear_103_1280)"/>
<path d="M139.139 13.1128C135.681 13.1128 132.526 15.188 131.222 18.3759C129.887 21.5639 130.615 25.203 133.072 27.6391C135.529 30.0752 139.23 30.797 142.415 29.4737C145.6 28.1504 147.723 25.0526 147.723 21.6241C147.723 16.9323 143.871 13.1128 139.139 13.1128ZM139.139 27.3684C136.803 27.3684 134.68 25.985 133.77 23.8196C132.86 21.6842 133.376 19.188 135.014 17.5639C136.682 15.9098 139.169 15.4286 141.323 16.3008C143.477 17.203 144.902 19.2782 144.902 21.6241C144.933 24.812 142.324 27.3684 139.139 27.3684ZM86.9354 13.1729C86.5714 13.1729 86.2074 13.3233 85.9647 13.5639C85.6917 13.8346 85.5704 14.1654 85.5704 14.5263V15.3384C82.1427 12.2105 76.8344 12.3609 73.619 15.6692C70.3734 18.9775 70.3734 24.2406 73.619 27.5489C76.8647 30.8572 82.173 31.0075 85.5704 27.8797V28.6917C85.5704 29.4436 86.2074 30.0752 86.9657 30.0752C87.724 30.0752 88.361 29.4436 88.361 28.6917V14.5564C88.361 14.1955 88.2094 13.8346 87.9667 13.594C87.6634 13.3233 87.3297 13.1729 86.9354 13.1729ZM79.7464 27.3684C77.4107 27.3684 75.2874 25.9549 74.3774 23.8196C73.4674 21.6842 73.983 19.188 75.621 17.5639C77.2894 15.9098 79.7767 15.4286 81.9304 16.3308C84.084 17.2331 85.5097 19.3083 85.5097 21.6541C85.5097 23.188 84.903 24.6316 83.811 25.7143C82.719 26.797 81.2934 27.3684 79.7464 27.3684ZM101.677 14.4962C101.677 15.2481 101.04 15.8797 100.282 15.8797C100.252 15.8797 100.221 15.8797 100.191 15.8797C100.161 15.8797 100.13 15.8797 100.1 15.8797C98.553 15.8797 97.097 16.4812 96.005 17.5639C94.913 18.6466 94.3064 20.0902 94.3064 21.6241C94.2457 21.8947 94.276 26.2857 94.276 28.8722C94.2153 29.2331 94.0334 29.5639 93.73 29.7744C93.4267 29.985 93.0627 30.0752 92.6987 30.0451C92.001 29.9248 91.5157 29.3233 91.5157 28.6015V14.5263C91.5157 14.1353 91.6674 13.7744 91.9404 13.5338C92.2134 13.2632 92.5774 13.1429 92.9717 13.1429C93.73 13.203 94.3064 13.8346 94.276 14.5865V15.3083C95.8533 13.8647 97.916 13.0526 100.07 13.0526H100.252C100.616 13.0526 100.98 13.203 101.222 13.4436C101.556 13.7744 101.677 14.1353 101.677 14.4962ZM164.467 20.2406V28.6917C164.467 29.4436 163.83 30.0752 163.072 30.0752C162.314 30.0752 161.677 29.4436 161.677 28.6917V27.3083V20.2406C161.677 19.0376 161.161 17.8947 160.281 17.0827C159.402 16.2707 158.219 15.8496 157.005 15.9399C154.7 16.0902 152.971 18.1053 152.971 20.391V22.0752V27.3083V28.6917C152.971 29.4436 152.334 30.0752 151.576 30.0752C150.817 30.0752 150.18 29.4436 150.18 28.6917V14.5564C150.18 13.8045 150.817 13.1729 151.576 13.1729C152.334 13.1729 152.971 13.8045 152.971 14.5564V14.6767C154.124 13.7744 155.519 13.2331 156.975 13.1729C158.916 13.0827 160.827 13.7744 162.253 15.0978C163.679 16.4211 164.467 18.3158 164.467 20.2406ZM68.3107 7.3985V28.7218C68.2804 29.4436 67.6737 30.0451 66.9457 30.0451C66.2177 30.0451 65.611 29.4737 65.5807 28.7218V19.0677H51.2634V28.7519C51.233 29.4737 50.6264 30.0752 49.8984 30.0752C49.1704 30.0752 48.5637 29.5038 48.5334 28.7519V7.3985C48.5637 6.6767 49.1704 6.0752 49.8984 6.0752C50.6264 6.0752 51.233 6.64662 51.2634 7.3985V16.6917H65.5807V7.3985C65.611 6.6767 66.2177 6.0752 66.9457 6.0752C67.6737 6.0752 68.2804 6.64662 68.3107 7.3985ZM128.037 20.9023V28.6917C128.037 29.4436 127.4 30.0752 126.642 30.0752C125.883 30.0752 125.246 29.4436 125.246 28.6917V21.594V19.7293C125.277 18.3459 124.549 17.0226 123.335 16.3308C122.122 15.609 120.605 15.609 119.392 16.3308C118.179 17.0526 117.451 18.3459 117.481 19.7293V28.6917C117.481 29.4436 116.844 30.0752 116.086 30.0752C115.327 30.0752 114.69 29.4436 114.69 28.6917V21.594V19.7293C114.721 18.3459 113.993 17.0226 112.779 16.3308C111.566 15.609 110.049 15.609 108.836 16.3308C107.623 17.0526 106.895 18.3459 106.925 19.7293V28.6917C106.925 29.4436 106.288 30.0752 105.53 30.0752C104.771 30.0752 104.134 29.4436 104.134 28.6917V14.5865C104.134 13.8647 104.68 13.2331 105.408 13.203C106.136 13.1429 106.804 13.6842 106.895 14.406C109.807 12.3008 113.871 12.9023 116.055 15.7293C117.784 13.4737 120.787 12.6015 123.487 13.5038C126.187 14.406 128.007 16.9323 128.007 19.7594L128.037 20.9023ZM181.788 15.188L172.415 35.3083C172.051 35.9399 171.262 36.1805 170.595 35.8797C169.927 35.579 169.624 34.8271 169.867 34.1354L172.384 28.7218L166.075 15.188C165.802 14.7369 165.802 14.1654 166.105 13.7143C166.409 13.2632 166.924 13.0226 167.47 13.0827C168.016 13.1429 168.471 13.5038 168.623 14.015L173.931 25.3835L179.24 14.015C179.422 13.5038 179.877 13.1429 180.392 13.0827C180.938 13.0226 181.454 13.2632 181.757 13.7143C182.061 14.1353 182.061 14.7068 181.788 15.188Z" fill="#555B68"/>
</g>
<defs>
<linearGradient id="paint0_linear_103_1280" x1="2.30008" y1="33.8105" x2="33.7283" y2="1.93807" gradientUnits="userSpaceOnUse">
<stop stop-color="#00AEE9"/>
<stop offset="1" stop-color="#69FABD"/>
</linearGradient>
<clipPath id="clip0_103_1280">
<rect width="182" height="36" fill="white"/>
</clipPath>
</defs>
</svg>
