<svg width="202" height="24" viewBox="0 0 202 24" fill="none" xmlns="http://www.w3.org/2000/svg">
<g clip-path="url(#clip0_103_1288)">
<path d="M59.5628 9.6H44.8379V4.8H63.3749V0H44.8039C43.5141 0 42.2772 0.502201 41.3652 1.39612C40.4532 2.29005 39.9409 3.50247 39.9409 4.76667V9.63333C39.9409 10.8975 40.4532 12.11 41.3652 13.0039C42.2772 13.8978 43.5141 14.4 44.8039 14.4H59.5288V19.2H40.2912V24H59.5628C60.8525 24 62.0894 23.4978 63.0014 22.6039C63.9134 21.71 64.4257 20.4975 64.4257 19.2333V14.3667C64.4257 13.1025 63.9134 11.89 63.0014 10.9961C62.0894 10.1022 60.8525 9.6 59.5628 9.6Z" fill="#212121"/>
<path d="M88.0775 0H73.2982C72.6597 -1.53231e-07 72.0275 0.123317 71.4377 0.362906C70.8479 0.602494 70.3121 0.953657 69.8608 1.39633C69.4095 1.839 69.0516 2.3645 68.8076 2.94279C68.5635 3.52109 68.4382 4.14086 68.4386 4.76667V19.2333C68.4382 19.8591 68.5635 20.4789 68.8076 21.0572C69.0516 21.6355 69.4095 22.161 69.8608 22.6037C70.3121 23.0463 70.8479 23.3975 71.4377 23.6371C72.0275 23.8767 72.6597 24 73.2982 24H88.0775C89.3672 24 90.6042 23.4978 91.5161 22.6039C92.4281 21.71 92.9405 20.4975 92.9405 19.2333V4.76667C92.9405 3.50247 92.4281 2.29005 91.5161 1.39612C90.6042 0.502201 89.3672 0 88.0775 0V0ZM88.0435 19.2H73.3526V4.8H88.0435V19.2Z" fill="#212121"/>
<path d="M139.802 1.16724e-06H125.39C124.1 1.16724e-06 122.863 0.502202 121.951 1.39613C121.039 2.29005 120.527 3.50247 120.527 4.76667V24H125.424V16.1133H139.768V24H144.665V4.76667C144.665 4.14058 144.54 3.52054 144.295 2.94203C144.051 2.36351 143.693 1.83786 143.241 1.39515C142.79 0.952435 142.253 0.601342 141.663 0.361949C141.073 0.122557 140.44 -0.000437118 139.802 1.16724e-06ZM139.768 11.3133H125.424V4.8H139.768V11.3133Z" fill="#212121"/>
<path d="M197.137 1.04905e-05H182.728C182.089 -0.0013045 181.455 0.121019 180.864 0.359977C180.273 0.598936 179.736 0.949838 179.283 1.39259C178.831 1.83535 178.471 2.36127 178.226 2.94024C177.981 3.51921 177.855 4.13987 177.855 4.76668V24H182.752V16.1133H197.103V24H202V4.76668C202 3.50248 201.488 2.29006 200.576 1.39613C199.664 0.502211 198.427 1.04905e-05 197.137 1.04905e-05ZM197.103 11.3133H182.762V4.80001H197.103V11.3133Z" fill="#212121"/>
<path d="M168.609 19.2H166.65L159.631 2C159.391 1.40986 158.976 0.903837 158.439 0.547313C157.903 0.190789 157.27 0.000141233 156.621 0L152.262 0C151.402 0 150.578 0.334684 149.97 0.930424C149.362 1.52616 149.021 2.33416 149.021 3.17667V24H153.918V4.8H155.877L162.892 22C163.131 22.5901 163.546 23.0963 164.082 23.4529C164.618 23.8095 165.251 24.0001 165.899 24H170.258C171.118 24 171.942 23.6653 172.55 23.0696C173.158 22.4738 173.499 21.6658 173.499 20.8233V0H168.602L168.609 19.2Z" fill="#212121"/>
<path d="M102.177 0H97.2797V19.2333C97.2797 20.4975 97.792 21.71 98.704 22.6039C99.616 23.4978 100.853 24 102.143 24H116.868V19.2H102.177V0Z" fill="#212121"/>
<path fill-rule="evenodd" clip-rule="evenodd" d="M5.18268 18.3C5.26962 18.2077 5.37467 18.1336 5.49154 18.082C5.6084 18.0305 5.73469 18.0026 5.86282 18H27.2326C27.3231 18.0012 27.4112 18.0281 27.4864 18.0773C27.5616 18.1264 27.6208 18.1959 27.6567 18.2772C27.6926 18.3586 27.7038 18.4483 27.6889 18.5358C27.674 18.6232 27.6337 18.7045 27.5727 18.77L23.043 23.7C22.9561 23.7923 22.851 23.8664 22.7342 23.918C22.6173 23.9695 22.491 23.9974 22.3629 24H0.97945C0.889032 23.9988 0.800908 23.9719 0.725677 23.9227C0.650446 23.8736 0.591312 23.8041 0.555388 23.7228C0.519464 23.6415 0.50828 23.5517 0.523181 23.4642C0.538082 23.3768 0.578434 23.2955 0.639382 23.23L5.18268 18.3ZM27.5931 14.2133C27.6541 14.2788 27.6944 14.3602 27.7093 14.4476C27.7242 14.535 27.713 14.6248 27.6771 14.7061C27.6412 14.7875 27.5821 14.8569 27.5068 14.9061C27.4316 14.9553 27.3435 14.9821 27.253 14.9833L5.87642 15C5.74829 14.9974 5.62201 14.9695 5.50514 14.918C5.38827 14.8664 5.28322 14.7923 5.19628 14.7L0.632581 9.78667C0.571632 9.72119 0.531281 9.63985 0.51638 9.55242C0.501479 9.465 0.512663 9.37522 0.548587 9.29388C0.584511 9.21253 0.643645 9.1431 0.718876 9.09392C0.794107 9.04474 0.882231 9.01791 0.972648 9.01667L22.3493 9C22.4774 9.00257 22.6037 9.03046 22.7206 9.08201C22.8374 9.13356 22.9425 9.2077 23.0294 9.3L27.5931 14.2133ZM5.18268 0.3C5.26962 0.207705 5.37467 0.133561 5.49154 0.0820116C5.6084 0.0304622 5.73469 0.00256786 5.86282 0L27.2463 0.0166667C27.3367 0.0179149 27.4248 0.0447416 27.5 0.0939201C27.5753 0.143099 27.6344 0.212534 27.6703 0.293876C27.7062 0.375217 27.7174 0.464999 27.7025 0.552423C27.6876 0.639847 27.6473 0.72119 27.5863 0.786667L23.043 5.7C22.9561 5.7923 22.851 5.86644 22.7342 5.91799C22.6173 5.96954 22.491 5.99743 22.3629 6H0.97945C0.889032 5.99875 0.800908 5.97193 0.725677 5.92275C0.650446 5.87357 0.591312 5.80413 0.555388 5.72279C0.519464 5.64145 0.50828 5.55167 0.523181 5.46424C0.538082 5.37682 0.578434 5.29548 0.639382 5.23L5.18268 0.3Z" fill="url(#paint0_linear_103_1288)"/>
</g>
<defs>
<linearGradient id="paint0_linear_103_1288" x1="1.33652" y1="24.5233" x2="26.3782" y2="-1.02421" gradientUnits="userSpaceOnUse">
<stop stop-color="#9945FF"/>
<stop offset="0.14" stop-color="#8A53F4"/>
<stop offset="0.42" stop-color="#6377D6"/>
<stop offset="0.79" stop-color="#24B0A7"/>
<stop offset="0.99" stop-color="#00D18C"/>
<stop offset="1" stop-color="#00D18C"/>
</linearGradient>
<clipPath id="clip0_103_1288">
<rect width="202" height="24" fill="white"/>
</clipPath>
</defs>
</svg>
