<svg width="24" height="24" viewBox="0 0 24 24" fill="none" xmlns="http://www.w3.org/2000/svg">
<path fill-rule="evenodd" clip-rule="evenodd" d="M13.6969 12L18.8485 6.84838C19.3177 6.37918 19.3177 5.62078 18.8485 5.15158C18.3793 4.68238 17.6209 4.68238 17.1517 5.15158L12.0001 10.3032L6.8485 5.15158C6.3793 4.68238 5.6209 4.68238 5.1517 5.15158C4.6825 5.62078 4.6825 6.37918 5.1517 6.84838L10.3033 12L5.1517 17.1516C4.6825 17.6208 4.6825 18.3792 5.1517 18.8484C5.3857 19.0824 5.6929 19.2 6.0001 19.2C6.3073 19.2 6.6145 19.0824 6.8485 18.8484L12.0001 13.6968L17.1517 18.8484C17.3857 19.0824 17.6929 19.2 18.0001 19.2C18.3073 19.2 18.6145 19.0824 18.8485 18.8484C19.3177 18.3792 19.3177 17.6208 18.8485 17.1516L13.6969 12Z" fill="white"/>
</svg>
