<svg width="64" height="64" viewBox="0 0 64 64" fill="none" xmlns="http://www.w3.org/2000/svg">
<circle cx="32" cy="32" r="28.8667" stroke="#00B159" stroke-width="2"/>
<path fill-rule="evenodd" clip-rule="evenodd" d="M32.0401 11.3066C31.5853 11.3066 31.1338 11.3213 30.6861 11.3503C30.3333 11.3731 30.0659 11.6775 30.0887 12.0302C30.1115 12.3829 30.4159 12.6504 30.7686 12.6276C31.1889 12.6004 31.6129 12.5866 32.0401 12.5866C32.4674 12.5866 32.8914 12.6004 33.3117 12.6276C33.6644 12.6504 33.9688 12.3829 33.9916 12.0302C34.0144 11.6775 33.747 11.3731 33.3942 11.3503C32.9465 11.3213 32.495 11.3066 32.0401 11.3066ZM36.078 11.7005C35.7313 11.6319 35.3946 11.8574 35.326 12.2041C35.2574 12.5509 35.4828 12.8876 35.8296 12.9562C36.668 13.122 37.487 13.3419 38.2828 13.612C38.6175 13.7256 38.9809 13.5463 39.0945 13.2116C39.2081 12.8769 39.0288 12.5135 38.6941 12.3999C37.8454 12.1118 36.972 11.8774 36.078 11.7005ZM28.2507 12.9562C28.5974 12.8876 28.8229 12.5509 28.7543 12.2041C28.6857 11.8574 28.349 11.6319 28.0023 11.7005C27.1083 11.8774 26.2349 12.1118 25.3862 12.3999C25.0515 12.5135 24.8722 12.8769 24.9858 13.2116C25.0994 13.5463 25.4628 13.7256 25.7975 13.612C26.5933 13.3419 27.4123 13.122 28.2507 12.9562ZM23.4524 14.5844C23.7693 14.4279 23.8992 14.044 23.7426 13.7272C23.5861 13.4103 23.2023 13.2803 22.8854 13.4369C22.0726 13.8384 21.2901 14.2917 20.5422 14.7925C20.2484 14.9891 20.1697 15.3866 20.3664 15.6804C20.563 15.9741 20.9605 16.0528 21.2542 15.8561C21.956 15.3863 22.6901 14.9611 23.4524 14.5844ZM41.1949 13.4369C40.878 13.2803 40.4942 13.4103 40.3377 13.7272C40.1811 14.044 40.311 14.4279 40.6279 14.5844C41.3902 14.9611 42.1243 15.3863 42.826 15.8561C43.1198 16.0528 43.5173 15.9741 43.7139 15.6804C43.9106 15.3866 43.8319 14.9891 43.5381 14.7925C42.7902 14.2917 42.0077 13.8384 41.1949 13.4369ZM19.2401 17.4038C19.5058 17.1707 19.5321 16.7663 19.299 16.5006C19.0658 16.235 18.6615 16.2086 18.3958 16.4418C17.7171 17.0375 17.0777 17.6769 16.482 18.3556C16.3593 18.4954 16.3084 18.6737 16.3265 18.8452C16.6349 18.9927 16.9262 19.1701 17.1967 19.3738C17.2889 19.3377 17.3741 19.2796 17.444 19.2C18.0031 18.563 18.6032 17.9629 19.2401 17.4038ZM11.7346 27.9982C12.0997 28.1908 12.491 28.3405 12.9016 28.4408C12.7624 28.65 12.5062 28.766 12.2443 28.7142C11.9096 28.6479 11.6879 28.3319 11.7346 27.9982ZM51.6403 25.346C51.5267 25.0113 51.1632 24.832 50.8285 24.9456C50.4938 25.0592 50.3146 25.4227 50.4282 25.7574C50.6982 26.5531 50.9181 27.3721 51.084 28.2105C51.1525 28.5573 51.4893 28.7828 51.836 28.7142C52.1827 28.6456 52.4082 28.3089 52.3396 27.9621C52.1628 27.0681 51.9283 26.1947 51.6403 25.346ZM52.6899 30.6459C52.6671 30.2932 52.3627 30.0257 52.0099 30.0485C51.6572 30.0713 51.3897 30.3757 51.4125 30.7284C51.4397 31.1487 51.4535 31.5727 51.4535 32C51.4535 32.4273 51.4397 32.8512 51.4125 33.2715C51.3897 33.6242 51.6572 33.9286 52.0099 33.9514C52.3627 33.9742 52.6671 33.7068 52.6899 33.354C52.7188 32.9063 52.7335 32.4548 52.7335 32C52.7335 31.5451 52.7188 31.0936 52.6899 30.6459ZM12.6678 30.7284C12.6906 30.3757 12.4231 30.0713 12.0704 30.0485C11.7176 30.0257 11.4132 30.2932 11.3904 30.6459C11.3615 31.0936 11.3468 31.5451 11.3468 32C11.3468 32.4548 11.3615 32.9063 11.3904 33.3541C11.4132 33.7068 11.7176 33.9742 12.0704 33.9514C12.4231 33.9287 12.6906 33.6242 12.6678 33.2715C12.6406 32.8512 12.6268 32.4273 12.6268 32C12.6268 31.5727 12.6406 31.1487 12.6678 30.7284ZM52.3396 36.0378C52.4082 35.6911 52.1827 35.3544 51.836 35.2858C51.4893 35.2172 51.1525 35.4427 51.084 35.7894C50.9181 36.6279 50.6982 37.4468 50.4282 38.2426C50.3146 38.5773 50.4938 38.9407 50.8285 39.0543C51.1632 39.1679 51.5267 38.9887 51.6403 38.6539C51.9283 37.8053 52.1628 36.9319 52.3396 36.0378ZM12.9963 35.7894C12.9277 35.4427 12.5911 35.2172 12.2443 35.2858C11.8976 35.3544 11.6721 35.6911 11.7407 36.0378C11.9175 36.9319 12.152 37.8053 12.44 38.6539C12.5536 38.9887 12.9171 39.1679 13.2518 39.0543C13.5865 38.9407 13.7657 38.5773 13.6521 38.2426C13.3821 37.4468 13.1622 36.6279 12.9963 35.7894ZM14.6246 40.5878C14.468 40.2709 14.0842 40.1409 13.7673 40.2975C13.4504 40.454 13.3205 40.8379 13.477 41.1548C13.8786 41.9675 14.3319 42.75 14.8327 43.498C15.0293 43.7917 15.4268 43.8704 15.7205 43.6737C16.0143 43.4771 16.0929 43.0796 15.8963 42.7859C15.4265 42.0841 15.0012 41.35 14.6246 40.5878ZM50.6033 41.1548C50.7598 40.8379 50.6299 40.454 50.313 40.2975C49.9961 40.1409 49.6123 40.2709 49.4557 40.5878C49.0791 41.35 48.6538 42.0841 48.184 42.7859C47.9874 43.0796 48.066 43.4771 48.3598 43.6737C48.6535 43.8704 49.051 43.7917 49.2476 43.498C49.7484 42.75 50.2017 41.9675 50.6033 41.1548ZM17.444 44.8C17.2108 44.5343 16.8065 44.508 16.5408 44.7411C16.2752 44.9743 16.2488 45.3787 16.482 45.6443C17.0777 46.323 17.7171 46.9624 18.3958 47.5581C18.6615 47.7913 19.0658 47.765 19.299 47.4993C19.5321 47.2336 19.5058 46.8293 19.2401 46.5961C18.6032 46.0371 18.0031 45.437 17.444 44.8ZM47.5983 45.6443C47.8315 45.3787 47.8051 44.9743 47.5395 44.7411C47.2738 44.508 46.8695 44.5343 46.6363 44.8C46.0772 45.437 45.4771 46.0371 44.8402 46.5961C44.5745 46.8293 44.5482 47.2336 44.7813 47.4993C45.0145 47.765 45.4188 47.7913 45.6845 47.5581C46.3632 46.9625 47.0026 46.323 47.5983 45.6443ZM21.2542 48.1438C20.9605 47.9472 20.563 48.0259 20.3664 48.3196C20.1697 48.6133 20.2484 49.0108 20.5422 49.2075C21.2901 49.7082 22.0726 50.1615 22.8854 50.5631C23.2023 50.7197 23.5861 50.5897 23.7426 50.2728C23.8992 49.9559 23.7693 49.5721 23.4524 49.4155C22.6901 49.0389 21.956 48.6136 21.2542 48.1438ZM43.5381 49.2075C43.8319 49.0108 43.9106 48.6133 43.7139 48.3196C43.5173 48.0259 43.1198 47.9472 42.8261 48.1438C42.1243 48.6136 41.3902 49.0389 40.6279 49.4155C40.311 49.5721 40.1811 49.9559 40.3377 50.2728C40.4942 50.5897 40.878 50.7197 41.1949 50.5631C42.0077 50.1615 42.7902 49.7082 43.5381 49.2075ZM25.7975 50.388C25.4628 50.2744 25.0994 50.4536 24.9858 50.7884C24.8722 51.1231 25.0515 51.4865 25.3862 51.6001C26.2349 51.8881 27.1083 52.1226 28.0023 52.2994C28.349 52.368 28.6857 52.1426 28.7543 51.7958C28.8229 51.4491 28.5975 51.1124 28.2507 51.0438C27.4123 50.8779 26.5933 50.6581 25.7975 50.388Z" fill="#00B159"/>
<circle cx="14.08" cy="23.4667" r="4.62" stroke="#00B159"/>
<circle cx="34.9867" cy="50.7733" r="4.62" stroke="#00B159"/>
<circle cx="47.7865" cy="20.48" r="4.62" stroke="#00B159"/>
<mask id="path-6-inside-1_2276_202484" fill="white">
<path fill-rule="evenodd" clip-rule="evenodd" d="M42.9998 32C42.9998 38.0751 38.075 43 31.9998 43C25.9247 43 20.9998 38.0751 20.9998 32C20.9998 25.9249 25.9247 21 31.9998 21C38.075 21 42.9998 25.9249 42.9998 32ZM26.3731 34.2883C26.6316 34.4453 26.8035 34.724 26.8035 35.0415C26.8035 35.5321 26.3934 35.9297 25.8875 35.9297C25.3817 35.9297 24.9716 35.5321 24.9716 35.0415C24.9716 34.551 25.3817 34.1534 25.8875 34.1534L25.9077 34.1536L28.737 27.9707C28.7921 27.8503 28.9343 27.7974 29.0546 27.8525C29.0737 27.8612 29.091 27.8721 29.1065 27.8848C29.1316 27.9052 29.1529 27.931 29.1684 27.9615C29.1702 27.9651 29.1719 27.9687 29.1736 27.9724L32.0022 34.1534L32.0127 34.1535L34.8389 27.9778C34.8614 27.9242 34.9033 27.8786 34.9602 27.8526C34.9926 27.8378 35.0266 27.8308 35.06 27.8308C35.0892 27.8308 35.1188 27.8361 35.1473 27.8474C35.1841 27.8617 35.2173 27.8851 35.2434 27.9162C35.2588 27.9345 35.2713 27.9549 35.2805 27.9767L38.1072 34.1534C38.1092 34.1534 38.1112 34.1534 38.1132 34.1534C38.619 34.1534 39.0291 34.551 39.0291 35.0415C39.0291 35.5321 38.619 35.9297 38.1132 35.9297C37.6073 35.9297 37.1972 35.5321 37.1972 35.0415C37.1972 34.7194 37.3741 34.4373 37.6388 34.2816L35.06 28.6465L32.4798 34.2847C32.7416 34.441 32.9162 34.7215 32.9162 35.0415C32.9162 35.5321 32.5061 35.9297 32.0002 35.9297C31.4944 35.9297 31.0843 35.5321 31.0843 35.0415C31.0843 34.7169 31.2639 34.4329 31.5321 34.278L28.9549 28.6463L26.3731 34.2883Z"/>
</mask>
<path fill-rule="evenodd" clip-rule="evenodd" d="M42.9998 32C42.9998 38.0751 38.075 43 31.9998 43C25.9247 43 20.9998 38.0751 20.9998 32C20.9998 25.9249 25.9247 21 31.9998 21C38.075 21 42.9998 25.9249 42.9998 32ZM26.3731 34.2883C26.6316 34.4453 26.8035 34.724 26.8035 35.0415C26.8035 35.5321 26.3934 35.9297 25.8875 35.9297C25.3817 35.9297 24.9716 35.5321 24.9716 35.0415C24.9716 34.551 25.3817 34.1534 25.8875 34.1534L25.9077 34.1536L28.737 27.9707C28.7921 27.8503 28.9343 27.7974 29.0546 27.8525C29.0737 27.8612 29.091 27.8721 29.1065 27.8848C29.1316 27.9052 29.1529 27.931 29.1684 27.9615C29.1702 27.9651 29.1719 27.9687 29.1736 27.9724L32.0022 34.1534L32.0127 34.1535L34.8389 27.9778C34.8614 27.9242 34.9033 27.8786 34.9602 27.8526C34.9926 27.8378 35.0266 27.8308 35.06 27.8308C35.0892 27.8308 35.1188 27.8361 35.1473 27.8474C35.1841 27.8617 35.2173 27.8851 35.2434 27.9162C35.2588 27.9345 35.2713 27.9549 35.2805 27.9767L38.1072 34.1534C38.1092 34.1534 38.1112 34.1534 38.1132 34.1534C38.619 34.1534 39.0291 34.551 39.0291 35.0415C39.0291 35.5321 38.619 35.9297 38.1132 35.9297C37.6073 35.9297 37.1972 35.5321 37.1972 35.0415C37.1972 34.7194 37.3741 34.4373 37.6388 34.2816L35.06 28.6465L32.4798 34.2847C32.7416 34.441 32.9162 34.7215 32.9162 35.0415C32.9162 35.5321 32.5061 35.9297 32.0002 35.9297C31.4944 35.9297 31.0843 35.5321 31.0843 35.0415C31.0843 34.7169 31.2639 34.4329 31.5321 34.278L28.9549 28.6463L26.3731 34.2883Z" fill="#00B159"/>
<path d="M26.3731 34.2883L23.6452 33.04L22.5347 35.4668L24.8157 36.8524L26.3731 34.2883ZM25.8875 34.1534L25.9189 31.1536L25.9032 31.1534H25.8875V34.1534ZM25.9077 34.1536L25.8764 37.1534L27.8249 37.1738L28.6357 35.4019L25.9077 34.1536ZM28.737 27.9707L26.0096 26.7211L26.009 26.7224L28.737 27.9707ZM29.0546 27.8525L30.3042 25.1251L30.3042 25.1251L29.0546 27.8525ZM29.1065 27.8848L27.2097 30.2091L27.2115 30.2105L29.1065 27.8848ZM29.1684 27.9615L26.4943 29.3215L26.4954 29.3236L29.1684 27.9615ZM29.1736 27.9724L26.436 29.1995L26.4408 29.2101L26.4456 29.2208L29.1736 27.9724ZM32.0022 34.1534L29.2743 35.4018L30.0693 37.139L31.9797 37.1533L32.0022 34.1534ZM32.0127 34.1535L31.9903 37.1534L33.9325 37.1679L34.7407 35.4018L32.0127 34.1535ZM34.8389 27.9778L37.5668 29.2262L37.587 29.182L37.6058 29.1373L34.8389 27.9778ZM34.9602 27.8526L36.2053 30.5821L36.2098 30.58L34.9602 27.8526ZM35.06 27.8308L35.0579 30.8308L35.0622 30.8308L35.06 27.8308ZM35.1473 27.8474L34.0508 30.6398L34.0544 30.6412L35.1473 27.8474ZM35.2434 27.9162L32.9462 29.8456L32.9474 29.8471L35.2434 27.9162ZM35.2805 27.9767L32.5201 29.1514L32.5359 29.1884L32.5526 29.2251L35.2805 27.9767ZM38.1072 34.1534L35.3793 35.4018L36.1864 37.1654L38.1259 37.1533L38.1072 34.1534ZM37.6388 34.2816L39.1597 36.8675L41.4933 35.495L40.3667 33.0332L37.6388 34.2816ZM35.06 28.6465L37.7879 27.3981L35.06 21.4372L32.3321 27.3981L35.06 28.6465ZM32.4798 34.2847L29.7519 33.0363L28.6327 35.482L30.942 36.8606L32.4798 34.2847ZM31.5321 34.278L33.0327 36.8757L35.3955 35.5108L34.26 33.0296L31.5321 34.278ZM28.9549 28.6463L31.6828 27.3979L28.9548 21.4367L26.2269 27.398L28.9549 28.6463ZM31.9998 46C39.7318 46 45.9998 39.732 45.9998 32H39.9998C39.9998 36.4183 36.4181 40 31.9998 40V46ZM17.9998 32C17.9998 39.732 24.2678 46 31.9998 46V40C27.5816 40 23.9998 36.4183 23.9998 32H17.9998ZM31.9998 18C24.2678 18 17.9998 24.268 17.9998 32H23.9998C23.9998 27.5817 27.5816 24 31.9998 24V18ZM45.9998 32C45.9998 24.268 39.7318 18 31.9998 18V24C36.4181 24 39.9998 27.5817 39.9998 32H45.9998ZM29.8035 35.0415C29.8035 33.6043 29.0217 32.3871 27.9306 31.7243L24.8157 36.8524C24.2415 36.5036 23.8035 35.8437 23.8035 35.0415H29.8035ZM25.8875 38.9297C27.9624 38.9297 29.8035 37.2754 29.8035 35.0415H23.8035C23.8035 33.7887 24.8244 32.9297 25.8875 32.9297V38.9297ZM21.9716 35.0415C21.9716 37.2754 23.8127 38.9297 25.8875 38.9297V32.9297C26.9507 32.9297 27.9716 33.7887 27.9716 35.0415H21.9716ZM25.8875 31.1534C23.8126 31.1534 21.9716 32.8077 21.9716 35.0415H27.9716C27.9716 36.2944 26.9507 37.1534 25.8875 37.1534V31.1534ZM25.939 31.1538L25.9189 31.1536L25.8562 37.1532L25.8764 37.1534L25.939 31.1538ZM26.009 26.7224L23.1797 32.9053L28.6357 35.4019L31.4649 29.219L26.009 26.7224ZM30.3042 25.1251C28.6745 24.3785 26.7535 25.0975 26.0096 26.7211L31.4643 29.2203C30.8307 30.6032 29.194 31.2163 27.805 30.5799L30.3042 25.1251ZM31.0033 25.5605C30.7918 25.3879 30.5572 25.2411 30.3042 25.1251L27.805 30.5798C27.5901 30.4814 27.3903 30.3564 27.2097 30.2091L31.0033 25.5605ZM31.8424 26.6015C31.6332 26.1902 31.3436 25.8378 31.0016 25.5591L27.2115 30.2105C26.9197 29.9727 26.6725 29.6719 26.4943 29.3215L31.8424 26.6015ZM31.9111 26.7453C31.8892 26.6964 31.8659 26.6477 31.8413 26.5994L26.4954 29.3236C26.4744 29.2825 26.4546 29.2411 26.436 29.1995L31.9111 26.7453ZM34.7301 32.905L31.9015 26.724L26.4456 29.2208L29.2743 35.4018L34.7301 32.905ZM32.0352 31.1536L32.0246 31.1535L31.9797 37.1533L31.9903 37.1534L32.0352 31.1536ZM32.111 26.7294L29.2848 32.9051L34.7407 35.4018L37.5668 29.2262L32.111 26.7294ZM33.7151 25.1232C32.9437 25.4751 32.3742 26.0973 32.072 26.8183L37.6058 29.1373C37.3485 29.7512 36.8628 30.2821 36.2053 30.582L33.7151 25.1232ZM35.0621 24.8308C34.6057 24.8305 34.1439 24.9268 33.7106 25.1253L36.2098 30.58C35.8413 30.7488 35.4474 30.8311 35.0579 30.8308L35.0621 24.8308ZM36.2439 25.0549C35.8587 24.9037 35.4559 24.8305 35.0578 24.8308L35.0622 30.8308C34.7225 30.8311 34.3788 30.7686 34.0508 30.6398L36.2439 25.0549ZM37.5406 25.9867C37.1839 25.562 36.733 25.2463 36.2403 25.0535L34.0544 30.6412C33.6352 30.4772 33.2507 30.2082 32.9462 29.8456L37.5406 25.9867ZM38.041 26.802C37.9166 26.5096 37.7484 26.2338 37.5394 25.9853L32.9474 29.8471C32.7692 29.6352 32.626 29.4003 32.5201 29.1514L38.041 26.802ZM40.8351 32.905L38.0085 26.7283L32.5526 29.2251L35.3793 35.4018L40.8351 32.905ZM38.1132 31.1534C38.1054 31.1534 38.0972 31.1534 38.0885 31.1535L38.1259 37.1533C38.1211 37.1534 38.1169 37.1534 38.1132 37.1534V31.1534ZM42.0291 35.0415C42.0291 32.8077 40.188 31.1534 38.1132 31.1534V37.1534C37.05 37.1534 36.0291 36.2944 36.0291 35.0415H42.0291ZM38.1132 38.9297C40.188 38.9297 42.0291 37.2754 42.0291 35.0415H36.0291C36.0291 33.7887 37.05 32.9297 38.1132 32.9297V38.9297ZM34.1972 35.0415C34.1972 37.2754 36.0383 38.9297 38.1132 38.9297V32.9297C39.1763 32.9297 40.1972 33.7887 40.1972 35.0415H34.1972ZM36.1178 31.6958C35.0015 32.3523 34.1972 33.5832 34.1972 35.0415H40.1972C40.1972 35.8557 39.7466 36.5223 39.1597 36.8675L36.1178 31.6958ZM32.3321 29.8949L34.9109 35.53L40.3667 33.0332L37.7879 27.3981L32.3321 29.8949ZM35.2077 35.5331L37.7879 29.8949L32.3321 27.3981L29.7519 33.0363L35.2077 35.5331ZM35.9162 35.0415C35.9162 33.5929 35.1222 32.3683 34.0175 31.7088L30.942 36.8606C30.361 36.5137 29.9162 35.8502 29.9162 35.0415H35.9162ZM32.0002 38.9297C34.0751 38.9297 35.9162 37.2754 35.9162 35.0415H29.9162C29.9162 33.7887 30.9371 32.9297 32.0002 32.9297V38.9297ZM28.0843 35.0415C28.0843 37.2754 29.9254 38.9297 32.0002 38.9297V32.9297C33.0634 32.9297 34.0843 33.7887 34.0843 35.0415H28.0843ZM30.0315 31.6803C28.9012 32.3332 28.0843 33.5715 28.0843 35.0415H34.0843C34.0843 35.8623 33.6266 36.5326 33.0327 36.8757L30.0315 31.6803ZM26.227 29.8947L28.8042 35.5264L34.26 33.0296L31.6828 27.3979L26.227 29.8947ZM29.1011 35.5366L31.6828 29.8946L26.2269 27.398L23.6452 33.04L29.1011 35.5366Z" fill="#00B159" mask="url(#path-6-inside-1_2276_202484)"/>
</svg>
