<svg width="33" height="33" viewBox="0 0 33 33" fill="none" xmlns="http://www.w3.org/2000/svg">
  <path
    d="M16.5 33C7.425 33 0 25.575 0 16.5C0 7.425 7.425 0 16.5 0C25.575 0 33 7.425 33 16.5C33 25.575 25.575 33 16.5 33ZM16.5 2.75C8.9375 2.75 2.75 8.9375 2.75 16.5C2.75 24.0625 8.9375 30.25 16.5 30.25C24.0625 30.25 30.25 24.0625 30.25 16.5C30.25 8.9375 24.0625 2.75 16.5 2.75Z"
    fill="white" />
  <path
    d="M16.5 26.125C11.1375 26.125 6.875 21.8625 6.875 16.5C6.875 11.1375 11.1375 6.875 16.5 6.875C21.8625 6.875 26.125 11.1375 26.125 16.5C26.125 21.8625 21.8625 26.125 16.5 26.125ZM16.5 9.625C12.65 9.625 9.625 12.65 9.625 16.5C9.625 20.35 12.65 23.375 16.5 23.375C20.35 23.375 23.375 20.35 23.375 16.5C23.375 12.65 20.35 9.625 16.5 9.625Z"
    fill="white" />
  <path
    d="M9.48752 13.475C9.21252 13.475 8.93752 13.3375 8.80002 13.2L3.02502 9.4875C2.33752 9.075 2.20002 8.25 2.61252 7.7C3.02502 7.0125 3.85002 6.875 4.53752 7.15L10.3125 10.8625C11 11.275 11.1375 12.1 10.725 12.7875C10.45 13.2 10.0375 13.475 9.48752 13.475V13.475ZM29.2875 25.9875C29.0125 25.9875 28.7375 25.85 28.6 25.7125L22.825 22C22.1375 21.5875 22 20.7625 22.4125 20.075C22.825 19.3875 23.65 19.25 24.3375 19.6625L30.1125 23.375C30.8 23.7875 30.9375 24.6125 30.525 25.3C30.1125 25.7125 29.7 25.9875 29.2875 25.9875ZM3.71252 25.9875C3.30002 25.9875 2.75002 25.7125 2.61252 25.3C2.20002 24.6125 2.33752 23.7875 3.02502 23.375L8.80002 19.6625C9.48752 19.25 10.3125 19.3875 10.725 20.075C11.1375 20.7625 11 21.5875 10.3125 22L4.53752 25.7125C4.26252 25.9875 3.98752 25.9875 3.71252 25.9875V25.9875ZM23.5125 13.475C23.1 13.475 22.55 13.2 22.4125 12.7875C22 12.1 22.1375 11.275 22.825 10.8625L28.6 7.15C29.2875 6.7375 30.1125 6.875 30.525 7.5625C30.9375 8.25 30.8 9.075 30.1125 9.4875L24.3375 13.2C23.925 13.3375 23.65 13.475 23.5125 13.475V13.475Z"
    fill="white" />
</svg>