<svg width="64" height="64" viewBox="0 0 64 64" fill="none" xmlns="http://www.w3.org/2000/svg">
<path d="M46.6607 21.8502H40.74" stroke="#FBAF1D" stroke-width="1.12775" stroke-miterlimit="10" stroke-linecap="round"/>
<circle cx="32.0001" cy="32" r="28.8799" stroke="#FBAF1D" stroke-width="1.97357"/>
<circle cx="13.1551" cy="22.6001" r="4.32493" fill="#FBAF1D"/>
<circle cx="15.3206" cy="43.3734" r="4.32493" fill="#FBAF1D"/>
<circle cx="49.2942" cy="42.3866" r="4.32493" fill="#FBAF1D"/>
<circle cx="50.2809" cy="21.3822" r="4.32493" fill="#FBAF1D"/>
<path d="M24.6697 25.6564L21.5684 22.5551" stroke="#FBAF1D" stroke-width="1.12775" stroke-miterlimit="10" stroke-linecap="round"/>
<path d="M26.9251 40.3172L23.8238 43.2776" stroke="#FBAF1D" stroke-width="1.12775" stroke-miterlimit="10" stroke-linecap="round"/>
<path d="M38.3436 39.4714L41.4449 42.4318" stroke="#FBAF1D" stroke-width="1.12775" stroke-miterlimit="10" stroke-linecap="round"/>
<path d="M21.5682 22.5551H16.9162" stroke="#FBAF1D" stroke-width="1.12775" stroke-miterlimit="10" stroke-linecap="round"/>
<path d="M23.7337 43.3284H19.0817" stroke="#FBAF1D" stroke-width="1.12775" stroke-miterlimit="10" stroke-linecap="round"/>
<path d="M46.0969 42.4318H41.4449" stroke="#FBAF1D" stroke-width="1.12775" stroke-miterlimit="10" stroke-linecap="round"/>
<path d="M38.0617 24.5286L40.7402 21.8502" stroke="#FBAF1D" stroke-width="1.12775" stroke-miterlimit="10" stroke-linecap="round"/>
<path d="M32 22L32 15" stroke="#FBAF1D" stroke-width="1.12775" stroke-miterlimit="10" stroke-linecap="round"/>
<path d="M32 50L32 42" stroke="#FBAF1D" stroke-width="1.12775" stroke-miterlimit="10" stroke-linecap="round"/>
<circle cx="31.9548" cy="11.3249" r="4.32493" fill="#FBAF1D"/>
<circle cx="31.9548" cy="52.3249" r="4.32493" fill="#FBAF1D"/>
<circle cx="32.0001" cy="32" r="9.44494" stroke="#FBAF1D" stroke-width="1.12775" stroke-linecap="round"/>
<path d="M25.902 34.9807C25.8686 34.9807 25.8346 34.9737 25.8025 34.9588C25.6821 34.9037 25.6292 34.7616 25.6843 34.6412L28.7366 27.9708C28.7918 27.8505 28.9339 27.7975 29.0543 27.8526C29.1746 27.9078 29.2276 28.0499 29.1724 28.1703L26.1201 34.8407C26.0798 34.9286 25.9931 34.9807 25.902 34.9807Z" fill="#FBAF1D"/>
<path d="M32.0076 34.9808C31.9167 34.9808 31.8297 34.9288 31.7894 34.8408L28.7368 28.1704C28.6817 28.05 28.7347 27.9076 28.855 27.8528C28.9754 27.7976 29.1178 27.8506 29.1727 27.9709L32.2252 34.6413C32.2804 34.7617 32.2274 34.9041 32.107 34.959C32.0747 34.9738 32.0409 34.9808 32.0076 34.9808Z" fill="#FBAF1D"/>
<path d="M32.007 34.9808C31.9737 34.9808 31.9397 34.9738 31.9075 34.959C31.7872 34.9038 31.7342 34.7617 31.7894 34.6413L34.8419 27.9709C34.8971 27.8506 35.0392 27.7976 35.1596 27.8528C35.2799 27.9079 35.3329 28.05 35.2778 28.1704L32.2252 34.8408C32.1849 34.929 32.0981 34.9808 32.007 34.9808Z" fill="#FBAF1D"/>
<path d="M38.1126 34.9808C38.0217 34.9808 37.9347 34.9288 37.8944 34.8408L34.8419 28.1704C34.7867 28.05 34.8397 27.9076 34.96 27.8528C35.0804 27.7976 35.2228 27.8506 35.2777 27.9709L38.3302 34.6413C38.3854 34.7617 38.3324 34.9041 38.2121 34.959C38.1797 34.9738 38.1459 34.9808 38.1126 34.9808Z" fill="#FBAF1D"/>
<path d="M25.8871 35.9298C26.393 35.9298 26.8031 35.5321 26.8031 35.0416C26.8031 34.5511 26.393 34.1534 25.8871 34.1534C25.3812 34.1534 24.9711 34.5511 24.9711 35.0416C24.9711 35.5321 25.3812 35.9298 25.8871 35.9298Z" fill="#FBAF1D"/>
<path d="M31.9998 35.9298C32.5057 35.9298 32.9158 35.5321 32.9158 35.0416C32.9158 34.5511 32.5057 34.1534 31.9998 34.1534C31.4939 34.1534 31.0838 34.5511 31.0838 35.0416C31.0838 35.5321 31.4939 35.9298 31.9998 35.9298Z" fill="#FBAF1D"/>
<path d="M38.1128 35.9298C38.6187 35.9298 39.0287 35.5321 39.0287 35.0416C39.0287 34.5511 38.6187 34.1534 38.1128 34.1534C37.6069 34.1534 37.1968 34.5511 37.1968 35.0416C37.1968 35.5321 37.6069 35.9298 38.1128 35.9298Z" fill="#FBAF1D"/>
</svg>
