<svg width="16" height="16" viewBox="0 0 16 16" fill="none" xmlns="http://www.w3.org/2000/svg">
<path d="M2.38641 14.1307H11.8924L11.4384 12.6607C11.5057 12.7193 15.3331 16 15.3331 16V1.65C15.2877 0.758 14.5197 0 13.5677 0L2.38975 0.002C1.43841 0.002 0.666412 0.761333 0.666412 1.65333V12.48C0.666412 13.4207 1.43708 14.1307 2.38641 14.1307ZM9.41841 3.78867L9.39641 3.79667L9.40441 3.78867H9.41841ZM4.33108 4.63467C5.55308 3.74533 6.68575 3.788 6.68575 3.788L6.77708 3.878C5.28175 4.23467 4.60375 4.90267 4.60375 4.90267C4.67308 4.888 7.69241 3.146 11.3511 4.94667C11.3511 4.94667 10.6717 4.322 9.26841 3.922L9.39241 3.8C9.58641 3.80067 10.6131 3.83667 11.7117 4.64C11.7117 4.64 12.9411 6.74 12.9411 9.32C12.9004 9.27067 12.1784 10.4307 10.3204 10.4707C10.3204 10.4707 10.0057 10.1147 9.78175 9.804C10.8684 9.492 11.2751 8.868 11.2751 8.868C9.15975 10.2 7.30575 9.992 5.08775 9.092C5.06708 9.092 5.05775 9.08267 5.04708 9.072V9.068C5.03641 9.058 5.02708 9.048 5.00641 9.048H4.96641C4.83041 8.95867 4.73975 8.91467 4.73975 8.91467C4.73975 8.91467 5.14575 9.53867 6.18908 9.85067C5.91508 10.1633 5.64375 10.5187 5.64375 10.5187C3.78641 10.4747 3.10908 9.31467 3.10908 9.31467C3.10908 6.73067 4.33108 4.63467 4.33108 4.63467Z" fill="white"/>
</svg>
