<svg width="18" height="17" viewBox="0 0 18 17" fill="none" xmlns="http://www.w3.org/2000/svg">
<path d="M9 0.000455321C6.63829 -0.0232684 4.36367 0.88092 2.67605 2.5143C0.988435 4.14769 0.0259038 6.37661 0 8.71122C0.00910013 10.5562 0.609499 12.3509 1.71496 13.8375C2.82042 15.3241 4.37406 16.4261 6.15273 16.9852C6.60273 17.0661 6.76636 16.7992 6.76636 16.5647V15.0846C4.26273 15.6103 3.73091 13.9199 3.73091 13.9199C3.56424 13.3892 3.20992 12.9356 2.73273 12.642C1.91455 12.1082 2.79818 12.1163 2.79818 12.1163C3.08099 12.1536 3.35156 12.2538 3.58962 12.4093C3.82767 12.5648 4.02702 12.7715 4.17273 13.014C4.42664 13.4493 4.84326 13.7685 5.33292 13.9032C5.82258 14.0378 6.34614 13.977 6.79091 13.7339C6.83665 13.2909 7.03955 12.8783 7.36364 12.5692C5.36727 12.3508 3.27273 11.6067 3.27273 8.26638C3.25487 7.39504 3.58056 6.55101 4.18091 5.91277C3.9075 5.16469 3.93978 4.34072 4.27091 3.61579C4.27091 3.61579 5.03182 3.38123 6.72545 4.50546C8.19973 4.11711 9.75118 4.11711 11.2255 4.50546C12.9436 3.38123 13.68 3.61579 13.68 3.61579C14.0111 4.34072 14.0434 5.16469 13.77 5.91277C14.3843 6.53931 14.7276 7.37768 14.7273 8.2502C14.7273 11.5986 12.6164 12.3346 10.6364 12.553C10.8532 12.7611 11.0206 13.0141 11.1267 13.2938C11.2328 13.5735 11.2749 13.8729 11.25 14.1706V16.5566C11.25 16.8396 11.4136 17.0661 11.8636 16.9771C13.6373 16.4145 15.1857 15.3123 16.2877 13.8278C17.3897 12.3433 17.989 10.5525 18 8.71122C17.9741 6.37661 17.0116 4.14769 15.3239 2.5143C13.6363 0.88092 11.3617 -0.0232684 9 0.000455321Z" fill="white"/>
</svg>
