<svg width="18" height="14" viewBox="0 0 18 14" fill="none" xmlns="http://www.w3.org/2000/svg">
<path d="M2.64332 3.05325C2.65353 2.95181 2.63986 2.84938 2.60339 2.75416C2.56693 2.65895 2.50869 2.57359 2.43332 2.50492L0.876657 0.615752V0.333252H5.70832L9.44332 8.58742L12.7267 0.333252H17.3333V0.615752L16.0025 1.89992C15.9461 1.94346 15.9026 2.0015 15.8766 2.06784C15.8506 2.13418 15.8432 2.20633 15.855 2.27659V11.7216C15.8432 11.7918 15.8506 11.864 15.8766 11.9303C15.9026 11.9967 15.9461 12.0547 16.0025 12.0983L17.3025 13.3833V13.6666H10.7667V13.3841L12.1125 12.0674C12.245 11.9341 12.245 11.8949 12.245 11.6916V4.05658L8.50166 13.6349H7.99666L3.63832 4.05658V10.4766C3.60249 10.7466 3.69166 11.0183 3.87999 11.2133L5.63082 13.3533V13.6349H0.666656V13.3533L2.41666 11.2133C2.50925 11.1166 2.57797 10.9997 2.61733 10.8718C2.65668 10.7439 2.66558 10.6085 2.64332 10.4766V3.05325Z" fill="white"/>
</svg>
