<svg width="18" height="14" viewBox="0 0 18 14" fill="none" xmlns="http://www.w3.org/2000/svg">
<path d="M18 1.65552C17.3253 1.94197 16.6108 2.1298 15.8796 2.21289C16.6471 1.77472 17.2242 1.07986 17.5032 0.258148C16.776 0.669684 15.9829 0.959549 15.1569 1.11565C14.8091 0.761452 14.3907 0.479862 13.9273 0.288054C13.4638 0.0962466 12.9651 -0.00175643 12.4614 2.38256e-05C10.422 2.38256e-05 8.7687 1.58377 8.7687 3.53501C8.7687 3.81151 8.8011 4.08189 8.8641 4.34001C7.40122 4.27237 5.9689 3.909 4.65855 3.27307C3.3482 2.63715 2.18858 1.74265 1.2537 0.646647C0.925943 1.18425 0.753673 1.79795 0.7551 2.42289C0.7551 3.65051 1.4067 4.73289 2.3967 5.36551C1.81124 5.34713 1.23842 5.19517 0.7245 4.92189V4.96564C0.7245 6.67888 1.998 8.10775 3.6855 8.43325C3.36835 8.51506 3.04162 8.55653 2.7135 8.55663C2.475 8.55663 2.2437 8.53475 2.0178 8.491C2.25908 9.19793 2.7208 9.81427 3.33884 10.2544C3.95688 10.6946 4.70056 10.9367 5.4666 10.9471C4.15266 11.9311 2.53964 12.4627 0.8811 12.4582C0.5823 12.4582 0.2889 12.4407 0 12.4092C1.69313 13.4511 3.65633 14.0029 5.6601 14C12.4524 14 16.1658 8.61263 16.1658 3.94101L16.1532 3.48339C16.8776 2.98785 17.5033 2.36851 18 1.65552Z" fill="white"/>
</svg>
