<svg width="632" height="312" viewBox="0 0 632 312" fill="none" xmlns="http://www.w3.org/2000/svg">
<line x1="40" y1="124.5" x2="630" y2="124.5" stroke="#E9EBFA"/>
<line x1="40" y1="174.5" x2="630" y2="174.5" stroke="#E9EBFA"/>
<line x1="40" y1="224.5" x2="630" y2="224.5" stroke="#E9EBFA"/>
<line x1="40" y1="274.5" x2="630" y2="274.5" stroke="#E9EBFA"/>
<line x1="40" y1="74.5" x2="630" y2="74.5" stroke="#E9EBFA"/>
<line x1="40" y1="24.5" x2="630" y2="24.5" stroke="#E9EBFA"/>
<line x1="52.5" y1="-2.18557e-08" x2="52.5" y2="280" stroke="#E9EBFA"/>
<path d="M11.4383 125.21C10.9156 125.21 10.4349 125.14 9.99627 125C9.56693 124.86 9.1936 124.664 8.87627 124.412C8.56827 124.16 8.3256 123.857 8.14827 123.502C7.98027 123.147 7.89627 122.76 7.89627 122.34C7.89627 121.789 8.04093 121.304 8.33027 120.884C8.62893 120.455 9.0396 120.142 9.56227 119.946C9.1236 119.731 8.7876 119.442 8.55427 119.078C8.32093 118.705 8.20427 118.289 8.20427 117.832C8.20427 117.44 8.2836 117.081 8.44227 116.754C8.61027 116.418 8.83893 116.133 9.12827 115.9C9.42693 115.657 9.77227 115.471 10.1643 115.34C10.5656 115.2 10.9996 115.13 11.4663 115.13C11.9329 115.13 12.3576 115.195 12.7403 115.326C13.1323 115.457 13.4729 115.643 13.7623 115.886C14.0609 116.129 14.2896 116.413 14.4483 116.74C14.6069 117.057 14.6863 117.412 14.6863 117.804C14.6863 118.261 14.5696 118.677 14.3363 119.05C14.1123 119.414 13.7856 119.708 13.3563 119.932C13.8789 120.119 14.2849 120.422 14.5743 120.842C14.8636 121.253 15.0083 121.733 15.0083 122.284C15.0083 122.713 14.9196 123.11 14.7423 123.474C14.5743 123.829 14.3269 124.137 14.0003 124.398C13.6829 124.659 13.3049 124.86 12.8663 125C12.4369 125.14 11.9609 125.21 11.4383 125.21ZM11.4523 119.316C11.7696 119.316 12.0496 119.255 12.2923 119.134C12.5443 119.013 12.7403 118.849 12.8803 118.644C13.0203 118.439 13.0903 118.201 13.0903 117.93C13.0903 117.659 13.0203 117.421 12.8803 117.216C12.7403 117.011 12.5443 116.847 12.2923 116.726C12.0496 116.605 11.7696 116.544 11.4523 116.544C11.1349 116.544 10.8503 116.605 10.5983 116.726C10.3556 116.847 10.1643 117.011 10.0243 117.216C9.88427 117.421 9.81427 117.659 9.81427 117.93C9.81427 118.201 9.88427 118.439 10.0243 118.644C10.1643 118.849 10.3556 119.013 10.5983 119.134C10.8503 119.255 11.1349 119.316 11.4523 119.316ZM11.4523 123.796C11.8349 123.796 12.1663 123.731 12.4463 123.6C12.7356 123.469 12.9596 123.287 13.1183 123.054C13.2769 122.821 13.3563 122.55 13.3563 122.242C13.3563 121.934 13.2769 121.663 13.1183 121.43C12.9596 121.197 12.7356 121.015 12.4463 120.884C12.1663 120.753 11.8349 120.688 11.4523 120.688C11.0696 120.688 10.7336 120.753 10.4443 120.884C10.1643 121.015 9.94493 121.197 9.78627 121.43C9.6276 121.663 9.54827 121.934 9.54827 122.242C9.54827 122.55 9.6276 122.821 9.78627 123.054C9.94493 123.287 10.1643 123.469 10.4443 123.6C10.7336 123.731 11.0696 123.796 11.4523 123.796ZM19.8361 125.21C19.2761 125.21 18.7721 125.098 18.3241 124.874C17.8761 124.641 17.4934 124.305 17.1761 123.866C16.8587 123.427 16.6161 122.9 16.4481 122.284C16.2894 121.668 16.2101 120.977 16.2101 120.212C16.2101 119.419 16.2941 118.709 16.4621 118.084C16.6394 117.459 16.8914 116.927 17.2181 116.488C17.5447 116.049 17.9367 115.713 18.3941 115.48C18.8514 115.247 19.3601 115.13 19.9201 115.13C20.4894 115.13 20.9934 115.247 21.4321 115.48C21.8801 115.713 22.2581 116.049 22.5661 116.488C22.8741 116.927 23.1074 117.454 23.2661 118.07C23.4341 118.677 23.5181 119.363 23.5181 120.128C23.5181 120.912 23.4341 121.617 23.2661 122.242C23.0981 122.867 22.8507 123.404 22.5241 123.852C22.2067 124.291 21.8194 124.627 21.3621 124.86C20.9141 125.093 20.4054 125.21 19.8361 125.21ZM19.8641 123.698C20.4894 123.698 20.9747 123.395 21.3201 122.788C21.6747 122.172 21.8521 121.299 21.8521 120.17C21.8521 119.041 21.6747 118.173 21.3201 117.566C20.9747 116.95 20.4894 116.642 19.8641 116.642C19.2387 116.642 18.7487 116.95 18.3941 117.566C18.0487 118.173 17.8761 119.041 17.8761 120.17C17.8761 121.299 18.0487 122.172 18.3941 122.788C18.7487 123.395 19.2387 123.698 19.8641 123.698ZM25.0203 125V114.584H26.6303V120.702L29.6263 117.678H31.5863L28.2963 120.926L31.9223 125H29.8083L26.6303 121.304V125H25.0203Z" fill="#717591"/>
<path d="M11.6366 175.21C11.0766 175.21 10.5632 175.098 10.0966 174.874C9.63923 174.65 9.24256 174.333 8.90656 173.922C8.5799 173.511 8.32323 173.017 8.13656 172.438C7.95923 171.85 7.87056 171.201 7.87056 170.492C7.87056 169.717 7.9779 169.003 8.19256 168.35C8.40723 167.697 8.71056 167.132 9.10256 166.656C9.49456 166.171 9.96123 165.797 10.5026 165.536C11.0439 165.265 11.6459 165.13 12.3086 165.13C12.7192 165.13 13.1112 165.186 13.4846 165.298C13.8579 165.401 14.2079 165.559 14.5346 165.774L14.0446 167.118C13.8112 166.969 13.5452 166.852 13.2466 166.768C12.9572 166.675 12.6539 166.628 12.3366 166.628C11.8139 166.628 11.3472 166.759 10.9366 167.02C10.5352 167.272 10.2086 167.655 9.95656 168.168C9.7139 168.672 9.5599 169.293 9.49456 170.03C9.7279 169.647 10.0452 169.349 10.4466 169.134C10.8572 168.91 11.3332 168.798 11.8746 168.798C12.3319 168.798 12.7566 168.877 13.1486 169.036C13.5406 169.195 13.8812 169.419 14.1706 169.708C14.4599 169.988 14.6839 170.319 14.8426 170.702C15.0106 171.075 15.0946 171.481 15.0946 171.92C15.0946 172.387 15.0059 172.821 14.8286 173.222C14.6606 173.614 14.4179 173.959 14.1006 174.258C13.7832 174.557 13.4146 174.79 12.9946 174.958C12.5746 175.126 12.1219 175.21 11.6366 175.21ZM11.6226 173.782C11.9679 173.782 12.2759 173.703 12.5466 173.544C12.8266 173.376 13.0459 173.157 13.2046 172.886C13.3632 172.606 13.4426 172.293 13.4426 171.948C13.4426 171.603 13.3632 171.299 13.2046 171.038C13.0459 170.767 12.8312 170.557 12.5606 170.408C12.2899 170.249 11.9819 170.17 11.6366 170.17C11.2912 170.17 10.9832 170.249 10.7126 170.408C10.4419 170.557 10.2272 170.763 10.0686 171.024C9.9099 171.285 9.83056 171.589 9.83056 171.934C9.83056 172.279 9.9099 172.592 10.0686 172.872C10.2272 173.152 10.4419 173.376 10.7126 173.544C10.9832 173.703 11.2866 173.782 11.6226 173.782ZM19.8361 175.21C19.2761 175.21 18.7721 175.098 18.3241 174.874C17.8761 174.641 17.4934 174.305 17.1761 173.866C16.8587 173.427 16.6161 172.9 16.4481 172.284C16.2894 171.668 16.2101 170.977 16.2101 170.212C16.2101 169.419 16.2941 168.709 16.4621 168.084C16.6394 167.459 16.8914 166.927 17.2181 166.488C17.5447 166.049 17.9367 165.713 18.3941 165.48C18.8514 165.247 19.3601 165.13 19.9201 165.13C20.4894 165.13 20.9934 165.247 21.4321 165.48C21.8801 165.713 22.2581 166.049 22.5661 166.488C22.8741 166.927 23.1074 167.454 23.2661 168.07C23.4341 168.677 23.5181 169.363 23.5181 170.128C23.5181 170.912 23.4341 171.617 23.2661 172.242C23.0981 172.867 22.8507 173.404 22.5241 173.852C22.2067 174.291 21.8194 174.627 21.3621 174.86C20.9141 175.093 20.4054 175.21 19.8361 175.21ZM19.8641 173.698C20.4894 173.698 20.9747 173.395 21.3201 172.788C21.6747 172.172 21.8521 171.299 21.8521 170.17C21.8521 169.041 21.6747 168.173 21.3201 167.566C20.9747 166.95 20.4894 166.642 19.8641 166.642C19.2387 166.642 18.7487 166.95 18.3941 167.566C18.0487 168.173 17.8761 169.041 17.8761 170.17C17.8761 171.299 18.0487 172.172 18.3941 172.788C18.7487 173.395 19.2387 173.698 19.8641 173.698ZM25.0203 175V164.584H26.6303V170.702L29.6263 167.678H31.5863L28.2963 170.926L31.9223 175H29.8083L26.6303 171.304V175H25.0203Z" fill="#717591"/>
<path d="M12.2789 225V222.886H7.77092V221.584L12.0969 215.34H13.8749V221.5H15.0229V222.886H13.8749V225H12.2789ZM9.38092 221.5H12.2789V217.342L9.38092 221.5ZM19.8361 225.21C19.2761 225.21 18.7721 225.098 18.3241 224.874C17.8761 224.641 17.4934 224.305 17.1761 223.866C16.8587 223.427 16.6161 222.9 16.4481 222.284C16.2894 221.668 16.2101 220.977 16.2101 220.212C16.2101 219.419 16.2941 218.709 16.4621 218.084C16.6394 217.459 16.8914 216.927 17.2181 216.488C17.5447 216.049 17.9367 215.713 18.3941 215.48C18.8514 215.247 19.3601 215.13 19.9201 215.13C20.4894 215.13 20.9934 215.247 21.4321 215.48C21.8801 215.713 22.2581 216.049 22.5661 216.488C22.8741 216.927 23.1074 217.454 23.2661 218.07C23.4341 218.677 23.5181 219.363 23.5181 220.128C23.5181 220.912 23.4341 221.617 23.2661 222.242C23.0981 222.867 22.8507 223.404 22.5241 223.852C22.2067 224.291 21.8194 224.627 21.3621 224.86C20.9141 225.093 20.4054 225.21 19.8361 225.21ZM19.8641 223.698C20.4894 223.698 20.9747 223.395 21.3201 222.788C21.6747 222.172 21.8521 221.299 21.8521 220.17C21.8521 219.041 21.6747 218.173 21.3201 217.566C20.9747 216.95 20.4894 216.642 19.8641 216.642C19.2387 216.642 18.7487 216.95 18.3941 217.566C18.0487 218.173 17.8761 219.041 17.8761 220.17C17.8761 221.299 18.0487 222.172 18.3941 222.788C18.7487 223.395 19.2387 223.698 19.8641 223.698ZM25.0203 225V214.584H26.6303V220.702L29.6263 217.678H31.5863L28.2963 220.926L31.9223 225H29.8083L26.6303 221.304V225H25.0203Z" fill="#717591"/>
<path d="M8.29472 275V273.768C8.77072 273.376 9.18605 273.026 9.54072 272.718C9.90472 272.401 10.2267 272.111 10.5067 271.85C10.7867 271.589 11.0481 271.337 11.2907 271.094C11.7107 270.674 12.0467 270.305 12.2987 269.988C12.5601 269.671 12.7514 269.372 12.8727 269.092C12.9941 268.812 13.0547 268.523 13.0547 268.224C13.0547 267.897 12.9894 267.613 12.8587 267.37C12.7281 267.127 12.5461 266.941 12.3127 266.81C12.0887 266.67 11.8227 266.6 11.5147 266.6C11.0947 266.6 10.7307 266.735 10.4227 267.006C10.1147 267.267 9.90005 267.631 9.77872 268.098L8.23872 267.79C8.36005 267.258 8.57472 266.791 8.88272 266.39C9.20005 265.989 9.58739 265.681 10.0447 265.466C10.5114 265.242 11.0154 265.13 11.5567 265.13C12.0141 265.13 12.4341 265.209 12.8167 265.368C13.1994 265.517 13.5307 265.732 13.8107 266.012C14.1001 266.283 14.3194 266.605 14.4687 266.978C14.6274 267.342 14.7067 267.743 14.7067 268.182C14.7067 268.583 14.6321 268.975 14.4827 269.358C14.3334 269.741 14.0954 270.137 13.7687 270.548C13.4514 270.959 13.0407 271.411 12.5367 271.906C12.0141 272.419 11.4121 272.961 10.7307 273.53H14.8747V275H8.29472ZM19.8361 275.21C19.2761 275.21 18.7721 275.098 18.3241 274.874C17.8761 274.641 17.4934 274.305 17.1761 273.866C16.8587 273.427 16.6161 272.9 16.4481 272.284C16.2894 271.668 16.2101 270.977 16.2101 270.212C16.2101 269.419 16.2941 268.709 16.4621 268.084C16.6394 267.459 16.8914 266.927 17.2181 266.488C17.5447 266.049 17.9367 265.713 18.3941 265.48C18.8514 265.247 19.3601 265.13 19.9201 265.13C20.4894 265.13 20.9934 265.247 21.4321 265.48C21.8801 265.713 22.2581 266.049 22.5661 266.488C22.8741 266.927 23.1074 267.454 23.2661 268.07C23.4341 268.677 23.5181 269.363 23.5181 270.128C23.5181 270.912 23.4341 271.617 23.2661 272.242C23.0981 272.867 22.8507 273.404 22.5241 273.852C22.2067 274.291 21.8194 274.627 21.3621 274.86C20.9141 275.093 20.4054 275.21 19.8361 275.21ZM19.8641 273.698C20.4894 273.698 20.9747 273.395 21.3201 272.788C21.6747 272.172 21.8521 271.299 21.8521 270.17C21.8521 269.041 21.6747 268.173 21.3201 267.566C20.9747 266.95 20.4894 266.642 19.8641 266.642C19.2387 266.642 18.7487 266.95 18.3941 267.566C18.0487 268.173 17.8761 269.041 17.8761 270.17C17.8761 271.299 18.0487 272.172 18.3941 272.788C18.7487 273.395 19.2387 273.698 19.8641 273.698ZM25.0203 275V264.584H26.6303V270.702L29.6263 267.678H31.5863L28.2963 270.926L31.9223 275H29.8083L26.6303 271.304V275H25.0203Z" fill="#717591"/>
<path d="M29.98 307V297.06H31.492L36.448 304.172V297.06H38.114V307H36.602L31.646 299.86V307H29.98ZM43.3598 307.21C42.8278 307.21 42.3332 307.117 41.8758 306.93C41.4278 306.734 41.0358 306.463 40.6998 306.118C40.3638 305.763 40.1025 305.353 39.9158 304.886C39.7292 304.41 39.6358 303.892 39.6358 303.332C39.6358 302.781 39.7292 302.273 39.9158 301.806C40.1025 301.33 40.3638 300.919 40.6998 300.574C41.0452 300.219 41.4465 299.949 41.9038 299.762C42.3705 299.566 42.8745 299.468 43.4158 299.468C43.9478 299.468 44.4378 299.566 44.8858 299.762C45.3432 299.949 45.7398 300.219 46.0758 300.574C46.4118 300.919 46.6732 301.325 46.8598 301.792C47.0465 302.259 47.1398 302.772 47.1398 303.332C47.1398 303.892 47.0465 304.41 46.8598 304.886C46.6732 305.353 46.4072 305.763 46.0618 306.118C45.7258 306.463 45.3245 306.734 44.8578 306.93C44.4005 307.117 43.9012 307.21 43.3598 307.21ZM43.3878 305.754C43.7892 305.754 44.1485 305.651 44.4658 305.446C44.7832 305.231 45.0305 304.942 45.2078 304.578C45.3945 304.214 45.4878 303.799 45.4878 303.332C45.4878 302.865 45.3945 302.455 45.2078 302.1C45.0305 301.736 44.7832 301.451 44.4658 301.246C44.1485 301.031 43.7892 300.924 43.3878 300.924C42.9865 300.924 42.6272 301.031 42.3098 301.246C41.9925 301.451 41.7405 301.736 41.5538 302.1C41.3765 302.455 41.2878 302.865 41.2878 303.332C41.2878 303.799 41.3765 304.214 41.5538 304.578C41.7405 304.942 41.9925 305.231 42.3098 305.446C42.6272 305.651 42.9865 305.754 43.3878 305.754ZM50.4667 307L47.6667 299.678H49.4307L51.3067 305.32L53.1967 299.678H54.9047L52.1047 307H50.4667ZM58.7381 307V305.768C59.2141 305.376 59.6294 305.026 59.9841 304.718C60.3481 304.401 60.6701 304.111 60.9501 303.85C61.2301 303.589 61.4914 303.337 61.7341 303.094C62.1541 302.674 62.4901 302.305 62.7421 301.988C63.0034 301.671 63.1947 301.372 63.3161 301.092C63.4374 300.812 63.4981 300.523 63.4981 300.224C63.4981 299.897 63.4327 299.613 63.3021 299.37C63.1714 299.127 62.9894 298.941 62.7561 298.81C62.5321 298.67 62.2661 298.6 61.9581 298.6C61.5381 298.6 61.1741 298.735 60.8661 299.006C60.5581 299.267 60.3434 299.631 60.2221 300.098L58.6821 299.79C58.8034 299.258 59.0181 298.791 59.3261 298.39C59.6434 297.989 60.0307 297.681 60.4881 297.466C60.9547 297.242 61.4587 297.13 62.0001 297.13C62.4574 297.13 62.8774 297.209 63.2601 297.368C63.6427 297.517 63.9741 297.732 64.2541 298.012C64.5434 298.283 64.7627 298.605 64.9121 298.978C65.0707 299.342 65.1501 299.743 65.1501 300.182C65.1501 300.583 65.0754 300.975 64.9261 301.358C64.7767 301.741 64.5387 302.137 64.2121 302.548C63.8947 302.959 63.4841 303.411 62.9801 303.906C62.4574 304.419 61.8554 304.961 61.1741 305.53H65.3181V307H58.7381ZM66.7361 307V305.768C67.2121 305.376 67.6275 305.026 67.9821 304.718C68.3461 304.401 68.6681 304.111 68.9481 303.85C69.2281 303.589 69.4895 303.337 69.7321 303.094C70.1521 302.674 70.4881 302.305 70.7401 301.988C71.0015 301.671 71.1928 301.372 71.3141 301.092C71.4355 300.812 71.4961 300.523 71.4961 300.224C71.4961 299.897 71.4308 299.613 71.3001 299.37C71.1695 299.127 70.9875 298.941 70.7541 298.81C70.5301 298.67 70.2641 298.6 69.9561 298.6C69.5361 298.6 69.1721 298.735 68.8641 299.006C68.5561 299.267 68.3415 299.631 68.2201 300.098L66.6801 299.79C66.8015 299.258 67.0161 298.791 67.3241 298.39C67.6415 297.989 68.0288 297.681 68.4861 297.466C68.9528 297.242 69.4568 297.13 69.9981 297.13C70.4555 297.13 70.8755 297.209 71.2581 297.368C71.6408 297.517 71.9721 297.732 72.2521 298.012C72.5415 298.283 72.7608 298.605 72.9101 298.978C73.0688 299.342 73.1481 299.743 73.1481 300.182C73.1481 300.583 73.0735 300.975 72.9241 301.358C72.7748 301.741 72.5368 302.137 72.2101 302.548C71.8928 302.959 71.4821 303.411 70.9781 303.906C70.4555 304.419 69.8535 304.961 69.1721 305.53H73.3161V307H66.7361Z" fill="#717591"/>
<path d="M139.98 307V297.06H141.492L146.448 304.172V297.06H148.114V307H146.602L141.646 299.86V307H139.98ZM153.36 307.21C152.828 307.21 152.333 307.117 151.876 306.93C151.428 306.734 151.036 306.463 150.7 306.118C150.364 305.763 150.103 305.353 149.916 304.886C149.729 304.41 149.636 303.892 149.636 303.332C149.636 302.781 149.729 302.273 149.916 301.806C150.103 301.33 150.364 300.919 150.7 300.574C151.045 300.219 151.447 299.949 151.904 299.762C152.371 299.566 152.875 299.468 153.416 299.468C153.948 299.468 154.438 299.566 154.886 299.762C155.343 299.949 155.74 300.219 156.076 300.574C156.412 300.919 156.673 301.325 156.86 301.792C157.047 302.259 157.14 302.772 157.14 303.332C157.14 303.892 157.047 304.41 156.86 304.886C156.673 305.353 156.407 305.763 156.062 306.118C155.726 306.463 155.325 306.734 154.858 306.93C154.401 307.117 153.901 307.21 153.36 307.21ZM153.388 305.754C153.789 305.754 154.149 305.651 154.466 305.446C154.783 305.231 155.031 304.942 155.208 304.578C155.395 304.214 155.488 303.799 155.488 303.332C155.488 302.865 155.395 302.455 155.208 302.1C155.031 301.736 154.783 301.451 154.466 301.246C154.149 301.031 153.789 300.924 153.388 300.924C152.987 300.924 152.627 301.031 152.31 301.246C151.993 301.451 151.741 301.736 151.554 302.1C151.377 302.455 151.288 302.865 151.288 303.332C151.288 303.799 151.377 304.214 151.554 304.578C151.741 304.942 151.993 305.231 152.31 305.446C152.627 305.651 152.987 305.754 153.388 305.754ZM160.467 307L157.667 299.678H159.431L161.307 305.32L163.197 299.678H164.905L162.105 307H160.467ZM168.738 307V305.768C169.214 305.376 169.629 305.026 169.984 304.718C170.348 304.401 170.67 304.111 170.95 303.85C171.23 303.589 171.491 303.337 171.734 303.094C172.154 302.674 172.49 302.305 172.742 301.988C173.003 301.671 173.195 301.372 173.316 301.092C173.437 300.812 173.498 300.523 173.498 300.224C173.498 299.897 173.433 299.613 173.302 299.37C173.171 299.127 172.989 298.941 172.756 298.81C172.532 298.67 172.266 298.6 171.958 298.6C171.538 298.6 171.174 298.735 170.866 299.006C170.558 299.267 170.343 299.631 170.222 300.098L168.682 299.79C168.803 299.258 169.018 298.791 169.326 298.39C169.643 297.989 170.031 297.681 170.488 297.466C170.955 297.242 171.459 297.13 172 297.13C172.457 297.13 172.877 297.209 173.26 297.368C173.643 297.517 173.974 297.732 174.254 298.012C174.543 298.283 174.763 298.605 174.912 298.978C175.071 299.342 175.15 299.743 175.15 300.182C175.15 300.583 175.075 300.975 174.926 301.358C174.777 301.741 174.539 302.137 174.212 302.548C173.895 302.959 173.484 303.411 172.98 303.906C172.457 304.419 171.855 304.961 171.174 305.53H175.318V307H168.738ZM180.433 307.21C179.873 307.21 179.36 307.098 178.893 306.874C178.436 306.65 178.039 306.333 177.703 305.922C177.377 305.511 177.12 305.017 176.933 304.438C176.756 303.85 176.667 303.201 176.667 302.492C176.667 301.717 176.775 301.003 176.989 300.35C177.204 299.697 177.507 299.132 177.899 298.656C178.291 298.171 178.758 297.797 179.299 297.536C179.841 297.265 180.443 297.13 181.105 297.13C181.516 297.13 181.908 297.186 182.281 297.298C182.655 297.401 183.005 297.559 183.331 297.774L182.841 299.118C182.608 298.969 182.342 298.852 182.043 298.768C181.754 298.675 181.451 298.628 181.133 298.628C180.611 298.628 180.144 298.759 179.733 299.02C179.332 299.272 179.005 299.655 178.753 300.168C178.511 300.672 178.357 301.293 178.291 302.03C178.525 301.647 178.842 301.349 179.243 301.134C179.654 300.91 180.13 300.798 180.671 300.798C181.129 300.798 181.553 300.877 181.945 301.036C182.337 301.195 182.678 301.419 182.967 301.708C183.257 301.988 183.481 302.319 183.639 302.702C183.807 303.075 183.891 303.481 183.891 303.92C183.891 304.387 183.803 304.821 183.625 305.222C183.457 305.614 183.215 305.959 182.897 306.258C182.58 306.557 182.211 306.79 181.791 306.958C181.371 307.126 180.919 307.21 180.433 307.21ZM180.419 305.782C180.765 305.782 181.073 305.703 181.343 305.544C181.623 305.376 181.843 305.157 182.001 304.886C182.16 304.606 182.239 304.293 182.239 303.948C182.239 303.603 182.16 303.299 182.001 303.038C181.843 302.767 181.628 302.557 181.357 302.408C181.087 302.249 180.779 302.17 180.433 302.17C180.088 302.17 179.78 302.249 179.509 302.408C179.239 302.557 179.024 302.763 178.865 303.024C178.707 303.285 178.627 303.589 178.627 303.934C178.627 304.279 178.707 304.592 178.865 304.872C179.024 305.152 179.239 305.376 179.509 305.544C179.78 305.703 180.083 305.782 180.419 305.782Z" fill="#717591"/>
<path d="M249.98 307V297.06H251.492L256.448 304.172V297.06H258.114V307H256.602L251.646 299.86V307H249.98ZM263.36 307.21C262.828 307.21 262.333 307.117 261.876 306.93C261.428 306.734 261.036 306.463 260.7 306.118C260.364 305.763 260.103 305.353 259.916 304.886C259.729 304.41 259.636 303.892 259.636 303.332C259.636 302.781 259.729 302.273 259.916 301.806C260.103 301.33 260.364 300.919 260.7 300.574C261.045 300.219 261.447 299.949 261.904 299.762C262.371 299.566 262.875 299.468 263.416 299.468C263.948 299.468 264.438 299.566 264.886 299.762C265.343 299.949 265.74 300.219 266.076 300.574C266.412 300.919 266.673 301.325 266.86 301.792C267.047 302.259 267.14 302.772 267.14 303.332C267.14 303.892 267.047 304.41 266.86 304.886C266.673 305.353 266.407 305.763 266.062 306.118C265.726 306.463 265.325 306.734 264.858 306.93C264.401 307.117 263.901 307.21 263.36 307.21ZM263.388 305.754C263.789 305.754 264.149 305.651 264.466 305.446C264.783 305.231 265.031 304.942 265.208 304.578C265.395 304.214 265.488 303.799 265.488 303.332C265.488 302.865 265.395 302.455 265.208 302.1C265.031 301.736 264.783 301.451 264.466 301.246C264.149 301.031 263.789 300.924 263.388 300.924C262.987 300.924 262.627 301.031 262.31 301.246C261.993 301.451 261.741 301.736 261.554 302.1C261.377 302.455 261.288 302.865 261.288 303.332C261.288 303.799 261.377 304.214 261.554 304.578C261.741 304.942 261.993 305.231 262.31 305.446C262.627 305.651 262.987 305.754 263.388 305.754ZM270.467 307L267.667 299.678H269.431L271.307 305.32L273.197 299.678H274.905L272.105 307H270.467ZM281.958 307.21C281.407 307.21 280.894 307.117 280.418 306.93C279.951 306.734 279.545 306.445 279.2 306.062C278.864 305.679 278.626 305.213 278.486 304.662L279.998 304.368C280.147 304.816 280.39 305.161 280.726 305.404C281.062 305.647 281.463 305.768 281.93 305.768C282.275 305.768 282.583 305.703 282.854 305.572C283.125 305.441 283.335 305.259 283.484 305.026C283.643 304.793 283.722 304.527 283.722 304.228C283.722 303.929 283.643 303.668 283.484 303.444C283.335 303.211 283.12 303.033 282.84 302.912C282.569 302.791 282.247 302.73 281.874 302.73H280.838V301.302H281.804C282.149 301.302 282.448 301.246 282.7 301.134C282.961 301.013 283.162 300.845 283.302 300.63C283.442 300.415 283.512 300.168 283.512 299.888C283.512 299.627 283.447 299.398 283.316 299.202C283.185 299.006 283.003 298.852 282.77 298.74C282.546 298.628 282.28 298.572 281.972 298.572C281.552 298.572 281.179 298.689 280.852 298.922C280.535 299.155 280.311 299.491 280.18 299.93L278.668 299.636C278.78 299.132 278.995 298.693 279.312 298.32C279.629 297.947 280.021 297.657 280.488 297.452C280.955 297.237 281.473 297.13 282.042 297.13C282.49 297.13 282.901 297.195 283.274 297.326C283.657 297.447 283.988 297.625 284.268 297.858C284.548 298.091 284.763 298.371 284.912 298.698C285.071 299.015 285.15 299.37 285.15 299.762C285.15 300.247 285.024 300.677 284.772 301.05C284.529 301.423 284.179 301.717 283.722 301.932C284.235 302.119 284.637 302.417 284.926 302.828C285.225 303.239 285.374 303.719 285.374 304.27C285.374 304.69 285.285 305.082 285.108 305.446C284.94 305.801 284.702 306.109 284.394 306.37C284.086 306.631 283.722 306.837 283.302 306.986C282.891 307.135 282.443 307.21 281.958 307.21ZM290.252 307.21C289.692 307.21 289.188 307.098 288.74 306.874C288.292 306.641 287.909 306.305 287.592 305.866C287.275 305.427 287.032 304.9 286.864 304.284C286.705 303.668 286.626 302.977 286.626 302.212C286.626 301.419 286.71 300.709 286.878 300.084C287.055 299.459 287.307 298.927 287.634 298.488C287.961 298.049 288.353 297.713 288.81 297.48C289.267 297.247 289.776 297.13 290.336 297.13C290.905 297.13 291.409 297.247 291.848 297.48C292.296 297.713 292.674 298.049 292.982 298.488C293.29 298.927 293.523 299.454 293.682 300.07C293.85 300.677 293.934 301.363 293.934 302.128C293.934 302.912 293.85 303.617 293.682 304.242C293.514 304.867 293.267 305.404 292.94 305.852C292.623 306.291 292.235 306.627 291.778 306.86C291.33 307.093 290.821 307.21 290.252 307.21ZM290.28 305.698C290.905 305.698 291.391 305.395 291.736 304.788C292.091 304.172 292.268 303.299 292.268 302.17C292.268 301.041 292.091 300.173 291.736 299.566C291.391 298.95 290.905 298.642 290.28 298.642C289.655 298.642 289.165 298.95 288.81 299.566C288.465 300.173 288.292 301.041 288.292 302.17C288.292 303.299 288.465 304.172 288.81 304.788C289.165 305.395 289.655 305.698 290.28 305.698Z" fill="#717591"/>
<path d="M359.98 307V297.06H363.606C364.39 297.06 365.104 297.181 365.748 297.424C366.401 297.657 366.957 297.993 367.414 298.432C367.881 298.861 368.24 299.379 368.492 299.986C368.744 300.593 368.87 301.269 368.87 302.016C368.87 302.763 368.744 303.444 368.492 304.06C368.24 304.667 367.881 305.189 367.414 305.628C366.947 306.067 366.392 306.407 365.748 306.65C365.104 306.883 364.39 307 363.606 307H359.98ZM361.688 305.474H363.522C364.259 305.474 364.894 305.334 365.426 305.054C365.958 304.774 366.369 304.377 366.658 303.864C366.957 303.341 367.106 302.73 367.106 302.03C367.106 301.33 366.957 300.723 366.658 300.21C366.369 299.687 365.953 299.286 365.412 299.006C364.88 298.726 364.25 298.586 363.522 298.586H361.688V305.474ZM373.784 307.21C373.242 307.21 372.743 307.117 372.286 306.93C371.838 306.734 371.446 306.463 371.11 306.118C370.774 305.773 370.512 305.367 370.326 304.9C370.148 304.424 370.06 303.901 370.06 303.332C370.06 302.781 370.148 302.273 370.326 301.806C370.512 301.339 370.764 300.933 371.082 300.588C371.408 300.233 371.791 299.958 372.23 299.762C372.668 299.566 373.144 299.468 373.658 299.468C374.171 299.468 374.638 299.561 375.058 299.748C375.487 299.925 375.856 300.182 376.164 300.518C376.481 300.854 376.724 301.255 376.892 301.722C377.06 302.179 377.144 302.688 377.144 303.248V303.724H371.726C371.772 304.153 371.884 304.527 372.062 304.844C372.248 305.152 372.486 305.39 372.776 305.558C373.065 305.726 373.401 305.81 373.784 305.81C374.549 305.81 375.146 305.469 375.576 304.788L376.99 305.334C376.822 305.717 376.574 306.053 376.248 306.342C375.93 306.622 375.557 306.837 375.128 306.986C374.708 307.135 374.26 307.21 373.784 307.21ZM373.658 300.77C373.331 300.77 373.037 300.845 372.776 300.994C372.524 301.143 372.309 301.353 372.132 301.624C371.954 301.895 371.833 302.212 371.768 302.576H375.464C375.408 302.212 375.3 301.895 375.142 301.624C374.983 301.353 374.773 301.143 374.512 300.994C374.26 300.845 373.975 300.77 373.658 300.77ZM381.889 307.21C381.366 307.21 380.885 307.117 380.447 306.93C380.008 306.734 379.625 306.468 379.299 306.132C378.972 305.787 378.715 305.381 378.529 304.914C378.351 304.447 378.263 303.939 378.263 303.388C378.263 302.837 378.356 302.324 378.543 301.848C378.729 301.372 378.986 300.957 379.313 300.602C379.639 300.247 380.022 299.972 380.461 299.776C380.909 299.571 381.394 299.468 381.917 299.468C382.421 299.468 382.883 299.561 383.303 299.748C383.723 299.925 384.082 300.182 384.381 300.518C384.689 300.845 384.908 301.232 385.039 301.68L383.513 302.044C383.354 301.689 383.13 301.414 382.841 301.218C382.561 301.022 382.243 300.924 381.889 300.924C381.515 300.924 381.179 301.031 380.881 301.246C380.582 301.461 380.344 301.755 380.167 302.128C379.999 302.492 379.915 302.907 379.915 303.374C379.915 303.831 379.999 304.242 380.167 304.606C380.335 304.961 380.563 305.241 380.853 305.446C381.151 305.651 381.497 305.754 381.889 305.754C382.262 305.754 382.603 305.661 382.911 305.474C383.219 305.278 383.447 305.003 383.597 304.648L385.109 304.998C384.978 305.446 384.754 305.838 384.437 306.174C384.119 306.501 383.741 306.757 383.303 306.944C382.864 307.121 382.393 307.21 381.889 307.21ZM392.801 307.21C392.241 307.21 391.737 307.098 391.289 306.874C390.841 306.641 390.458 306.305 390.141 305.866C389.824 305.427 389.581 304.9 389.413 304.284C389.254 303.668 389.175 302.977 389.175 302.212C389.175 301.419 389.259 300.709 389.427 300.084C389.604 299.459 389.856 298.927 390.183 298.488C390.51 298.049 390.902 297.713 391.359 297.48C391.816 297.247 392.325 297.13 392.885 297.13C393.454 297.13 393.958 297.247 394.397 297.48C394.845 297.713 395.223 298.049 395.531 298.488C395.839 298.927 396.072 299.454 396.231 300.07C396.399 300.677 396.483 301.363 396.483 302.128C396.483 302.912 396.399 303.617 396.231 304.242C396.063 304.867 395.816 305.404 395.489 305.852C395.172 306.291 394.784 306.627 394.327 306.86C393.879 307.093 393.37 307.21 392.801 307.21ZM392.829 305.698C393.454 305.698 393.94 305.395 394.285 304.788C394.64 304.172 394.817 303.299 394.817 302.17C394.817 301.041 394.64 300.173 394.285 299.566C393.94 298.95 393.454 298.642 392.829 298.642C392.204 298.642 391.714 298.95 391.359 299.566C391.014 300.173 390.841 301.041 390.841 302.17C390.841 303.299 391.014 304.172 391.359 304.788C391.714 305.395 392.204 305.698 392.829 305.698ZM401.527 307.21C400.967 307.21 400.454 307.098 399.987 306.874C399.53 306.65 399.133 306.333 398.797 305.922C398.471 305.511 398.214 305.017 398.027 304.438C397.85 303.85 397.761 303.201 397.761 302.492C397.761 301.717 397.869 301.003 398.083 300.35C398.298 299.697 398.601 299.132 398.993 298.656C399.385 298.171 399.852 297.797 400.393 297.536C400.935 297.265 401.537 297.13 402.199 297.13C402.61 297.13 403.002 297.186 403.375 297.298C403.749 297.401 404.099 297.559 404.425 297.774L403.935 299.118C403.702 298.969 403.436 298.852 403.137 298.768C402.848 298.675 402.545 298.628 402.227 298.628C401.705 298.628 401.238 298.759 400.827 299.02C400.426 299.272 400.099 299.655 399.847 300.168C399.605 300.672 399.451 301.293 399.385 302.03C399.619 301.647 399.936 301.349 400.337 301.134C400.748 300.91 401.224 300.798 401.765 300.798C402.223 300.798 402.647 300.877 403.039 301.036C403.431 301.195 403.772 301.419 404.061 301.708C404.351 301.988 404.575 302.319 404.733 302.702C404.901 303.075 404.985 303.481 404.985 303.92C404.985 304.387 404.897 304.821 404.719 305.222C404.551 305.614 404.309 305.959 403.991 306.258C403.674 306.557 403.305 306.79 402.885 306.958C402.465 307.126 402.013 307.21 401.527 307.21ZM401.513 305.782C401.859 305.782 402.167 305.703 402.437 305.544C402.717 305.376 402.937 305.157 403.095 304.886C403.254 304.606 403.333 304.293 403.333 303.948C403.333 303.603 403.254 303.299 403.095 303.038C402.937 302.767 402.722 302.557 402.451 302.408C402.181 302.249 401.873 302.17 401.527 302.17C401.182 302.17 400.874 302.249 400.603 302.408C400.333 302.557 400.118 302.763 399.959 303.024C399.801 303.285 399.721 303.589 399.721 303.934C399.721 304.279 399.801 304.592 399.959 304.872C400.118 305.152 400.333 305.376 400.603 305.544C400.874 305.703 401.177 305.782 401.513 305.782Z" fill="#717591"/>
<path d="M578.98 307V297.06H582.606C583.39 297.06 584.104 297.181 584.748 297.424C585.401 297.657 585.957 297.993 586.414 298.432C586.881 298.861 587.24 299.379 587.492 299.986C587.744 300.593 587.87 301.269 587.87 302.016C587.87 302.763 587.744 303.444 587.492 304.06C587.24 304.667 586.881 305.189 586.414 305.628C585.947 306.067 585.392 306.407 584.748 306.65C584.104 306.883 583.39 307 582.606 307H578.98ZM580.688 305.474H582.522C583.259 305.474 583.894 305.334 584.426 305.054C584.958 304.774 585.369 304.377 585.658 303.864C585.957 303.341 586.106 302.73 586.106 302.03C586.106 301.33 585.957 300.723 585.658 300.21C585.369 299.687 584.953 299.286 584.412 299.006C583.88 298.726 583.25 298.586 582.522 298.586H580.688V305.474ZM592.784 307.21C592.242 307.21 591.743 307.117 591.286 306.93C590.838 306.734 590.446 306.463 590.11 306.118C589.774 305.773 589.512 305.367 589.326 304.9C589.148 304.424 589.06 303.901 589.06 303.332C589.06 302.781 589.148 302.273 589.326 301.806C589.512 301.339 589.764 300.933 590.082 300.588C590.408 300.233 590.791 299.958 591.23 299.762C591.668 299.566 592.144 299.468 592.658 299.468C593.171 299.468 593.638 299.561 594.058 299.748C594.487 299.925 594.856 300.182 595.164 300.518C595.481 300.854 595.724 301.255 595.892 301.722C596.06 302.179 596.144 302.688 596.144 303.248V303.724H590.726C590.772 304.153 590.884 304.527 591.062 304.844C591.248 305.152 591.486 305.39 591.776 305.558C592.065 305.726 592.401 305.81 592.784 305.81C593.549 305.81 594.146 305.469 594.576 304.788L595.99 305.334C595.822 305.717 595.574 306.053 595.248 306.342C594.93 306.622 594.557 306.837 594.128 306.986C593.708 307.135 593.26 307.21 592.784 307.21ZM592.658 300.77C592.331 300.77 592.037 300.845 591.776 300.994C591.524 301.143 591.309 301.353 591.132 301.624C590.954 301.895 590.833 302.212 590.768 302.576H594.464C594.408 302.212 594.3 301.895 594.142 301.624C593.983 301.353 593.773 301.143 593.512 300.994C593.26 300.845 592.975 300.77 592.658 300.77ZM600.889 307.21C600.366 307.21 599.885 307.117 599.447 306.93C599.008 306.734 598.625 306.468 598.299 306.132C597.972 305.787 597.715 305.381 597.529 304.914C597.351 304.447 597.263 303.939 597.263 303.388C597.263 302.837 597.356 302.324 597.543 301.848C597.729 301.372 597.986 300.957 598.313 300.602C598.639 300.247 599.022 299.972 599.461 299.776C599.909 299.571 600.394 299.468 600.917 299.468C601.421 299.468 601.883 299.561 602.303 299.748C602.723 299.925 603.082 300.182 603.381 300.518C603.689 300.845 603.908 301.232 604.039 301.68L602.513 302.044C602.354 301.689 602.13 301.414 601.841 301.218C601.561 301.022 601.243 300.924 600.889 300.924C600.515 300.924 600.179 301.031 599.881 301.246C599.582 301.461 599.344 301.755 599.167 302.128C598.999 302.492 598.915 302.907 598.915 303.374C598.915 303.831 598.999 304.242 599.167 304.606C599.335 304.961 599.563 305.241 599.853 305.446C600.151 305.651 600.497 305.754 600.889 305.754C601.262 305.754 601.603 305.661 601.911 305.474C602.219 305.278 602.447 305.003 602.597 304.648L604.109 304.998C603.978 305.446 603.754 305.838 603.437 306.174C603.119 306.501 602.741 306.757 602.303 306.944C601.864 307.121 601.393 307.21 600.889 307.21ZM608.203 307V305.768C608.679 305.376 609.094 305.026 609.449 304.718C609.813 304.401 610.135 304.111 610.415 303.85C610.695 303.589 610.956 303.337 611.199 303.094C611.619 302.674 611.955 302.305 612.207 301.988C612.468 301.671 612.66 301.372 612.781 301.092C612.902 300.812 612.963 300.523 612.963 300.224C612.963 299.897 612.898 299.613 612.767 299.37C612.636 299.127 612.454 298.941 612.221 298.81C611.997 298.67 611.731 298.6 611.423 298.6C611.003 298.6 610.639 298.735 610.331 299.006C610.023 299.267 609.808 299.631 609.687 300.098L608.147 299.79C608.268 299.258 608.483 298.791 608.791 298.39C609.108 297.989 609.496 297.681 609.953 297.466C610.42 297.242 610.924 297.13 611.465 297.13C611.922 297.13 612.342 297.209 612.725 297.368C613.108 297.517 613.439 297.732 613.719 298.012C614.008 298.283 614.228 298.605 614.377 298.978C614.536 299.342 614.615 299.743 614.615 300.182C614.615 300.583 614.54 300.975 614.391 301.358C614.242 301.741 614.004 302.137 613.677 302.548C613.36 302.959 612.949 303.411 612.445 303.906C611.922 304.419 611.32 304.961 610.639 305.53H614.783V307H608.203ZM616.201 307V305.768C616.677 305.376 617.092 305.026 617.447 304.718C617.811 304.401 618.133 304.111 618.413 303.85C618.693 303.589 618.954 303.337 619.197 303.094C619.617 302.674 619.953 302.305 620.205 301.988C620.466 301.671 620.658 301.372 620.779 301.092C620.9 300.812 620.961 300.523 620.961 300.224C620.961 299.897 620.896 299.613 620.765 299.37C620.634 299.127 620.452 298.941 620.219 298.81C619.995 298.67 619.729 298.6 619.421 298.6C619.001 298.6 618.637 298.735 618.329 299.006C618.021 299.267 617.806 299.631 617.685 300.098L616.145 299.79C616.266 299.258 616.481 298.791 616.789 298.39C617.106 297.989 617.494 297.681 617.951 297.466C618.418 297.242 618.922 297.13 619.463 297.13C619.92 297.13 620.34 297.209 620.723 297.368C621.106 297.517 621.437 297.732 621.717 298.012C622.006 298.283 622.226 298.605 622.375 298.978C622.534 299.342 622.613 299.743 622.613 300.182C622.613 300.583 622.538 300.975 622.389 301.358C622.24 301.741 622.002 302.137 621.675 302.548C621.358 302.959 620.947 303.411 620.443 303.906C619.92 304.419 619.318 304.961 618.637 305.53H622.781V307H616.201Z" fill="#717591"/>
<path d="M470.98 307V297.06H474.606C475.39 297.06 476.104 297.181 476.748 297.424C477.401 297.657 477.957 297.993 478.414 298.432C478.881 298.861 479.24 299.379 479.492 299.986C479.744 300.593 479.87 301.269 479.87 302.016C479.87 302.763 479.744 303.444 479.492 304.06C479.24 304.667 478.881 305.189 478.414 305.628C477.947 306.067 477.392 306.407 476.748 306.65C476.104 306.883 475.39 307 474.606 307H470.98ZM472.688 305.474H474.522C475.259 305.474 475.894 305.334 476.426 305.054C476.958 304.774 477.369 304.377 477.658 303.864C477.957 303.341 478.106 302.73 478.106 302.03C478.106 301.33 477.957 300.723 477.658 300.21C477.369 299.687 476.953 299.286 476.412 299.006C475.88 298.726 475.25 298.586 474.522 298.586H472.688V305.474ZM484.784 307.21C484.242 307.21 483.743 307.117 483.286 306.93C482.838 306.734 482.446 306.463 482.11 306.118C481.774 305.773 481.512 305.367 481.326 304.9C481.148 304.424 481.06 303.901 481.06 303.332C481.06 302.781 481.148 302.273 481.326 301.806C481.512 301.339 481.764 300.933 482.082 300.588C482.408 300.233 482.791 299.958 483.23 299.762C483.668 299.566 484.144 299.468 484.658 299.468C485.171 299.468 485.638 299.561 486.058 299.748C486.487 299.925 486.856 300.182 487.164 300.518C487.481 300.854 487.724 301.255 487.892 301.722C488.06 302.179 488.144 302.688 488.144 303.248V303.724H482.726C482.772 304.153 482.884 304.527 483.062 304.844C483.248 305.152 483.486 305.39 483.776 305.558C484.065 305.726 484.401 305.81 484.784 305.81C485.549 305.81 486.146 305.469 486.576 304.788L487.99 305.334C487.822 305.717 487.574 306.053 487.248 306.342C486.93 306.622 486.557 306.837 486.128 306.986C485.708 307.135 485.26 307.21 484.784 307.21ZM484.658 300.77C484.331 300.77 484.037 300.845 483.776 300.994C483.524 301.143 483.309 301.353 483.132 301.624C482.954 301.895 482.833 302.212 482.768 302.576H486.464C486.408 302.212 486.3 301.895 486.142 301.624C485.983 301.353 485.773 301.143 485.512 300.994C485.26 300.845 484.975 300.77 484.658 300.77ZM492.889 307.21C492.366 307.21 491.885 307.117 491.447 306.93C491.008 306.734 490.625 306.468 490.299 306.132C489.972 305.787 489.715 305.381 489.529 304.914C489.351 304.447 489.263 303.939 489.263 303.388C489.263 302.837 489.356 302.324 489.543 301.848C489.729 301.372 489.986 300.957 490.313 300.602C490.639 300.247 491.022 299.972 491.461 299.776C491.909 299.571 492.394 299.468 492.917 299.468C493.421 299.468 493.883 299.561 494.303 299.748C494.723 299.925 495.082 300.182 495.381 300.518C495.689 300.845 495.908 301.232 496.039 301.68L494.513 302.044C494.354 301.689 494.13 301.414 493.841 301.218C493.561 301.022 493.243 300.924 492.889 300.924C492.515 300.924 492.179 301.031 491.881 301.246C491.582 301.461 491.344 301.755 491.167 302.128C490.999 302.492 490.915 302.907 490.915 303.374C490.915 303.831 490.999 304.242 491.167 304.606C491.335 304.961 491.563 305.241 491.853 305.446C492.151 305.651 492.497 305.754 492.889 305.754C493.262 305.754 493.603 305.661 493.911 305.474C494.219 305.278 494.447 305.003 494.597 304.648L496.109 304.998C495.978 305.446 495.754 305.838 495.437 306.174C495.119 306.501 494.741 306.757 494.303 306.944C493.864 307.121 493.393 307.21 492.889 307.21ZM502.485 307V299.118L500.385 300.294L499.811 298.936L502.737 297.34H504.109V307H502.485ZM509.984 307.21C509.424 307.21 508.911 307.098 508.444 306.874C507.987 306.65 507.59 306.333 507.254 305.922C506.928 305.511 506.671 305.017 506.484 304.438C506.307 303.85 506.218 303.201 506.218 302.492C506.218 301.717 506.326 301.003 506.54 300.35C506.755 299.697 507.058 299.132 507.45 298.656C507.842 298.171 508.309 297.797 508.85 297.536C509.392 297.265 509.994 297.13 510.656 297.13C511.067 297.13 511.459 297.186 511.832 297.298C512.206 297.401 512.556 297.559 512.882 297.774L512.392 299.118C512.159 298.969 511.893 298.852 511.594 298.768C511.305 298.675 511.002 298.628 510.684 298.628C510.162 298.628 509.695 298.759 509.284 299.02C508.883 299.272 508.556 299.655 508.304 300.168C508.062 300.672 507.908 301.293 507.842 302.03C508.076 301.647 508.393 301.349 508.794 301.134C509.205 300.91 509.681 300.798 510.222 300.798C510.68 300.798 511.104 300.877 511.496 301.036C511.888 301.195 512.229 301.419 512.518 301.708C512.808 301.988 513.032 302.319 513.19 302.702C513.358 303.075 513.442 303.481 513.442 303.92C513.442 304.387 513.354 304.821 513.176 305.222C513.008 305.614 512.766 305.959 512.448 306.258C512.131 306.557 511.762 306.79 511.342 306.958C510.922 307.126 510.47 307.21 509.984 307.21ZM509.97 305.782C510.316 305.782 510.624 305.703 510.894 305.544C511.174 305.376 511.394 305.157 511.552 304.886C511.711 304.606 511.79 304.293 511.79 303.948C511.79 303.603 511.711 303.299 511.552 303.038C511.394 302.767 511.179 302.557 510.908 302.408C510.638 302.249 510.33 302.17 509.984 302.17C509.639 302.17 509.331 302.249 509.06 302.408C508.79 302.557 508.575 302.763 508.416 303.024C508.258 303.285 508.178 303.589 508.178 303.934C508.178 304.279 508.258 304.592 508.416 304.872C508.575 305.152 508.79 305.376 509.06 305.544C509.331 305.703 509.634 305.782 509.97 305.782Z" fill="#717591"/>
<path d="M3.91852 75V67.118L1.81852 68.294L1.24452 66.936L4.17052 65.34H5.54252V75H3.91852ZM11.2638 75.21C10.7038 75.21 10.1998 75.098 9.75181 74.874C9.30381 74.6407 8.92115 74.3047 8.60381 73.866C8.28648 73.4273 8.04381 72.9 7.87581 72.284C7.71715 71.668 7.63781 70.9773 7.63781 70.212C7.63781 69.4187 7.72181 68.7093 7.88981 68.084C8.06715 67.4587 8.31915 66.9267 8.64581 66.488C8.97248 66.0493 9.36448 65.7133 9.82181 65.48C10.2791 65.2467 10.7878 65.13 11.3478 65.13C11.9171 65.13 12.4211 65.2467 12.8598 65.48C13.3078 65.7133 13.6858 66.0493 13.9938 66.488C14.3018 66.9267 14.5351 67.454 14.6938 68.07C14.8618 68.6767 14.9458 69.3627 14.9458 70.128C14.9458 70.912 14.8618 71.6167 14.6938 72.242C14.5258 72.8673 14.2785 73.404 13.9518 73.852C13.6345 74.2907 13.2471 74.6267 12.7898 74.86C12.3418 75.0933 11.8331 75.21 11.2638 75.21ZM11.2918 73.698C11.9171 73.698 12.4025 73.3947 12.7478 72.788C13.1025 72.172 13.2798 71.2993 13.2798 70.17C13.2798 69.0407 13.1025 68.1727 12.7478 67.566C12.4025 66.95 11.9171 66.642 11.2918 66.642C10.6665 66.642 10.1765 66.95 9.82181 67.566C9.47648 68.1727 9.30381 69.0407 9.30381 70.17C9.30381 71.2993 9.47648 72.172 9.82181 72.788C10.1765 73.3947 10.6665 73.698 11.2918 73.698ZM19.8361 75.21C19.2761 75.21 18.7721 75.098 18.3241 74.874C17.8761 74.6407 17.4934 74.3047 17.1761 73.866C16.8587 73.4273 16.6161 72.9 16.4481 72.284C16.2894 71.668 16.2101 70.9773 16.2101 70.212C16.2101 69.4187 16.2941 68.7093 16.4621 68.084C16.6394 67.4587 16.8914 66.9267 17.2181 66.488C17.5447 66.0493 17.9367 65.7133 18.3941 65.48C18.8514 65.2467 19.3601 65.13 19.9201 65.13C20.4894 65.13 20.9934 65.2467 21.4321 65.48C21.8801 65.7133 22.2581 66.0493 22.5661 66.488C22.8741 66.9267 23.1074 67.454 23.2661 68.07C23.4341 68.6767 23.5181 69.3627 23.5181 70.128C23.5181 70.912 23.4341 71.6167 23.2661 72.242C23.0981 72.8673 22.8507 73.404 22.5241 73.852C22.2067 74.2907 21.8194 74.6267 21.3621 74.86C20.9141 75.0933 20.4054 75.21 19.8361 75.21ZM19.8641 73.698C20.4894 73.698 20.9747 73.3947 21.3201 72.788C21.6747 72.172 21.8521 71.2993 21.8521 70.17C21.8521 69.0407 21.6747 68.1727 21.3201 67.566C20.9747 66.95 20.4894 66.642 19.8641 66.642C19.2387 66.642 18.7487 66.95 18.3941 67.566C18.0487 68.1727 17.8761 69.0407 17.8761 70.17C17.8761 71.2993 18.0487 72.172 18.3941 72.788C18.7487 73.3947 19.2387 73.698 19.8641 73.698ZM25.0203 75V64.584H26.6303V70.702L29.6263 67.678H31.5863L28.2963 70.926L31.9223 75H29.8083L26.6303 71.304V75H25.0203Z" fill="#717591"/>
<path d="M4.54742 25V17.118L2.44742 18.294L1.87342 16.936L4.79942 15.34H6.17142V25H4.54742ZM8.29472 25V23.768C8.77072 23.376 9.18605 23.026 9.54072 22.718C9.90472 22.4007 10.2267 22.1113 10.5067 21.85C10.7867 21.5887 11.0481 21.3367 11.2907 21.094C11.7107 20.674 12.0467 20.3053 12.2987 19.988C12.5601 19.6707 12.7514 19.372 12.8727 19.092C12.9941 18.812 13.0547 18.5227 13.0547 18.224C13.0547 17.8973 12.9894 17.6127 12.8587 17.37C12.7281 17.1273 12.5461 16.9407 12.3127 16.81C12.0887 16.67 11.8227 16.6 11.5147 16.6C11.0947 16.6 10.7307 16.7353 10.4227 17.006C10.1147 17.2673 9.90005 17.6313 9.77872 18.098L8.23872 17.79C8.36005 17.258 8.57472 16.7913 8.88272 16.39C9.20005 15.9887 9.58739 15.6807 10.0447 15.466C10.5114 15.242 11.0154 15.13 11.5567 15.13C12.0141 15.13 12.4341 15.2093 12.8167 15.368C13.1994 15.5173 13.5307 15.732 13.8107 16.012C14.1001 16.2827 14.3194 16.6047 14.4687 16.978C14.6274 17.342 14.7067 17.7433 14.7067 18.182C14.7067 18.5833 14.6321 18.9753 14.4827 19.358C14.3334 19.7407 14.0954 20.1373 13.7687 20.548C13.4514 20.9587 13.0407 21.4113 12.5367 21.906C12.0141 22.4193 11.4121 22.9607 10.7307 23.53H14.8747V25H8.29472ZM19.8361 25.21C19.2761 25.21 18.7721 25.098 18.3241 24.874C17.8761 24.6407 17.4934 24.3047 17.1761 23.866C16.8587 23.4273 16.6161 22.9 16.4481 22.284C16.2894 21.668 16.2101 20.9773 16.2101 20.212C16.2101 19.4187 16.2941 18.7093 16.4621 18.084C16.6394 17.4587 16.8914 16.9267 17.2181 16.488C17.5447 16.0493 17.9367 15.7133 18.3941 15.48C18.8514 15.2467 19.3601 15.13 19.9201 15.13C20.4894 15.13 20.9934 15.2467 21.4321 15.48C21.8801 15.7133 22.2581 16.0493 22.5661 16.488C22.8741 16.9267 23.1074 17.454 23.2661 18.07C23.4341 18.6767 23.5181 19.3627 23.5181 20.128C23.5181 20.912 23.4341 21.6167 23.2661 22.242C23.0981 22.8673 22.8507 23.404 22.5241 23.852C22.2067 24.2907 21.8194 24.6267 21.3621 24.86C20.9141 25.0933 20.4054 25.21 19.8361 25.21ZM19.8641 23.698C20.4894 23.698 20.9747 23.3947 21.3201 22.788C21.6747 22.172 21.8521 21.2993 21.8521 20.17C21.8521 19.0407 21.6747 18.1727 21.3201 17.566C20.9747 16.95 20.4894 16.642 19.8641 16.642C19.2387 16.642 18.7487 16.95 18.3941 17.566C18.0487 18.1727 17.8761 19.0407 17.8761 20.17C17.8761 21.2993 18.0487 22.172 18.3941 22.788C18.7487 23.3947 19.2387 23.698 19.8641 23.698ZM25.0203 25V14.584H26.6303V20.702L29.6263 17.678H31.5863L28.2963 20.926L31.9223 25H29.8083L26.6303 21.304V25H25.0203Z" fill="#717591"/>
<path fill-rule="evenodd" clip-rule="evenodd" d="M87.8712 272.705C96.7898 272.979 102.084 273.121 110.432 269.794C118.779 266.467 178.79 263.74 223.911 233.798C269.032 203.856 314.153 133.992 359.274 104.05C404.395 74.1085 440.847 186.441 486.515 201.594C531.636 216.565 584.879 153.953 607.439 168.924L630 183.895V273.721H607.439C584.879 273.721 539.758 273.721 494.637 273.721C449.516 273.721 404.395 273.721 359.274 273.721C314.153 273.721 269.032 273.721 223.911 273.721C178.79 273.721 133.669 273.721 111.108 273.721L52.4512 273.121V272.289C52.4512 272.289 74.3349 272.289 87.8712 272.705Z" fill="#E9EBFA" fill-opacity="0.7"/>
<path d="M630 184.188L607.44 169.217C584.879 154.246 531.636 216.857 486.515 201.886C440.847 186.734 404.395 74.401 359.274 104.343C314.153 134.285 269.032 204.149 223.911 234.091C178.79 264.032 118.779 266.76 110.432 270.087C102.084 273.414 96.7898 273.272 87.8712 272.998C74.3349 272.582 52.4512 272.582 52.4512 272.582H52" stroke="#2C3ACF" stroke-width="4"/>
</svg>
