<svg width="629" height="312" viewBox="0 0 629 312" fill="none" xmlns="http://www.w3.org/2000/svg">
<path d="M10.98 307V297.06H12.492L17.448 304.172V297.06H19.114V307H17.602L12.646 299.86V307H10.98ZM24.3598 307.21C23.8278 307.21 23.3332 307.117 22.8758 306.93C22.4278 306.734 22.0358 306.463 21.6998 306.118C21.3638 305.763 21.1025 305.353 20.9158 304.886C20.7292 304.41 20.6358 303.892 20.6358 303.332C20.6358 302.781 20.7292 302.273 20.9158 301.806C21.1025 301.33 21.3638 300.919 21.6998 300.574C22.0452 300.219 22.4465 299.949 22.9038 299.762C23.3705 299.566 23.8745 299.468 24.4158 299.468C24.9478 299.468 25.4378 299.566 25.8858 299.762C26.3432 299.949 26.7398 300.219 27.0758 300.574C27.4118 300.919 27.6732 301.325 27.8598 301.792C28.0465 302.259 28.1398 302.772 28.1398 303.332C28.1398 303.892 28.0465 304.41 27.8598 304.886C27.6732 305.353 27.4072 305.763 27.0618 306.118C26.7258 306.463 26.3245 306.734 25.8578 306.93C25.4005 307.117 24.9012 307.21 24.3598 307.21ZM24.3878 305.754C24.7892 305.754 25.1485 305.651 25.4658 305.446C25.7832 305.231 26.0305 304.942 26.2078 304.578C26.3945 304.214 26.4878 303.799 26.4878 303.332C26.4878 302.865 26.3945 302.455 26.2078 302.1C26.0305 301.736 25.7832 301.451 25.4658 301.246C25.1485 301.031 24.7892 300.924 24.3878 300.924C23.9865 300.924 23.6272 301.031 23.3098 301.246C22.9925 301.451 22.7405 301.736 22.5538 302.1C22.3765 302.455 22.2878 302.865 22.2878 303.332C22.2878 303.799 22.3765 304.214 22.5538 304.578C22.7405 304.942 22.9925 305.231 23.3098 305.446C23.6272 305.651 23.9865 305.754 24.3878 305.754ZM31.4667 307L28.6667 299.678H30.4307L32.3067 305.32L34.1967 299.678H35.9047L33.1047 307H31.4667ZM39.7381 307V305.768C40.2141 305.376 40.6294 305.026 40.9841 304.718C41.3481 304.401 41.6701 304.111 41.9501 303.85C42.2301 303.589 42.4914 303.337 42.7341 303.094C43.1541 302.674 43.4901 302.305 43.7421 301.988C44.0034 301.671 44.1947 301.372 44.3161 301.092C44.4374 300.812 44.4981 300.523 44.4981 300.224C44.4981 299.897 44.4327 299.613 44.3021 299.37C44.1714 299.127 43.9894 298.941 43.7561 298.81C43.5321 298.67 43.2661 298.6 42.9581 298.6C42.5381 298.6 42.1741 298.735 41.8661 299.006C41.5581 299.267 41.3434 299.631 41.2221 300.098L39.6821 299.79C39.8034 299.258 40.0181 298.791 40.3261 298.39C40.6434 297.989 41.0307 297.681 41.4881 297.466C41.9547 297.242 42.4587 297.13 43.0001 297.13C43.4574 297.13 43.8774 297.209 44.2601 297.368C44.6427 297.517 44.9741 297.732 45.2541 298.012C45.5434 298.283 45.7627 298.605 45.9121 298.978C46.0707 299.342 46.1501 299.743 46.1501 300.182C46.1501 300.583 46.0754 300.975 45.9261 301.358C45.7767 301.741 45.5387 302.137 45.2121 302.548C44.8947 302.959 44.4841 303.411 43.9801 303.906C43.4574 304.419 42.8554 304.961 42.1741 305.53H46.3181V307H39.7381ZM47.7361 307V305.768C48.2121 305.376 48.6275 305.026 48.9821 304.718C49.3461 304.401 49.6681 304.111 49.9481 303.85C50.2281 303.589 50.4895 303.337 50.7321 303.094C51.1521 302.674 51.4881 302.305 51.7401 301.988C52.0015 301.671 52.1928 301.372 52.3141 301.092C52.4355 300.812 52.4961 300.523 52.4961 300.224C52.4961 299.897 52.4308 299.613 52.3001 299.37C52.1695 299.127 51.9875 298.941 51.7541 298.81C51.5301 298.67 51.2641 298.6 50.9561 298.6C50.5361 298.6 50.1721 298.735 49.8641 299.006C49.5561 299.267 49.3415 299.631 49.2201 300.098L47.6801 299.79C47.8015 299.258 48.0161 298.791 48.3241 298.39C48.6415 297.989 49.0288 297.681 49.4861 297.466C49.9528 297.242 50.4568 297.13 50.9981 297.13C51.4555 297.13 51.8755 297.209 52.2581 297.368C52.6408 297.517 52.9721 297.732 53.2521 298.012C53.5415 298.283 53.7608 298.605 53.9101 298.978C54.0688 299.342 54.1481 299.743 54.1481 300.182C54.1481 300.583 54.0735 300.975 53.9241 301.358C53.7748 301.741 53.5368 302.137 53.2101 302.548C52.8928 302.959 52.4821 303.411 51.9781 303.906C51.4555 304.419 50.8535 304.961 50.1721 305.53H54.3161V307H47.7361Z" fill="#717591"/>
<path d="M0 177C0 172.582 3.58172 169 8 169H56C60.4183 169 64 172.582 64 177V280H0V177Z" fill="#2C3ACF"/>
<path d="M123.98 307V297.06H125.492L130.448 304.172V297.06H132.114V307H130.602L125.646 299.86V307H123.98ZM137.36 307.21C136.828 307.21 136.333 307.117 135.876 306.93C135.428 306.734 135.036 306.463 134.7 306.118C134.364 305.763 134.103 305.353 133.916 304.886C133.729 304.41 133.636 303.892 133.636 303.332C133.636 302.781 133.729 302.273 133.916 301.806C134.103 301.33 134.364 300.919 134.7 300.574C135.045 300.219 135.447 299.949 135.904 299.762C136.371 299.566 136.875 299.468 137.416 299.468C137.948 299.468 138.438 299.566 138.886 299.762C139.343 299.949 139.74 300.219 140.076 300.574C140.412 300.919 140.673 301.325 140.86 301.792C141.047 302.259 141.14 302.772 141.14 303.332C141.14 303.892 141.047 304.41 140.86 304.886C140.673 305.353 140.407 305.763 140.062 306.118C139.726 306.463 139.325 306.734 138.858 306.93C138.401 307.117 137.901 307.21 137.36 307.21ZM137.388 305.754C137.789 305.754 138.149 305.651 138.466 305.446C138.783 305.231 139.031 304.942 139.208 304.578C139.395 304.214 139.488 303.799 139.488 303.332C139.488 302.865 139.395 302.455 139.208 302.1C139.031 301.736 138.783 301.451 138.466 301.246C138.149 301.031 137.789 300.924 137.388 300.924C136.987 300.924 136.627 301.031 136.31 301.246C135.993 301.451 135.741 301.736 135.554 302.1C135.377 302.455 135.288 302.865 135.288 303.332C135.288 303.799 135.377 304.214 135.554 304.578C135.741 304.942 135.993 305.231 136.31 305.446C136.627 305.651 136.987 305.754 137.388 305.754ZM144.467 307L141.667 299.678H143.431L145.307 305.32L147.197 299.678H148.905L146.105 307H144.467ZM152.738 307V305.768C153.214 305.376 153.629 305.026 153.984 304.718C154.348 304.401 154.67 304.111 154.95 303.85C155.23 303.589 155.491 303.337 155.734 303.094C156.154 302.674 156.49 302.305 156.742 301.988C157.003 301.671 157.195 301.372 157.316 301.092C157.437 300.812 157.498 300.523 157.498 300.224C157.498 299.897 157.433 299.613 157.302 299.37C157.171 299.127 156.989 298.941 156.756 298.81C156.532 298.67 156.266 298.6 155.958 298.6C155.538 298.6 155.174 298.735 154.866 299.006C154.558 299.267 154.343 299.631 154.222 300.098L152.682 299.79C152.803 299.258 153.018 298.791 153.326 298.39C153.643 297.989 154.031 297.681 154.488 297.466C154.955 297.242 155.459 297.13 156 297.13C156.457 297.13 156.877 297.209 157.26 297.368C157.643 297.517 157.974 297.732 158.254 298.012C158.543 298.283 158.763 298.605 158.912 298.978C159.071 299.342 159.15 299.743 159.15 300.182C159.15 300.583 159.075 300.975 158.926 301.358C158.777 301.741 158.539 302.137 158.212 302.548C157.895 302.959 157.484 303.411 156.98 303.906C156.457 304.419 155.855 304.961 155.174 305.53H159.318V307H152.738ZM164.433 307.21C163.873 307.21 163.36 307.098 162.893 306.874C162.436 306.65 162.039 306.333 161.703 305.922C161.377 305.511 161.12 305.017 160.933 304.438C160.756 303.85 160.667 303.201 160.667 302.492C160.667 301.717 160.775 301.003 160.989 300.35C161.204 299.697 161.507 299.132 161.899 298.656C162.291 298.171 162.758 297.797 163.299 297.536C163.841 297.265 164.443 297.13 165.105 297.13C165.516 297.13 165.908 297.186 166.281 297.298C166.655 297.401 167.005 297.559 167.331 297.774L166.841 299.118C166.608 298.969 166.342 298.852 166.043 298.768C165.754 298.675 165.451 298.628 165.133 298.628C164.611 298.628 164.144 298.759 163.733 299.02C163.332 299.272 163.005 299.655 162.753 300.168C162.511 300.672 162.357 301.293 162.291 302.03C162.525 301.647 162.842 301.349 163.243 301.134C163.654 300.91 164.13 300.798 164.671 300.798C165.129 300.798 165.553 300.877 165.945 301.036C166.337 301.195 166.678 301.419 166.967 301.708C167.257 301.988 167.481 302.319 167.639 302.702C167.807 303.075 167.891 303.481 167.891 303.92C167.891 304.387 167.803 304.821 167.625 305.222C167.457 305.614 167.215 305.959 166.897 306.258C166.58 306.557 166.211 306.79 165.791 306.958C165.371 307.126 164.919 307.21 164.433 307.21ZM164.419 305.782C164.765 305.782 165.073 305.703 165.343 305.544C165.623 305.376 165.843 305.157 166.001 304.886C166.16 304.606 166.239 304.293 166.239 303.948C166.239 303.603 166.16 303.299 166.001 303.038C165.843 302.767 165.628 302.557 165.357 302.408C165.087 302.249 164.779 302.17 164.433 302.17C164.088 302.17 163.78 302.249 163.509 302.408C163.239 302.557 163.024 302.763 162.865 303.024C162.707 303.285 162.627 303.589 162.627 303.934C162.627 304.279 162.707 304.592 162.865 304.872C163.024 305.152 163.239 305.376 163.509 305.544C163.78 305.703 164.083 305.782 164.419 305.782Z" fill="#717591"/>
<path d="M113 92C113 87.5817 116.582 84 121 84H169C173.418 84 177 87.5817 177 92V280H113V92Z" fill="#2C3ACF"/>
<path d="M236.98 307V297.06H238.492L243.448 304.172V297.06H245.114V307H243.602L238.646 299.86V307H236.98ZM250.36 307.21C249.828 307.21 249.333 307.117 248.876 306.93C248.428 306.734 248.036 306.463 247.7 306.118C247.364 305.763 247.103 305.353 246.916 304.886C246.729 304.41 246.636 303.892 246.636 303.332C246.636 302.781 246.729 302.273 246.916 301.806C247.103 301.33 247.364 300.919 247.7 300.574C248.045 300.219 248.447 299.949 248.904 299.762C249.371 299.566 249.875 299.468 250.416 299.468C250.948 299.468 251.438 299.566 251.886 299.762C252.343 299.949 252.74 300.219 253.076 300.574C253.412 300.919 253.673 301.325 253.86 301.792C254.047 302.259 254.14 302.772 254.14 303.332C254.14 303.892 254.047 304.41 253.86 304.886C253.673 305.353 253.407 305.763 253.062 306.118C252.726 306.463 252.325 306.734 251.858 306.93C251.401 307.117 250.901 307.21 250.36 307.21ZM250.388 305.754C250.789 305.754 251.149 305.651 251.466 305.446C251.783 305.231 252.031 304.942 252.208 304.578C252.395 304.214 252.488 303.799 252.488 303.332C252.488 302.865 252.395 302.455 252.208 302.1C252.031 301.736 251.783 301.451 251.466 301.246C251.149 301.031 250.789 300.924 250.388 300.924C249.987 300.924 249.627 301.031 249.31 301.246C248.993 301.451 248.741 301.736 248.554 302.1C248.377 302.455 248.288 302.865 248.288 303.332C248.288 303.799 248.377 304.214 248.554 304.578C248.741 304.942 248.993 305.231 249.31 305.446C249.627 305.651 249.987 305.754 250.388 305.754ZM257.467 307L254.667 299.678H256.431L258.307 305.32L260.197 299.678H261.905L259.105 307H257.467ZM268.958 307.21C268.407 307.21 267.894 307.117 267.418 306.93C266.951 306.734 266.545 306.445 266.2 306.062C265.864 305.679 265.626 305.213 265.486 304.662L266.998 304.368C267.147 304.816 267.39 305.161 267.726 305.404C268.062 305.647 268.463 305.768 268.93 305.768C269.275 305.768 269.583 305.703 269.854 305.572C270.125 305.441 270.335 305.259 270.484 305.026C270.643 304.793 270.722 304.527 270.722 304.228C270.722 303.929 270.643 303.668 270.484 303.444C270.335 303.211 270.12 303.033 269.84 302.912C269.569 302.791 269.247 302.73 268.874 302.73H267.838V301.302H268.804C269.149 301.302 269.448 301.246 269.7 301.134C269.961 301.013 270.162 300.845 270.302 300.63C270.442 300.415 270.512 300.168 270.512 299.888C270.512 299.627 270.447 299.398 270.316 299.202C270.185 299.006 270.003 298.852 269.77 298.74C269.546 298.628 269.28 298.572 268.972 298.572C268.552 298.572 268.179 298.689 267.852 298.922C267.535 299.155 267.311 299.491 267.18 299.93L265.668 299.636C265.78 299.132 265.995 298.693 266.312 298.32C266.629 297.947 267.021 297.657 267.488 297.452C267.955 297.237 268.473 297.13 269.042 297.13C269.49 297.13 269.901 297.195 270.274 297.326C270.657 297.447 270.988 297.625 271.268 297.858C271.548 298.091 271.763 298.371 271.912 298.698C272.071 299.015 272.15 299.37 272.15 299.762C272.15 300.247 272.024 300.677 271.772 301.05C271.529 301.423 271.179 301.717 270.722 301.932C271.235 302.119 271.637 302.417 271.926 302.828C272.225 303.239 272.374 303.719 272.374 304.27C272.374 304.69 272.285 305.082 272.108 305.446C271.94 305.801 271.702 306.109 271.394 306.37C271.086 306.631 270.722 306.837 270.302 306.986C269.891 307.135 269.443 307.21 268.958 307.21ZM277.252 307.21C276.692 307.21 276.188 307.098 275.74 306.874C275.292 306.641 274.909 306.305 274.592 305.866C274.275 305.427 274.032 304.9 273.864 304.284C273.705 303.668 273.626 302.977 273.626 302.212C273.626 301.419 273.71 300.709 273.878 300.084C274.055 299.459 274.307 298.927 274.634 298.488C274.961 298.049 275.353 297.713 275.81 297.48C276.267 297.247 276.776 297.13 277.336 297.13C277.905 297.13 278.409 297.247 278.848 297.48C279.296 297.713 279.674 298.049 279.982 298.488C280.29 298.927 280.523 299.454 280.682 300.07C280.85 300.677 280.934 301.363 280.934 302.128C280.934 302.912 280.85 303.617 280.682 304.242C280.514 304.867 280.267 305.404 279.94 305.852C279.623 306.291 279.235 306.627 278.778 306.86C278.33 307.093 277.821 307.21 277.252 307.21ZM277.28 305.698C277.905 305.698 278.391 305.395 278.736 304.788C279.091 304.172 279.268 303.299 279.268 302.17C279.268 301.041 279.091 300.173 278.736 299.566C278.391 298.95 277.905 298.642 277.28 298.642C276.655 298.642 276.165 298.95 275.81 299.566C275.465 300.173 275.292 301.041 275.292 302.17C275.292 303.299 275.465 304.172 275.81 304.788C276.165 305.395 276.655 305.698 277.28 305.698Z" fill="#717591"/>
<path d="M226 66C226 61.5817 229.582 58 234 58H282C286.418 58 290 61.5817 290 66V280H226V66Z" fill="#2C3ACF"/>
<path d="M348.98 307V297.06H352.606C353.39 297.06 354.104 297.181 354.748 297.424C355.401 297.657 355.957 297.993 356.414 298.432C356.881 298.861 357.24 299.379 357.492 299.986C357.744 300.593 357.87 301.269 357.87 302.016C357.87 302.763 357.744 303.444 357.492 304.06C357.24 304.667 356.881 305.189 356.414 305.628C355.947 306.067 355.392 306.407 354.748 306.65C354.104 306.883 353.39 307 352.606 307H348.98ZM350.688 305.474H352.522C353.259 305.474 353.894 305.334 354.426 305.054C354.958 304.774 355.369 304.377 355.658 303.864C355.957 303.341 356.106 302.73 356.106 302.03C356.106 301.33 355.957 300.723 355.658 300.21C355.369 299.687 354.953 299.286 354.412 299.006C353.88 298.726 353.25 298.586 352.522 298.586H350.688V305.474ZM362.784 307.21C362.242 307.21 361.743 307.117 361.286 306.93C360.838 306.734 360.446 306.463 360.11 306.118C359.774 305.773 359.512 305.367 359.326 304.9C359.148 304.424 359.06 303.901 359.06 303.332C359.06 302.781 359.148 302.273 359.326 301.806C359.512 301.339 359.764 300.933 360.082 300.588C360.408 300.233 360.791 299.958 361.23 299.762C361.668 299.566 362.144 299.468 362.658 299.468C363.171 299.468 363.638 299.561 364.058 299.748C364.487 299.925 364.856 300.182 365.164 300.518C365.481 300.854 365.724 301.255 365.892 301.722C366.06 302.179 366.144 302.688 366.144 303.248V303.724H360.726C360.772 304.153 360.884 304.527 361.062 304.844C361.248 305.152 361.486 305.39 361.776 305.558C362.065 305.726 362.401 305.81 362.784 305.81C363.549 305.81 364.146 305.469 364.576 304.788L365.99 305.334C365.822 305.717 365.574 306.053 365.248 306.342C364.93 306.622 364.557 306.837 364.128 306.986C363.708 307.135 363.26 307.21 362.784 307.21ZM362.658 300.77C362.331 300.77 362.037 300.845 361.776 300.994C361.524 301.143 361.309 301.353 361.132 301.624C360.954 301.895 360.833 302.212 360.768 302.576H364.464C364.408 302.212 364.3 301.895 364.142 301.624C363.983 301.353 363.773 301.143 363.512 300.994C363.26 300.845 362.975 300.77 362.658 300.77ZM370.889 307.21C370.366 307.21 369.885 307.117 369.447 306.93C369.008 306.734 368.625 306.468 368.299 306.132C367.972 305.787 367.715 305.381 367.529 304.914C367.351 304.447 367.263 303.939 367.263 303.388C367.263 302.837 367.356 302.324 367.543 301.848C367.729 301.372 367.986 300.957 368.313 300.602C368.639 300.247 369.022 299.972 369.461 299.776C369.909 299.571 370.394 299.468 370.917 299.468C371.421 299.468 371.883 299.561 372.303 299.748C372.723 299.925 373.082 300.182 373.381 300.518C373.689 300.845 373.908 301.232 374.039 301.68L372.513 302.044C372.354 301.689 372.13 301.414 371.841 301.218C371.561 301.022 371.243 300.924 370.889 300.924C370.515 300.924 370.179 301.031 369.881 301.246C369.582 301.461 369.344 301.755 369.167 302.128C368.999 302.492 368.915 302.907 368.915 303.374C368.915 303.831 368.999 304.242 369.167 304.606C369.335 304.961 369.563 305.241 369.853 305.446C370.151 305.651 370.497 305.754 370.889 305.754C371.262 305.754 371.603 305.661 371.911 305.474C372.219 305.278 372.447 305.003 372.597 304.648L374.109 304.998C373.978 305.446 373.754 305.838 373.437 306.174C373.119 306.501 372.741 306.757 372.303 306.944C371.864 307.121 371.393 307.21 370.889 307.21ZM381.801 307.21C381.241 307.21 380.737 307.098 380.289 306.874C379.841 306.641 379.458 306.305 379.141 305.866C378.824 305.427 378.581 304.9 378.413 304.284C378.254 303.668 378.175 302.977 378.175 302.212C378.175 301.419 378.259 300.709 378.427 300.084C378.604 299.459 378.856 298.927 379.183 298.488C379.51 298.049 379.902 297.713 380.359 297.48C380.816 297.247 381.325 297.13 381.885 297.13C382.454 297.13 382.958 297.247 383.397 297.48C383.845 297.713 384.223 298.049 384.531 298.488C384.839 298.927 385.072 299.454 385.231 300.07C385.399 300.677 385.483 301.363 385.483 302.128C385.483 302.912 385.399 303.617 385.231 304.242C385.063 304.867 384.816 305.404 384.489 305.852C384.172 306.291 383.784 306.627 383.327 306.86C382.879 307.093 382.37 307.21 381.801 307.21ZM381.829 305.698C382.454 305.698 382.94 305.395 383.285 304.788C383.64 304.172 383.817 303.299 383.817 302.17C383.817 301.041 383.64 300.173 383.285 299.566C382.94 298.95 382.454 298.642 381.829 298.642C381.204 298.642 380.714 298.95 380.359 299.566C380.014 300.173 379.841 301.041 379.841 302.17C379.841 303.299 380.014 304.172 380.359 304.788C380.714 305.395 381.204 305.698 381.829 305.698ZM390.527 307.21C389.967 307.21 389.454 307.098 388.987 306.874C388.53 306.65 388.133 306.333 387.797 305.922C387.471 305.511 387.214 305.017 387.027 304.438C386.85 303.85 386.761 303.201 386.761 302.492C386.761 301.717 386.869 301.003 387.083 300.35C387.298 299.697 387.601 299.132 387.993 298.656C388.385 298.171 388.852 297.797 389.393 297.536C389.935 297.265 390.537 297.13 391.199 297.13C391.61 297.13 392.002 297.186 392.375 297.298C392.749 297.401 393.099 297.559 393.425 297.774L392.935 299.118C392.702 298.969 392.436 298.852 392.137 298.768C391.848 298.675 391.545 298.628 391.227 298.628C390.705 298.628 390.238 298.759 389.827 299.02C389.426 299.272 389.099 299.655 388.847 300.168C388.605 300.672 388.451 301.293 388.385 302.03C388.619 301.647 388.936 301.349 389.337 301.134C389.748 300.91 390.224 300.798 390.765 300.798C391.223 300.798 391.647 300.877 392.039 301.036C392.431 301.195 392.772 301.419 393.061 301.708C393.351 301.988 393.575 302.319 393.733 302.702C393.901 303.075 393.985 303.481 393.985 303.92C393.985 304.387 393.897 304.821 393.719 305.222C393.551 305.614 393.309 305.959 392.991 306.258C392.674 306.557 392.305 306.79 391.885 306.958C391.465 307.126 391.013 307.21 390.527 307.21ZM390.513 305.782C390.859 305.782 391.167 305.703 391.437 305.544C391.717 305.376 391.937 305.157 392.095 304.886C392.254 304.606 392.333 304.293 392.333 303.948C392.333 303.603 392.254 303.299 392.095 303.038C391.937 302.767 391.722 302.557 391.451 302.408C391.181 302.249 390.873 302.17 390.527 302.17C390.182 302.17 389.874 302.249 389.603 302.408C389.333 302.557 389.118 302.763 388.959 303.024C388.801 303.285 388.721 303.589 388.721 303.934C388.721 304.279 388.801 304.592 388.959 304.872C389.118 305.152 389.333 305.376 389.603 305.544C389.874 305.703 390.177 305.782 390.513 305.782Z" fill="#717591"/>
<path d="M339 8C339 3.58172 342.582 0 347 0H395C399.418 0 403 3.58172 403 8V280H339V8Z" fill="#2C3ACF"/>
<path d="M462.98 307V297.06H466.606C467.39 297.06 468.104 297.181 468.748 297.424C469.401 297.657 469.957 297.993 470.414 298.432C470.881 298.861 471.24 299.379 471.492 299.986C471.744 300.593 471.87 301.269 471.87 302.016C471.87 302.763 471.744 303.444 471.492 304.06C471.24 304.667 470.881 305.189 470.414 305.628C469.947 306.067 469.392 306.407 468.748 306.65C468.104 306.883 467.39 307 466.606 307H462.98ZM464.688 305.474H466.522C467.259 305.474 467.894 305.334 468.426 305.054C468.958 304.774 469.369 304.377 469.658 303.864C469.957 303.341 470.106 302.73 470.106 302.03C470.106 301.33 469.957 300.723 469.658 300.21C469.369 299.687 468.953 299.286 468.412 299.006C467.88 298.726 467.25 298.586 466.522 298.586H464.688V305.474ZM476.784 307.21C476.242 307.21 475.743 307.117 475.286 306.93C474.838 306.734 474.446 306.463 474.11 306.118C473.774 305.773 473.512 305.367 473.326 304.9C473.148 304.424 473.06 303.901 473.06 303.332C473.06 302.781 473.148 302.273 473.326 301.806C473.512 301.339 473.764 300.933 474.082 300.588C474.408 300.233 474.791 299.958 475.23 299.762C475.668 299.566 476.144 299.468 476.658 299.468C477.171 299.468 477.638 299.561 478.058 299.748C478.487 299.925 478.856 300.182 479.164 300.518C479.481 300.854 479.724 301.255 479.892 301.722C480.06 302.179 480.144 302.688 480.144 303.248V303.724H474.726C474.772 304.153 474.884 304.527 475.062 304.844C475.248 305.152 475.486 305.39 475.776 305.558C476.065 305.726 476.401 305.81 476.784 305.81C477.549 305.81 478.146 305.469 478.576 304.788L479.99 305.334C479.822 305.717 479.574 306.053 479.248 306.342C478.93 306.622 478.557 306.837 478.128 306.986C477.708 307.135 477.26 307.21 476.784 307.21ZM476.658 300.77C476.331 300.77 476.037 300.845 475.776 300.994C475.524 301.143 475.309 301.353 475.132 301.624C474.954 301.895 474.833 302.212 474.768 302.576H478.464C478.408 302.212 478.3 301.895 478.142 301.624C477.983 301.353 477.773 301.143 477.512 300.994C477.26 300.845 476.975 300.77 476.658 300.77ZM484.889 307.21C484.366 307.21 483.885 307.117 483.447 306.93C483.008 306.734 482.625 306.468 482.299 306.132C481.972 305.787 481.715 305.381 481.529 304.914C481.351 304.447 481.263 303.939 481.263 303.388C481.263 302.837 481.356 302.324 481.543 301.848C481.729 301.372 481.986 300.957 482.313 300.602C482.639 300.247 483.022 299.972 483.461 299.776C483.909 299.571 484.394 299.468 484.917 299.468C485.421 299.468 485.883 299.561 486.303 299.748C486.723 299.925 487.082 300.182 487.381 300.518C487.689 300.845 487.908 301.232 488.039 301.68L486.513 302.044C486.354 301.689 486.13 301.414 485.841 301.218C485.561 301.022 485.243 300.924 484.889 300.924C484.515 300.924 484.179 301.031 483.881 301.246C483.582 301.461 483.344 301.755 483.167 302.128C482.999 302.492 482.915 302.907 482.915 303.374C482.915 303.831 482.999 304.242 483.167 304.606C483.335 304.961 483.563 305.241 483.853 305.446C484.151 305.651 484.497 305.754 484.889 305.754C485.262 305.754 485.603 305.661 485.911 305.474C486.219 305.278 486.447 305.003 486.597 304.648L488.109 304.998C487.978 305.446 487.754 305.838 487.437 306.174C487.119 306.501 486.741 306.757 486.303 306.944C485.864 307.121 485.393 307.21 484.889 307.21ZM494.485 307V299.118L492.385 300.294L491.811 298.936L494.737 297.34H496.109V307H494.485ZM501.984 307.21C501.424 307.21 500.911 307.098 500.444 306.874C499.987 306.65 499.59 306.333 499.254 305.922C498.928 305.511 498.671 305.017 498.484 304.438C498.307 303.85 498.218 303.201 498.218 302.492C498.218 301.717 498.326 301.003 498.54 300.35C498.755 299.697 499.058 299.132 499.45 298.656C499.842 298.171 500.309 297.797 500.85 297.536C501.392 297.265 501.994 297.13 502.656 297.13C503.067 297.13 503.459 297.186 503.832 297.298C504.206 297.401 504.556 297.559 504.882 297.774L504.392 299.118C504.159 298.969 503.893 298.852 503.594 298.768C503.305 298.675 503.002 298.628 502.684 298.628C502.162 298.628 501.695 298.759 501.284 299.02C500.883 299.272 500.556 299.655 500.304 300.168C500.062 300.672 499.908 301.293 499.842 302.03C500.076 301.647 500.393 301.349 500.794 301.134C501.205 300.91 501.681 300.798 502.222 300.798C502.68 300.798 503.104 300.877 503.496 301.036C503.888 301.195 504.229 301.419 504.518 301.708C504.808 301.988 505.032 302.319 505.19 302.702C505.358 303.075 505.442 303.481 505.442 303.92C505.442 304.387 505.354 304.821 505.176 305.222C505.008 305.614 504.766 305.959 504.448 306.258C504.131 306.557 503.762 306.79 503.342 306.958C502.922 307.126 502.47 307.21 501.984 307.21ZM501.97 305.782C502.316 305.782 502.624 305.703 502.894 305.544C503.174 305.376 503.394 305.157 503.552 304.886C503.711 304.606 503.79 304.293 503.79 303.948C503.79 303.603 503.711 303.299 503.552 303.038C503.394 302.767 503.179 302.557 502.908 302.408C502.638 302.249 502.33 302.17 501.984 302.17C501.639 302.17 501.331 302.249 501.06 302.408C500.79 302.557 500.575 302.763 500.416 303.024C500.258 303.285 500.178 303.589 500.178 303.934C500.178 304.279 500.258 304.592 500.416 304.872C500.575 305.152 500.79 305.376 501.06 305.544C501.331 305.703 501.634 305.782 501.97 305.782Z" fill="#717591"/>
<path d="M452 32C452 27.5817 455.582 24 460 24H508C512.418 24 516 27.5817 516 32V280H452V32Z" fill="#2C3ACF"/>
<path d="M575.98 307V297.06H579.606C580.39 297.06 581.104 297.181 581.748 297.424C582.401 297.657 582.957 297.993 583.414 298.432C583.881 298.861 584.24 299.379 584.492 299.986C584.744 300.593 584.87 301.269 584.87 302.016C584.87 302.763 584.744 303.444 584.492 304.06C584.24 304.667 583.881 305.189 583.414 305.628C582.947 306.067 582.392 306.407 581.748 306.65C581.104 306.883 580.39 307 579.606 307H575.98ZM577.688 305.474H579.522C580.259 305.474 580.894 305.334 581.426 305.054C581.958 304.774 582.369 304.377 582.658 303.864C582.957 303.341 583.106 302.73 583.106 302.03C583.106 301.33 582.957 300.723 582.658 300.21C582.369 299.687 581.953 299.286 581.412 299.006C580.88 298.726 580.25 298.586 579.522 298.586H577.688V305.474ZM589.784 307.21C589.242 307.21 588.743 307.117 588.286 306.93C587.838 306.734 587.446 306.463 587.11 306.118C586.774 305.773 586.512 305.367 586.326 304.9C586.148 304.424 586.06 303.901 586.06 303.332C586.06 302.781 586.148 302.273 586.326 301.806C586.512 301.339 586.764 300.933 587.082 300.588C587.408 300.233 587.791 299.958 588.23 299.762C588.668 299.566 589.144 299.468 589.658 299.468C590.171 299.468 590.638 299.561 591.058 299.748C591.487 299.925 591.856 300.182 592.164 300.518C592.481 300.854 592.724 301.255 592.892 301.722C593.06 302.179 593.144 302.688 593.144 303.248V303.724H587.726C587.772 304.153 587.884 304.527 588.062 304.844C588.248 305.152 588.486 305.39 588.776 305.558C589.065 305.726 589.401 305.81 589.784 305.81C590.549 305.81 591.146 305.469 591.576 304.788L592.99 305.334C592.822 305.717 592.574 306.053 592.248 306.342C591.93 306.622 591.557 306.837 591.128 306.986C590.708 307.135 590.26 307.21 589.784 307.21ZM589.658 300.77C589.331 300.77 589.037 300.845 588.776 300.994C588.524 301.143 588.309 301.353 588.132 301.624C587.954 301.895 587.833 302.212 587.768 302.576H591.464C591.408 302.212 591.3 301.895 591.142 301.624C590.983 301.353 590.773 301.143 590.512 300.994C590.26 300.845 589.975 300.77 589.658 300.77ZM597.889 307.21C597.366 307.21 596.885 307.117 596.447 306.93C596.008 306.734 595.625 306.468 595.299 306.132C594.972 305.787 594.715 305.381 594.529 304.914C594.351 304.447 594.263 303.939 594.263 303.388C594.263 302.837 594.356 302.324 594.543 301.848C594.729 301.372 594.986 300.957 595.313 300.602C595.639 300.247 596.022 299.972 596.461 299.776C596.909 299.571 597.394 299.468 597.917 299.468C598.421 299.468 598.883 299.561 599.303 299.748C599.723 299.925 600.082 300.182 600.381 300.518C600.689 300.845 600.908 301.232 601.039 301.68L599.513 302.044C599.354 301.689 599.13 301.414 598.841 301.218C598.561 301.022 598.243 300.924 597.889 300.924C597.515 300.924 597.179 301.031 596.881 301.246C596.582 301.461 596.344 301.755 596.167 302.128C595.999 302.492 595.915 302.907 595.915 303.374C595.915 303.831 595.999 304.242 596.167 304.606C596.335 304.961 596.563 305.241 596.853 305.446C597.151 305.651 597.497 305.754 597.889 305.754C598.262 305.754 598.603 305.661 598.911 305.474C599.219 305.278 599.447 305.003 599.597 304.648L601.109 304.998C600.978 305.446 600.754 305.838 600.437 306.174C600.119 306.501 599.741 306.757 599.303 306.944C598.864 307.121 598.393 307.21 597.889 307.21ZM605.203 307V305.768C605.679 305.376 606.094 305.026 606.449 304.718C606.813 304.401 607.135 304.111 607.415 303.85C607.695 303.589 607.956 303.337 608.199 303.094C608.619 302.674 608.955 302.305 609.207 301.988C609.468 301.671 609.66 301.372 609.781 301.092C609.902 300.812 609.963 300.523 609.963 300.224C609.963 299.897 609.898 299.613 609.767 299.37C609.636 299.127 609.454 298.941 609.221 298.81C608.997 298.67 608.731 298.6 608.423 298.6C608.003 298.6 607.639 298.735 607.331 299.006C607.023 299.267 606.808 299.631 606.687 300.098L605.147 299.79C605.268 299.258 605.483 298.791 605.791 298.39C606.108 297.989 606.496 297.681 606.953 297.466C607.42 297.242 607.924 297.13 608.465 297.13C608.922 297.13 609.342 297.209 609.725 297.368C610.108 297.517 610.439 297.732 610.719 298.012C611.008 298.283 611.228 298.605 611.377 298.978C611.536 299.342 611.615 299.743 611.615 300.182C611.615 300.583 611.54 300.975 611.391 301.358C611.242 301.741 611.004 302.137 610.677 302.548C610.36 302.959 609.949 303.411 609.445 303.906C608.922 304.419 608.32 304.961 607.639 305.53H611.783V307H605.203ZM613.201 307V305.768C613.677 305.376 614.092 305.026 614.447 304.718C614.811 304.401 615.133 304.111 615.413 303.85C615.693 303.589 615.954 303.337 616.197 303.094C616.617 302.674 616.953 302.305 617.205 301.988C617.466 301.671 617.658 301.372 617.779 301.092C617.9 300.812 617.961 300.523 617.961 300.224C617.961 299.897 617.896 299.613 617.765 299.37C617.634 299.127 617.452 298.941 617.219 298.81C616.995 298.67 616.729 298.6 616.421 298.6C616.001 298.6 615.637 298.735 615.329 299.006C615.021 299.267 614.806 299.631 614.685 300.098L613.145 299.79C613.266 299.258 613.481 298.791 613.789 298.39C614.106 297.989 614.494 297.681 614.951 297.466C615.418 297.242 615.922 297.13 616.463 297.13C616.92 297.13 617.34 297.209 617.723 297.368C618.106 297.517 618.437 297.732 618.717 298.012C619.006 298.283 619.226 298.605 619.375 298.978C619.534 299.342 619.613 299.743 619.613 300.182C619.613 300.583 619.538 300.975 619.389 301.358C619.24 301.741 619.002 302.137 618.675 302.548C618.358 302.959 617.947 303.411 617.443 303.906C616.92 304.419 616.318 304.961 615.637 305.53H619.781V307H613.201Z" fill="#717591"/>
<path d="M565 8C565 3.58172 568.582 0 573 0H621C625.418 0 629 3.58172 629 8V280H565V8Z" fill="#2C3ACF"/>
</svg>
