<svg width="580" height="192" viewBox="0 0 580 192" fill="none" xmlns="http://www.w3.org/2000/svg">
<path d="M297.055 9C316.718 9 335.824 15.4005 351.373 27.1969C366.923 38.9932 378.037 55.5173 382.969 74.1753L297.055 96L297.055 9Z" fill="#EB5757"/>
<path d="M382.969 74.1753C387.401 90.9384 386.628 108.616 380.751 124.947C374.873 141.277 364.158 155.516 349.976 165.842L297.055 96L382.969 74.1753Z" fill="#050C72"/>
<path d="M349.976 165.842C337.39 175.006 322.552 180.738 306.972 182.455C291.391 184.172 275.625 181.813 261.277 175.618L297.055 96L349.976 165.842Z" fill="#00B159"/>
<path d="M261.277 175.618C247.473 169.657 235.447 160.346 226.333 148.564C217.22 136.781 211.32 122.916 209.191 108.278L297.055 96L261.277 175.618Z" fill="#2C3ACF"/>
<path d="M209.191 108.278C207.508 96.705 208.222 84.918 211.289 73.6211C214.357 62.3243 219.716 51.7493 227.046 42.5278L297.055 96L209.191 108.278Z" fill="#717591"/>
<path d="M227.046 42.5278C235.344 32.0871 245.964 23.6401 258.096 17.8301C270.228 12.02 283.553 9 297.055 9V96L227.046 42.5278Z" fill="#FBAF1D"/>
<ellipse cx="297.565" cy="96.5" rx="55.5976" ry="54.5" fill="white"/>
<rect x="442.935" y="2" width="18" height="18" rx="5" fill="#EB5757"/>
<path d="M471.303 17L475.879 5.64H477.303L481.879 17H480.439L479.175 13.768H473.959L472.695 17H471.303ZM474.439 12.536H478.679L476.567 7.128L474.439 12.536ZM485.944 17.24C485.464 17.24 485.011 17.16 484.584 17C484.168 16.84 483.806 16.6107 483.496 16.312C483.187 16.0133 482.952 15.6613 482.792 15.256L483.944 14.84C484.158 15.2453 484.435 15.56 484.776 15.784C485.118 16.008 485.507 16.12 485.944 16.12C486.296 16.12 486.606 16.0613 486.872 15.944C487.139 15.8267 487.347 15.6667 487.496 15.464C487.646 15.2507 487.72 15.016 487.72 14.76C487.72 14.0667 487.219 13.6187 486.216 13.416L485.592 13.288C484.718 13.1173 484.072 12.84 483.656 12.456C483.24 12.0613 483.032 11.5653 483.032 10.968C483.032 10.488 483.155 10.0613 483.4 9.688C483.646 9.31467 483.987 9.02667 484.424 8.824C484.872 8.61067 485.379 8.504 485.944 8.504C486.414 8.504 486.846 8.584 487.24 8.744C487.635 8.89333 487.971 9.11733 488.248 9.416C488.536 9.71467 488.755 10.0667 488.904 10.472L487.752 10.856C487.582 10.4613 487.336 10.1573 487.016 9.944C486.707 9.72 486.344 9.608 485.928 9.608C485.608 9.608 485.326 9.66133 485.08 9.768C484.846 9.87467 484.659 10.0187 484.52 10.2C484.382 10.3813 484.312 10.5947 484.312 10.84C484.312 11.1813 484.44 11.4533 484.696 11.656C484.963 11.8587 485.39 12.0187 485.976 12.136L486.6 12.264C487.39 12.424 487.992 12.7067 488.408 13.112C488.824 13.5067 489.032 14.0133 489.032 14.632C489.032 15.016 488.952 15.368 488.792 15.688C488.643 15.9973 488.43 16.2693 488.152 16.504C487.886 16.7387 487.56 16.92 487.176 17.048C486.803 17.176 486.392 17.24 485.944 17.24ZM492.247 6.328C492.247 6.488 492.204 6.63733 492.119 6.776C492.044 6.904 491.938 7.01067 491.799 7.096C491.671 7.17067 491.527 7.208 491.367 7.208C491.207 7.208 491.058 7.17067 490.919 7.096C490.791 7.01067 490.684 6.904 490.599 6.776C490.524 6.63733 490.487 6.488 490.487 6.328C490.487 6.168 490.524 6.024 490.599 5.896C490.684 5.75733 490.791 5.65067 490.919 5.576C491.058 5.49067 491.207 5.448 491.367 5.448C491.527 5.448 491.671 5.49067 491.799 5.576C491.938 5.65067 492.044 5.75733 492.119 5.896C492.204 6.024 492.247 6.168 492.247 6.328ZM490.727 17V8.744H492.007V17H490.727ZM496.803 17.24C496.227 17.24 495.715 17.1333 495.267 16.92C494.819 16.696 494.467 16.392 494.211 16.008C493.965 15.624 493.843 15.1813 493.843 14.68C493.843 14.136 493.981 13.6667 494.259 13.272C494.547 12.8773 494.947 12.5733 495.459 12.36C495.971 12.136 496.568 12.024 497.251 12.024C497.635 12.024 498.024 12.0667 498.419 12.152C498.813 12.2373 499.165 12.3493 499.475 12.488V11.88C499.475 11.432 499.384 11.0427 499.203 10.712C499.032 10.3707 498.792 10.1093 498.483 9.928C498.173 9.736 497.811 9.64 497.395 9.64C496.893 9.64 496.456 9.75733 496.083 9.992C495.72 10.2267 495.448 10.5573 495.267 10.984L494.147 10.6C494.296 10.1733 494.525 9.80533 494.835 9.496C495.155 9.18667 495.533 8.94667 495.971 8.776C496.419 8.60533 496.899 8.52 497.411 8.52C498.072 8.52 498.648 8.664 499.139 8.952C499.64 9.22933 500.024 9.624 500.291 10.136C500.568 10.6373 500.707 11.2293 500.707 11.912V17H499.587L499.507 15.72C499.272 16.1787 498.915 16.5467 498.435 16.824C497.965 17.1013 497.421 17.24 496.803 17.24ZM495.139 14.632C495.139 14.9413 495.219 15.2133 495.379 15.448C495.539 15.672 495.763 15.848 496.051 15.976C496.339 16.104 496.669 16.168 497.043 16.168C497.501 16.168 497.912 16.0667 498.275 15.864C498.648 15.6507 498.941 15.368 499.155 15.016C499.368 14.6533 499.475 14.2427 499.475 13.784V13.48C499.123 13.3413 498.765 13.2347 498.403 13.16C498.051 13.0747 497.715 13.032 497.395 13.032C496.691 13.032 496.136 13.176 495.731 13.464C495.336 13.752 495.139 14.1413 495.139 14.632Z" fill="#77838F"/>
<rect x="442.935" y="36" width="18" height="18" rx="5" fill="#050C72"/>
<path d="M472.183 51V39.64H473.367L479.703 48.744V39.64H481.015V51H479.831L473.495 41.896V51H472.183ZM487.047 51.24C486.461 51.24 485.917 51.1333 485.415 50.92C484.925 50.696 484.493 50.392 484.119 50.008C483.757 49.6133 483.474 49.1493 483.271 48.616C483.069 48.0827 482.967 47.5013 482.967 46.872C482.967 46.2427 483.069 45.6613 483.271 45.128C483.485 44.5947 483.773 44.136 484.135 43.752C484.509 43.3573 484.946 43.0533 485.447 42.84C485.949 42.616 486.493 42.504 487.079 42.504C487.666 42.504 488.205 42.616 488.695 42.84C489.197 43.0533 489.629 43.3573 489.991 43.752C490.365 44.136 490.653 44.5947 490.855 45.128C491.058 45.6613 491.159 46.2427 491.159 46.872C491.159 47.5013 491.053 48.0827 490.839 48.616C490.637 49.1493 490.349 49.6133 489.975 50.008C489.613 50.392 489.181 50.696 488.679 50.92C488.178 51.1333 487.634 51.24 487.047 51.24ZM487.063 50.072C487.469 50.072 487.837 49.992 488.167 49.832C488.509 49.672 488.802 49.4533 489.047 49.176C489.303 48.888 489.501 48.552 489.639 48.168C489.778 47.7733 489.847 47.3413 489.847 46.872C489.847 46.4027 489.778 45.976 489.639 45.592C489.501 45.1973 489.303 44.8613 489.047 44.584C488.802 44.296 488.509 44.072 488.167 43.912C487.837 43.752 487.469 43.672 487.063 43.672C486.658 43.672 486.285 43.752 485.943 43.912C485.613 44.072 485.319 44.296 485.063 44.584C484.818 44.8613 484.626 45.1973 484.487 45.592C484.349 45.976 484.279 46.4027 484.279 46.872C484.279 47.3413 484.349 47.7733 484.487 48.168C484.626 48.552 484.818 48.888 485.063 49.176C485.319 49.4533 485.613 49.672 485.943 49.832C486.285 49.992 486.658 50.072 487.063 50.072ZM492.977 51V42.744H494.129L494.209 44.28C494.412 43.768 494.716 43.368 495.121 43.08C495.526 42.7813 496.001 42.632 496.545 42.632C496.726 42.632 496.886 42.648 497.025 42.68C497.174 42.7013 497.302 42.7333 497.409 42.776L497.249 43.992C497.132 43.9493 497.009 43.9227 496.881 43.912C496.753 43.8907 496.625 43.88 496.497 43.88C496.049 43.88 495.654 43.992 495.313 44.216C494.982 44.44 494.721 44.76 494.529 45.176C494.348 45.5813 494.257 46.0613 494.257 46.616V51H492.977ZM502.362 51.24C501.86 51.24 501.428 51.1387 501.066 50.936C500.703 50.7333 500.42 50.4347 500.218 50.04C500.026 49.6453 499.93 49.1653 499.93 48.6V43.832H498.41V42.744H499.93V39.976H501.21V42.744H503.802V43.832H501.21V48.536C501.21 49.0267 501.311 49.4107 501.514 49.688C501.727 49.9547 502.047 50.088 502.474 50.088C502.698 50.088 502.922 50.056 503.146 49.992C503.38 49.9173 503.588 49.8213 503.77 49.704L504.154 50.696C503.93 50.856 503.668 50.984 503.37 51.08C503.071 51.1867 502.735 51.24 502.362 51.24ZM505.805 51V39.128H507.085V43.944C507.33 43.5067 507.682 43.16 508.141 42.904C508.6 42.6373 509.117 42.504 509.693 42.504C510.322 42.504 510.872 42.6533 511.341 42.952C511.81 43.2507 512.168 43.6773 512.413 44.232C512.669 44.776 512.797 45.4213 512.797 46.168V51H511.517V46.248C511.517 45.4267 511.336 44.792 510.973 44.344C510.621 43.896 510.114 43.672 509.453 43.672C508.994 43.672 508.584 43.7787 508.221 43.992C507.869 44.1947 507.592 44.4827 507.389 44.856C507.186 45.2187 507.085 45.6347 507.085 46.104V51H505.805ZM517.725 51L522.301 39.64H523.725L528.301 51H526.861L525.597 47.768H520.381L519.117 51H517.725ZM520.861 46.536H525.101L522.989 41.128L520.861 46.536ZM529.789 51V42.744H530.941L531.005 44.008C531.24 43.5493 531.581 43.1867 532.029 42.92C532.477 42.6427 532.989 42.504 533.565 42.504C534.184 42.504 534.723 42.664 535.181 42.984C535.64 43.304 535.981 43.752 536.205 44.328C536.344 43.9653 536.552 43.6507 536.829 43.384C537.107 43.1067 537.432 42.8933 537.805 42.744C538.189 42.584 538.6 42.504 539.037 42.504C539.656 42.504 540.189 42.6533 540.637 42.952C541.096 43.24 541.443 43.6507 541.677 44.184C541.923 44.7173 542.045 45.3573 542.045 46.104V51H540.765V46.184C540.765 45.3733 540.6 44.7547 540.269 44.328C539.939 43.8907 539.459 43.672 538.829 43.672C538.392 43.672 538.003 43.7787 537.661 43.992C537.32 44.1947 537.048 44.4773 536.845 44.84C536.653 45.192 536.557 45.592 536.557 46.04V51H535.277V46.184C535.277 45.3733 535.107 44.7547 534.765 44.328C534.424 43.8907 533.939 43.672 533.309 43.672C532.883 43.672 532.499 43.7787 532.157 43.992C531.816 44.1947 531.549 44.4773 531.357 44.84C531.165 45.192 531.069 45.592 531.069 46.04V51H529.789ZM547.971 51.24C547.363 51.24 546.803 51.1333 546.291 50.92C545.79 50.7067 545.352 50.408 544.979 50.024C544.606 49.6293 544.318 49.1707 544.115 48.648C543.912 48.1147 543.811 47.528 543.811 46.888C543.811 46.2587 543.907 45.6827 544.099 45.16C544.302 44.6267 544.579 44.1627 544.931 43.768C545.294 43.3733 545.715 43.0693 546.195 42.856C546.675 42.632 547.198 42.52 547.763 42.52C548.307 42.52 548.808 42.6213 549.267 42.824C549.736 43.0267 550.142 43.3093 550.483 43.672C550.824 44.0347 551.086 44.4667 551.267 44.968C551.459 45.4693 551.555 46.0133 551.555 46.6V47.128H545.139C545.182 47.7253 545.32 48.248 545.555 48.696C545.8 49.144 546.126 49.4907 546.531 49.736C546.936 49.9813 547.406 50.104 547.939 50.104C548.462 50.104 548.915 49.9973 549.299 49.784C549.694 49.56 550.03 49.2347 550.307 48.808L551.395 49.304C551.182 49.7093 550.904 50.056 550.563 50.344C550.222 50.632 549.827 50.8507 549.379 51C548.942 51.16 548.472 51.24 547.971 51.24ZM547.763 43.608C547.326 43.608 546.926 43.7147 546.563 43.928C546.211 44.1413 545.912 44.44 545.667 44.824C545.432 45.1973 545.278 45.6347 545.203 46.136H550.211C550.168 45.6347 550.035 45.1973 549.811 44.824C549.587 44.44 549.299 44.1413 548.947 43.928C548.595 43.7147 548.2 43.608 547.763 43.608ZM553.383 51V42.744H554.535L554.615 44.28C554.818 43.768 555.122 43.368 555.527 43.08C555.933 42.7813 556.407 42.632 556.951 42.632C557.133 42.632 557.293 42.648 557.431 42.68C557.581 42.7013 557.709 42.7333 557.815 42.776L557.655 43.992C557.538 43.9493 557.415 43.9227 557.287 43.912C557.159 43.8907 557.031 43.88 556.903 43.88C556.455 43.88 556.061 43.992 555.719 44.216C555.389 44.44 555.127 44.76 554.935 45.176C554.754 45.5813 554.663 46.0613 554.663 46.616V51H553.383ZM560.903 40.328C560.903 40.488 560.861 40.6373 560.775 40.776C560.701 40.904 560.594 41.0107 560.455 41.096C560.327 41.1707 560.183 41.208 560.023 41.208C559.863 41.208 559.714 41.1707 559.575 41.096C559.447 41.0107 559.341 40.904 559.255 40.776C559.181 40.6373 559.143 40.488 559.143 40.328C559.143 40.168 559.181 40.024 559.255 39.896C559.341 39.7573 559.447 39.6507 559.575 39.576C559.714 39.4907 559.863 39.448 560.023 39.448C560.183 39.448 560.327 39.4907 560.455 39.576C560.594 39.6507 560.701 39.7573 560.775 39.896C560.861 40.024 560.903 40.168 560.903 40.328ZM559.383 51V42.744H560.663V51H559.383ZM566.451 51.24C565.885 51.24 565.363 51.1333 564.883 50.92C564.403 50.7067 563.981 50.408 563.619 50.024C563.256 49.6293 562.973 49.1707 562.771 48.648C562.579 48.1253 562.483 47.5547 562.483 46.936C562.483 46.3173 562.584 45.7413 562.787 45.208C562.989 44.664 563.272 44.1893 563.635 43.784C563.997 43.3787 564.424 43.064 564.915 42.84C565.405 42.616 565.939 42.504 566.515 42.504C567.048 42.504 567.528 42.6 567.955 42.792C568.392 42.984 568.765 43.2453 569.075 43.576C569.395 43.9067 569.64 44.2853 569.811 44.712L568.643 45.112C568.408 44.664 568.104 44.312 567.731 44.056C567.357 43.8 566.936 43.672 566.467 43.672C566.083 43.672 565.731 43.7573 565.411 43.928C565.091 44.088 564.808 44.312 564.563 44.6C564.317 44.888 564.125 45.2347 563.987 45.64C563.859 46.0347 563.795 46.4613 563.795 46.92C563.795 47.3787 563.859 47.8 563.987 48.184C564.125 48.568 564.312 48.904 564.547 49.192C564.781 49.4693 565.059 49.688 565.379 49.848C565.709 49.9973 566.067 50.072 566.451 50.072C566.941 50.072 567.389 49.9493 567.795 49.704C568.211 49.448 568.525 49.096 568.739 48.648L569.907 49.048C569.736 49.496 569.475 49.8853 569.123 50.216C568.781 50.536 568.376 50.7867 567.907 50.968C567.448 51.1493 566.963 51.24 566.451 51.24ZM574.193 51.24C573.617 51.24 573.105 51.1333 572.657 50.92C572.209 50.696 571.857 50.392 571.601 50.008C571.356 49.624 571.233 49.1813 571.233 48.68C571.233 48.136 571.372 47.6667 571.649 47.272C571.937 46.8773 572.337 46.5733 572.849 46.36C573.361 46.136 573.959 46.024 574.641 46.024C575.025 46.024 575.415 46.0667 575.809 46.152C576.204 46.2373 576.556 46.3493 576.865 46.488V45.88C576.865 45.432 576.775 45.0427 576.593 44.712C576.423 44.3707 576.183 44.1093 575.873 43.928C575.564 43.736 575.201 43.64 574.785 43.64C574.284 43.64 573.847 43.7573 573.473 43.992C573.111 44.2267 572.839 44.5573 572.657 44.984L571.537 44.6C571.687 44.1733 571.916 43.8053 572.225 43.496C572.545 43.1867 572.924 42.9467 573.361 42.776C573.809 42.6053 574.289 42.52 574.801 42.52C575.463 42.52 576.039 42.664 576.529 42.952C577.031 43.2293 577.415 43.624 577.681 44.136C577.959 44.6373 578.097 45.2293 578.097 45.912V51H576.977L576.897 49.72C576.663 50.1787 576.305 50.5467 575.825 50.824C575.356 51.1013 574.812 51.24 574.193 51.24ZM572.529 48.632C572.529 48.9413 572.609 49.2133 572.769 49.448C572.929 49.672 573.153 49.848 573.441 49.976C573.729 50.104 574.06 50.168 574.433 50.168C574.892 50.168 575.303 50.0667 575.665 49.864C576.039 49.6507 576.332 49.368 576.545 49.016C576.759 48.6533 576.865 48.2427 576.865 47.784V47.48C576.513 47.3413 576.156 47.2347 575.793 47.16C575.441 47.0747 575.105 47.032 574.785 47.032C574.081 47.032 573.527 47.176 573.121 47.464C572.727 47.752 572.529 48.1413 572.529 48.632Z" fill="#77838F"/>
<rect x="442.935" y="70" width="18" height="18" rx="5" fill="#00B159"/>
<path d="M471.303 85L475.879 73.64H477.303L481.879 85H480.439L479.175 81.768H473.959L472.695 85H471.303ZM474.439 80.536H478.679L476.567 75.128L474.439 80.536ZM486.54 85.24C485.836 85.24 485.228 85.0853 484.716 84.776C484.204 84.4667 483.809 84.0293 483.532 83.464C483.255 82.888 483.116 82.2053 483.116 81.416V76.744H484.396V81.432C484.396 81.976 484.481 82.4453 484.652 82.84C484.833 83.2347 485.084 83.5387 485.404 83.752C485.735 83.9653 486.124 84.072 486.572 84.072C487.02 84.072 487.404 83.9653 487.724 83.752C488.055 83.5387 488.305 83.2347 488.476 82.84C488.657 82.4453 488.748 81.976 488.748 81.432V76.744H490.028V81.416C490.028 82.184 489.884 82.856 489.596 83.432C489.308 84.008 488.903 84.456 488.38 84.776C487.857 85.0853 487.244 85.24 486.54 85.24ZM494.819 85.24C494.339 85.24 493.886 85.16 493.459 85C493.043 84.84 492.681 84.6107 492.371 84.312C492.062 84.0133 491.827 83.6613 491.667 83.256L492.819 82.84C493.033 83.2453 493.31 83.56 493.651 83.784C493.993 84.008 494.382 84.12 494.819 84.12C495.171 84.12 495.481 84.0613 495.747 83.944C496.014 83.8267 496.222 83.6667 496.371 83.464C496.521 83.2507 496.595 83.016 496.595 82.76C496.595 82.0667 496.094 81.6187 495.091 81.416L494.467 81.288C493.593 81.1173 492.947 80.84 492.531 80.456C492.115 80.0613 491.907 79.5653 491.907 78.968C491.907 78.488 492.03 78.0613 492.275 77.688C492.521 77.3147 492.862 77.0267 493.299 76.824C493.747 76.6107 494.254 76.504 494.819 76.504C495.289 76.504 495.721 76.584 496.115 76.744C496.51 76.8933 496.846 77.1173 497.123 77.416C497.411 77.7147 497.63 78.0667 497.779 78.472L496.627 78.856C496.457 78.4613 496.211 78.1573 495.891 77.944C495.582 77.72 495.219 77.608 494.803 77.608C494.483 77.608 494.201 77.6613 493.955 77.768C493.721 77.8747 493.534 78.0187 493.395 78.2C493.257 78.3813 493.187 78.5947 493.187 78.84C493.187 79.1813 493.315 79.4533 493.571 79.656C493.838 79.8587 494.265 80.0187 494.851 80.136L495.475 80.264C496.265 80.424 496.867 80.7067 497.283 81.112C497.699 81.5067 497.907 82.0133 497.907 82.632C497.907 83.016 497.827 83.368 497.667 83.688C497.518 83.9973 497.305 84.2693 497.027 84.504C496.761 84.7387 496.435 84.92 496.051 85.048C495.678 85.176 495.267 85.24 494.819 85.24ZM502.659 85.24C502.157 85.24 501.725 85.1387 501.363 84.936C501 84.7333 500.717 84.4347 500.515 84.04C500.323 83.6453 500.227 83.1653 500.227 82.6V77.832H498.707V76.744H500.227V73.976H501.507V76.744H504.099V77.832H501.507V82.536C501.507 83.0267 501.608 83.4107 501.811 83.688C502.024 83.9547 502.344 84.088 502.771 84.088C502.995 84.088 503.219 84.056 503.443 83.992C503.677 83.9173 503.885 83.8213 504.067 83.704L504.451 84.696C504.227 84.856 503.965 84.984 503.667 85.08C503.368 85.1867 503.032 85.24 502.659 85.24ZM506.102 85V76.744H507.254L507.334 78.28C507.537 77.768 507.841 77.368 508.246 77.08C508.651 76.7813 509.126 76.632 509.67 76.632C509.851 76.632 510.011 76.648 510.15 76.68C510.299 76.7013 510.427 76.7333 510.534 76.776L510.374 77.992C510.257 77.9493 510.134 77.9227 510.006 77.912C509.878 77.8907 509.75 77.88 509.622 77.88C509.174 77.88 508.779 77.992 508.438 78.216C508.107 78.44 507.846 78.76 507.654 79.176C507.473 79.5813 507.382 80.0613 507.382 80.616V85H506.102ZM514.443 85.24C513.867 85.24 513.355 85.1333 512.907 84.92C512.459 84.696 512.107 84.392 511.851 84.008C511.606 83.624 511.483 83.1813 511.483 82.68C511.483 82.136 511.622 81.6667 511.899 81.272C512.187 80.8773 512.587 80.5733 513.099 80.36C513.611 80.136 514.209 80.024 514.891 80.024C515.275 80.024 515.665 80.0667 516.059 80.152C516.454 80.2373 516.806 80.3493 517.115 80.488V79.88C517.115 79.432 517.025 79.0427 516.843 78.712C516.673 78.3707 516.433 78.1093 516.123 77.928C515.814 77.736 515.451 77.64 515.035 77.64C514.534 77.64 514.097 77.7573 513.723 77.992C513.361 78.2267 513.089 78.5573 512.907 78.984L511.787 78.6C511.937 78.1733 512.166 77.8053 512.475 77.496C512.795 77.1867 513.174 76.9467 513.611 76.776C514.059 76.6053 514.539 76.52 515.051 76.52C515.713 76.52 516.289 76.664 516.779 76.952C517.281 77.2293 517.665 77.624 517.931 78.136C518.209 78.6373 518.347 79.2293 518.347 79.912V85H517.227L517.147 83.72C516.913 84.1787 516.555 84.5467 516.075 84.824C515.606 85.1013 515.062 85.24 514.443 85.24ZM512.779 82.632C512.779 82.9413 512.859 83.2133 513.019 83.448C513.179 83.672 513.403 83.848 513.691 83.976C513.979 84.104 514.31 84.168 514.683 84.168C515.142 84.168 515.553 84.0667 515.915 83.864C516.289 83.6507 516.582 83.368 516.795 83.016C517.009 82.6533 517.115 82.2427 517.115 81.784V81.48C516.763 81.3413 516.406 81.2347 516.043 81.16C515.691 81.0747 515.355 81.032 515.035 81.032C514.331 81.032 513.777 81.176 513.371 81.464C512.977 81.752 512.779 82.1413 512.779 82.632ZM520.524 85V73.128H521.804V85H520.524ZM525.559 74.328C525.559 74.488 525.517 74.6373 525.431 74.776C525.357 74.904 525.25 75.0107 525.111 75.096C524.983 75.1707 524.839 75.208 524.679 75.208C524.519 75.208 524.37 75.1707 524.231 75.096C524.103 75.0107 523.997 74.904 523.911 74.776C523.837 74.6373 523.799 74.488 523.799 74.328C523.799 74.168 523.837 74.024 523.911 73.896C523.997 73.7573 524.103 73.6507 524.231 73.576C524.37 73.4907 524.519 73.448 524.679 73.448C524.839 73.448 524.983 73.4907 525.111 73.576C525.25 73.6507 525.357 73.7573 525.431 73.896C525.517 74.024 525.559 74.168 525.559 74.328ZM524.039 85V76.744H525.319V85H524.039ZM530.115 85.24C529.539 85.24 529.027 85.1333 528.579 84.92C528.131 84.696 527.779 84.392 527.523 84.008C527.278 83.624 527.155 83.1813 527.155 82.68C527.155 82.136 527.294 81.6667 527.571 81.272C527.859 80.8773 528.259 80.5733 528.771 80.36C529.283 80.136 529.88 80.024 530.563 80.024C530.947 80.024 531.336 80.0667 531.731 80.152C532.126 80.2373 532.478 80.3493 532.787 80.488V79.88C532.787 79.432 532.696 79.0427 532.515 78.712C532.344 78.3707 532.104 78.1093 531.795 77.928C531.486 77.736 531.123 77.64 530.707 77.64C530.206 77.64 529.768 77.7573 529.395 77.992C529.032 78.2267 528.76 78.5573 528.579 78.984L527.459 78.6C527.608 78.1733 527.838 77.8053 528.147 77.496C528.467 77.1867 528.846 76.9467 529.283 76.776C529.731 76.6053 530.211 76.52 530.723 76.52C531.384 76.52 531.96 76.664 532.451 76.952C532.952 77.2293 533.336 77.624 533.603 78.136C533.88 78.6373 534.019 79.2293 534.019 79.912V85H532.899L532.819 83.72C532.584 84.1787 532.227 84.5467 531.747 84.824C531.278 85.1013 530.734 85.24 530.115 85.24ZM528.451 82.632C528.451 82.9413 528.531 83.2133 528.691 83.448C528.851 83.672 529.075 83.848 529.363 83.976C529.651 84.104 529.982 84.168 530.355 84.168C530.814 84.168 531.224 84.0667 531.587 83.864C531.96 83.6507 532.254 83.368 532.467 83.016C532.68 82.6533 532.787 82.2427 532.787 81.784V81.48C532.435 81.3413 532.078 81.2347 531.715 81.16C531.363 81.0747 531.027 81.032 530.707 81.032C530.003 81.032 529.448 81.176 529.043 81.464C528.648 81.752 528.451 82.1413 528.451 82.632Z" fill="#77838F"/>
<rect x="442.935" y="104" width="18" height="18" rx="5" fill="#2C3ACF"/>
<path d="M472.183 119V107.64H478.727V108.84H473.527V112.488H478.279V113.704H473.527V117.784H478.887V119H472.183ZM484.212 119.24C483.508 119.24 482.9 119.085 482.388 118.776C481.876 118.467 481.481 118.029 481.204 117.464C480.927 116.888 480.788 116.205 480.788 115.416V110.744H482.068V115.432C482.068 115.976 482.153 116.445 482.324 116.84C482.505 117.235 482.756 117.539 483.076 117.752C483.407 117.965 483.796 118.072 484.244 118.072C484.692 118.072 485.076 117.965 485.396 117.752C485.727 117.539 485.977 117.235 486.148 116.84C486.329 116.445 486.42 115.976 486.42 115.432V110.744H487.7V115.416C487.7 116.184 487.556 116.856 487.268 117.432C486.98 118.008 486.575 118.456 486.052 118.776C485.529 119.085 484.916 119.24 484.212 119.24ZM489.883 119V110.744H491.035L491.115 112.28C491.318 111.768 491.622 111.368 492.027 111.08C492.433 110.781 492.907 110.632 493.451 110.632C493.633 110.632 493.793 110.648 493.931 110.68C494.081 110.701 494.209 110.733 494.315 110.776L494.155 111.992C494.038 111.949 493.915 111.923 493.787 111.912C493.659 111.891 493.531 111.88 493.403 111.88C492.955 111.88 492.561 111.992 492.219 112.216C491.889 112.44 491.627 112.76 491.435 113.176C491.254 113.581 491.163 114.061 491.163 114.616V119H489.883ZM499.25 119.24C498.664 119.24 498.12 119.133 497.618 118.92C497.128 118.696 496.696 118.392 496.322 118.008C495.96 117.613 495.677 117.149 495.474 116.616C495.272 116.083 495.17 115.501 495.17 114.872C495.17 114.243 495.272 113.661 495.474 113.128C495.688 112.595 495.976 112.136 496.338 111.752C496.712 111.357 497.149 111.053 497.65 110.84C498.152 110.616 498.696 110.504 499.282 110.504C499.869 110.504 500.408 110.616 500.898 110.84C501.4 111.053 501.832 111.357 502.194 111.752C502.568 112.136 502.856 112.595 503.058 113.128C503.261 113.661 503.362 114.243 503.362 114.872C503.362 115.501 503.256 116.083 503.042 116.616C502.84 117.149 502.552 117.613 502.178 118.008C501.816 118.392 501.384 118.696 500.882 118.92C500.381 119.133 499.837 119.24 499.25 119.24ZM499.266 118.072C499.672 118.072 500.04 117.992 500.37 117.832C500.712 117.672 501.005 117.453 501.25 117.176C501.506 116.888 501.704 116.552 501.842 116.168C501.981 115.773 502.05 115.341 502.05 114.872C502.05 114.403 501.981 113.976 501.842 113.592C501.704 113.197 501.506 112.861 501.25 112.584C501.005 112.296 500.712 112.072 500.37 111.912C500.04 111.752 499.672 111.672 499.266 111.672C498.861 111.672 498.488 111.752 498.146 111.912C497.816 112.072 497.522 112.296 497.266 112.584C497.021 112.861 496.829 113.197 496.69 113.592C496.552 113.976 496.482 114.403 496.482 114.872C496.482 115.341 496.552 115.773 496.69 116.168C496.829 116.552 497.021 116.888 497.266 117.176C497.522 117.453 497.816 117.672 498.146 117.832C498.488 117.992 498.861 118.072 499.266 118.072ZM505.18 122.264V110.744H506.332L506.396 112.312C506.695 111.747 507.105 111.304 507.628 110.984C508.161 110.664 508.764 110.504 509.436 110.504C509.98 110.504 510.487 110.616 510.956 110.84C511.425 111.053 511.836 111.357 512.188 111.752C512.54 112.147 512.812 112.611 513.004 113.144C513.207 113.667 513.308 114.237 513.308 114.856C513.308 115.475 513.207 116.051 513.004 116.584C512.812 117.117 512.535 117.581 512.172 117.976C511.82 118.371 511.404 118.68 510.924 118.904C510.444 119.128 509.927 119.24 509.372 119.24C508.743 119.24 508.172 119.096 507.66 118.808C507.159 118.52 506.759 118.115 506.46 117.592V122.264H505.18ZM509.212 118.072C509.617 118.072 509.985 117.992 510.316 117.832C510.657 117.672 510.951 117.453 511.196 117.176C511.452 116.888 511.649 116.552 511.788 116.168C511.927 115.773 511.996 115.341 511.996 114.872C511.996 114.403 511.927 113.976 511.788 113.592C511.649 113.197 511.452 112.861 511.196 112.584C510.951 112.296 510.657 112.072 510.316 111.912C509.985 111.752 509.617 111.672 509.212 111.672C508.807 111.672 508.433 111.752 508.092 111.912C507.761 112.072 507.468 112.296 507.212 112.584C506.967 112.861 506.775 113.197 506.636 113.592C506.497 113.976 506.428 114.403 506.428 114.872C506.428 115.341 506.497 115.773 506.636 116.168C506.775 116.552 506.967 116.888 507.212 117.176C507.468 117.453 507.761 117.672 508.092 117.832C508.433 117.992 508.807 118.072 509.212 118.072ZM518.955 119.24C518.347 119.24 517.787 119.133 517.275 118.92C516.774 118.707 516.337 118.408 515.963 118.024C515.59 117.629 515.302 117.171 515.099 116.648C514.897 116.115 514.795 115.528 514.795 114.888C514.795 114.259 514.891 113.683 515.083 113.16C515.286 112.627 515.563 112.163 515.915 111.768C516.278 111.373 516.699 111.069 517.179 110.856C517.659 110.632 518.182 110.52 518.747 110.52C519.291 110.52 519.793 110.621 520.251 110.824C520.721 111.027 521.126 111.309 521.467 111.672C521.809 112.035 522.07 112.467 522.251 112.968C522.443 113.469 522.539 114.013 522.539 114.6V115.128H516.123C516.166 115.725 516.305 116.248 516.539 116.696C516.785 117.144 517.11 117.491 517.515 117.736C517.921 117.981 518.39 118.104 518.923 118.104C519.446 118.104 519.899 117.997 520.283 117.784C520.678 117.56 521.014 117.235 521.291 116.808L522.379 117.304C522.166 117.709 521.889 118.056 521.547 118.344C521.206 118.632 520.811 118.851 520.363 119C519.926 119.16 519.457 119.24 518.955 119.24ZM518.747 111.608C518.31 111.608 517.91 111.715 517.547 111.928C517.195 112.141 516.897 112.44 516.651 112.824C516.417 113.197 516.262 113.635 516.187 114.136H521.195C521.153 113.635 521.019 113.197 520.795 112.824C520.571 112.44 520.283 112.141 519.931 111.928C519.579 111.715 519.185 111.608 518.747 111.608Z" fill="#77838F"/>
<rect x="442.935" y="138" width="18" height="18" rx="5" fill="#717591"/>
<path d="M475.319 153.24C474.722 153.24 474.167 153.139 473.655 152.936C473.143 152.723 472.7 152.424 472.327 152.04C471.954 151.656 471.682 151.203 471.511 150.68L472.775 150.28C472.988 150.835 473.314 151.267 473.751 151.576C474.199 151.885 474.716 152.04 475.303 152.04C475.762 152.04 476.172 151.949 476.535 151.768C476.908 151.576 477.196 151.32 477.399 151C477.612 150.669 477.719 150.301 477.719 149.896C477.719 149.373 477.538 148.947 477.175 148.616C476.823 148.275 476.311 148.029 475.639 147.88L474.935 147.72C473.89 147.485 473.106 147.101 472.583 146.568C472.06 146.035 471.799 145.379 471.799 144.6C471.799 144.131 471.884 143.704 472.055 143.32C472.236 142.925 472.487 142.584 472.807 142.296C473.127 142.008 473.495 141.789 473.911 141.64C474.338 141.48 474.796 141.4 475.287 141.4C475.863 141.4 476.391 141.507 476.871 141.72C477.362 141.923 477.783 142.216 478.135 142.6C478.487 142.984 478.743 143.432 478.903 143.944L477.639 144.344C477.426 143.779 477.116 143.347 476.711 143.048C476.306 142.749 475.831 142.6 475.287 142.6C474.871 142.6 474.503 142.685 474.183 142.856C473.863 143.016 473.612 143.24 473.431 143.528C473.25 143.805 473.159 144.131 473.159 144.504C473.159 144.995 473.335 145.4 473.687 145.72C474.039 146.029 474.599 146.275 475.367 146.456L476.071 146.616C477.084 146.851 477.836 147.245 478.327 147.8C478.828 148.355 479.079 149.027 479.079 149.816C479.079 150.317 478.983 150.781 478.791 151.208C478.61 151.624 478.348 151.987 478.007 152.296C477.676 152.595 477.282 152.829 476.823 153C476.364 153.16 475.863 153.24 475.319 153.24ZM484.766 153.24C484.179 153.24 483.635 153.133 483.134 152.92C482.643 152.696 482.211 152.392 481.838 152.008C481.475 151.613 481.193 151.149 480.99 150.616C480.787 150.083 480.686 149.501 480.686 148.872C480.686 148.243 480.787 147.661 480.99 147.128C481.203 146.595 481.491 146.136 481.854 145.752C482.227 145.357 482.665 145.053 483.166 144.84C483.667 144.616 484.211 144.504 484.798 144.504C485.385 144.504 485.923 144.616 486.414 144.84C486.915 145.053 487.347 145.357 487.71 145.752C488.083 146.136 488.371 146.595 488.574 147.128C488.777 147.661 488.878 148.243 488.878 148.872C488.878 149.501 488.771 150.083 488.558 150.616C488.355 151.149 488.067 151.613 487.694 152.008C487.331 152.392 486.899 152.696 486.398 152.92C485.897 153.133 485.353 153.24 484.766 153.24ZM484.782 152.072C485.187 152.072 485.555 151.992 485.886 151.832C486.227 151.672 486.521 151.453 486.766 151.176C487.022 150.888 487.219 150.552 487.358 150.168C487.497 149.773 487.566 149.341 487.566 148.872C487.566 148.403 487.497 147.976 487.358 147.592C487.219 147.197 487.022 146.861 486.766 146.584C486.521 146.296 486.227 146.072 485.886 145.912C485.555 145.752 485.187 145.672 484.782 145.672C484.377 145.672 484.003 145.752 483.662 145.912C483.331 146.072 483.038 146.296 482.782 146.584C482.537 146.861 482.345 147.197 482.206 147.592C482.067 147.976 481.998 148.403 481.998 148.872C481.998 149.341 482.067 149.773 482.206 150.168C482.345 150.552 482.537 150.888 482.782 151.176C483.038 151.453 483.331 151.672 483.662 151.832C484.003 151.992 484.377 152.072 484.782 152.072ZM494.056 153.24C493.352 153.24 492.744 153.085 492.232 152.776C491.72 152.467 491.325 152.029 491.048 151.464C490.77 150.888 490.632 150.205 490.632 149.416V144.744H491.912V149.432C491.912 149.976 491.997 150.445 492.168 150.84C492.349 151.235 492.6 151.539 492.92 151.752C493.25 151.965 493.64 152.072 494.088 152.072C494.536 152.072 494.92 151.965 495.24 151.752C495.57 151.539 495.821 151.235 495.992 150.84C496.173 150.445 496.264 149.976 496.264 149.432V144.744H497.544V149.416C497.544 150.184 497.4 150.856 497.112 151.432C496.824 152.008 496.418 152.456 495.896 152.776C495.373 153.085 494.76 153.24 494.056 153.24ZM502.815 153.24C502.314 153.24 501.882 153.139 501.519 152.936C501.156 152.733 500.874 152.435 500.671 152.04C500.479 151.645 500.383 151.165 500.383 150.6V145.832H498.863V144.744H500.383V141.976H501.663V144.744H504.255V145.832H501.663V150.536C501.663 151.027 501.764 151.411 501.967 151.688C502.18 151.955 502.5 152.088 502.927 152.088C503.151 152.088 503.375 152.056 503.599 151.992C503.834 151.917 504.042 151.821 504.223 151.704L504.607 152.696C504.383 152.856 504.122 152.984 503.823 153.08C503.524 153.187 503.188 153.24 502.815 153.24ZM506.258 153V141.128H507.538V145.944C507.784 145.507 508.136 145.16 508.594 144.904C509.053 144.637 509.57 144.504 510.146 144.504C510.776 144.504 511.325 144.653 511.794 144.952C512.264 145.251 512.621 145.677 512.866 146.232C513.122 146.776 513.25 147.421 513.25 148.168V153H511.97V148.248C511.97 147.427 511.789 146.792 511.426 146.344C511.074 145.896 510.568 145.672 509.906 145.672C509.448 145.672 509.037 145.779 508.674 145.992C508.322 146.195 508.045 146.483 507.842 146.856C507.64 147.219 507.538 147.635 507.538 148.104V153H506.258ZM518.178 153L522.754 141.64H524.178L528.754 153H527.314L526.05 149.768H520.834L519.57 153H518.178ZM521.314 148.536H525.554L523.442 143.128L521.314 148.536ZM530.243 153V144.744H531.395L531.459 146.008C531.693 145.549 532.035 145.187 532.483 144.92C532.931 144.643 533.443 144.504 534.019 144.504C534.637 144.504 535.176 144.664 535.635 144.984C536.093 145.304 536.435 145.752 536.659 146.328C536.797 145.965 537.005 145.651 537.283 145.384C537.56 145.107 537.885 144.893 538.259 144.744C538.643 144.584 539.053 144.504 539.491 144.504C540.109 144.504 540.643 144.653 541.091 144.952C541.549 145.24 541.896 145.651 542.131 146.184C542.376 146.717 542.499 147.357 542.499 148.104V153H541.219V148.184C541.219 147.373 541.053 146.755 540.723 146.328C540.392 145.891 539.912 145.672 539.283 145.672C538.845 145.672 538.456 145.779 538.115 145.992C537.773 146.195 537.501 146.477 537.299 146.84C537.107 147.192 537.011 147.592 537.011 148.04V153H535.731V148.184C535.731 147.373 535.56 146.755 535.219 146.328C534.877 145.891 534.392 145.672 533.763 145.672C533.336 145.672 532.952 145.779 532.611 145.992C532.269 146.195 532.003 146.477 531.811 146.84C531.619 147.192 531.523 147.592 531.523 148.04V153H530.243ZM548.424 153.24C547.816 153.24 547.256 153.133 546.744 152.92C546.243 152.707 545.805 152.408 545.432 152.024C545.059 151.629 544.771 151.171 544.568 150.648C544.365 150.115 544.264 149.528 544.264 148.888C544.264 148.259 544.36 147.683 544.552 147.16C544.755 146.627 545.032 146.163 545.384 145.768C545.747 145.373 546.168 145.069 546.648 144.856C547.128 144.632 547.651 144.52 548.216 144.52C548.76 144.52 549.261 144.621 549.72 144.824C550.189 145.027 550.595 145.309 550.936 145.672C551.277 146.035 551.539 146.467 551.72 146.968C551.912 147.469 552.008 148.013 552.008 148.6V149.128H545.592C545.635 149.725 545.773 150.248 546.008 150.696C546.253 151.144 546.579 151.491 546.984 151.736C547.389 151.981 547.859 152.104 548.392 152.104C548.915 152.104 549.368 151.997 549.752 151.784C550.147 151.56 550.483 151.235 550.76 150.808L551.848 151.304C551.635 151.709 551.357 152.056 551.016 152.344C550.675 152.632 550.28 152.851 549.832 153C549.395 153.16 548.925 153.24 548.424 153.24ZM548.216 145.608C547.779 145.608 547.379 145.715 547.016 145.928C546.664 146.141 546.365 146.44 546.12 146.824C545.885 147.197 545.731 147.635 545.656 148.136H550.664C550.621 147.635 550.488 147.197 550.264 146.824C550.04 146.44 549.752 146.141 549.4 145.928C549.048 145.715 548.653 145.608 548.216 145.608ZM553.836 153V144.744H554.988L555.068 146.28C555.271 145.768 555.575 145.368 555.98 145.08C556.386 144.781 556.86 144.632 557.404 144.632C557.586 144.632 557.746 144.648 557.884 144.68C558.034 144.701 558.162 144.733 558.268 144.776L558.108 145.992C557.991 145.949 557.868 145.923 557.74 145.912C557.612 145.891 557.484 145.88 557.356 145.88C556.908 145.88 556.514 145.992 556.172 146.216C555.842 146.44 555.58 146.76 555.388 147.176C555.207 147.581 555.116 148.061 555.116 148.616V153H553.836ZM561.356 142.328C561.356 142.488 561.314 142.637 561.228 142.776C561.154 142.904 561.047 143.011 560.908 143.096C560.78 143.171 560.636 143.208 560.476 143.208C560.316 143.208 560.167 143.171 560.028 143.096C559.9 143.011 559.794 142.904 559.708 142.776C559.634 142.637 559.596 142.488 559.596 142.328C559.596 142.168 559.634 142.024 559.708 141.896C559.794 141.757 559.9 141.651 560.028 141.576C560.167 141.491 560.316 141.448 560.476 141.448C560.636 141.448 560.78 141.491 560.908 141.576C561.047 141.651 561.154 141.757 561.228 141.896C561.314 142.024 561.356 142.168 561.356 142.328ZM559.836 153V144.744H561.116V153H559.836ZM566.904 153.24C566.339 153.24 565.816 153.133 565.336 152.92C564.856 152.707 564.435 152.408 564.072 152.024C563.709 151.629 563.427 151.171 563.224 150.648C563.032 150.125 562.936 149.555 562.936 148.936C562.936 148.317 563.037 147.741 563.24 147.208C563.443 146.664 563.725 146.189 564.088 145.784C564.451 145.379 564.877 145.064 565.368 144.84C565.859 144.616 566.392 144.504 566.968 144.504C567.501 144.504 567.981 144.6 568.408 144.792C568.845 144.984 569.219 145.245 569.528 145.576C569.848 145.907 570.093 146.285 570.264 146.712L569.096 147.112C568.861 146.664 568.557 146.312 568.184 146.056C567.811 145.8 567.389 145.672 566.92 145.672C566.536 145.672 566.184 145.757 565.864 145.928C565.544 146.088 565.261 146.312 565.016 146.6C564.771 146.888 564.579 147.235 564.44 147.64C564.312 148.035 564.248 148.461 564.248 148.92C564.248 149.379 564.312 149.8 564.44 150.184C564.579 150.568 564.765 150.904 565 151.192C565.235 151.469 565.512 151.688 565.832 151.848C566.163 151.997 566.52 152.072 566.904 152.072C567.395 152.072 567.843 151.949 568.248 151.704C568.664 151.448 568.979 151.096 569.192 150.648L570.36 151.048C570.189 151.496 569.928 151.885 569.576 152.216C569.235 152.536 568.829 152.787 568.36 152.968C567.901 153.149 567.416 153.24 566.904 153.24ZM574.646 153.24C574.07 153.24 573.558 153.133 573.11 152.92C572.662 152.696 572.31 152.392 572.054 152.008C571.809 151.624 571.686 151.181 571.686 150.68C571.686 150.136 571.825 149.667 572.102 149.272C572.39 148.877 572.79 148.573 573.302 148.36C573.814 148.136 574.412 148.024 575.094 148.024C575.478 148.024 575.868 148.067 576.262 148.152C576.657 148.237 577.009 148.349 577.318 148.488V147.88C577.318 147.432 577.228 147.043 577.046 146.712C576.876 146.371 576.636 146.109 576.326 145.928C576.017 145.736 575.654 145.64 575.238 145.64C574.737 145.64 574.3 145.757 573.926 145.992C573.564 146.227 573.292 146.557 573.11 146.984L571.99 146.6C572.14 146.173 572.369 145.805 572.678 145.496C572.998 145.187 573.377 144.947 573.814 144.776C574.262 144.605 574.742 144.52 575.254 144.52C575.916 144.52 576.492 144.664 576.982 144.952C577.484 145.229 577.868 145.624 578.134 146.136C578.412 146.637 578.55 147.229 578.55 147.912V153H577.43L577.35 151.72C577.116 152.179 576.758 152.547 576.278 152.824C575.809 153.101 575.265 153.24 574.646 153.24ZM572.982 150.632C572.982 150.941 573.062 151.213 573.222 151.448C573.382 151.672 573.606 151.848 573.894 151.976C574.182 152.104 574.513 152.168 574.886 152.168C575.345 152.168 575.756 152.067 576.118 151.864C576.492 151.651 576.785 151.368 576.998 151.016C577.212 150.653 577.318 150.243 577.318 149.784V149.48C576.966 149.341 576.609 149.235 576.246 149.16C575.894 149.075 575.558 149.032 575.238 149.032C574.534 149.032 573.98 149.176 573.574 149.464C573.18 149.752 572.982 150.141 572.982 150.632Z" fill="#77838F"/>
<rect x="442.935" y="172" width="18" height="18" rx="5" fill="#FBAF1D"/>
<path d="M471.303 187L475.879 175.64H477.303L481.879 187H480.439L479.175 183.768H473.959L472.695 187H471.303ZM474.439 182.536H478.679L476.567 177.128L474.439 182.536ZM483.664 187V179.832H482.144V178.744H483.664V177.976C483.664 177.368 483.776 176.84 484 176.392C484.224 175.933 484.539 175.581 484.944 175.336C485.36 175.091 485.84 174.968 486.384 174.968C486.96 174.968 487.478 175.107 487.936 175.384L487.568 176.376C487.408 176.291 487.232 176.221 487.04 176.168C486.848 176.115 486.656 176.088 486.464 176.088C485.963 176.088 485.584 176.253 485.328 176.584C485.072 176.915 484.944 177.389 484.944 178.008V178.744H487.552V179.832H484.944V187H483.664ZM489.055 187V178.744H490.207L490.287 180.28C490.49 179.768 490.794 179.368 491.199 179.08C491.604 178.781 492.079 178.632 492.623 178.632C492.804 178.632 492.964 178.648 493.103 178.68C493.252 178.701 493.38 178.733 493.487 178.776L493.327 179.992C493.21 179.949 493.087 179.923 492.959 179.912C492.831 179.891 492.703 179.88 492.575 179.88C492.127 179.88 491.732 179.992 491.391 180.216C491.06 180.44 490.799 180.76 490.607 181.176C490.426 181.581 490.335 182.061 490.335 182.616V187H489.055ZM496.575 176.328C496.575 176.488 496.532 176.637 496.447 176.776C496.372 176.904 496.266 177.011 496.127 177.096C495.999 177.171 495.855 177.208 495.695 177.208C495.535 177.208 495.386 177.171 495.247 177.096C495.119 177.011 495.012 176.904 494.927 176.776C494.852 176.637 494.815 176.488 494.815 176.328C494.815 176.168 494.852 176.024 494.927 175.896C495.012 175.757 495.119 175.651 495.247 175.576C495.386 175.491 495.535 175.448 495.695 175.448C495.855 175.448 495.999 175.491 496.127 175.576C496.266 175.651 496.372 175.757 496.447 175.896C496.532 176.024 496.575 176.168 496.575 176.328ZM495.055 187V178.744H496.335V187H495.055ZM502.123 187.24C501.557 187.24 501.035 187.133 500.555 186.92C500.075 186.707 499.653 186.408 499.291 186.024C498.928 185.629 498.645 185.171 498.443 184.648C498.251 184.125 498.155 183.555 498.155 182.936C498.155 182.317 498.256 181.741 498.459 181.208C498.661 180.664 498.944 180.189 499.307 179.784C499.669 179.379 500.096 179.064 500.587 178.84C501.077 178.616 501.611 178.504 502.187 178.504C502.72 178.504 503.2 178.6 503.627 178.792C504.064 178.984 504.437 179.245 504.747 179.576C505.067 179.907 505.312 180.285 505.483 180.712L504.315 181.112C504.08 180.664 503.776 180.312 503.403 180.056C503.029 179.8 502.608 179.672 502.139 179.672C501.755 179.672 501.403 179.757 501.083 179.928C500.763 180.088 500.48 180.312 500.235 180.6C499.989 180.888 499.797 181.235 499.659 181.64C499.531 182.035 499.467 182.461 499.467 182.92C499.467 183.379 499.531 183.8 499.659 184.184C499.797 184.568 499.984 184.904 500.219 185.192C500.453 185.469 500.731 185.688 501.051 185.848C501.381 185.997 501.739 186.072 502.123 186.072C502.613 186.072 503.061 185.949 503.467 185.704C503.883 185.448 504.197 185.096 504.411 184.648L505.579 185.048C505.408 185.496 505.147 185.885 504.795 186.216C504.453 186.536 504.048 186.787 503.579 186.968C503.12 187.149 502.635 187.24 502.123 187.24ZM509.865 187.24C509.289 187.24 508.777 187.133 508.329 186.92C507.881 186.696 507.529 186.392 507.273 186.008C507.028 185.624 506.905 185.181 506.905 184.68C506.905 184.136 507.044 183.667 507.321 183.272C507.609 182.877 508.009 182.573 508.521 182.36C509.033 182.136 509.63 182.024 510.313 182.024C510.697 182.024 511.086 182.067 511.481 182.152C511.876 182.237 512.228 182.349 512.537 182.488V181.88C512.537 181.432 512.446 181.043 512.265 180.712C512.094 180.371 511.854 180.109 511.545 179.928C511.236 179.736 510.873 179.64 510.457 179.64C509.956 179.64 509.518 179.757 509.145 179.992C508.782 180.227 508.51 180.557 508.329 180.984L507.209 180.6C507.358 180.173 507.588 179.805 507.897 179.496C508.217 179.187 508.596 178.947 509.033 178.776C509.481 178.605 509.961 178.52 510.473 178.52C511.134 178.52 511.71 178.664 512.201 178.952C512.702 179.229 513.086 179.624 513.353 180.136C513.63 180.637 513.769 181.229 513.769 181.912V187H512.649L512.569 185.72C512.334 186.179 511.977 186.547 511.497 186.824C511.028 187.101 510.484 187.24 509.865 187.24ZM508.201 184.632C508.201 184.941 508.281 185.213 508.441 185.448C508.601 185.672 508.825 185.848 509.113 185.976C509.401 186.104 509.732 186.168 510.105 186.168C510.564 186.168 510.974 186.067 511.337 185.864C511.71 185.651 512.004 185.368 512.217 185.016C512.43 184.653 512.537 184.243 512.537 183.784V183.48C512.185 183.341 511.828 183.235 511.465 183.16C511.113 183.075 510.777 183.032 510.457 183.032C509.753 183.032 509.198 183.176 508.793 183.464C508.398 183.752 508.201 184.141 508.201 184.632Z" fill="#77838F"/>
<path d="M3.92082 18V8.752H0.720819V6.64H9.50482V8.752H6.30482V18H3.92082ZM13.5717 18.24C12.9424 18.24 12.361 18.128 11.8277 17.904C11.2944 17.68 10.8304 17.3707 10.4357 16.976C10.041 16.5707 9.73169 16.096 9.50769 15.552C9.29436 15.008 9.18769 14.416 9.18769 13.776C9.18769 13.136 9.29969 12.5493 9.52369 12.016C9.74769 11.472 10.057 10.9973 10.4517 10.592C10.857 10.1867 11.3264 9.872 11.8597 9.648C12.4037 9.424 12.9957 9.312 13.6357 9.312C14.265 9.312 14.8464 9.424 15.3797 9.648C15.913 9.872 16.377 10.1867 16.7717 10.592C17.1664 10.9867 17.4704 11.456 17.6837 12C17.9077 12.5333 18.0197 13.12 18.0197 13.76C18.0197 14.4 17.9077 14.992 17.6837 15.536C17.4597 16.08 17.145 16.5547 16.7397 16.96C16.345 17.3653 15.8757 17.68 15.3317 17.904C14.7984 18.128 14.2117 18.24 13.5717 18.24ZM13.6037 16.224C14.009 16.224 14.3717 16.1173 14.6917 15.904C15.0117 15.6907 15.2624 15.4027 15.4437 15.04C15.6357 14.6667 15.7317 14.2453 15.7317 13.776C15.7317 13.3067 15.6357 12.8907 15.4437 12.528C15.2624 12.1547 15.0117 11.8613 14.6917 11.648C14.3717 11.4347 14.009 11.328 13.6037 11.328C13.1984 11.328 12.8357 11.4347 12.5157 11.648C12.1957 11.8613 11.9397 12.1547 11.7477 12.528C11.5664 12.8907 11.4757 13.3067 11.4757 13.776C11.4757 14.2453 11.5664 14.6667 11.7477 15.04C11.9397 15.4027 12.1957 15.6907 12.5157 15.904C12.8357 16.1173 13.1984 16.224 13.6037 16.224ZM22.9061 18.24C22.3194 18.24 21.8127 18.128 21.3861 17.904C20.9701 17.6693 20.6447 17.3333 20.4101 16.896C20.1861 16.4587 20.0741 15.9253 20.0741 15.296V11.36H18.6341V9.552H20.0741V6.672H22.3141V9.552H24.6181V11.36H22.3141V15.024C22.3141 15.4293 22.3994 15.744 22.5701 15.968C22.7407 16.1813 23.0021 16.288 23.3541 16.288C23.5354 16.288 23.7274 16.2613 23.9301 16.208C24.1434 16.1547 24.3461 16.0853 24.5381 16L24.9381 17.68C24.6607 17.8507 24.3514 17.984 24.0101 18.08C23.6687 18.1867 23.3007 18.24 22.9061 18.24ZM28.8032 18.24C28.3659 18.24 27.9659 18.176 27.6032 18.048C27.2405 17.92 26.9205 17.7387 26.6432 17.504C26.3765 17.2587 26.1685 16.976 26.0192 16.656C25.8699 16.336 25.7952 15.984 25.7952 15.6C25.7952 15.0667 25.9392 14.5973 26.2272 14.192C26.5152 13.7867 26.9205 13.472 27.4432 13.248C27.9659 13.0133 28.5739 12.896 29.2672 12.896C29.6192 12.896 29.9499 12.928 30.2592 12.992C30.5792 13.056 30.8885 13.1467 31.1872 13.264V12.768C31.1872 12.288 31.0485 11.8987 30.7712 11.6C30.5045 11.3013 30.1365 11.152 29.6672 11.152C29.3152 11.152 28.9952 11.2427 28.7072 11.424C28.4192 11.5947 28.2165 11.84 28.0992 12.16L26.0992 11.76C26.2165 11.2693 26.4459 10.8427 26.7872 10.48C27.1392 10.1067 27.5659 9.81867 28.0672 9.616C28.5685 9.41333 29.1125 9.312 29.6992 9.312C30.2432 9.312 30.7392 9.39733 31.1872 9.568C31.6352 9.73867 32.0192 9.984 32.3392 10.304C32.6699 10.624 32.9205 11.0027 33.0912 11.44C33.2725 11.8667 33.3632 12.3467 33.3632 12.88V18H31.3632L31.2992 17.008C31.0752 17.3707 30.7499 17.6693 30.3232 17.904C29.8965 18.128 29.3899 18.24 28.8032 18.24ZM28.0032 15.488C28.0032 15.7867 28.1259 16.032 28.3712 16.224C28.6165 16.416 28.9419 16.512 29.3472 16.512C29.6992 16.512 30.0139 16.4373 30.2912 16.288C30.5685 16.1387 30.7872 15.936 30.9472 15.68C31.1072 15.4133 31.1872 15.12 31.1872 14.8V14.72C30.9525 14.624 30.7019 14.5493 30.4352 14.496C30.1685 14.432 29.9019 14.4 29.6352 14.4C29.1339 14.4 28.7339 14.5013 28.4352 14.704C28.1472 14.896 28.0032 15.1573 28.0032 15.488ZM35.1483 18V6.064H37.3883V18H35.1483ZM42.5233 18V9.552H44.5873L44.6513 10.64C44.8967 10.2347 45.2327 9.91467 45.6593 9.68C46.0967 9.43467 46.5927 9.312 47.1473 9.312C47.766 9.312 48.3047 9.46133 48.7633 9.76C49.2327 10.048 49.5953 10.464 49.8513 11.008C50.1073 11.552 50.2353 12.192 50.2353 12.928V18H47.9953V13.216C47.9953 12.6293 47.862 12.1707 47.5953 11.84C47.3287 11.4987 46.9607 11.328 46.4913 11.328C46.15 11.328 45.8513 11.408 45.5953 11.568C45.3393 11.7173 45.1367 11.9307 44.9873 12.208C44.838 12.4853 44.7633 12.8 44.7633 13.152V18H42.5233ZM55.8313 18.24C55.0633 18.24 54.3913 18.08 53.8153 17.76C53.25 17.4293 52.8073 16.9653 52.4873 16.368C52.178 15.76 52.0233 15.0453 52.0233 14.224V9.552H54.2633V14.272C54.2633 14.88 54.4073 15.36 54.6953 15.712C54.9833 16.0533 55.3727 16.224 55.8633 16.224C56.354 16.224 56.7433 16.0533 57.0313 15.712C57.3193 15.36 57.4633 14.88 57.4633 14.272V9.552H59.7033V14.224C59.7033 14.832 59.6127 15.3813 59.4313 15.872C59.25 16.3627 58.9887 16.784 58.6473 17.136C58.306 17.488 57.8953 17.76 57.4153 17.952C56.946 18.144 56.418 18.24 55.8313 18.24ZM61.4921 18V9.552H63.5561L63.6201 10.624C63.8654 10.2187 64.1961 9.89867 64.6121 9.664C65.0281 9.42933 65.4974 9.312 66.0201 9.312C66.5854 9.312 67.0867 9.45067 67.5241 9.728C67.9721 10.0053 68.3187 10.3893 68.5641 10.88C68.8201 10.4107 69.1881 10.032 69.6681 9.744C70.1587 9.456 70.7187 9.312 71.3481 9.312C71.9774 9.312 72.5214 9.46133 72.9801 9.76C73.4387 10.048 73.7907 10.464 74.0361 11.008C74.2921 11.552 74.4201 12.192 74.4201 12.928V18H72.1801V13.216C72.1801 12.6293 72.0521 12.1707 71.7961 11.84C71.5401 11.4987 71.1827 11.328 70.7241 11.328C70.4041 11.328 70.1161 11.408 69.8601 11.568C69.6147 11.7173 69.4227 11.9307 69.2841 12.208C69.1454 12.4853 69.0761 12.8 69.0761 13.152V18H66.8361V13.216C66.8361 12.6293 66.7081 12.1707 66.4521 11.84C66.1961 11.4987 65.8387 11.328 65.3801 11.328C65.0601 11.328 64.7721 11.408 64.5161 11.568C64.2707 11.7173 64.0787 11.9307 63.9401 12.208C63.8014 12.4853 63.7321 12.8 63.7321 13.152V18H61.4921ZM76.2108 18V6.064H78.4508V10.624C78.7495 10.2187 79.1228 9.89867 79.5708 9.664C80.0295 9.42933 80.5308 9.312 81.0748 9.312C81.6295 9.312 82.1415 9.424 82.6108 9.648C83.0802 9.872 83.4908 10.1867 83.8428 10.592C84.1948 10.9867 84.4668 11.4507 84.6588 11.984C84.8615 12.5173 84.9628 13.0987 84.9628 13.728C84.9628 14.368 84.8615 14.96 84.6588 15.504C84.4562 16.048 84.1735 16.528 83.8108 16.944C83.4482 17.3493 83.0215 17.6693 82.5308 17.904C82.0402 18.128 81.5122 18.24 80.9468 18.24C80.3922 18.24 79.8908 18.1227 79.4428 17.888C78.9948 17.6533 78.6268 17.3227 78.3388 16.896L78.2748 18H76.2108ZM80.5468 16.224C80.9522 16.224 81.3148 16.1173 81.6348 15.904C81.9548 15.6907 82.2055 15.4027 82.3868 15.04C82.5788 14.6667 82.6748 14.2453 82.6748 13.776C82.6748 13.3067 82.5788 12.8907 82.3868 12.528C82.2055 12.1547 81.9548 11.8613 81.6348 11.648C81.3148 11.4347 80.9522 11.328 80.5468 11.328C80.1415 11.328 79.7788 11.4347 79.4588 11.648C79.1388 11.8613 78.8828 12.1547 78.6908 12.528C78.5095 12.8907 78.4188 13.3067 78.4188 13.776C78.4188 14.2453 78.5095 14.6667 78.6908 15.04C78.8828 15.4027 79.1388 15.6907 79.4588 15.904C79.7788 16.1173 80.1415 16.224 80.5468 16.224ZM90.5077 18.24C89.8784 18.24 89.297 18.1333 88.7637 17.92C88.241 17.696 87.7877 17.3867 87.4037 16.992C87.0197 16.5867 86.721 16.112 86.5077 15.568C86.2944 15.0133 86.1877 14.4107 86.1877 13.76C86.1877 13.1307 86.2944 12.544 86.5077 12C86.721 11.456 87.0144 10.9867 87.3877 10.592C87.7717 10.1867 88.2197 9.872 88.7317 9.648C89.2437 9.424 89.7984 9.312 90.3957 9.312C91.0144 9.312 91.5744 9.41867 92.0757 9.632C92.5877 9.84533 93.025 10.1493 93.3877 10.544C93.7504 10.9387 94.0277 11.408 94.2197 11.952C94.4224 12.496 94.5237 13.104 94.5237 13.776V14.336H88.4597C88.5557 14.9653 88.785 15.4613 89.1477 15.824C89.5104 16.176 89.969 16.352 90.5237 16.352C90.9077 16.352 91.2544 16.2613 91.5637 16.08C91.8837 15.8987 92.145 15.6373 92.3477 15.296L94.3477 15.936C94.1557 16.416 93.8677 16.8267 93.4837 17.168C93.0997 17.5093 92.6517 17.776 92.1397 17.968C91.6277 18.1493 91.0837 18.24 90.5077 18.24ZM90.3957 11.04C89.905 11.04 89.489 11.2 89.1477 11.52C88.817 11.84 88.5984 12.2773 88.4917 12.832H92.2197C92.1344 12.2773 91.9264 11.84 91.5957 11.52C91.2757 11.2 90.8757 11.04 90.3957 11.04ZM95.9139 18V9.552H97.9779L98.0579 10.832C98.2713 10.384 98.5593 10.0427 98.9219 9.808C99.2846 9.56267 99.7113 9.44 100.202 9.44C100.351 9.44 100.501 9.456 100.65 9.488C100.799 9.50933 100.933 9.54133 101.05 9.584L100.81 11.792C100.693 11.7493 100.57 11.7227 100.442 11.712C100.325 11.6907 100.202 11.68 100.074 11.68C99.4553 11.68 98.9806 11.872 98.6499 12.256C98.3193 12.6293 98.1539 13.1627 98.1539 13.856V18H95.9139ZM109.089 17.76C108.556 17.76 108.054 17.6533 107.585 17.44C107.126 17.2267 106.726 16.9333 106.385 16.56C106.044 16.176 105.777 15.7333 105.585 15.232C105.393 14.72 105.297 14.1707 105.297 13.584C105.297 12.976 105.393 12.416 105.585 11.904C105.788 11.3813 106.065 10.928 106.417 10.544C106.78 10.16 107.196 9.86133 107.665 9.648C108.145 9.424 108.662 9.312 109.217 9.312C109.761 9.312 110.252 9.424 110.689 9.648C111.126 9.86133 111.489 10.176 111.777 10.592L111.825 9.552H113.889V16.992C113.889 17.6427 113.782 18.2347 113.569 18.768C113.366 19.3013 113.073 19.76 112.689 20.144C112.305 20.528 111.846 20.8213 111.313 21.024C110.79 21.2373 110.209 21.344 109.569 21.344C108.94 21.344 108.374 21.2427 107.873 21.04C107.372 20.848 106.934 20.576 106.561 20.224C106.188 19.872 105.894 19.4613 105.681 18.992L107.825 18.464C108.017 18.7733 108.262 19.0133 108.561 19.184C108.87 19.3653 109.217 19.456 109.601 19.456C110.017 19.456 110.374 19.36 110.673 19.168C110.982 18.9867 111.222 18.7253 111.393 18.384C111.564 18.0533 111.649 17.664 111.649 17.216V16.528C111.361 16.912 110.993 17.216 110.545 17.44C110.108 17.6533 109.622 17.76 109.089 17.76ZM109.633 15.776C110.028 15.776 110.374 15.68 110.673 15.488C110.982 15.2853 111.228 15.0187 111.409 14.688C111.59 14.3467 111.681 13.9627 111.681 13.536C111.681 13.1093 111.59 12.7307 111.409 12.4C111.228 12.0587 110.982 11.792 110.673 11.6C110.374 11.3973 110.028 11.296 109.633 11.296C109.238 11.296 108.886 11.3973 108.577 11.6C108.278 11.792 108.038 12.0587 107.857 12.4C107.676 12.7307 107.585 13.1093 107.585 13.536C107.585 13.9627 107.676 14.3467 107.857 14.688C108.038 15.0187 108.278 15.2853 108.577 15.488C108.886 15.68 109.238 15.776 109.633 15.776ZM118.288 18.24C117.85 18.24 117.45 18.176 117.088 18.048C116.725 17.92 116.405 17.7387 116.128 17.504C115.861 17.2587 115.653 16.976 115.504 16.656C115.354 16.336 115.28 15.984 115.28 15.6C115.28 15.0667 115.424 14.5973 115.712 14.192C116 13.7867 116.405 13.472 116.928 13.248C117.45 13.0133 118.058 12.896 118.752 12.896C119.104 12.896 119.434 12.928 119.744 12.992C120.064 13.056 120.373 13.1467 120.672 13.264V12.768C120.672 12.288 120.533 11.8987 120.256 11.6C119.989 11.3013 119.621 11.152 119.152 11.152C118.8 11.152 118.48 11.2427 118.192 11.424C117.904 11.5947 117.701 11.84 117.584 12.16L115.584 11.76C115.701 11.2693 115.93 10.8427 116.272 10.48C116.624 10.1067 117.05 9.81867 117.552 9.616C118.053 9.41333 118.597 9.312 119.184 9.312C119.728 9.312 120.224 9.39733 120.672 9.568C121.12 9.73867 121.504 9.984 121.824 10.304C122.154 10.624 122.405 11.0027 122.576 11.44C122.757 11.8667 122.848 12.3467 122.848 12.88V18H120.848L120.784 17.008C120.56 17.3707 120.234 17.6693 119.808 17.904C119.381 18.128 118.874 18.24 118.288 18.24ZM117.488 15.488C117.488 15.7867 117.61 16.032 117.856 16.224C118.101 16.416 118.426 16.512 118.832 16.512C119.184 16.512 119.498 16.4373 119.776 16.288C120.053 16.1387 120.272 15.936 120.432 15.68C120.592 15.4133 120.672 15.12 120.672 14.8V14.72C120.437 14.624 120.186 14.5493 119.92 14.496C119.653 14.432 119.386 14.4 119.12 14.4C118.618 14.4 118.218 14.5013 117.92 14.704C117.632 14.896 117.488 15.1573 117.488 15.488ZM128.015 18.24C127.429 18.24 126.922 18.128 126.495 17.904C126.079 17.6693 125.754 17.3333 125.519 16.896C125.295 16.4587 125.183 15.9253 125.183 15.296V11.36H123.743V9.552H125.183V6.672H127.423V9.552H129.727V11.36H127.423V15.024C127.423 15.4293 127.509 15.744 127.679 15.968C127.85 16.1813 128.111 16.288 128.463 16.288C128.645 16.288 128.837 16.2613 129.039 16.208C129.253 16.1547 129.455 16.0853 129.647 16L130.047 17.68C129.77 17.8507 129.461 17.984 129.119 18.08C128.778 18.1867 128.41 18.24 128.015 18.24ZM135.211 18.24C134.581 18.24 134 18.1333 133.467 17.92C132.944 17.696 132.491 17.3867 132.107 16.992C131.723 16.5867 131.424 16.112 131.211 15.568C130.997 15.0133 130.891 14.4107 130.891 13.76C130.891 13.1307 130.997 12.544 131.211 12C131.424 11.456 131.717 10.9867 132.091 10.592C132.475 10.1867 132.923 9.872 133.435 9.648C133.947 9.424 134.501 9.312 135.099 9.312C135.717 9.312 136.277 9.41867 136.779 9.632C137.291 9.84533 137.728 10.1493 138.091 10.544C138.453 10.9387 138.731 11.408 138.923 11.952C139.125 12.496 139.227 13.104 139.227 13.776V14.336H133.163C133.259 14.9653 133.488 15.4613 133.851 15.824C134.213 16.176 134.672 16.352 135.227 16.352C135.611 16.352 135.957 16.2613 136.267 16.08C136.587 15.8987 136.848 15.6373 137.051 15.296L139.051 15.936C138.859 16.416 138.571 16.8267 138.187 17.168C137.803 17.5093 137.355 17.776 136.843 17.968C136.331 18.1493 135.787 18.24 135.211 18.24ZM135.099 11.04C134.608 11.04 134.192 11.2 133.851 11.52C133.52 11.84 133.301 12.2773 133.195 12.832H136.923C136.837 12.2773 136.629 11.84 136.299 11.52C135.979 11.2 135.579 11.04 135.099 11.04ZM142.603 18L139.803 9.552H142.107L143.691 15.264L145.403 9.552H147.339L149.051 15.28L150.667 9.552H152.891L150.091 18H148.027L146.331 12.288L144.635 18H142.603ZM156.272 18.24C155.835 18.24 155.435 18.176 155.072 18.048C154.709 17.92 154.389 17.7387 154.112 17.504C153.845 17.2587 153.637 16.976 153.488 16.656C153.339 16.336 153.264 15.984 153.264 15.6C153.264 15.0667 153.408 14.5973 153.696 14.192C153.984 13.7867 154.389 13.472 154.912 13.248C155.435 13.0133 156.043 12.896 156.736 12.896C157.088 12.896 157.419 12.928 157.728 12.992C158.048 13.056 158.357 13.1467 158.656 13.264V12.768C158.656 12.288 158.517 11.8987 158.24 11.6C157.973 11.3013 157.605 11.152 157.136 11.152C156.784 11.152 156.464 11.2427 156.176 11.424C155.888 11.5947 155.685 11.84 155.568 12.16L153.568 11.76C153.685 11.2693 153.915 10.8427 154.256 10.48C154.608 10.1067 155.035 9.81867 155.536 9.616C156.037 9.41333 156.581 9.312 157.168 9.312C157.712 9.312 158.208 9.39733 158.656 9.568C159.104 9.73867 159.488 9.984 159.808 10.304C160.139 10.624 160.389 11.0027 160.56 11.44C160.741 11.8667 160.832 12.3467 160.832 12.88V18H158.832L158.768 17.008C158.544 17.3707 158.219 17.6693 157.792 17.904C157.365 18.128 156.859 18.24 156.272 18.24ZM155.472 15.488C155.472 15.7867 155.595 16.032 155.84 16.224C156.085 16.416 156.411 16.512 156.816 16.512C157.168 16.512 157.483 16.4373 157.76 16.288C158.037 16.1387 158.256 15.936 158.416 15.68C158.576 15.4133 158.656 15.12 158.656 14.8V14.72C158.421 14.624 158.171 14.5493 157.904 14.496C157.637 14.432 157.371 14.4 157.104 14.4C156.603 14.4 156.203 14.5013 155.904 14.704C155.616 14.896 155.472 15.1573 155.472 15.488ZM163.744 21.264C163.456 21.264 163.184 21.232 162.928 21.168C162.672 21.1147 162.432 21.024 162.208 20.896L162.64 19.136C162.757 19.1893 162.896 19.232 163.056 19.264C163.216 19.3067 163.365 19.328 163.504 19.328C163.813 19.328 164.08 19.2427 164.304 19.072C164.538 18.912 164.73 18.6507 164.88 18.288L165.024 17.92L161.616 9.552H164.064L166.064 15.536L167.872 9.552H170.24L166.768 18.8C166.448 19.6533 166.037 20.2773 165.536 20.672C165.045 21.0667 164.448 21.264 163.744 21.264ZM174.345 18.24C173.747 18.24 173.203 18.144 172.713 17.952C172.233 17.76 171.822 17.488 171.481 17.136C171.15 16.784 170.921 16.368 170.793 15.888L172.809 15.456C172.915 15.7867 173.107 16.048 173.385 16.24C173.662 16.432 173.993 16.528 174.377 16.528C174.739 16.528 175.038 16.448 175.273 16.288C175.507 16.128 175.625 15.9093 175.625 15.632C175.625 15.3973 175.518 15.2053 175.305 15.056C175.102 14.896 174.761 14.7733 174.281 14.688L173.833 14.608C172.915 14.448 172.217 14.1493 171.737 13.712C171.267 13.2747 171.033 12.72 171.033 12.048C171.033 11.5147 171.171 11.0453 171.449 10.64C171.726 10.224 172.11 9.89867 172.601 9.664C173.091 9.42933 173.657 9.312 174.297 9.312C174.862 9.312 175.374 9.408 175.833 9.6C176.302 9.78133 176.691 10.0427 177.001 10.384C177.31 10.7253 177.523 11.136 177.641 11.616L175.641 12.032C175.534 11.712 175.358 11.4613 175.113 11.28C174.878 11.0987 174.601 11.008 174.281 11.008C173.95 11.008 173.678 11.088 173.465 11.248C173.251 11.408 173.145 11.6107 173.145 11.856C173.145 12.0693 173.246 12.2507 173.449 12.4C173.662 12.5387 174.019 12.6507 174.521 12.736L174.969 12.816C175.875 12.976 176.569 13.28 177.049 13.728C177.529 14.1653 177.769 14.7253 177.769 15.408C177.769 15.824 177.683 16.2027 177.513 16.544C177.353 16.8853 177.118 17.184 176.809 17.44C176.499 17.696 176.137 17.8933 175.721 18.032C175.305 18.1707 174.846 18.24 174.345 18.24Z" fill="#717591"/>
</svg>
