<svg width="580" height="204" viewBox="0 0 580 204" fill="none" xmlns="http://www.w3.org/2000/svg">
<path d="M297.055 9C316.718 9 335.824 15.4005 351.374 27.1969C366.924 38.9932 378.037 55.5173 382.97 74.1753L297.055 96L297.055 9Z" fill="#EB5757"/>
<path d="M382.97 74.1753C387.401 90.9384 386.629 108.616 380.751 124.947C374.873 141.277 364.158 155.516 349.976 165.842L297.055 96L382.97 74.1753Z" fill="#050C72"/>
<path d="M349.976 165.842C337.39 175.006 322.552 180.738 306.972 182.455C291.392 184.172 275.625 181.813 261.277 175.618L297.055 96L349.976 165.842Z" fill="#00B159"/>
<path d="M261.277 175.618C247.473 169.657 235.447 160.346 226.333 148.564C217.22 136.781 211.32 122.916 209.192 108.278L297.055 96L261.277 175.618Z" fill="#2C3ACF"/>
<path d="M209.192 108.278C207.508 96.705 208.222 84.918 211.29 73.6211C214.357 62.3243 219.716 51.7493 227.046 42.5278L297.055 96L209.192 108.278Z" fill="#717591"/>
<path d="M227.046 42.5278C235.345 32.0871 245.964 23.6401 258.096 17.8301C270.229 12.02 283.553 9 297.055 9V96L227.046 42.5278Z" fill="#FBAF1D"/>
<ellipse cx="297.565" cy="96.5" rx="55.5976" ry="54.5" fill="white"/>
<rect x="442.936" y="3" width="18" height="18" rx="5" fill="#EB5757"/>
<path d="M471.304 18L475.88 6.64H477.304L481.88 18H480.44L479.176 14.768H473.96L472.696 18H471.304ZM474.44 13.536H478.68L476.568 8.128L474.44 13.536ZM485.945 18.24C485.465 18.24 485.011 18.16 484.585 18C484.169 17.84 483.806 17.6107 483.497 17.312C483.187 17.0133 482.953 16.6613 482.793 16.256L483.945 15.84C484.158 16.2453 484.435 16.56 484.777 16.784C485.118 17.008 485.507 17.12 485.945 17.12C486.297 17.12 486.606 17.0613 486.873 16.944C487.139 16.8267 487.347 16.6667 487.497 16.464C487.646 16.2507 487.721 16.016 487.721 15.76C487.721 15.0667 487.219 14.6187 486.217 14.416L485.593 14.288C484.718 14.1173 484.073 13.84 483.657 13.456C483.241 13.0613 483.033 12.5653 483.033 11.968C483.033 11.488 483.155 11.0613 483.401 10.688C483.646 10.3147 483.987 10.0267 484.425 9.824C484.873 9.61067 485.379 9.504 485.945 9.504C486.414 9.504 486.846 9.584 487.241 9.744C487.635 9.89333 487.971 10.1173 488.249 10.416C488.537 10.7147 488.755 11.0667 488.905 11.472L487.753 11.856C487.582 11.4613 487.337 11.1573 487.017 10.944C486.707 10.72 486.345 10.608 485.929 10.608C485.609 10.608 485.326 10.6613 485.081 10.768C484.846 10.8747 484.659 11.0187 484.521 11.2C484.382 11.3813 484.313 11.5947 484.313 11.84C484.313 12.1813 484.441 12.4533 484.697 12.656C484.963 12.8587 485.39 13.0187 485.977 13.136L486.601 13.264C487.39 13.424 487.993 13.7067 488.409 14.112C488.825 14.5067 489.033 15.0133 489.033 15.632C489.033 16.016 488.953 16.368 488.793 16.688C488.643 16.9973 488.43 17.2693 488.153 17.504C487.886 17.7387 487.561 17.92 487.177 18.048C486.803 18.176 486.393 18.24 485.945 18.24ZM492.247 7.328C492.247 7.488 492.205 7.63733 492.119 7.776C492.045 7.904 491.938 8.01067 491.799 8.096C491.671 8.17067 491.527 8.208 491.367 8.208C491.207 8.208 491.058 8.17067 490.919 8.096C490.791 8.01067 490.685 7.904 490.599 7.776C490.525 7.63733 490.487 7.488 490.487 7.328C490.487 7.168 490.525 7.024 490.599 6.896C490.685 6.75733 490.791 6.65067 490.919 6.576C491.058 6.49067 491.207 6.448 491.367 6.448C491.527 6.448 491.671 6.49067 491.799 6.576C491.938 6.65067 492.045 6.75733 492.119 6.896C492.205 7.024 492.247 7.168 492.247 7.328ZM490.727 18V9.744H492.007V18H490.727ZM496.803 18.24C496.227 18.24 495.715 18.1333 495.267 17.92C494.819 17.696 494.467 17.392 494.211 17.008C493.966 16.624 493.843 16.1813 493.843 15.68C493.843 15.136 493.982 14.6667 494.259 14.272C494.547 13.8773 494.947 13.5733 495.459 13.36C495.971 13.136 496.568 13.024 497.251 13.024C497.635 13.024 498.024 13.0667 498.419 13.152C498.814 13.2373 499.166 13.3493 499.475 13.488V12.88C499.475 12.432 499.384 12.0427 499.203 11.712C499.032 11.3707 498.792 11.1093 498.483 10.928C498.174 10.736 497.811 10.64 497.395 10.64C496.894 10.64 496.456 10.7573 496.083 10.992C495.72 11.2267 495.448 11.5573 495.267 11.984L494.147 11.6C494.296 11.1733 494.526 10.8053 494.835 10.496C495.155 10.1867 495.534 9.94667 495.971 9.776C496.419 9.60533 496.899 9.52 497.411 9.52C498.072 9.52 498.648 9.664 499.139 9.952C499.64 10.2293 500.024 10.624 500.291 11.136C500.568 11.6373 500.707 12.2293 500.707 12.912V18H499.587L499.507 16.72C499.272 17.1787 498.915 17.5467 498.435 17.824C497.966 18.1013 497.422 18.24 496.803 18.24ZM495.139 15.632C495.139 15.9413 495.219 16.2133 495.379 16.448C495.539 16.672 495.763 16.848 496.051 16.976C496.339 17.104 496.67 17.168 497.043 17.168C497.502 17.168 497.912 17.0667 498.275 16.864C498.648 16.6507 498.942 16.368 499.155 16.016C499.368 15.6533 499.475 15.2427 499.475 14.784V14.48C499.123 14.3413 498.766 14.2347 498.403 14.16C498.051 14.0747 497.715 14.032 497.395 14.032C496.691 14.032 496.136 14.176 495.731 14.464C495.336 14.752 495.139 15.1413 495.139 15.632Z" fill="#77838F"/>
<rect x="442.936" y="39" width="18" height="18" rx="5" fill="#050C72"/>
<path d="M472.184 54V42.64H473.368L479.704 51.744V42.64H481.016V54H479.832L473.496 44.896V54H472.184ZM487.048 54.24C486.461 54.24 485.917 54.1333 485.416 53.92C484.925 53.696 484.493 53.392 484.12 53.008C483.757 52.6133 483.474 52.1493 483.272 51.616C483.069 51.0827 482.968 50.5013 482.968 49.872C482.968 49.2427 483.069 48.6613 483.272 48.128C483.485 47.5947 483.773 47.136 484.136 46.752C484.509 46.3573 484.946 46.0533 485.448 45.84C485.949 45.616 486.493 45.504 487.08 45.504C487.666 45.504 488.205 45.616 488.696 45.84C489.197 46.0533 489.629 46.3573 489.992 46.752C490.365 47.136 490.653 47.5947 490.856 48.128C491.058 48.6613 491.16 49.2427 491.16 49.872C491.16 50.5013 491.053 51.0827 490.84 51.616C490.637 52.1493 490.349 52.6133 489.976 53.008C489.613 53.392 489.181 53.696 488.68 53.92C488.178 54.1333 487.634 54.24 487.048 54.24ZM487.064 53.072C487.469 53.072 487.837 52.992 488.168 52.832C488.509 52.672 488.802 52.4533 489.048 52.176C489.304 51.888 489.501 51.552 489.64 51.168C489.778 50.7733 489.848 50.3413 489.848 49.872C489.848 49.4027 489.778 48.976 489.64 48.592C489.501 48.1973 489.304 47.8613 489.048 47.584C488.802 47.296 488.509 47.072 488.168 46.912C487.837 46.752 487.469 46.672 487.064 46.672C486.658 46.672 486.285 46.752 485.944 46.912C485.613 47.072 485.32 47.296 485.064 47.584C484.818 47.8613 484.626 48.1973 484.488 48.592C484.349 48.976 484.28 49.4027 484.28 49.872C484.28 50.3413 484.349 50.7733 484.488 51.168C484.626 51.552 484.818 51.888 485.064 52.176C485.32 52.4533 485.613 52.672 485.944 52.832C486.285 52.992 486.658 53.072 487.064 53.072ZM492.977 54V45.744H494.129L494.209 47.28C494.412 46.768 494.716 46.368 495.121 46.08C495.527 45.7813 496.001 45.632 496.545 45.632C496.727 45.632 496.887 45.648 497.025 45.68C497.175 45.7013 497.303 45.7333 497.409 45.776L497.249 46.992C497.132 46.9493 497.009 46.9227 496.881 46.912C496.753 46.8907 496.625 46.88 496.497 46.88C496.049 46.88 495.655 46.992 495.313 47.216C494.983 47.44 494.721 47.76 494.529 48.176C494.348 48.5813 494.257 49.0613 494.257 49.616V54H492.977ZM502.362 54.24C501.861 54.24 501.429 54.1387 501.066 53.936C500.704 53.7333 500.421 53.4347 500.218 53.04C500.026 52.6453 499.93 52.1653 499.93 51.6V46.832H498.41V45.744H499.93V42.976H501.21V45.744H503.802V46.832H501.21V51.536C501.21 52.0267 501.312 52.4107 501.514 52.688C501.728 52.9547 502.048 53.088 502.474 53.088C502.698 53.088 502.922 53.056 503.146 52.992C503.381 52.9173 503.589 52.8213 503.77 52.704L504.154 53.696C503.93 53.856 503.669 53.984 503.37 54.08C503.072 54.1867 502.736 54.24 502.362 54.24ZM505.806 54V42.128H507.086V46.944C507.331 46.5067 507.683 46.16 508.142 45.904C508.6 45.6373 509.118 45.504 509.694 45.504C510.323 45.504 510.872 45.6533 511.342 45.952C511.811 46.2507 512.168 46.6773 512.414 47.232C512.67 47.776 512.798 48.4213 512.798 49.168V54H511.518V49.248C511.518 48.4267 511.336 47.792 510.974 47.344C510.622 46.896 510.115 46.672 509.454 46.672C508.995 46.672 508.584 46.7787 508.222 46.992C507.87 47.1947 507.592 47.4827 507.39 47.856C507.187 48.2187 507.086 48.6347 507.086 49.104V54H505.806ZM517.725 54L522.301 42.64H523.725L528.301 54H526.861L525.597 50.768H520.381L519.117 54H517.725ZM520.861 49.536H525.101L522.989 44.128L520.861 49.536ZM529.79 54V45.744H530.942L531.006 47.008C531.241 46.5493 531.582 46.1867 532.03 45.92C532.478 45.6427 532.99 45.504 533.566 45.504C534.185 45.504 534.723 45.664 535.182 45.984C535.641 46.304 535.982 46.752 536.206 47.328C536.345 46.9653 536.553 46.6507 536.83 46.384C537.107 46.1067 537.433 45.8933 537.806 45.744C538.19 45.584 538.601 45.504 539.038 45.504C539.657 45.504 540.19 45.6533 540.638 45.952C541.097 46.24 541.443 46.6507 541.678 47.184C541.923 47.7173 542.046 48.3573 542.046 49.104V54H540.766V49.184C540.766 48.3733 540.601 47.7547 540.27 47.328C539.939 46.8907 539.459 46.672 538.83 46.672C538.393 46.672 538.003 46.7787 537.662 46.992C537.321 47.1947 537.049 47.4773 536.846 47.84C536.654 48.192 536.558 48.592 536.558 49.04V54H535.278V49.184C535.278 48.3733 535.107 47.7547 534.766 47.328C534.425 46.8907 533.939 46.672 533.31 46.672C532.883 46.672 532.499 46.7787 532.158 46.992C531.817 47.1947 531.55 47.4773 531.358 47.84C531.166 48.192 531.07 48.592 531.07 49.04V54H529.79ZM547.971 54.24C547.363 54.24 546.803 54.1333 546.291 53.92C545.79 53.7067 545.353 53.408 544.979 53.024C544.606 52.6293 544.318 52.1707 544.115 51.648C543.913 51.1147 543.811 50.528 543.811 49.888C543.811 49.2587 543.907 48.6827 544.099 48.16C544.302 47.6267 544.579 47.1627 544.931 46.768C545.294 46.3733 545.715 46.0693 546.195 45.856C546.675 45.632 547.198 45.52 547.763 45.52C548.307 45.52 548.809 45.6213 549.267 45.824C549.737 46.0267 550.142 46.3093 550.483 46.672C550.825 47.0347 551.086 47.4667 551.267 47.968C551.459 48.4693 551.555 49.0133 551.555 49.6V50.128H545.139C545.182 50.7253 545.321 51.248 545.555 51.696C545.801 52.144 546.126 52.4907 546.531 52.736C546.937 52.9813 547.406 53.104 547.939 53.104C548.462 53.104 548.915 52.9973 549.299 52.784C549.694 52.56 550.03 52.2347 550.307 51.808L551.395 52.304C551.182 52.7093 550.905 53.056 550.563 53.344C550.222 53.632 549.827 53.8507 549.379 54C548.942 54.16 548.473 54.24 547.971 54.24ZM547.763 46.608C547.326 46.608 546.926 46.7147 546.563 46.928C546.211 47.1413 545.913 47.44 545.667 47.824C545.433 48.1973 545.278 48.6347 545.203 49.136H550.211C550.169 48.6347 550.035 48.1973 549.811 47.824C549.587 47.44 549.299 47.1413 548.947 46.928C548.595 46.7147 548.201 46.608 547.763 46.608ZM553.384 54V45.744H554.536L554.616 47.28C554.818 46.768 555.122 46.368 555.528 46.08C555.933 45.7813 556.408 45.632 556.952 45.632C557.133 45.632 557.293 45.648 557.432 45.68C557.581 45.7013 557.709 45.7333 557.816 45.776L557.656 46.992C557.538 46.9493 557.416 46.9227 557.288 46.912C557.16 46.8907 557.032 46.88 556.904 46.88C556.456 46.88 556.061 46.992 555.72 47.216C555.389 47.44 555.128 47.76 554.936 48.176C554.754 48.5813 554.664 49.0613 554.664 49.616V54H553.384ZM560.904 43.328C560.904 43.488 560.861 43.6373 560.776 43.776C560.701 43.904 560.594 44.0107 560.456 44.096C560.328 44.1707 560.184 44.208 560.024 44.208C559.864 44.208 559.714 44.1707 559.576 44.096C559.448 44.0107 559.341 43.904 559.256 43.776C559.181 43.6373 559.144 43.488 559.144 43.328C559.144 43.168 559.181 43.024 559.256 42.896C559.341 42.7573 559.448 42.6507 559.576 42.576C559.714 42.4907 559.864 42.448 560.024 42.448C560.184 42.448 560.328 42.4907 560.456 42.576C560.594 42.6507 560.701 42.7573 560.776 42.896C560.861 43.024 560.904 43.168 560.904 43.328ZM559.384 54V45.744H560.664V54H559.384ZM566.451 54.24C565.886 54.24 565.363 54.1333 564.883 53.92C564.403 53.7067 563.982 53.408 563.619 53.024C563.257 52.6293 562.974 52.1707 562.771 51.648C562.579 51.1253 562.483 50.5547 562.483 49.936C562.483 49.3173 562.585 48.7413 562.787 48.208C562.99 47.664 563.273 47.1893 563.635 46.784C563.998 46.3787 564.425 46.064 564.915 45.84C565.406 45.616 565.939 45.504 566.515 45.504C567.049 45.504 567.529 45.6 567.955 45.792C568.393 45.984 568.766 46.2453 569.075 46.576C569.395 46.9067 569.641 47.2853 569.811 47.712L568.643 48.112C568.409 47.664 568.105 47.312 567.731 47.056C567.358 46.8 566.937 46.672 566.467 46.672C566.083 46.672 565.731 46.7573 565.411 46.928C565.091 47.088 564.809 47.312 564.563 47.6C564.318 47.888 564.126 48.2347 563.987 48.64C563.859 49.0347 563.795 49.4613 563.795 49.92C563.795 50.3787 563.859 50.8 563.987 51.184C564.126 51.568 564.313 51.904 564.547 52.192C564.782 52.4693 565.059 52.688 565.379 52.848C565.71 52.9973 566.067 53.072 566.451 53.072C566.942 53.072 567.39 52.9493 567.795 52.704C568.211 52.448 568.526 52.096 568.739 51.648L569.907 52.048C569.737 52.496 569.475 52.8853 569.123 53.216C568.782 53.536 568.377 53.7867 567.907 53.968C567.449 54.1493 566.963 54.24 566.451 54.24ZM574.194 54.24C573.618 54.24 573.106 54.1333 572.658 53.92C572.21 53.696 571.858 53.392 571.602 53.008C571.356 52.624 571.234 52.1813 571.234 51.68C571.234 51.136 571.372 50.6667 571.65 50.272C571.938 49.8773 572.338 49.5733 572.85 49.36C573.362 49.136 573.959 49.024 574.642 49.024C575.026 49.024 575.415 49.0667 575.81 49.152C576.204 49.2373 576.556 49.3493 576.866 49.488V48.88C576.866 48.432 576.775 48.0427 576.594 47.712C576.423 47.3707 576.183 47.1093 575.874 46.928C575.564 46.736 575.202 46.64 574.786 46.64C574.284 46.64 573.847 46.7573 573.474 46.992C573.111 47.2267 572.839 47.5573 572.658 47.984L571.538 47.6C571.687 47.1733 571.916 46.8053 572.226 46.496C572.546 46.1867 572.924 45.9467 573.362 45.776C573.81 45.6053 574.29 45.52 574.802 45.52C575.463 45.52 576.039 45.664 576.53 45.952C577.031 46.2293 577.415 46.624 577.682 47.136C577.959 47.6373 578.098 48.2293 578.098 48.912V54H576.978L576.898 52.72C576.663 53.1787 576.306 53.5467 575.826 53.824C575.356 54.1013 574.812 54.24 574.194 54.24ZM572.53 51.632C572.53 51.9413 572.61 52.2133 572.77 52.448C572.93 52.672 573.154 52.848 573.442 52.976C573.73 53.104 574.06 53.168 574.434 53.168C574.892 53.168 575.303 53.0667 575.666 52.864C576.039 52.6507 576.332 52.368 576.546 52.016C576.759 51.6533 576.866 51.2427 576.866 50.784V50.48C576.514 50.3413 576.156 50.2347 575.794 50.16C575.442 50.0747 575.106 50.032 574.786 50.032C574.082 50.032 573.527 50.176 573.122 50.464C572.727 50.752 572.53 51.1413 572.53 51.632Z" fill="#77838F"/>
<rect x="442.936" y="75" width="18" height="18" rx="5" fill="#00B159"/>
<path d="M471.304 90L475.88 78.64H477.304L481.88 90H480.44L479.176 86.768H473.96L472.696 90H471.304ZM474.44 85.536H478.68L476.568 80.128L474.44 85.536ZM486.541 90.24C485.837 90.24 485.229 90.0853 484.717 89.776C484.205 89.4667 483.81 89.0293 483.533 88.464C483.255 87.888 483.117 87.2053 483.117 86.416V81.744H484.397V86.432C484.397 86.976 484.482 87.4453 484.653 87.84C484.834 88.2347 485.085 88.5387 485.405 88.752C485.735 88.9653 486.125 89.072 486.573 89.072C487.021 89.072 487.405 88.9653 487.725 88.752C488.055 88.5387 488.306 88.2347 488.477 87.84C488.658 87.4453 488.749 86.976 488.749 86.432V81.744H490.029V86.416C490.029 87.184 489.885 87.856 489.597 88.432C489.309 89.008 488.903 89.456 488.381 89.776C487.858 90.0853 487.245 90.24 486.541 90.24ZM494.82 90.24C494.34 90.24 493.886 90.16 493.46 90C493.044 89.84 492.681 89.6107 492.372 89.312C492.062 89.0133 491.828 88.6613 491.668 88.256L492.82 87.84C493.033 88.2453 493.31 88.56 493.652 88.784C493.993 89.008 494.382 89.12 494.82 89.12C495.172 89.12 495.481 89.0613 495.748 88.944C496.014 88.8267 496.222 88.6667 496.372 88.464C496.521 88.2507 496.596 88.016 496.596 87.76C496.596 87.0667 496.094 86.6187 495.092 86.416L494.468 86.288C493.593 86.1173 492.948 85.84 492.532 85.456C492.116 85.0613 491.908 84.5653 491.908 83.968C491.908 83.488 492.03 83.0613 492.276 82.688C492.521 82.3147 492.862 82.0267 493.3 81.824C493.748 81.6107 494.254 81.504 494.82 81.504C495.289 81.504 495.721 81.584 496.116 81.744C496.51 81.8933 496.846 82.1173 497.124 82.416C497.412 82.7147 497.63 83.0667 497.78 83.472L496.628 83.856C496.457 83.4613 496.212 83.1573 495.892 82.944C495.582 82.72 495.22 82.608 494.804 82.608C494.484 82.608 494.201 82.6613 493.956 82.768C493.721 82.8747 493.534 83.0187 493.396 83.2C493.257 83.3813 493.188 83.5947 493.188 83.84C493.188 84.1813 493.316 84.4533 493.572 84.656C493.838 84.8587 494.265 85.0187 494.852 85.136L495.476 85.264C496.265 85.424 496.868 85.7067 497.284 86.112C497.7 86.5067 497.908 87.0133 497.908 87.632C497.908 88.016 497.828 88.368 497.668 88.688C497.518 88.9973 497.305 89.2693 497.028 89.504C496.761 89.7387 496.436 89.92 496.052 90.048C495.678 90.176 495.268 90.24 494.82 90.24ZM502.659 90.24C502.158 90.24 501.726 90.1387 501.363 89.936C501.001 89.7333 500.718 89.4347 500.515 89.04C500.323 88.6453 500.227 88.1653 500.227 87.6V82.832H498.707V81.744H500.227V78.976H501.507V81.744H504.099V82.832H501.507V87.536C501.507 88.0267 501.609 88.4107 501.811 88.688C502.025 88.9547 502.345 89.088 502.771 89.088C502.995 89.088 503.219 89.056 503.443 88.992C503.678 88.9173 503.886 88.8213 504.067 88.704L504.451 89.696C504.227 89.856 503.966 89.984 503.667 90.08C503.369 90.1867 503.033 90.24 502.659 90.24ZM506.102 90V81.744H507.254L507.334 83.28C507.537 82.768 507.841 82.368 508.246 82.08C508.652 81.7813 509.126 81.632 509.67 81.632C509.852 81.632 510.012 81.648 510.15 81.68C510.3 81.7013 510.428 81.7333 510.534 81.776L510.374 82.992C510.257 82.9493 510.134 82.9227 510.006 82.912C509.878 82.8907 509.75 82.88 509.622 82.88C509.174 82.88 508.78 82.992 508.438 83.216C508.108 83.44 507.846 83.76 507.654 84.176C507.473 84.5813 507.382 85.0613 507.382 85.616V90H506.102ZM514.444 90.24C513.868 90.24 513.356 90.1333 512.908 89.92C512.46 89.696 512.108 89.392 511.852 89.008C511.606 88.624 511.484 88.1813 511.484 87.68C511.484 87.136 511.622 86.6667 511.9 86.272C512.188 85.8773 512.588 85.5733 513.1 85.36C513.612 85.136 514.209 85.024 514.892 85.024C515.276 85.024 515.665 85.0667 516.06 85.152C516.454 85.2373 516.806 85.3493 517.116 85.488V84.88C517.116 84.432 517.025 84.0427 516.844 83.712C516.673 83.3707 516.433 83.1093 516.124 82.928C515.814 82.736 515.452 82.64 515.036 82.64C514.534 82.64 514.097 82.7573 513.724 82.992C513.361 83.2267 513.089 83.5573 512.908 83.984L511.788 83.6C511.937 83.1733 512.166 82.8053 512.476 82.496C512.796 82.1867 513.174 81.9467 513.612 81.776C514.06 81.6053 514.54 81.52 515.052 81.52C515.713 81.52 516.289 81.664 516.78 81.952C517.281 82.2293 517.665 82.624 517.932 83.136C518.209 83.6373 518.348 84.2293 518.348 84.912V90H517.228L517.148 88.72C516.913 89.1787 516.556 89.5467 516.076 89.824C515.606 90.1013 515.062 90.24 514.444 90.24ZM512.78 87.632C512.78 87.9413 512.86 88.2133 513.02 88.448C513.18 88.672 513.404 88.848 513.692 88.976C513.98 89.104 514.31 89.168 514.684 89.168C515.142 89.168 515.553 89.0667 515.916 88.864C516.289 88.6507 516.582 88.368 516.796 88.016C517.009 87.6533 517.116 87.2427 517.116 86.784V86.48C516.764 86.3413 516.406 86.2347 516.044 86.16C515.692 86.0747 515.356 86.032 515.036 86.032C514.332 86.032 513.777 86.176 513.372 86.464C512.977 86.752 512.78 87.1413 512.78 87.632ZM520.524 90V78.128H521.804V90H520.524ZM525.56 79.328C525.56 79.488 525.517 79.6373 525.432 79.776C525.357 79.904 525.251 80.0107 525.112 80.096C524.984 80.1707 524.84 80.208 524.68 80.208C524.52 80.208 524.371 80.1707 524.232 80.096C524.104 80.0107 523.997 79.904 523.912 79.776C523.837 79.6373 523.8 79.488 523.8 79.328C523.8 79.168 523.837 79.024 523.912 78.896C523.997 78.7573 524.104 78.6507 524.232 78.576C524.371 78.4907 524.52 78.448 524.68 78.448C524.84 78.448 524.984 78.4907 525.112 78.576C525.251 78.6507 525.357 78.7573 525.432 78.896C525.517 79.024 525.56 79.168 525.56 79.328ZM524.04 90V81.744H525.32V90H524.04ZM530.116 90.24C529.54 90.24 529.028 90.1333 528.58 89.92C528.132 89.696 527.78 89.392 527.524 89.008C527.278 88.624 527.156 88.1813 527.156 87.68C527.156 87.136 527.294 86.6667 527.572 86.272C527.86 85.8773 528.26 85.5733 528.772 85.36C529.284 85.136 529.881 85.024 530.564 85.024C530.948 85.024 531.337 85.0667 531.732 85.152C532.126 85.2373 532.478 85.3493 532.788 85.488V84.88C532.788 84.432 532.697 84.0427 532.516 83.712C532.345 83.3707 532.105 83.1093 531.796 82.928C531.486 82.736 531.124 82.64 530.708 82.64C530.206 82.64 529.769 82.7573 529.396 82.992C529.033 83.2267 528.761 83.5573 528.58 83.984L527.46 83.6C527.609 83.1733 527.838 82.8053 528.148 82.496C528.468 82.1867 528.846 81.9467 529.284 81.776C529.732 81.6053 530.212 81.52 530.724 81.52C531.385 81.52 531.961 81.664 532.452 81.952C532.953 82.2293 533.337 82.624 533.604 83.136C533.881 83.6373 534.02 84.2293 534.02 84.912V90H532.9L532.82 88.72C532.585 89.1787 532.228 89.5467 531.748 89.824C531.278 90.1013 530.734 90.24 530.116 90.24ZM528.452 87.632C528.452 87.9413 528.532 88.2133 528.692 88.448C528.852 88.672 529.076 88.848 529.364 88.976C529.652 89.104 529.982 89.168 530.356 89.168C530.814 89.168 531.225 89.0667 531.588 88.864C531.961 88.6507 532.254 88.368 532.468 88.016C532.681 87.6533 532.788 87.2427 532.788 86.784V86.48C532.436 86.3413 532.078 86.2347 531.716 86.16C531.364 86.0747 531.028 86.032 530.708 86.032C530.004 86.032 529.449 86.176 529.044 86.464C528.649 86.752 528.452 87.1413 528.452 87.632Z" fill="#77838F"/>
<rect x="442.936" y="111" width="18" height="18" rx="5" fill="#2C3ACF"/>
<path d="M472.184 126V114.64H478.728V115.84H473.528V119.488H478.28V120.704H473.528V124.784H478.888V126H472.184ZM484.212 126.24C483.508 126.24 482.9 126.085 482.388 125.776C481.876 125.467 481.482 125.029 481.204 124.464C480.927 123.888 480.788 123.205 480.788 122.416V117.744H482.068V122.432C482.068 122.976 482.154 123.445 482.324 123.84C482.506 124.235 482.756 124.539 483.076 124.752C483.407 124.965 483.796 125.072 484.244 125.072C484.692 125.072 485.076 124.965 485.396 124.752C485.727 124.539 485.978 124.235 486.148 123.84C486.33 123.445 486.42 122.976 486.42 122.432V117.744H487.7V122.416C487.7 123.184 487.556 123.856 487.268 124.432C486.98 125.008 486.575 125.456 486.052 125.776C485.53 126.085 484.916 126.24 484.212 126.24ZM489.884 126V117.744H491.036L491.116 119.28C491.318 118.768 491.622 118.368 492.028 118.08C492.433 117.781 492.908 117.632 493.452 117.632C493.633 117.632 493.793 117.648 493.932 117.68C494.081 117.701 494.209 117.733 494.316 117.776L494.156 118.992C494.038 118.949 493.916 118.923 493.788 118.912C493.66 118.891 493.532 118.88 493.404 118.88C492.956 118.88 492.561 118.992 492.22 119.216C491.889 119.44 491.628 119.76 491.436 120.176C491.254 120.581 491.164 121.061 491.164 121.616V126H489.884ZM499.251 126.24C498.664 126.24 498.12 126.133 497.619 125.92C497.128 125.696 496.696 125.392 496.323 125.008C495.96 124.613 495.677 124.149 495.475 123.616C495.272 123.083 495.171 122.501 495.171 121.872C495.171 121.243 495.272 120.661 495.475 120.128C495.688 119.595 495.976 119.136 496.339 118.752C496.712 118.357 497.149 118.053 497.651 117.84C498.152 117.616 498.696 117.504 499.283 117.504C499.869 117.504 500.408 117.616 500.899 117.84C501.4 118.053 501.832 118.357 502.195 118.752C502.568 119.136 502.856 119.595 503.059 120.128C503.261 120.661 503.363 121.243 503.363 121.872C503.363 122.501 503.256 123.083 503.043 123.616C502.84 124.149 502.552 124.613 502.179 125.008C501.816 125.392 501.384 125.696 500.883 125.92C500.381 126.133 499.837 126.24 499.251 126.24ZM499.267 125.072C499.672 125.072 500.04 124.992 500.371 124.832C500.712 124.672 501.005 124.453 501.251 124.176C501.507 123.888 501.704 123.552 501.843 123.168C501.981 122.773 502.051 122.341 502.051 121.872C502.051 121.403 501.981 120.976 501.843 120.592C501.704 120.197 501.507 119.861 501.251 119.584C501.005 119.296 500.712 119.072 500.371 118.912C500.04 118.752 499.672 118.672 499.267 118.672C498.861 118.672 498.488 118.752 498.147 118.912C497.816 119.072 497.523 119.296 497.267 119.584C497.021 119.861 496.829 120.197 496.691 120.592C496.552 120.976 496.483 121.403 496.483 121.872C496.483 122.341 496.552 122.773 496.691 123.168C496.829 123.552 497.021 123.888 497.267 124.176C497.523 124.453 497.816 124.672 498.147 124.832C498.488 124.992 498.861 125.072 499.267 125.072ZM505.181 129.264V117.744H506.333L506.397 119.312C506.695 118.747 507.106 118.304 507.629 117.984C508.162 117.664 508.765 117.504 509.437 117.504C509.981 117.504 510.487 117.616 510.957 117.84C511.426 118.053 511.837 118.357 512.189 118.752C512.541 119.147 512.813 119.611 513.005 120.144C513.207 120.667 513.309 121.237 513.309 121.856C513.309 122.475 513.207 123.051 513.005 123.584C512.813 124.117 512.535 124.581 512.173 124.976C511.821 125.371 511.405 125.68 510.925 125.904C510.445 126.128 509.927 126.24 509.373 126.24C508.743 126.24 508.173 126.096 507.661 125.808C507.159 125.52 506.759 125.115 506.461 124.592V129.264H505.181ZM509.213 125.072C509.618 125.072 509.986 124.992 510.317 124.832C510.658 124.672 510.951 124.453 511.197 124.176C511.453 123.888 511.65 123.552 511.789 123.168C511.927 122.773 511.997 122.341 511.997 121.872C511.997 121.403 511.927 120.976 511.789 120.592C511.65 120.197 511.453 119.861 511.197 119.584C510.951 119.296 510.658 119.072 510.317 118.912C509.986 118.752 509.618 118.672 509.213 118.672C508.807 118.672 508.434 118.752 508.093 118.912C507.762 119.072 507.469 119.296 507.213 119.584C506.967 119.861 506.775 120.197 506.637 120.592C506.498 120.976 506.429 121.403 506.429 121.872C506.429 122.341 506.498 122.773 506.637 123.168C506.775 123.552 506.967 123.888 507.213 124.176C507.469 124.453 507.762 124.672 508.093 124.832C508.434 124.992 508.807 125.072 509.213 125.072ZM518.956 126.24C518.348 126.24 517.788 126.133 517.276 125.92C516.774 125.707 516.337 125.408 515.964 125.024C515.59 124.629 515.302 124.171 515.1 123.648C514.897 123.115 514.796 122.528 514.796 121.888C514.796 121.259 514.892 120.683 515.084 120.16C515.286 119.627 515.564 119.163 515.916 118.768C516.278 118.373 516.7 118.069 517.18 117.856C517.66 117.632 518.182 117.52 518.748 117.52C519.292 117.52 519.793 117.621 520.252 117.824C520.721 118.027 521.126 118.309 521.468 118.672C521.809 119.035 522.07 119.467 522.252 119.968C522.444 120.469 522.54 121.013 522.54 121.6V122.128H516.124C516.166 122.725 516.305 123.248 516.54 123.696C516.785 124.144 517.11 124.491 517.516 124.736C517.921 124.981 518.39 125.104 518.924 125.104C519.446 125.104 519.9 124.997 520.284 124.784C520.678 124.56 521.014 124.235 521.292 123.808L522.38 124.304C522.166 124.709 521.889 125.056 521.548 125.344C521.206 125.632 520.812 125.851 520.364 126C519.926 126.16 519.457 126.24 518.956 126.24ZM518.748 118.608C518.31 118.608 517.91 118.715 517.548 118.928C517.196 119.141 516.897 119.44 516.652 119.824C516.417 120.197 516.262 120.635 516.188 121.136H521.196C521.153 120.635 521.02 120.197 520.796 119.824C520.572 119.44 520.284 119.141 519.932 118.928C519.58 118.715 519.185 118.608 518.748 118.608Z" fill="#77838F"/>
<rect x="442.936" y="147" width="18" height="18" rx="5" fill="#717591"/>
<path d="M475.32 162.24C474.722 162.24 474.168 162.139 473.656 161.936C473.144 161.723 472.701 161.424 472.328 161.04C471.954 160.656 471.682 160.203 471.512 159.68L472.776 159.28C472.989 159.835 473.314 160.267 473.752 160.576C474.2 160.885 474.717 161.04 475.304 161.04C475.762 161.04 476.173 160.949 476.536 160.768C476.909 160.576 477.197 160.32 477.4 160C477.613 159.669 477.72 159.301 477.72 158.896C477.72 158.373 477.538 157.947 477.176 157.616C476.824 157.275 476.312 157.029 475.64 156.88L474.936 156.72C473.89 156.485 473.106 156.101 472.584 155.568C472.061 155.035 471.8 154.379 471.8 153.6C471.8 153.131 471.885 152.704 472.056 152.32C472.237 151.925 472.488 151.584 472.808 151.296C473.128 151.008 473.496 150.789 473.912 150.64C474.338 150.48 474.797 150.4 475.288 150.4C475.864 150.4 476.392 150.507 476.872 150.72C477.362 150.923 477.784 151.216 478.136 151.6C478.488 151.984 478.744 152.432 478.904 152.944L477.64 153.344C477.426 152.779 477.117 152.347 476.712 152.048C476.306 151.749 475.832 151.6 475.288 151.6C474.872 151.6 474.504 151.685 474.184 151.856C473.864 152.016 473.613 152.24 473.432 152.528C473.25 152.805 473.16 153.131 473.16 153.504C473.16 153.995 473.336 154.4 473.688 154.72C474.04 155.029 474.6 155.275 475.368 155.456L476.072 155.616C477.085 155.851 477.837 156.245 478.328 156.8C478.829 157.355 479.08 158.027 479.08 158.816C479.08 159.317 478.984 159.781 478.792 160.208C478.61 160.624 478.349 160.987 478.008 161.296C477.677 161.595 477.282 161.829 476.824 162C476.365 162.16 475.864 162.24 475.32 162.24ZM484.766 162.24C484.18 162.24 483.636 162.133 483.134 161.92C482.644 161.696 482.212 161.392 481.838 161.008C481.476 160.613 481.193 160.149 480.99 159.616C480.788 159.083 480.686 158.501 480.686 157.872C480.686 157.243 480.788 156.661 480.99 156.128C481.204 155.595 481.492 155.136 481.854 154.752C482.228 154.357 482.665 154.053 483.166 153.84C483.668 153.616 484.212 153.504 484.798 153.504C485.385 153.504 485.924 153.616 486.414 153.84C486.916 154.053 487.348 154.357 487.71 154.752C488.084 155.136 488.372 155.595 488.574 156.128C488.777 156.661 488.878 157.243 488.878 157.872C488.878 158.501 488.772 159.083 488.558 159.616C488.356 160.149 488.068 160.613 487.694 161.008C487.332 161.392 486.9 161.696 486.398 161.92C485.897 162.133 485.353 162.24 484.766 162.24ZM484.782 161.072C485.188 161.072 485.556 160.992 485.886 160.832C486.228 160.672 486.521 160.453 486.766 160.176C487.022 159.888 487.22 159.552 487.358 159.168C487.497 158.773 487.566 158.341 487.566 157.872C487.566 157.403 487.497 156.976 487.358 156.592C487.22 156.197 487.022 155.861 486.766 155.584C486.521 155.296 486.228 155.072 485.886 154.912C485.556 154.752 485.188 154.672 484.782 154.672C484.377 154.672 484.004 154.752 483.662 154.912C483.332 155.072 483.038 155.296 482.782 155.584C482.537 155.861 482.345 156.197 482.206 156.592C482.068 156.976 481.998 157.403 481.998 157.872C481.998 158.341 482.068 158.773 482.206 159.168C482.345 159.552 482.537 159.888 482.782 160.176C483.038 160.453 483.332 160.672 483.662 160.832C484.004 160.992 484.377 161.072 484.782 161.072ZM494.056 162.24C493.352 162.24 492.744 162.085 492.232 161.776C491.72 161.467 491.326 161.029 491.048 160.464C490.771 159.888 490.632 159.205 490.632 158.416V153.744H491.912V158.432C491.912 158.976 491.998 159.445 492.168 159.84C492.35 160.235 492.6 160.539 492.92 160.752C493.251 160.965 493.64 161.072 494.088 161.072C494.536 161.072 494.92 160.965 495.24 160.752C495.571 160.539 495.822 160.235 495.992 159.84C496.174 159.445 496.264 158.976 496.264 158.432V153.744H497.544V158.416C497.544 159.184 497.4 159.856 497.112 160.432C496.824 161.008 496.419 161.456 495.896 161.776C495.374 162.085 494.76 162.24 494.056 162.24ZM502.815 162.24C502.314 162.24 501.882 162.139 501.519 161.936C501.157 161.733 500.874 161.435 500.671 161.04C500.479 160.645 500.383 160.165 500.383 159.6V154.832H498.863V153.744H500.383V150.976H501.663V153.744H504.255V154.832H501.663V159.536C501.663 160.027 501.765 160.411 501.967 160.688C502.181 160.955 502.501 161.088 502.927 161.088C503.151 161.088 503.375 161.056 503.599 160.992C503.834 160.917 504.042 160.821 504.223 160.704L504.607 161.696C504.383 161.856 504.122 161.984 503.823 162.08C503.525 162.187 503.189 162.24 502.815 162.24ZM506.259 162V150.128H507.539V154.944C507.784 154.507 508.136 154.16 508.595 153.904C509.053 153.637 509.571 153.504 510.147 153.504C510.776 153.504 511.325 153.653 511.795 153.952C512.264 154.251 512.621 154.677 512.867 155.232C513.123 155.776 513.251 156.421 513.251 157.168V162H511.971V157.248C511.971 156.427 511.789 155.792 511.427 155.344C511.075 154.896 510.568 154.672 509.907 154.672C509.448 154.672 509.037 154.779 508.675 154.992C508.323 155.195 508.045 155.483 507.843 155.856C507.64 156.219 507.539 156.635 507.539 157.104V162H506.259ZM518.179 162L522.755 150.64H524.179L528.755 162H527.315L526.051 158.768H520.835L519.571 162H518.179ZM521.315 157.536H525.555L523.443 152.128L521.315 157.536ZM530.243 162V153.744H531.395L531.459 155.008C531.694 154.549 532.035 154.187 532.483 153.92C532.931 153.643 533.443 153.504 534.019 153.504C534.638 153.504 535.176 153.664 535.635 153.984C536.094 154.304 536.435 154.752 536.659 155.328C536.798 154.965 537.006 154.651 537.283 154.384C537.56 154.107 537.886 153.893 538.259 153.744C538.643 153.584 539.054 153.504 539.491 153.504C540.11 153.504 540.643 153.653 541.091 153.952C541.55 154.24 541.896 154.651 542.131 155.184C542.376 155.717 542.499 156.357 542.499 157.104V162H541.219V157.184C541.219 156.373 541.054 155.755 540.723 155.328C540.392 154.891 539.912 154.672 539.283 154.672C538.846 154.672 538.456 154.779 538.115 154.992C537.774 155.195 537.502 155.477 537.299 155.84C537.107 156.192 537.011 156.592 537.011 157.04V162H535.731V157.184C535.731 156.373 535.56 155.755 535.219 155.328C534.878 154.891 534.392 154.672 533.763 154.672C533.336 154.672 532.952 154.779 532.611 154.992C532.27 155.195 532.003 155.477 531.811 155.84C531.619 156.192 531.523 156.592 531.523 157.04V162H530.243ZM548.425 162.24C547.817 162.24 547.257 162.133 546.745 161.92C546.243 161.707 545.806 161.408 545.433 161.024C545.059 160.629 544.771 160.171 544.569 159.648C544.366 159.115 544.265 158.528 544.265 157.888C544.265 157.259 544.361 156.683 544.553 156.16C544.755 155.627 545.033 155.163 545.385 154.768C545.747 154.373 546.169 154.069 546.649 153.856C547.129 153.632 547.651 153.52 548.217 153.52C548.761 153.52 549.262 153.621 549.721 153.824C550.19 154.027 550.595 154.309 550.937 154.672C551.278 155.035 551.539 155.467 551.721 155.968C551.913 156.469 552.009 157.013 552.009 157.6V158.128H545.593C545.635 158.725 545.774 159.248 546.009 159.696C546.254 160.144 546.579 160.491 546.985 160.736C547.39 160.981 547.859 161.104 548.393 161.104C548.915 161.104 549.369 160.997 549.753 160.784C550.147 160.56 550.483 160.235 550.761 159.808L551.849 160.304C551.635 160.709 551.358 161.056 551.017 161.344C550.675 161.632 550.281 161.851 549.833 162C549.395 162.16 548.926 162.24 548.425 162.24ZM548.217 154.608C547.779 154.608 547.379 154.715 547.017 154.928C546.665 155.141 546.366 155.44 546.121 155.824C545.886 156.197 545.731 156.635 545.657 157.136H550.665C550.622 156.635 550.489 156.197 550.265 155.824C550.041 155.44 549.753 155.141 549.401 154.928C549.049 154.715 548.654 154.608 548.217 154.608ZM553.837 162V153.744H554.989L555.069 155.28C555.271 154.768 555.575 154.368 555.981 154.08C556.386 153.781 556.861 153.632 557.405 153.632C557.586 153.632 557.746 153.648 557.885 153.68C558.034 153.701 558.162 153.733 558.269 153.776L558.109 154.992C557.991 154.949 557.869 154.923 557.741 154.912C557.613 154.891 557.485 154.88 557.357 154.88C556.909 154.88 556.514 154.992 556.173 155.216C555.842 155.44 555.581 155.76 555.389 156.176C555.207 156.581 555.117 157.061 555.117 157.616V162H553.837ZM561.357 151.328C561.357 151.488 561.314 151.637 561.229 151.776C561.154 151.904 561.047 152.011 560.909 152.096C560.781 152.171 560.637 152.208 560.477 152.208C560.317 152.208 560.167 152.171 560.029 152.096C559.901 152.011 559.794 151.904 559.709 151.776C559.634 151.637 559.597 151.488 559.597 151.328C559.597 151.168 559.634 151.024 559.709 150.896C559.794 150.757 559.901 150.651 560.029 150.576C560.167 150.491 560.317 150.448 560.477 150.448C560.637 150.448 560.781 150.491 560.909 150.576C561.047 150.651 561.154 150.757 561.229 150.896C561.314 151.024 561.357 151.168 561.357 151.328ZM559.837 162V153.744H561.117V162H559.837ZM566.904 162.24C566.339 162.24 565.816 162.133 565.336 161.92C564.856 161.707 564.435 161.408 564.072 161.024C563.71 160.629 563.427 160.171 563.224 159.648C563.032 159.125 562.936 158.555 562.936 157.936C562.936 157.317 563.038 156.741 563.24 156.208C563.443 155.664 563.726 155.189 564.088 154.784C564.451 154.379 564.878 154.064 565.368 153.84C565.859 153.616 566.392 153.504 566.968 153.504C567.502 153.504 567.982 153.6 568.408 153.792C568.846 153.984 569.219 154.245 569.528 154.576C569.848 154.907 570.094 155.285 570.264 155.712L569.096 156.112C568.862 155.664 568.558 155.312 568.184 155.056C567.811 154.8 567.39 154.672 566.92 154.672C566.536 154.672 566.184 154.757 565.864 154.928C565.544 155.088 565.262 155.312 565.016 155.6C564.771 155.888 564.579 156.235 564.44 156.64C564.312 157.035 564.248 157.461 564.248 157.92C564.248 158.379 564.312 158.8 564.44 159.184C564.579 159.568 564.766 159.904 565 160.192C565.235 160.469 565.512 160.688 565.832 160.848C566.163 160.997 566.52 161.072 566.904 161.072C567.395 161.072 567.843 160.949 568.248 160.704C568.664 160.448 568.979 160.096 569.192 159.648L570.36 160.048C570.19 160.496 569.928 160.885 569.576 161.216C569.235 161.536 568.83 161.787 568.36 161.968C567.902 162.149 567.416 162.24 566.904 162.24ZM574.647 162.24C574.071 162.24 573.559 162.133 573.111 161.92C572.663 161.696 572.311 161.392 572.055 161.008C571.809 160.624 571.687 160.181 571.687 159.68C571.687 159.136 571.825 158.667 572.103 158.272C572.391 157.877 572.791 157.573 573.303 157.36C573.815 157.136 574.412 157.024 575.095 157.024C575.479 157.024 575.868 157.067 576.263 157.152C576.657 157.237 577.009 157.349 577.319 157.488V156.88C577.319 156.432 577.228 156.043 577.047 155.712C576.876 155.371 576.636 155.109 576.327 154.928C576.017 154.736 575.655 154.64 575.239 154.64C574.737 154.64 574.3 154.757 573.927 154.992C573.564 155.227 573.292 155.557 573.111 155.984L571.991 155.6C572.14 155.173 572.369 154.805 572.679 154.496C572.999 154.187 573.377 153.947 573.815 153.776C574.263 153.605 574.743 153.52 575.255 153.52C575.916 153.52 576.492 153.664 576.983 153.952C577.484 154.229 577.868 154.624 578.135 155.136C578.412 155.637 578.551 156.229 578.551 156.912V162H577.431L577.351 160.72C577.116 161.179 576.759 161.547 576.279 161.824C575.809 162.101 575.265 162.24 574.647 162.24ZM572.983 159.632C572.983 159.941 573.063 160.213 573.223 160.448C573.383 160.672 573.607 160.848 573.895 160.976C574.183 161.104 574.513 161.168 574.887 161.168C575.345 161.168 575.756 161.067 576.119 160.864C576.492 160.651 576.785 160.368 576.999 160.016C577.212 159.653 577.319 159.243 577.319 158.784V158.48C576.967 158.341 576.609 158.235 576.247 158.16C575.895 158.075 575.559 158.032 575.239 158.032C574.535 158.032 573.98 158.176 573.575 158.464C573.18 158.752 572.983 159.141 572.983 159.632Z" fill="#77838F"/>
<rect x="442.936" y="183" width="18" height="18" rx="5" fill="#FBAF1D"/>
<path d="M471.304 198L475.88 186.64H477.304L481.88 198H480.44L479.176 194.768H473.96L472.696 198H471.304ZM474.44 193.536H478.68L476.568 188.128L474.44 193.536ZM483.665 198V190.832H482.145V189.744H483.665V188.976C483.665 188.368 483.777 187.84 484.001 187.392C484.225 186.933 484.539 186.581 484.945 186.336C485.361 186.091 485.841 185.968 486.385 185.968C486.961 185.968 487.478 186.107 487.937 186.384L487.569 187.376C487.409 187.291 487.233 187.221 487.041 187.168C486.849 187.115 486.657 187.088 486.465 187.088C485.963 187.088 485.585 187.253 485.329 187.584C485.073 187.915 484.945 188.389 484.945 189.008V189.744H487.553V190.832H484.945V198H483.665ZM489.056 198V189.744H490.208L490.288 191.28C490.49 190.768 490.794 190.368 491.2 190.08C491.605 189.781 492.08 189.632 492.624 189.632C492.805 189.632 492.965 189.648 493.104 189.68C493.253 189.701 493.381 189.733 493.488 189.776L493.328 190.992C493.21 190.949 493.088 190.923 492.96 190.912C492.832 190.891 492.704 190.88 492.576 190.88C492.128 190.88 491.733 190.992 491.392 191.216C491.061 191.44 490.8 191.76 490.608 192.176C490.426 192.581 490.336 193.061 490.336 193.616V198H489.056ZM496.576 187.328C496.576 187.488 496.533 187.637 496.448 187.776C496.373 187.904 496.266 188.011 496.128 188.096C496 188.171 495.856 188.208 495.696 188.208C495.536 188.208 495.386 188.171 495.248 188.096C495.12 188.011 495.013 187.904 494.928 187.776C494.853 187.637 494.816 187.488 494.816 187.328C494.816 187.168 494.853 187.024 494.928 186.896C495.013 186.757 495.12 186.651 495.248 186.576C495.386 186.491 495.536 186.448 495.696 186.448C495.856 186.448 496 186.491 496.128 186.576C496.266 186.651 496.373 186.757 496.448 186.896C496.533 187.024 496.576 187.168 496.576 187.328ZM495.056 198V189.744H496.336V198H495.056ZM502.123 198.24C501.558 198.24 501.035 198.133 500.555 197.92C500.075 197.707 499.654 197.408 499.291 197.024C498.929 196.629 498.646 196.171 498.443 195.648C498.251 195.125 498.155 194.555 498.155 193.936C498.155 193.317 498.257 192.741 498.459 192.208C498.662 191.664 498.945 191.189 499.307 190.784C499.67 190.379 500.097 190.064 500.587 189.84C501.078 189.616 501.611 189.504 502.187 189.504C502.721 189.504 503.201 189.6 503.627 189.792C504.065 189.984 504.438 190.245 504.747 190.576C505.067 190.907 505.313 191.285 505.483 191.712L504.315 192.112C504.081 191.664 503.777 191.312 503.403 191.056C503.03 190.8 502.609 190.672 502.139 190.672C501.755 190.672 501.403 190.757 501.083 190.928C500.763 191.088 500.481 191.312 500.235 191.6C499.99 191.888 499.798 192.235 499.659 192.64C499.531 193.035 499.467 193.461 499.467 193.92C499.467 194.379 499.531 194.8 499.659 195.184C499.798 195.568 499.985 195.904 500.219 196.192C500.454 196.469 500.731 196.688 501.051 196.848C501.382 196.997 501.739 197.072 502.123 197.072C502.614 197.072 503.062 196.949 503.467 196.704C503.883 196.448 504.198 196.096 504.411 195.648L505.579 196.048C505.409 196.496 505.147 196.885 504.795 197.216C504.454 197.536 504.049 197.787 503.579 197.968C503.121 198.149 502.635 198.24 502.123 198.24ZM509.866 198.24C509.29 198.24 508.778 198.133 508.33 197.92C507.882 197.696 507.53 197.392 507.274 197.008C507.028 196.624 506.906 196.181 506.906 195.68C506.906 195.136 507.044 194.667 507.322 194.272C507.61 193.877 508.01 193.573 508.522 193.36C509.034 193.136 509.631 193.024 510.314 193.024C510.698 193.024 511.087 193.067 511.482 193.152C511.876 193.237 512.228 193.349 512.538 193.488V192.88C512.538 192.432 512.447 192.043 512.266 191.712C512.095 191.371 511.855 191.109 511.546 190.928C511.236 190.736 510.874 190.64 510.458 190.64C509.956 190.64 509.519 190.757 509.146 190.992C508.783 191.227 508.511 191.557 508.33 191.984L507.21 191.6C507.359 191.173 507.588 190.805 507.898 190.496C508.218 190.187 508.596 189.947 509.034 189.776C509.482 189.605 509.962 189.52 510.474 189.52C511.135 189.52 511.711 189.664 512.202 189.952C512.703 190.229 513.087 190.624 513.354 191.136C513.631 191.637 513.77 192.229 513.77 192.912V198H512.65L512.57 196.72C512.335 197.179 511.978 197.547 511.498 197.824C511.028 198.101 510.484 198.24 509.866 198.24ZM508.202 195.632C508.202 195.941 508.282 196.213 508.442 196.448C508.602 196.672 508.826 196.848 509.114 196.976C509.402 197.104 509.732 197.168 510.106 197.168C510.564 197.168 510.975 197.067 511.338 196.864C511.711 196.651 512.004 196.368 512.218 196.016C512.431 195.653 512.538 195.243 512.538 194.784V194.48C512.186 194.341 511.828 194.235 511.466 194.16C511.114 194.075 510.778 194.032 510.458 194.032C509.754 194.032 509.199 194.176 508.794 194.464C508.399 194.752 508.202 195.141 508.202 195.632Z" fill="#77838F"/>
<path d="M3.92094 19V9.752H0.720941V7.64H9.50494V9.752H6.30494V19H3.92094ZM13.5718 19.24C12.9425 19.24 12.3611 19.128 11.8278 18.904C11.2945 18.68 10.8305 18.3707 10.4358 17.976C10.0411 17.5707 9.73182 17.096 9.50782 16.552C9.29448 16.008 9.18782 15.416 9.18782 14.776C9.18782 14.136 9.29982 13.5493 9.52382 13.016C9.74782 12.472 10.0571 11.9973 10.4518 11.592C10.8571 11.1867 11.3265 10.872 11.8598 10.648C12.4038 10.424 12.9958 10.312 13.6358 10.312C14.2652 10.312 14.8465 10.424 15.3798 10.648C15.9131 10.872 16.3772 11.1867 16.7718 11.592C17.1665 11.9867 17.4705 12.456 17.6838 13C17.9078 13.5333 18.0198 14.12 18.0198 14.76C18.0198 15.4 17.9078 15.992 17.6838 16.536C17.4598 17.08 17.1451 17.5547 16.7398 17.96C16.3451 18.3653 15.8758 18.68 15.3318 18.904C14.7985 19.128 14.2118 19.24 13.5718 19.24ZM13.6038 17.224C14.0092 17.224 14.3718 17.1173 14.6918 16.904C15.0118 16.6907 15.2625 16.4027 15.4438 16.04C15.6358 15.6667 15.7318 15.2453 15.7318 14.776C15.7318 14.3067 15.6358 13.8907 15.4438 13.528C15.2625 13.1547 15.0118 12.8613 14.6918 12.648C14.3718 12.4347 14.0092 12.328 13.6038 12.328C13.1985 12.328 12.8358 12.4347 12.5158 12.648C12.1958 12.8613 11.9398 13.1547 11.7478 13.528C11.5665 13.8907 11.4758 14.3067 11.4758 14.776C11.4758 15.2453 11.5665 15.6667 11.7478 16.04C11.9398 16.4027 12.1958 16.6907 12.5158 16.904C12.8358 17.1173 13.1985 17.224 13.6038 17.224ZM22.9062 19.24C22.3195 19.24 21.8129 19.128 21.3862 18.904C20.9702 18.6693 20.6449 18.3333 20.4102 17.896C20.1862 17.4587 20.0742 16.9253 20.0742 16.296V12.36H18.6342V10.552H20.0742V7.672H22.3142V10.552H24.6182V12.36H22.3142V16.024C22.3142 16.4293 22.3995 16.744 22.5702 16.968C22.7409 17.1813 23.0022 17.288 23.3542 17.288C23.5355 17.288 23.7275 17.2613 23.9302 17.208C24.1435 17.1547 24.3462 17.0853 24.5382 17L24.9382 18.68C24.6609 18.8507 24.3515 18.984 24.0102 19.08C23.6689 19.1867 23.3009 19.24 22.9062 19.24ZM28.8033 19.24C28.366 19.24 27.966 19.176 27.6033 19.048C27.2406 18.92 26.9206 18.7387 26.6433 18.504C26.3766 18.2587 26.1686 17.976 26.0193 17.656C25.87 17.336 25.7953 16.984 25.7953 16.6C25.7953 16.0667 25.9393 15.5973 26.2273 15.192C26.5153 14.7867 26.9206 14.472 27.4433 14.248C27.966 14.0133 28.574 13.896 29.2673 13.896C29.6193 13.896 29.95 13.928 30.2593 13.992C30.5793 14.056 30.8886 14.1467 31.1873 14.264V13.768C31.1873 13.288 31.0487 12.8987 30.7713 12.6C30.5046 12.3013 30.1366 12.152 29.6673 12.152C29.3153 12.152 28.9953 12.2427 28.7073 12.424C28.4193 12.5947 28.2166 12.84 28.0993 13.16L26.0993 12.76C26.2166 12.2693 26.446 11.8427 26.7873 11.48C27.1393 11.1067 27.566 10.8187 28.0673 10.616C28.5686 10.4133 29.1126 10.312 29.6993 10.312C30.2433 10.312 30.7393 10.3973 31.1873 10.568C31.6353 10.7387 32.0193 10.984 32.3393 11.304C32.67 11.624 32.9207 12.0027 33.0913 12.44C33.2726 12.8667 33.3633 13.3467 33.3633 13.88V19H31.3633L31.2993 18.008C31.0753 18.3707 30.75 18.6693 30.3233 18.904C29.8966 19.128 29.39 19.24 28.8033 19.24ZM28.0033 16.488C28.0033 16.7867 28.126 17.032 28.3713 17.224C28.6166 17.416 28.942 17.512 29.3473 17.512C29.6993 17.512 30.014 17.4373 30.2913 17.288C30.5687 17.1387 30.7873 16.936 30.9473 16.68C31.1073 16.4133 31.1873 16.12 31.1873 15.8V15.72C30.9527 15.624 30.702 15.5493 30.4353 15.496C30.1686 15.432 29.902 15.4 29.6353 15.4C29.134 15.4 28.734 15.5013 28.4353 15.704C28.1473 15.896 28.0033 16.1573 28.0033 16.488ZM35.1484 19V7.064H37.3884V19H35.1484ZM42.5234 19V10.552H44.5874L44.6514 11.64C44.8968 11.2347 45.2328 10.9147 45.6594 10.68C46.0968 10.4347 46.5928 10.312 47.1474 10.312C47.7661 10.312 48.3048 10.4613 48.7634 10.76C49.2328 11.048 49.5954 11.464 49.8514 12.008C50.1074 12.552 50.2354 13.192 50.2354 13.928V19H47.9954V14.216C47.9954 13.6293 47.8621 13.1707 47.5954 12.84C47.3288 12.4987 46.9608 12.328 46.4914 12.328C46.1501 12.328 45.8514 12.408 45.5954 12.568C45.3394 12.7173 45.1368 12.9307 44.9874 13.208C44.8381 13.4853 44.7634 13.8 44.7634 14.152V19H42.5234ZM55.8314 19.24C55.0634 19.24 54.3914 19.08 53.8154 18.76C53.2501 18.4293 52.8074 17.9653 52.4874 17.368C52.1781 16.76 52.0234 16.0453 52.0234 15.224V10.552H54.2634V15.272C54.2634 15.88 54.4074 16.36 54.6954 16.712C54.9834 17.0533 55.3728 17.224 55.8634 17.224C56.3541 17.224 56.7434 17.0533 57.0314 16.712C57.3194 16.36 57.4634 15.88 57.4634 15.272V10.552H59.7034V15.224C59.7034 15.832 59.6128 16.3813 59.4314 16.872C59.2501 17.3627 58.9888 17.784 58.6474 18.136C58.3061 18.488 57.8954 18.76 57.4154 18.952C56.9461 19.144 56.4181 19.24 55.8314 19.24ZM61.4922 19V10.552H63.5562L63.6202 11.624C63.8655 11.2187 64.1962 10.8987 64.6122 10.664C65.0282 10.4293 65.4975 10.312 66.0202 10.312C66.5855 10.312 67.0869 10.4507 67.5242 10.728C67.9722 11.0053 68.3189 11.3893 68.5642 11.88C68.8202 11.4107 69.1882 11.032 69.6682 10.744C70.1589 10.456 70.7189 10.312 71.3482 10.312C71.9775 10.312 72.5215 10.4613 72.9802 10.76C73.4389 11.048 73.7909 11.464 74.0362 12.008C74.2922 12.552 74.4202 13.192 74.4202 13.928V19H72.1802V14.216C72.1802 13.6293 72.0522 13.1707 71.7962 12.84C71.5402 12.4987 71.1829 12.328 70.7242 12.328C70.4042 12.328 70.1162 12.408 69.8602 12.568C69.6149 12.7173 69.4229 12.9307 69.2842 13.208C69.1455 13.4853 69.0762 13.8 69.0762 14.152V19H66.8362V14.216C66.8362 13.6293 66.7082 13.1707 66.4522 12.84C66.1962 12.4987 65.8389 12.328 65.3802 12.328C65.0602 12.328 64.7722 12.408 64.5162 12.568C64.2709 12.7173 64.0789 12.9307 63.9402 13.208C63.8015 13.4853 63.7322 13.8 63.7322 14.152V19H61.4922ZM76.2109 19V7.064H78.4509V11.624C78.7496 11.2187 79.1229 10.8987 79.5709 10.664C80.0296 10.4293 80.5309 10.312 81.0749 10.312C81.6296 10.312 82.1416 10.424 82.6109 10.648C83.0803 10.872 83.4909 11.1867 83.8429 11.592C84.1949 11.9867 84.4669 12.4507 84.6589 12.984C84.8616 13.5173 84.9629 14.0987 84.9629 14.728C84.9629 15.368 84.8616 15.96 84.6589 16.504C84.4563 17.048 84.1736 17.528 83.8109 17.944C83.4483 18.3493 83.0216 18.6693 82.5309 18.904C82.0403 19.128 81.5123 19.24 80.9469 19.24C80.3923 19.24 79.8909 19.1227 79.4429 18.888C78.9949 18.6533 78.6269 18.3227 78.3389 17.896L78.2749 19H76.2109ZM80.5469 17.224C80.9523 17.224 81.3149 17.1173 81.6349 16.904C81.9549 16.6907 82.2056 16.4027 82.3869 16.04C82.5789 15.6667 82.6749 15.2453 82.6749 14.776C82.6749 14.3067 82.5789 13.8907 82.3869 13.528C82.2056 13.1547 81.9549 12.8613 81.6349 12.648C81.3149 12.4347 80.9523 12.328 80.5469 12.328C80.1416 12.328 79.7789 12.4347 79.4589 12.648C79.1389 12.8613 78.8829 13.1547 78.6909 13.528C78.5096 13.8907 78.4189 14.3067 78.4189 14.776C78.4189 15.2453 78.5096 15.6667 78.6909 16.04C78.8829 16.4027 79.1389 16.6907 79.4589 16.904C79.7789 17.1173 80.1416 17.224 80.5469 17.224ZM90.5078 19.24C89.8785 19.24 89.2971 19.1333 88.7638 18.92C88.2411 18.696 87.7878 18.3867 87.4038 17.992C87.0198 17.5867 86.7211 17.112 86.5078 16.568C86.2945 16.0133 86.1878 15.4107 86.1878 14.76C86.1878 14.1307 86.2945 13.544 86.5078 13C86.7211 12.456 87.0145 11.9867 87.3878 11.592C87.7718 11.1867 88.2198 10.872 88.7318 10.648C89.2438 10.424 89.7985 10.312 90.3958 10.312C91.0145 10.312 91.5745 10.4187 92.0758 10.632C92.5878 10.8453 93.0252 11.1493 93.3878 11.544C93.7505 11.9387 94.0278 12.408 94.2198 12.952C94.4225 13.496 94.5238 14.104 94.5238 14.776V15.336H88.4598C88.5558 15.9653 88.7851 16.4613 89.1478 16.824C89.5105 17.176 89.9692 17.352 90.5238 17.352C90.9078 17.352 91.2545 17.2613 91.5638 17.08C91.8838 16.8987 92.1452 16.6373 92.3478 16.296L94.3478 16.936C94.1558 17.416 93.8678 17.8267 93.4838 18.168C93.0998 18.5093 92.6518 18.776 92.1398 18.968C91.6278 19.1493 91.0838 19.24 90.5078 19.24ZM90.3958 12.04C89.9052 12.04 89.4892 12.2 89.1478 12.52C88.8171 12.84 88.5985 13.2773 88.4918 13.832H92.2198C92.1345 13.2773 91.9265 12.84 91.5958 12.52C91.2758 12.2 90.8758 12.04 90.3958 12.04ZM95.9141 19V10.552H97.9781L98.0581 11.832C98.2714 11.384 98.5594 11.0427 98.9221 10.808C99.2847 10.5627 99.7114 10.44 100.202 10.44C100.351 10.44 100.501 10.456 100.65 10.488C100.799 10.5093 100.933 10.5413 101.05 10.584L100.81 12.792C100.693 12.7493 100.57 12.7227 100.442 12.712C100.325 12.6907 100.202 12.68 100.074 12.68C99.4554 12.68 98.9807 12.872 98.6501 13.256C98.3194 13.6293 98.1541 14.1627 98.1541 14.856V19H95.9141ZM105.617 19V10.552H107.681L107.745 11.64C107.991 11.2347 108.327 10.9147 108.753 10.68C109.191 10.4347 109.687 10.312 110.241 10.312C110.86 10.312 111.399 10.4613 111.857 10.76C112.327 11.048 112.689 11.464 112.945 12.008C113.201 12.552 113.329 13.192 113.329 13.928V19H111.089V14.216C111.089 13.6293 110.956 13.1707 110.689 12.84C110.423 12.4987 110.055 12.328 109.585 12.328C109.244 12.328 108.945 12.408 108.689 12.568C108.433 12.7173 108.231 12.9307 108.081 13.208C107.932 13.4853 107.857 13.8 107.857 14.152V19H105.617ZM119.181 19.24C118.552 19.24 117.971 19.128 117.437 18.904C116.904 18.68 116.44 18.3707 116.045 17.976C115.651 17.5707 115.341 17.096 115.117 16.552C114.904 16.008 114.797 15.416 114.797 14.776C114.797 14.136 114.909 13.5493 115.133 13.016C115.357 12.472 115.667 11.9973 116.061 11.592C116.467 11.1867 116.936 10.872 117.469 10.648C118.013 10.424 118.605 10.312 119.245 10.312C119.875 10.312 120.456 10.424 120.989 10.648C121.523 10.872 121.987 11.1867 122.381 11.592C122.776 11.9867 123.08 12.456 123.293 13C123.517 13.5333 123.629 14.12 123.629 14.76C123.629 15.4 123.517 15.992 123.293 16.536C123.069 17.08 122.755 17.5547 122.349 17.96C121.955 18.3653 121.485 18.68 120.941 18.904C120.408 19.128 119.821 19.24 119.181 19.24ZM119.213 17.224C119.619 17.224 119.981 17.1173 120.301 16.904C120.621 16.6907 120.872 16.4027 121.053 16.04C121.245 15.6667 121.341 15.2453 121.341 14.776C121.341 14.3067 121.245 13.8907 121.053 13.528C120.872 13.1547 120.621 12.8613 120.301 12.648C119.981 12.4347 119.619 12.328 119.213 12.328C118.808 12.328 118.445 12.4347 118.125 12.648C117.805 12.8613 117.549 13.1547 117.357 13.528C117.176 13.8907 117.085 14.3067 117.085 14.776C117.085 15.2453 117.176 15.6667 117.357 16.04C117.549 16.4027 117.805 16.6907 118.125 16.904C118.445 17.1173 118.808 17.224 119.213 17.224ZM128.732 19.24C128.188 19.24 127.681 19.128 127.212 18.904C126.742 18.68 126.332 18.3707 125.98 17.976C125.628 17.5707 125.35 17.1013 125.148 16.568C124.956 16.0347 124.86 15.4533 124.86 14.824C124.86 14.184 124.961 13.592 125.164 13.048C125.366 12.504 125.649 12.0293 126.012 11.624C126.374 11.208 126.796 10.888 127.276 10.664C127.766 10.4293 128.294 10.312 128.86 10.312C129.382 10.312 129.857 10.4187 130.284 10.632C130.721 10.8347 131.084 11.1227 131.372 11.496V7.064H133.612V19H131.548L131.484 17.768C131.185 18.2267 130.796 18.5893 130.316 18.856C129.846 19.112 129.318 19.24 128.732 19.24ZM129.276 17.224C129.681 17.224 130.044 17.1173 130.364 16.904C130.684 16.6907 130.934 16.4027 131.116 16.04C131.308 15.6667 131.404 15.2453 131.404 14.776C131.404 14.3067 131.308 13.8907 131.116 13.528C130.934 13.1547 130.684 12.8613 130.364 12.648C130.044 12.4347 129.681 12.328 129.276 12.328C128.87 12.328 128.508 12.4347 128.188 12.648C127.868 12.8613 127.612 13.1547 127.42 13.528C127.238 13.8907 127.148 14.3067 127.148 14.776C127.148 15.2453 127.238 15.6667 127.42 16.04C127.612 16.4027 127.868 16.6907 128.188 16.904C128.508 17.1173 128.87 17.224 129.276 17.224ZM139.398 19.24C138.769 19.24 138.188 19.1333 137.654 18.92C137.132 18.696 136.678 18.3867 136.294 17.992C135.91 17.5867 135.612 17.112 135.398 16.568C135.185 16.0133 135.078 15.4107 135.078 14.76C135.078 14.1307 135.185 13.544 135.398 13C135.612 12.456 135.905 11.9867 136.278 11.592C136.662 11.1867 137.11 10.872 137.622 10.648C138.134 10.424 138.689 10.312 139.286 10.312C139.905 10.312 140.465 10.4187 140.966 10.632C141.478 10.8453 141.916 11.1493 142.278 11.544C142.641 11.9387 142.918 12.408 143.11 12.952C143.313 13.496 143.414 14.104 143.414 14.776V15.336H137.35C137.446 15.9653 137.676 16.4613 138.038 16.824C138.401 17.176 138.86 17.352 139.414 17.352C139.798 17.352 140.145 17.2613 140.454 17.08C140.774 16.8987 141.036 16.6373 141.238 16.296L143.238 16.936C143.046 17.416 142.758 17.8267 142.374 18.168C141.99 18.5093 141.542 18.776 141.03 18.968C140.518 19.1493 139.974 19.24 139.398 19.24ZM139.286 12.04C138.796 12.04 138.38 12.2 138.038 12.52C137.708 12.84 137.489 13.2773 137.382 13.832H141.11C141.025 13.2773 140.817 12.84 140.486 12.52C140.166 12.2 139.766 12.04 139.286 12.04ZM147.938 19.24C147.341 19.24 146.797 19.144 146.306 18.952C145.826 18.76 145.416 18.488 145.074 18.136C144.744 17.784 144.514 17.368 144.386 16.888L146.402 16.456C146.509 16.7867 146.701 17.048 146.978 17.24C147.256 17.432 147.586 17.528 147.97 17.528C148.333 17.528 148.632 17.448 148.866 17.288C149.101 17.128 149.218 16.9093 149.218 16.632C149.218 16.3973 149.112 16.2053 148.898 16.056C148.696 15.896 148.354 15.7733 147.874 15.688L147.426 15.608C146.509 15.448 145.81 15.1493 145.33 14.712C144.861 14.2747 144.626 13.72 144.626 13.048C144.626 12.5147 144.765 12.0453 145.042 11.64C145.32 11.224 145.704 10.8987 146.194 10.664C146.685 10.4293 147.25 10.312 147.89 10.312C148.456 10.312 148.968 10.408 149.426 10.6C149.896 10.7813 150.285 11.0427 150.594 11.384C150.904 11.7253 151.117 12.136 151.234 12.616L149.234 13.032C149.128 12.712 148.952 12.4613 148.706 12.28C148.472 12.0987 148.194 12.008 147.874 12.008C147.544 12.008 147.272 12.088 147.058 12.248C146.845 12.408 146.738 12.6107 146.738 12.856C146.738 13.0693 146.84 13.2507 147.042 13.4C147.256 13.5387 147.613 13.6507 148.114 13.736L148.562 13.816C149.469 13.976 150.162 14.28 150.642 14.728C151.122 15.1653 151.362 15.7253 151.362 16.408C151.362 16.824 151.277 17.2027 151.106 17.544C150.946 17.8853 150.712 18.184 150.402 18.44C150.093 18.696 149.73 18.8933 149.314 19.032C148.898 19.1707 148.44 19.24 147.938 19.24Z" fill="#717591"/>
</svg>
