<svg width="124" height="168" viewBox="0 0 124 168" fill="none" xmlns="http://www.w3.org/2000/svg">
<g opacity="0.4">
<path d="M77.3524 112.654C74.0083 114.898 70.5794 115.335 67.2353 112.753C63.9194 110.199 63.609 106.7 64.893 102.41C60.5471 103.356 56.6386 103.327 54.0705 99.4611C51.8693 96.1452 52.4055 92.8999 54.5784 89.7674C54.8465 89.4993 55.1146 89.2453 55.3827 88.9772C56.9349 87.8625 58.741 86.7761 60.5471 87.1429C63.8489 87.8061 63.2421 86.2822 63.4255 83.954C63.6654 80.7369 63.3268 79.4246 59.7287 79.9467C58.4164 80.1301 56.9066 78.9731 55.4956 78.4228C55.1146 78.0418 54.7336 77.6608 54.3527 77.294C52.4478 74.091 51.8551 70.8315 54.1692 67.6003C56.7373 64.0163 60.3636 63.7058 64.8225 64.8911C63.6937 60.5028 63.863 56.6507 67.7151 54.0967C71.0169 51.9238 74.2622 52.46 77.3665 54.6188C77.6346 54.8869 77.8885 55.155 78.1566 55.4231C78.7916 56.9894 80.1603 58.6685 79.9204 60.0795C79.2854 63.8893 81.0916 63.1979 83.7302 63.4095C86.905 63.6635 87.1731 62.8028 87.0884 60.0936C87.032 58.5556 88.2455 56.9894 88.8804 55.4231C89.1626 55.1409 89.4448 54.8446 89.727 54.5624C93.0571 52.2201 96.4858 51.825 99.83 54.3648C103.16 56.9047 103.555 60.3758 102.271 64.6371C106.504 63.9034 110.455 63.7199 113.051 67.6285C115.252 70.9444 114.744 74.1897 112.656 77.3504C112.332 77.675 112.007 77.9854 111.697 78.3099C110.116 78.9308 108.465 80.2007 106.97 80.0314C103.739 79.6645 103.781 80.8074 103.823 83.5448C103.865 86.1975 103.71 87.4675 106.984 87.1006C108.48 86.9313 110.13 88.2153 111.697 88.8361C112.021 89.1607 112.346 89.4852 112.684 89.8097C114.914 93.1398 115.351 96.5686 112.797 99.8845C110.257 103.172 106.843 103.694 102.539 102.283C103.414 106.714 103.273 110.749 99.1809 113.289C96.0343 115.236 92.9301 114.7 89.9387 112.795C89.5295 112.386 89.1344 111.977 88.7252 111.582C87.1449 109.24 86.7357 106.629 87.1731 103.906C82.6719 103.398 78.9327 103.525 79.3983 109.494C79.4548 110.213 78.6646 110.989 78.2554 111.737C77.945 112.062 77.6487 112.358 77.3524 112.654ZM98.9128 98.925C96.3306 97.3587 101.749 92.4342 95.992 92.406C93.0571 92.3919 92.3656 93.3937 92.3938 96.117C92.4362 101.832 97.2901 96.4274 98.9128 98.925ZM68.3641 98.9955C69.9586 96.8367 75.7015 101.959 74.6996 94.9318C73.8954 89.3441 70.3537 93.7465 68.3924 92.3073C69.1967 94.6355 68.35 96.5827 68.3641 98.9955ZM99.1103 68.3622C92.2951 69.0677 92.4644 69.0959 92.2669 70.6763C91.6037 76.1652 95.7521 74.3026 98.9692 75.1633C98.0097 72.6094 98.7576 70.5211 99.1103 68.3622ZM68.3077 68.0659C68.6887 70.5493 68.9285 72.6799 68.5476 75.0787C70.4242 73.3995 74.1917 77.548 74.8266 72.0168C75.6027 65.1733 69.8316 70.6057 68.3077 68.0659ZM80.9505 83.178C81.0634 84.6313 79.9628 86.7196 82.94 86.127C84.4498 85.8307 86.397 86.903 86.143 83.7706C85.9737 81.6399 85.8608 80.8074 83.4198 80.9626C81.5854 81.0755 80.2732 80.8921 80.9505 83.178Z" fill="#00B159"/>
<path d="M78.1853 55.4232C77.9172 55.1551 77.6632 54.887 77.3951 54.6189C77.3528 54.2803 77.3951 53.8993 77.2681 53.603C75.5325 49.7791 75.4761 46.1669 79.0319 43.3731C81.9245 41.1013 85.1839 41.0872 88.0906 43.3448C91.6605 46.1104 91.6182 49.7368 89.9249 53.5606C89.798 53.857 89.8262 54.2379 89.7839 54.5766C89.5017 54.8588 89.2195 55.1551 88.9373 55.4373C85.3391 56.8907 81.7552 56.8624 78.1853 55.4232Z" fill="#00B159"/>
<path d="M112.684 89.8236C112.36 89.4991 112.035 89.1746 111.697 88.85C110.187 85.3366 110.215 81.8373 111.697 78.3238C112.021 77.9993 112.346 77.6888 112.656 77.3643C113.799 77.0115 114.914 76.5741 116.085 76.3483C119.401 75.7134 122.251 76.5177 124.156 79.4667C125.892 82.1618 125.892 84.9979 124.17 87.693C122.279 90.642 119.415 91.4604 116.099 90.8255C114.942 90.6279 113.827 90.1764 112.684 89.8236Z" fill="#00B159"/>
<path d="M88.7109 111.596C89.1201 112.005 89.5152 112.414 89.9243 112.809C90.1501 113.628 90.3759 114.46 90.5875 115.279C91.5188 118.778 90.9544 121.896 87.8502 124.055C84.9999 126.031 81.9239 125.988 79.1159 123.942C76.0681 121.713 75.5743 118.58 76.6043 115.109C76.8442 114.291 77.1123 113.472 77.3522 112.654C77.6485 112.358 77.9448 112.047 78.2411 111.751C81.7122 110.284 85.2116 110.326 88.7109 111.596Z" fill="#00B159"/>
<path d="M55.3967 88.9773C55.1286 89.2454 54.8605 89.4993 54.5924 89.7674C50.4017 91.1079 46.1968 92.3073 43.0785 87.792C41.2582 85.1675 41.2159 82.3031 42.9515 79.594C45.9287 74.9799 50.1477 75.9959 54.3808 77.2658C54.7617 77.6468 55.1427 78.0277 55.5237 78.3946C56.8924 81.9504 56.7654 85.4779 55.3967 88.9773Z" fill="#00B159"/>
<path d="M125.116 106.375C125.2 110.255 121.701 113.754 117.821 113.684C114.138 113.613 110.85 110.34 110.78 106.643C110.695 102.748 114.18 99.2633 118.075 99.3338C121.743 99.4185 125.031 102.692 125.116 106.375Z" fill="#00B159"/>
<path d="M49.2449 113.628C45.4069 113.67 41.9499 110.156 42.0769 106.333C42.1898 102.678 45.4634 99.4609 49.1179 99.4186C52.9559 99.3763 56.4129 102.89 56.2859 106.714C56.1871 110.368 52.8994 113.585 49.2449 113.628Z" fill="#00B159"/>
<path d="M67.7715 117.72C67.9267 121.558 64.4979 125.099 60.6317 125.099C56.9772 125.099 53.6613 121.882 53.5061 118.228C53.3508 114.39 56.7796 110.848 60.6458 110.848C64.3145 110.848 67.6304 114.051 67.7715 117.72Z" fill="#00B159"/>
<path d="M117.539 67.8259C113.644 67.5861 110.427 63.8468 110.822 60.023C111.203 56.3261 114.702 53.3065 118.329 53.5323C122.223 53.7721 125.44 57.5255 125.045 61.3352C124.678 65.0321 121.179 68.0517 117.539 67.8259Z" fill="#00B159"/>
<path d="M48.9344 53.5746C52.5466 53.4335 55.9754 56.5095 56.2717 60.1782C56.5822 63.9738 53.2945 67.6425 49.4283 67.7977C45.6044 67.9529 42.0627 64.5383 42.0769 60.6862C42.091 57.0316 45.2799 53.7157 48.9344 53.5746Z" fill="#00B159"/>
<path d="M113.63 49.2567C113.616 53.137 110.046 56.5517 106.194 56.3682C102.511 56.1989 99.3218 52.8689 99.336 49.1861C99.3501 45.3058 102.92 41.8911 106.772 42.0746C110.455 42.2439 113.644 45.588 113.63 49.2567Z" fill="#00B159"/>
<path d="M60.6742 42.1169C64.5262 42.131 67.9268 45.6868 67.7434 49.5106C67.5741 53.1793 64.244 56.3541 60.6036 56.3259C56.7515 56.3118 53.3509 52.756 53.5203 48.9321C53.7037 45.2776 57.0337 42.0887 60.6742 42.1169Z" fill="#00B159"/>
<path d="M113.63 117.889C113.686 121.769 110.173 125.226 106.306 125.128C102.624 125.029 99.3784 121.741 99.336 118.058C99.2796 114.178 102.779 110.721 106.659 110.834C110.342 110.933 113.573 114.206 113.63 117.889Z" fill="#00B159"/>
<path d="M65.4859 129.022C66.0644 124.986 68.3503 122.828 72.414 122.87C76.2943 122.912 79.1304 126.214 78.6366 130.108C78.1145 134.186 75.5747 136.232 71.5533 135.95C67.4472 135.654 65.5988 133.001 65.4859 129.022Z" fill="#00B159"/>
<path d="M129.391 101.719C125.356 101.366 122.999 99.2637 122.802 95.1717C122.618 91.2773 125.779 88.173 129.673 88.4552C133.737 88.7515 136.051 91.1362 135.966 95.1999C135.896 99.2919 133.412 101.38 129.391 101.719Z" fill="#00B159"/>
<path d="M44.3065 94.988C43.996 99.0236 41.9501 101.507 37.8017 101.535C33.6956 101.563 31.2968 99.2493 31.2404 95.1292C31.198 91.0231 33.5262 88.6384 37.6323 88.5679C41.7807 88.5114 43.9114 90.9384 44.3065 94.988Z" fill="#00B159"/>
<path d="M101.693 129.361C101.396 133.354 99.3505 135.88 95.2585 136.007C91.2089 136.119 88.7819 133.862 88.4291 129.784C88.0905 125.89 91.1665 122.687 95.061 122.828C99.1529 122.983 101.284 125.311 101.693 129.361Z" fill="#00B159"/>
<path d="M129.292 78.8037C125.242 78.3804 122.928 76.2215 122.801 72.1296C122.688 68.2352 125.906 65.1732 129.8 65.5401C133.864 65.9211 136.121 68.348 135.98 72.3977C135.825 76.5038 133.285 78.5215 129.292 78.8037Z" fill="#00B159"/>
<path d="M37.999 65.5681C42.0345 66.062 44.3627 68.2914 44.2075 72.3975C44.0523 76.5177 41.5548 78.7612 37.4769 78.6201C33.3567 78.479 31.1273 75.9815 31.2543 71.8895C31.3813 67.7411 33.9493 65.7798 37.999 65.5681Z" fill="#00B159"/>
<path d="M78.7355 37.6159C78.2981 41.9196 76.1534 44.3465 72.0191 44.276C67.8989 44.2054 65.5566 41.7926 65.613 37.6724C65.6694 33.5522 68.0964 31.224 72.2025 31.2522C76.3791 31.2804 78.3545 33.8485 78.7355 37.6159Z" fill="#00B159"/>
<path d="M101.65 37.8416C101.269 41.863 99.1528 44.1912 95.0608 44.3323C91.1523 44.4734 88.1327 41.3268 88.4573 37.4183C88.7818 33.3546 91.1805 31.111 95.2302 31.2239C99.3221 31.3368 101.354 33.8343 101.65 37.8416Z" fill="#00B159"/>
<path d="M49.3579 135.47C45.7598 135.061 43.3611 133.17 43.2764 129.558C43.2059 125.96 45.4635 123.618 49.0475 123.533C52.6457 123.448 54.9879 125.72 55.0726 129.304C55.1855 132.916 52.829 134.878 49.3579 135.47Z" fill="#00B159"/>
<path d="M83.6597 146.956C80.118 146.533 77.7052 144.642 77.6205 141.016C77.55 137.404 79.8358 135.047 83.4198 134.948C87.032 134.864 89.3884 137.15 89.4872 140.748C89.6001 144.402 87.2437 146.378 83.6597 146.956Z" fill="#00B159"/>
<path d="M32.2846 83.5447C31.7061 87.2557 29.7306 89.5698 26.1325 89.471C22.5626 89.3723 20.305 87.0441 20.3897 83.4601C20.4743 79.8902 22.8166 77.6466 26.4006 77.7172C30.0129 77.7877 31.819 80.2429 32.2846 83.5447Z" fill="#00B159"/>
<path d="M83.4764 20.2745C87.004 20.6837 89.4027 22.5745 89.4591 26.1867C89.5297 29.7848 87.2579 32.1271 83.6739 32.1977C80.0758 32.2682 77.7476 29.9965 77.663 26.4125C77.5783 22.8003 79.9206 20.8389 83.4764 20.2745Z" fill="#00B159"/>
<path d="M55.1851 37.6723C54.79 41.1858 52.9134 43.5563 49.3153 43.6409C45.7313 43.7115 43.4031 41.468 43.3184 37.8981C43.2337 34.3141 45.4914 31.9859 49.0613 31.9012C52.6594 31.8025 54.6207 34.1165 55.1851 37.6723Z" fill="#00B159"/>
<path d="M124.001 129.544C123.408 133.114 121.433 135.47 117.806 135.371C114.208 135.273 111.922 132.916 112.007 129.304C112.106 125.706 114.462 123.42 118.075 123.505C121.701 123.575 123.592 126.002 124.001 129.544Z" fill="#00B159"/>
<path d="M117.849 31.7036C121.391 32.1269 123.804 34.0177 123.888 37.644C123.959 41.2562 121.673 43.6127 118.075 43.6973C114.463 43.782 112.106 41.482 112.021 37.8839C111.909 34.2576 114.265 32.2821 117.849 31.7036Z" fill="#00B159"/>
<path d="M37.6742 111.963C41.3852 112.527 43.6993 114.503 43.6005 118.101C43.5159 121.671 41.1877 123.928 37.6037 123.858C34.0338 123.773 31.7903 121.445 31.8467 117.861C31.9173 114.235 34.3583 112.428 37.6742 111.963Z" fill="#00B159"/>
<path d="M129.49 55.2819C125.948 54.8586 123.535 52.9537 123.465 49.3274C123.394 45.7152 125.68 43.3588 129.292 43.2741C132.905 43.1894 135.247 45.4894 135.346 49.0875C135.43 52.7421 133.06 54.7175 129.49 55.2819Z" fill="#00B159"/>
<path d="M43.7277 49.0449C43.3185 52.6431 41.4418 55.0277 37.8437 55.0983C34.2597 55.1688 31.9315 52.9112 31.8469 49.3413C31.7622 45.7573 34.0198 43.4432 37.5897 43.3444C41.216 43.2457 43.1491 45.6021 43.7277 49.0449Z" fill="#00B159"/>
<path d="M135.487 118.101C134.908 121.614 132.975 123.801 129.377 123.97C126.118 124.14 122.957 120.753 123.394 117.55C123.888 114.037 126.089 111.807 129.673 111.991C133.243 112.188 135.106 114.587 135.487 118.101Z" fill="#00B159"/>
<path d="M26.0474 111.977C22.5904 111.582 20.6996 109.663 20.8972 106.178C21.0947 102.65 23.2959 100.914 26.7388 101.14C29.9841 101.352 31.7197 103.37 31.6491 106.601C31.5927 110.143 29.4903 111.808 26.0474 111.977Z" fill="#00B159"/>
<path d="M106.476 20.8246C109.947 21.0927 111.965 22.8988 111.894 26.4264C111.809 29.968 109.721 31.8165 106.236 31.7177C102.976 31.6189 101.128 29.6999 101.072 26.4405C101.015 22.8988 103.005 21.0927 106.476 20.8246Z" fill="#00B159"/>
<path d="M26.626 66.1466C22.9573 65.935 20.8831 64.2135 20.8831 60.686C20.8972 57.1725 22.8867 55.2535 26.3861 55.2959C29.6314 55.3241 31.5081 57.1725 31.6492 60.4179C31.8044 63.9595 29.8149 65.7374 26.626 66.1466Z" fill="#00B159"/>
<path d="M112.021 140.889C111.612 144.614 109.651 146.519 106.151 146.321C102.596 146.124 100.832 143.88 101.058 140.409C101.269 137.135 103.315 135.386 106.575 135.428C110.173 135.499 111.767 137.686 112.021 140.889Z" fill="#00B159"/>
<path d="M60.8293 146.392C57.1183 146.081 55.1288 144.233 55.2417 140.705C55.3546 137.164 57.4711 135.343 60.9563 135.47C64.2158 135.597 66.0219 137.545 66.0642 140.804C66.1207 144.402 64.0041 146.067 60.8293 146.392Z" fill="#00B159"/>
<path d="M66.1066 26.5252C65.7115 29.9822 63.7925 31.873 60.3072 31.6754C56.7797 31.4779 55.0441 29.2767 55.2699 25.8338C55.4815 22.5885 57.4993 20.8529 60.7306 20.9235C64.2722 20.9799 65.9372 23.0823 66.1066 26.5252Z" fill="#00B159"/>
<path d="M14.83 99.8562C11.9092 99.5599 10.0325 97.9372 10.1031 94.9035C10.1595 92.1379 11.9515 90.36 14.7312 90.3459C17.7508 90.3318 19.5992 92.1943 19.5428 95.228C19.4723 97.9795 17.6662 99.5175 14.83 99.8562Z" fill="#00B159"/>
<path d="M94.8773 10.0022C97.5442 10.1856 99.4914 11.5543 99.7595 14.3482C100.042 17.4101 98.2779 19.4278 95.2724 19.5972C92.2387 19.7665 90.3056 17.8757 90.2633 14.842C90.221 12.0482 92.013 10.4537 94.8773 10.0022Z" fill="#00B159"/>
<path d="M14.6746 67.3461C17.3132 67.5154 19.2323 68.8559 19.5004 71.6356C19.7826 74.6693 18.047 76.6729 15.0556 76.8423C12.0501 76.9975 10.1311 75.1631 10.0888 72.1294C10.0606 69.3497 11.8103 67.7694 14.6746 67.3461Z" fill="#00B159"/>
<path d="M77.0136 152.247C76.7173 155.14 75.151 157.144 72.1596 157.158C69.1824 157.172 67.3057 155.267 67.3057 152.276C67.3057 149.524 69.1119 147.704 71.821 147.549C74.8124 147.379 76.5056 149.242 77.0136 152.247Z" fill="#00B159"/>
<path d="M76.9434 14.7572C76.7318 17.4663 75.2925 19.3712 72.5128 19.5829C69.465 19.8087 67.4472 18.0167 67.3484 14.9971C67.2356 11.9634 69.1546 10.0585 72.2024 10.0726C74.9821 10.1008 76.5483 11.921 76.9434 14.7572Z" fill="#00B159"/>
<path d="M95.0323 157.257C92.0973 156.876 90.136 155.253 90.2066 152.247C90.2771 149.27 92.2525 147.436 95.2439 147.535C97.9672 147.633 99.7733 149.454 99.8297 152.191C99.9003 155.211 97.9954 156.833 95.0323 157.257Z" fill="#00B159"/>
<path d="M42.0348 26.3983C41.7808 28.9946 40.4121 30.5608 37.7594 30.5467C34.8385 30.5326 33.3146 28.8111 33.498 25.9609C33.6533 23.3364 35.3324 21.9536 37.9569 22.0665C40.6096 22.1793 41.8795 23.802 42.0348 26.3983Z" fill="#00B159"/>
<path d="M26.4284 125.099C29.0388 125.381 30.5768 126.778 30.5345 129.459C30.478 132.408 28.7284 133.904 25.8499 133.692C23.1972 133.509 21.8426 131.787 21.9837 129.149C22.153 126.468 23.8039 125.212 26.4284 125.099Z" fill="#00B159"/>
<path d="M122.025 14.7008C121.814 17.0713 120.572 18.7081 118.201 18.8351C115.563 18.9762 113.912 17.3676 113.94 14.729C113.968 12.3585 115.535 10.8628 117.919 10.8346C120.332 10.8205 121.616 12.3867 122.025 14.7008Z" fill="#00B159"/>
<path d="M53.2379 14.8561C52.8993 17.1702 51.6435 18.7929 49.2871 18.807C46.6908 18.8211 45.0681 17.1702 45.2233 14.5739C45.3644 12.274 46.9448 10.7783 49.3294 10.877C51.6999 10.9758 52.9275 12.5562 53.2379 14.8561Z" fill="#00B159"/>
<path d="M37.7169 136.557C40.3414 136.74 41.9641 138.067 42.0064 140.748C42.0488 143.668 40.3979 145.263 37.4912 145.15C34.8243 145.051 33.3992 143.414 33.4556 140.776C33.5121 138.095 35.0924 136.769 37.7169 136.557Z" fill="#00B159"/>
<path d="M14.5052 113.896C17.0309 114.178 18.6677 115.406 18.7665 117.748C18.8794 120.344 17.2567 121.995 14.6604 121.939C12.3322 121.896 10.8507 120.316 10.8365 117.96C10.8224 115.547 12.4875 114.39 14.5052 113.896Z" fill="#00B159"/>
<path d="M26.4288 42.103C23.5644 41.7926 21.9982 40.438 22.0264 37.7853C22.0546 34.8645 23.7761 33.3547 26.6405 33.5381C29.265 33.7075 30.6336 35.3866 30.5208 38.0111C30.4079 40.692 28.6864 41.8491 26.4288 42.103Z" fill="#00B159"/>
<path d="M53.2804 152.515C52.8571 154.829 51.5589 156.382 49.1602 156.353C46.7755 156.325 45.2234 154.815 45.2093 152.445C45.1952 149.806 46.8602 148.212 49.4847 148.367C51.827 148.494 53.0687 150.145 53.2804 152.515Z" fill="#00B159"/>
<path d="M117.665 148.184C120.417 148.579 122.068 149.919 121.969 152.544C121.87 154.872 120.346 156.382 117.99 156.368C115.394 156.353 113.841 154.745 113.898 152.134C113.968 149.778 115.662 148.649 117.665 148.184Z" fill="#00B159"/>
<path d="M18.8372 49.3274C18.3997 51.6697 17.0875 53.2501 14.6746 53.1372C12.3041 53.0384 10.7943 51.4581 10.879 49.0735C10.9777 46.7029 12.544 45.1931 14.9427 45.2778C17.3273 45.3766 18.5691 46.9992 18.8372 49.3274Z" fill="#00B159"/>
<path d="M109.623 163.409C109.538 165.511 108.635 166.725 106.857 166.894C104.825 167.091 103.485 166.019 103.414 163.931C103.344 161.856 104.571 160.699 106.631 160.728C108.48 160.756 109.312 161.998 109.623 163.409Z" fill="#00B159"/>
<path d="M80.0474 163.874C80.3719 161.405 81.6701 160.191 83.8713 160.375C86.1148 160.558 87.2154 162.082 86.9896 164.255C86.7921 166.188 85.4939 167.317 83.4903 167.261C81.2327 167.204 80.2308 165.779 80.0474 163.874Z" fill="#00B159"/>
<path d="M63.764 163.79C63.5382 165.737 62.5082 166.95 60.4622 166.866C58.6984 166.781 57.5978 165.652 57.5978 163.888C57.5978 161.871 58.8113 160.7 60.8291 160.77C62.6069 160.827 63.5241 162.012 63.764 163.79Z" fill="#00B159"/>
<path d="M63.7223 3.41272C63.4824 5.1765 62.537 6.37587 60.745 6.38998C58.699 6.40409 57.4855 5.13417 57.6548 3.10229C57.7959 1.36673 58.9953 0.266147 60.8156 0.379028C62.5935 0.4778 63.5106 1.64894 63.7223 3.41272Z" fill="#00B159"/>
<path d="M87.0042 3.39853C86.722 5.88193 85.3392 6.98253 83.1239 6.77087C81.1202 6.57333 80.0479 5.21874 80.1749 3.21509C80.316 0.886898 81.7975 -0.185472 84.0128 0.0261819C86.0306 0.195505 86.9337 1.59242 87.0042 3.39853Z" fill="#00B159"/>
<path d="M109.637 3.27165C109.27 5.47285 108.127 6.64401 106.123 6.43235C104.416 6.24892 103.315 5.06366 103.442 3.28578C103.569 1.26801 104.853 0.167411 106.857 0.350844C108.606 0.506057 109.411 1.80419 109.637 3.27165Z" fill="#00B159"/>
<path d="M6.42015 60.6719C6.2085 62.4357 5.26313 63.6491 3.48524 63.6774C1.43926 63.7197 0.225775 62.4639 0.352767 60.4179C0.465649 58.6682 1.66501 57.5817 3.47112 57.6523C5.27723 57.7511 6.19439 58.9222 6.42015 60.6719Z" fill="#00B159"/>
<path d="M6.73068 83.6152C6.58958 85.774 5.41843 87.0298 3.16079 86.9452C1.15714 86.8746 0.0142253 85.6752 0.000115081 83.6716C-0.0139952 81.3998 1.27004 80.1864 3.52767 80.2569C5.54544 80.3134 6.57547 81.541 6.73068 83.6152Z" fill="#00B159"/>
<path d="M6.42011 106.601C6.15201 108.35 5.19254 109.55 3.40054 109.521C1.35456 109.493 0.15518 108.209 0.352724 106.177C0.522047 104.456 1.74962 103.355 3.55573 103.496C5.33362 103.637 6.26489 104.823 6.42011 106.601Z" fill="#00B159"/>
</g>
</svg>
