<svg width="129" height="42" viewBox="0 0 129 42" fill="none" xmlns="http://www.w3.org/2000/svg">
<path d="M52.1873 13.6935C52.3615 13.6935 52.5426 13.7375 52.7311 13.8249C52.9197 13.9123 53.0645 14.0367 53.1663 14.1976L58.6933 22.6771L57.7575 22.6331L63.3932 14.1976C63.6249 13.8619 63.9226 13.6935 64.2854 13.6935C64.5751 13.6935 64.8329 13.7997 65.0577 14.011C65.2824 14.2228 65.3948 14.4894 65.3948 14.8106V27.9355C65.3948 28.2568 65.2931 28.5239 65.0902 28.7352C64.8867 28.947 64.6188 29.0526 64.2848 29.0526C63.9365 29.0526 63.6574 28.947 63.447 28.7352C63.2366 28.5233 63.1317 28.2568 63.1317 27.9355V16.8271L63.8278 16.9805L59.0406 24.3203C58.9389 24.4517 58.8084 24.5649 58.6491 24.6598C58.4893 24.7553 58.3226 24.7949 58.1484 24.7805C57.9887 24.7949 57.8257 24.7553 57.659 24.6598C57.4922 24.5649 57.3575 24.4517 57.2563 24.3203L52.6432 17.0899L53.1657 16.2136V27.9355C53.1657 28.2568 53.0677 28.5239 52.8717 28.7352C52.6757 28.947 52.4179 29.0526 52.0994 29.0526C51.7947 29.0526 51.5444 28.947 51.3489 28.7352C51.1529 28.5233 51.0549 28.2568 51.0549 27.9355V14.8111C51.0549 14.5044 51.1673 14.2416 51.3921 14.0222C51.6174 13.8034 51.8826 13.6935 52.1873 13.6935Z" fill="#26262D"/>
<path d="M77.9947 17.3527C78.2993 17.3527 78.5566 17.4589 78.767 17.6702C78.9768 17.882 79.0823 18.1485 79.0823 18.4698V27.9355C79.0823 28.2568 78.9768 28.5239 78.767 28.7352C78.5566 28.947 78.2993 29.0527 77.9947 29.0527C77.6756 29.0527 77.4141 28.947 77.2112 28.7352C77.0077 28.5233 76.9065 28.2568 76.9065 27.9355V26.3577L77.3417 26.4237C77.3417 26.6865 77.2362 26.9788 77.0264 27.3C76.816 27.6213 76.5294 27.9318 76.1667 28.231C75.804 28.5303 75.3757 28.7786 74.8831 28.976C74.3899 29.1733 73.8604 29.272 73.2948 29.272C72.294 29.272 71.3944 29.013 70.5965 28.4944C69.7986 27.9758 69.1674 27.2641 68.7035 26.3583C68.2391 25.453 68.0074 24.4228 68.0074 23.2686C68.0074 22.0856 68.2391 21.0446 68.7035 20.1463C69.1674 19.248 69.7949 18.5433 70.5858 18.0322C71.3762 17.5211 72.2577 17.2653 73.2298 17.2653C73.8535 17.2653 74.4298 17.3677 74.9598 17.572C75.4892 17.7769 75.9499 18.0397 76.3414 18.3609C76.7329 18.6822 77.0375 19.0222 77.2554 19.3799C77.4732 19.7382 77.5819 20.0776 77.5819 20.3989L76.9076 20.4648V18.4709C76.9076 18.1641 77.0088 17.9013 77.2122 17.682C77.4141 17.4621 77.6751 17.3527 77.9947 17.3527ZM73.5558 27.256C74.2375 27.256 74.8357 27.0807 75.3512 26.7305C75.8663 26.3797 76.2684 25.9013 76.5587 25.2953C76.849 24.6893 76.9939 24.0136 76.9939 23.2686C76.9939 22.5092 76.8485 21.8303 76.5587 21.2307C76.2684 20.6322 75.8658 20.157 75.3512 19.8063C74.8362 19.4555 74.2375 19.2807 73.5558 19.2807C72.8884 19.2807 72.2934 19.4561 71.7715 19.8063C71.249 20.157 70.8431 20.6316 70.5528 21.2307C70.2625 21.8297 70.1177 22.5092 70.1177 23.2686C70.1177 24.0136 70.2625 24.6893 70.5528 25.2953C70.8431 25.9013 71.2452 26.3797 71.7603 26.7305C72.2753 27.0812 72.8735 27.256 73.5558 27.256Z" fill="#26262D"/>
<path d="M81.4327 27.256C81.3022 27.0517 81.2442 26.8147 81.2585 26.5438C81.2729 26.2735 81.4253 26.0434 81.7155 25.8536C81.9185 25.7222 82.1326 25.6675 82.3574 25.6895C82.5821 25.7115 82.7962 25.8246 82.9992 26.029C83.405 26.4821 83.8588 26.8399 84.359 27.1026C84.8596 27.3654 85.4652 27.4968 86.1758 27.4968C86.4661 27.4823 86.7633 27.4346 87.0679 27.3542C87.3726 27.2743 87.6336 27.1279 87.8514 26.916C88.0693 26.7042 88.1779 26.3937 88.1779 25.985C88.1779 25.6203 88.0618 25.3275 87.8296 25.1087C87.5974 24.8893 87.2927 24.7107 86.9156 24.5718C86.538 24.4335 86.1321 24.3053 85.6969 24.1884C85.2325 24.057 84.7648 23.9111 84.2935 23.7502C83.8221 23.5899 83.3976 23.3812 83.0205 23.126C82.6428 22.8707 82.335 22.5382 82.0958 22.129C81.8567 21.7203 81.7368 21.2162 81.7368 20.6171C81.7368 19.9307 81.9291 19.3391 82.3137 18.8425C82.6977 18.3459 83.1984 17.9587 83.8152 17.6814C84.4314 17.4042 85.1025 17.2653 85.828 17.2653C86.2487 17.2653 86.6908 17.32 87.1553 17.4294C87.6192 17.5388 88.0693 17.7109 88.5044 17.9442C88.9396 18.178 89.3167 18.4848 89.6357 18.8645C89.7806 19.0544 89.8642 19.2807 89.8861 19.544C89.9079 19.8068 89.7881 20.0406 89.5271 20.245C89.3529 20.3914 89.1425 20.4568 88.8959 20.4423C88.6493 20.4278 88.4458 20.3474 88.2866 20.2015C88.0107 19.8508 87.6554 19.5773 87.2203 19.3799C86.7851 19.1825 86.2919 19.0839 85.7406 19.0839C85.4647 19.0839 85.1782 19.1241 84.881 19.2045C84.5837 19.285 84.3334 19.4276 84.1305 19.632C83.927 19.8368 83.8258 20.1361 83.8258 20.5303C83.8258 20.8955 83.9457 21.1878 84.1848 21.4066C84.424 21.6259 84.7398 21.8083 85.1313 21.9541C85.5228 22.1006 85.9505 22.232 86.4149 22.3483C86.8645 22.4652 87.3103 22.6041 87.7534 22.7645C88.1955 22.9254 88.5944 23.1335 88.9502 23.3888C89.3055 23.6446 89.5958 23.9733 89.8205 24.3745C90.0453 24.7762 90.1577 25.2835 90.1577 25.897C90.1577 26.613 89.951 27.2228 89.5377 27.7264C89.1244 28.2305 88.6019 28.6139 87.9707 28.8767C87.3396 29.1395 86.6759 29.2709 85.9798 29.2709C85.1531 29.2709 84.3292 29.1207 83.51 28.8215C82.6908 28.5238 81.9984 28.0015 81.4327 27.256Z" fill="#26262D"/>
<path d="M91.8339 27.256C91.7034 27.0517 91.6454 26.8147 91.6597 26.5438C91.6741 26.2735 91.8264 26.0434 92.1167 25.8536C92.3197 25.7222 92.5338 25.6675 92.7585 25.6895C92.9833 25.7115 93.1974 25.8246 93.4004 26.029C93.8062 26.4821 94.26 26.8399 94.7602 27.1026C95.2608 27.3654 95.8664 27.4968 96.5769 27.4968C96.8672 27.4823 97.1644 27.4346 97.4691 27.3542C97.7738 27.2743 98.0347 27.1279 98.2526 26.916C98.4704 26.7042 98.5791 26.3937 98.5791 25.985C98.5791 25.6203 98.463 25.3275 98.2308 25.1087C97.9985 24.8893 97.6939 24.7107 97.3168 24.5718C96.9391 24.4335 96.5333 24.3053 96.0981 24.1884C95.6337 24.057 95.166 23.9111 94.6946 23.7502C94.2233 23.5899 93.7988 23.3812 93.4217 23.126C93.044 22.8707 92.7362 22.5382 92.497 22.129C92.2579 21.7203 92.138 21.2162 92.138 20.6171C92.138 19.9307 92.3303 19.3391 92.7149 18.8425C93.0989 18.3459 93.5996 17.9587 94.2163 17.6814C94.8326 17.4042 95.5037 17.2653 96.2291 17.2653C96.6499 17.2653 97.092 17.32 97.5564 17.4294C98.0204 17.5388 98.4704 17.7109 98.9056 17.9442C99.3407 18.178 99.7178 18.4848 100.037 18.8645C100.182 19.0544 100.265 19.2807 100.287 19.544C100.309 19.8068 100.189 20.0406 99.9282 20.245C99.7541 20.3914 99.5437 20.4568 99.2971 20.4423C99.0505 20.4278 98.847 20.3474 98.6877 20.2015C98.4118 19.8508 98.0566 19.5773 97.6214 19.3799C97.1863 19.1825 96.6931 19.0839 96.1418 19.0839C95.8659 19.0839 95.5793 19.1241 95.2821 19.2045C94.9849 19.285 94.7346 19.4276 94.5317 19.632C94.3282 19.8368 94.227 20.1361 94.227 20.5303C94.227 20.8955 94.3468 21.1878 94.586 21.4066C94.8251 21.6259 95.141 21.8083 95.5325 21.9541C95.9239 22.1006 96.3516 22.232 96.8161 22.3483C97.2656 22.4652 97.7114 22.6041 98.1546 22.7645C98.5967 22.9254 98.9956 23.1335 99.3514 23.3888C99.7067 23.6446 99.9969 23.9733 100.222 24.3745C100.446 24.7762 100.559 25.2835 100.559 25.897C100.559 26.613 100.352 27.2228 99.9389 27.7264C99.5256 28.2305 99.0031 28.6139 98.3719 28.8767C97.7407 29.1395 97.0771 29.2709 96.3809 29.2709C95.5543 29.2709 94.7303 29.1207 93.9111 28.8215C93.0925 28.5238 92.3996 28.0015 91.8339 27.256Z" fill="#26262D"/>
<path d="M109.83 13.7155C111.164 13.7155 112.176 14.0442 112.865 14.7012C113.554 15.3587 113.899 16.3155 113.899 17.5715C113.899 18.229 113.743 18.8243 113.431 19.3574C113.119 19.891 112.662 20.3104 112.06 20.6171C111.458 20.9239 110.708 21.0848 109.808 21.0993L109.852 20.2884C110.33 20.2884 110.849 20.3543 111.407 20.4857C111.966 20.6171 112.492 20.844 112.985 21.1652C113.478 21.4865 113.884 21.9209 114.204 22.469C114.523 23.0166 114.683 23.6998 114.683 24.5177C114.683 25.409 114.537 26.1502 114.247 26.7417C113.957 27.3333 113.573 27.7972 113.094 28.1329C112.615 28.4691 112.09 28.7062 111.517 28.8451C110.943 28.984 110.382 29.0532 109.83 29.0532H104.26C103.955 29.0532 103.694 28.9475 103.476 28.7357C103.258 28.5238 103.15 28.2573 103.15 27.9361V14.8331C103.15 14.5119 103.258 14.2453 103.476 14.0335C103.693 13.8216 103.955 13.716 104.26 13.716H109.83V13.7155ZM109.525 15.8628H105.238L105.499 15.5121V20.223L105.26 19.9822H109.569C110.091 19.9677 110.551 19.7885 110.95 19.4453C111.349 19.1021 111.549 18.5947 111.549 17.9228C111.549 17.2363 111.367 16.7214 111.005 16.3782C110.642 16.035 110.149 15.8628 109.525 15.8628ZM109.677 22.1295H105.347L105.499 21.9761V27.1472L105.325 26.9498H109.808C110.562 26.9498 111.171 26.7492 111.636 26.3475C112.1 25.9458 112.332 25.3361 112.332 24.5182C112.332 23.8317 112.194 23.3206 111.919 22.9844C111.643 22.6487 111.302 22.4223 110.896 22.3049C110.49 22.188 110.083 22.1295 109.677 22.1295Z" fill="#26262D"/>
<path d="M118.077 15.9942C117.656 15.9942 117.351 15.9175 117.163 15.7641C116.974 15.6107 116.88 15.3517 116.88 14.9865V14.6357C116.88 14.2711 116.981 14.0152 117.185 13.8688C117.388 13.723 117.692 13.65 118.099 13.65C118.534 13.65 118.845 13.7267 119.035 13.8801C119.223 14.0335 119.317 14.2855 119.317 14.6357V14.9865C119.317 15.3667 119.219 15.6295 119.023 15.7754C118.827 15.9213 118.512 15.9942 118.077 15.9942ZM119.186 27.9355C119.186 28.2568 119.085 28.5238 118.882 28.7351C118.678 28.947 118.417 29.0526 118.098 29.0526C117.794 29.0526 117.536 28.947 117.326 28.7351C117.115 28.5233 117.011 28.2568 117.011 27.9355V18.5577C117.011 18.2365 117.115 17.9699 117.326 17.7581C117.536 17.5463 117.794 17.4406 118.098 17.4406C118.417 17.4406 118.678 17.5468 118.882 17.7581C119.085 17.9699 119.186 18.2365 119.186 18.5577V27.9355Z" fill="#26262D"/>
<path d="M121.971 17.6594H127.085C127.375 17.6594 127.618 17.7581 127.814 17.9554C128.01 18.1528 128.108 18.3974 128.108 18.6896C128.108 18.9674 128.01 19.2013 127.814 19.3906C127.618 19.5804 127.375 19.6754 127.085 19.6754H121.971C121.681 19.6754 121.438 19.5767 121.242 19.3799C121.046 19.1825 120.949 18.9455 120.949 18.6677C120.949 18.3754 121.047 18.1346 121.242 17.9447C121.438 17.7549 121.681 17.6594 121.971 17.6594ZM124.256 14.8111C124.575 14.8111 124.836 14.9173 125.04 15.1286C125.243 15.3404 125.345 15.607 125.345 15.9282V26.0949C125.345 26.3577 125.388 26.5695 125.475 26.7304C125.562 26.8913 125.682 27.0007 125.834 27.0592C125.986 27.1176 126.142 27.1466 126.302 27.1466C126.461 27.1466 126.603 27.1176 126.726 27.0592C126.849 27.0013 126.998 26.9718 127.173 26.9718C127.347 26.9718 127.506 27.0522 127.651 27.2126C127.796 27.3735 127.869 27.5928 127.869 27.8701C127.869 28.2208 127.681 28.5056 127.304 28.7244C126.926 28.9432 126.52 29.0532 126.085 29.0532C125.838 29.0532 125.548 29.0312 125.215 28.9872C124.881 28.9432 124.558 28.8338 124.246 28.6584C123.934 28.4831 123.677 28.202 123.474 27.8148C123.271 27.4282 123.169 26.8838 123.169 26.1823V15.9282C123.169 15.607 123.274 15.3404 123.485 15.1286C123.694 14.9173 123.952 14.8111 124.256 14.8111Z" fill="#26262D"/>
<path d="M20.8561 42C32.3745 42 41.7121 32.598 41.7121 21C41.7121 9.40202 32.3745 0 20.8561 0C9.33757 0 0 9.40202 0 21C0 32.598 9.33757 42 20.8561 42Z" fill="#2C3ACF"/>
<path d="M7.30707 27.6678C7.23303 27.6678 7.1574 27.6523 7.08602 27.619C6.81865 27.4957 6.70094 27.1776 6.82344 26.9084L13.6054 11.9853C13.7279 11.716 14.0437 11.5975 14.3111 11.7209C14.5785 11.8442 14.6962 12.1622 14.5737 12.4315L7.79175 27.3546C7.70227 27.5514 7.50946 27.6678 7.30707 27.6678Z" fill="white"/>
<path d="M20.8725 27.6678C20.6707 27.6678 20.4773 27.5514 20.3878 27.3546L13.6054 12.4315C13.4829 12.1622 13.6006 11.8437 13.8679 11.7209C14.1353 11.5975 14.4517 11.716 14.5737 11.9853L21.3561 26.9084C21.4786 27.1776 21.3609 27.4962 21.0936 27.619C21.0217 27.6523 20.9466 27.6678 20.8725 27.6678Z" fill="white"/>
<path d="M20.8715 27.6678C20.7974 27.6678 20.7218 27.6523 20.6504 27.619C20.383 27.4957 20.2653 27.1776 20.3878 26.9084L27.1703 11.9853C27.2928 11.716 27.6087 11.5975 27.876 11.7209C28.1434 11.8442 28.2611 12.1622 28.1386 12.4315L21.3561 27.3546C21.2667 27.552 21.0739 27.6678 20.8715 27.6678Z" fill="white"/>
<path d="M34.4375 27.6678C34.2356 27.6678 34.0422 27.5514 33.9528 27.3546L27.1703 12.4315C27.0478 12.1622 27.1655 11.8437 27.4329 11.7209C27.7003 11.5975 28.0166 11.716 28.1386 11.9853L34.9211 26.9084C35.0436 27.1776 34.9259 27.4962 34.6585 27.619C34.5866 27.6523 34.5115 27.6678 34.4375 27.6678Z" fill="white"/>
<path d="M7.27406 29.7916C8.39805 29.7916 9.30922 28.902 9.30922 27.8046C9.30922 26.7072 8.39805 25.8176 7.27406 25.8176C6.15007 25.8176 5.23889 26.7072 5.23889 27.8046C5.23889 28.902 6.15007 29.7916 7.27406 29.7916Z" fill="white"/>
<path d="M20.856 29.7916C21.98 29.7916 22.8912 28.902 22.8912 27.8046C22.8912 26.7072 21.98 25.8176 20.856 25.8176C19.732 25.8176 18.8209 26.7072 18.8209 27.8046C18.8209 28.902 19.732 29.7916 20.856 29.7916Z" fill="white"/>
<path d="M34.438 29.7916C35.562 29.7916 36.4732 28.902 36.4732 27.8046C36.4732 26.7072 35.562 25.8176 34.438 25.8176C33.314 25.8176 32.4028 26.7072 32.4028 27.8046C32.4028 28.902 33.314 29.7916 34.438 29.7916Z" fill="white"/>
</svg>
