<svg width="165" height="202" viewBox="0 0 165 202" fill="none" xmlns="http://www.w3.org/2000/svg">
<g opacity="0.4">
<path d="M104.698 -35L200.848 61.1498C174.301 87.6965 131.245 87.6965 104.698 61.1498C78.1514 34.603 78.1514 -8.43952 104.698 -35Z" fill="#FBAF1D"/>
<path d="M46.8697 86.4403L32.515 23.0556C50.0154 17.3779 67.4214 26.9655 71.3847 44.4659C75.348 61.9663 64.3736 80.7566 46.8697 86.4403Z" fill="#FBAF1D"/>
<path d="M42.185 121.514L95.8277 100.72C99.9235 115.53 91.2344 132.197 76.4238 137.938C61.6131 143.68 46.2858 136.327 42.185 121.514Z" fill="#FBAF1D"/>
<path d="M204.857 136.2L114.931 176.014C106.914 151.186 120.547 122.137 145.375 111.144C170.204 100.152 196.831 111.368 204.857 136.2Z" fill="#FBAF1D"/>
</g>
</svg>
