<svg width="776" height="252" viewBox="0 0 776 252" fill="none" xmlns="http://www.w3.org/2000/svg">
<path d="M313.933 78.9137C314.981 78.9137 316.07 79.1776 317.204 79.7021C318.338 80.2266 319.21 80.9731 319.822 81.9384L353.07 132.815L347.44 132.551L381.342 81.9384C382.736 79.9241 384.527 78.9137 386.709 78.9137C388.452 78.9137 390.002 79.5508 391.355 80.8186C392.707 82.0897 393.383 83.6889 393.383 85.6164V164.366C393.383 166.293 392.771 167.896 391.55 169.164C390.326 170.435 388.714 171.069 386.706 171.069C384.61 171.069 382.931 170.435 381.666 169.164C380.4 167.893 379.769 166.293 379.769 164.366V97.7154L383.957 98.6357L355.159 142.675C354.547 143.463 353.762 144.142 352.804 144.712C351.843 145.284 350.84 145.522 349.792 145.436C348.831 145.522 347.851 145.284 346.848 144.712C345.845 144.142 345.034 143.463 344.425 142.675L316.675 99.2921L319.819 94.0342V164.366C319.819 166.293 319.229 167.896 318.05 169.164C316.871 170.435 315.32 171.069 313.404 171.069C311.571 171.069 310.066 170.435 308.89 169.164C307.711 167.893 307.121 166.293 307.121 164.366V85.6196C307.121 83.779 307.797 82.2023 309.149 80.8862C310.505 79.5733 312.1 78.9137 313.933 78.9137Z" fill="white"/>
<path d="M469.177 100.869C471.01 100.869 472.557 101.506 473.823 102.774C475.085 104.045 475.72 105.644 475.72 107.572V164.366C475.72 166.294 475.085 167.896 473.823 169.164C472.557 170.435 471.01 171.069 469.177 171.069C467.258 171.069 465.685 170.435 464.464 169.164C463.24 167.893 462.631 166.294 462.631 164.366V154.899L465.249 155.295C465.249 156.872 464.614 158.625 463.352 160.553C462.087 162.48 460.363 164.344 458.181 166.139C455.999 167.935 453.423 169.424 450.459 170.609C447.492 171.793 444.307 172.385 440.905 172.385C434.884 172.385 429.473 170.831 424.673 167.719C419.874 164.607 416.077 160.337 413.286 154.902C410.492 149.471 409.098 143.289 409.098 136.365C409.098 129.266 410.492 123.02 413.286 117.63C416.077 112.241 419.851 108.012 424.609 104.946C429.364 101.879 434.667 100.344 440.514 100.344C444.266 100.344 447.733 100.959 450.921 102.185C454.105 103.414 456.877 104.991 459.232 106.918C461.587 108.846 463.419 110.886 464.73 113.032C466.04 115.182 466.694 117.219 466.694 119.146L462.638 119.542V107.578C462.638 105.737 463.246 104.161 464.47 102.845C465.685 101.525 467.255 100.869 469.177 100.869ZM442.475 160.289C446.576 160.289 450.174 159.237 453.275 157.136C456.374 155.031 458.793 152.161 460.539 148.525C462.285 144.889 463.157 140.834 463.157 136.365C463.157 131.808 462.282 127.734 460.539 124.137C458.793 120.546 456.371 117.695 453.275 115.59C450.177 113.486 446.576 112.437 442.475 112.437C438.46 112.437 434.881 113.489 431.741 115.59C428.598 117.695 426.157 120.543 424.41 124.137C422.664 127.731 421.793 131.808 421.793 136.365C421.793 140.834 422.664 144.889 424.41 148.525C426.157 152.161 428.576 155.031 431.674 157.136C434.772 159.24 438.37 160.289 442.475 160.289Z" fill="white"/>
<path d="M489.859 160.289C489.074 159.063 488.725 157.641 488.811 156.016C488.898 154.394 489.814 153.014 491.56 151.874C492.781 151.086 494.069 150.758 495.421 150.89C496.773 151.022 498.061 151.701 499.282 152.927C501.723 155.646 504.453 157.792 507.462 159.369C510.474 160.945 514.117 161.734 518.391 161.734C520.137 161.647 521.925 161.361 523.757 160.878C525.59 160.398 527.16 159.52 528.471 158.249C529.781 156.978 530.435 155.115 530.435 152.663C530.435 150.475 529.736 148.718 528.339 147.405C526.942 146.089 525.11 145.017 522.841 144.184C520.569 143.354 518.128 142.585 515.51 141.883C512.716 141.095 509.903 140.219 507.068 139.254C504.232 138.292 501.679 137.04 499.41 135.509C497.138 133.977 495.286 131.982 493.848 129.527C492.409 127.075 491.688 124.05 491.688 120.456C491.688 116.337 492.845 112.788 495.158 109.808C497.468 106.828 500.48 104.505 504.19 102.841C507.898 101.178 511.935 100.344 516.298 100.344C518.83 100.344 521.489 100.673 524.283 101.329C527.074 101.985 529.781 103.018 532.399 104.418C535.016 105.821 537.285 107.662 539.204 109.94C540.076 111.079 540.579 112.437 540.71 114.017C540.841 115.594 540.12 116.997 538.55 118.223C537.503 119.101 536.237 119.494 534.754 119.407C533.27 119.32 532.046 118.837 531.088 117.962C529.429 115.857 527.292 114.216 524.674 113.032C522.056 111.848 519.089 111.256 515.773 111.256C514.113 111.256 512.39 111.497 510.602 111.98C508.814 112.463 507.308 113.319 506.087 114.545C504.863 115.774 504.255 117.569 504.255 119.934C504.255 122.126 504.975 123.879 506.414 125.192C507.853 126.508 509.753 127.602 512.108 128.478C514.463 129.356 517.035 130.145 519.829 130.843C522.534 131.544 525.215 132.378 527.881 133.34C530.54 134.305 532.94 135.554 535.08 137.085C537.218 138.62 538.964 140.593 540.316 143C541.668 145.41 542.344 148.454 542.344 152.135C542.344 156.431 541.101 160.089 538.615 163.111C536.128 166.136 532.985 168.436 529.188 170.013C525.392 171.59 521.399 172.378 517.212 172.378C512.239 172.378 507.282 171.477 502.355 169.682C497.427 167.896 493.262 164.762 489.859 160.289Z" fill="white"/>
<path d="M552.427 160.289C551.642 159.063 551.293 157.641 551.379 156.016C551.466 154.394 552.382 153.014 554.128 151.874C555.349 151.086 556.637 150.758 557.989 150.89C559.341 151.022 560.629 151.701 561.85 152.927C564.291 155.646 567.021 157.792 570.03 159.369C573.042 160.945 576.685 161.734 580.959 161.734C582.705 161.647 584.493 161.361 586.326 160.878C588.158 160.398 589.728 159.52 591.039 158.249C592.349 156.978 593.003 155.115 593.003 152.663C593.003 150.475 592.304 148.718 590.907 147.405C589.51 146.089 587.678 145.017 585.409 144.184C583.138 143.354 580.696 142.585 578.078 141.883C575.284 141.095 572.471 140.219 569.636 139.254C566.8 138.292 564.247 137.04 561.978 135.509C559.707 133.977 557.855 131.982 556.416 129.527C554.977 127.075 554.256 124.05 554.256 120.456C554.256 116.337 555.413 112.788 557.726 109.808C560.037 106.828 563.048 104.505 566.759 102.841C570.466 101.178 574.503 100.344 578.867 100.344C581.398 100.344 584.057 100.673 586.851 101.329C589.642 101.985 592.349 103.018 594.967 104.418C597.584 105.821 599.853 107.662 601.772 109.94C602.644 111.079 603.147 112.437 603.278 114.017C603.409 115.594 602.688 116.997 601.118 118.223C600.071 119.101 598.805 119.494 597.322 119.407C595.838 119.32 594.614 118.837 593.656 117.962C591.997 115.857 589.86 114.216 587.242 113.032C584.624 111.848 581.657 111.256 578.341 111.256C576.681 111.256 574.958 111.497 573.17 111.98C571.382 112.463 569.876 113.319 568.655 114.545C567.431 115.774 566.823 117.569 566.823 119.934C566.823 122.126 567.544 123.879 568.982 125.192C570.421 126.508 572.321 127.602 574.676 128.478C577.031 129.356 579.603 130.145 582.397 130.843C585.102 131.544 587.783 132.378 590.449 133.34C593.108 134.305 595.508 135.554 597.649 137.085C599.786 138.62 601.532 140.593 602.884 143C604.236 145.41 604.912 148.454 604.912 152.135C604.912 156.431 603.669 160.089 601.183 163.111C598.696 166.136 595.553 168.436 591.756 170.013C587.96 171.59 583.967 172.378 579.78 172.378C574.807 172.378 569.85 171.477 564.923 169.682C559.998 167.896 555.83 164.762 552.427 160.289Z" fill="white"/>
<path d="M660.681 79.0458C668.707 79.0458 674.795 81.0184 678.941 84.9602C683.084 88.9052 685.16 94.6458 685.16 102.182C685.16 106.127 684.221 109.699 682.347 112.897C680.469 116.099 677.72 118.615 674.099 120.456C670.476 122.297 665.961 123.262 660.55 123.349L660.812 118.483C663.693 118.483 666.81 118.879 670.171 119.668C673.529 120.456 676.695 121.817 679.662 123.745C682.629 125.672 685.07 128.278 686.992 131.567C688.912 134.852 689.873 138.952 689.873 143.859C689.873 149.207 688.998 153.654 687.255 157.203C685.509 160.753 683.196 163.536 680.318 165.55C677.438 167.568 674.276 168.99 670.828 169.824C667.381 170.657 664 171.072 660.684 171.072H627.173C625.341 171.072 623.771 170.438 622.46 169.167C621.15 167.896 620.496 166.297 620.496 164.369V85.7518C620.496 83.8243 621.15 82.225 622.46 80.954C623.768 79.683 625.341 79.0491 627.173 79.0491H660.681V79.0458ZM658.848 91.93H633.062L634.632 89.8255V118.091L633.194 116.646H659.111C662.254 116.559 665.022 115.484 667.422 113.425C669.822 111.366 671.02 108.322 671.02 104.29C671.02 100.171 669.928 97.0817 667.749 95.0223C665.567 92.9629 662.6 91.93 658.848 91.93ZM659.765 129.53H633.716L634.632 128.61V159.636L633.585 158.452H660.55C665.087 158.452 668.752 157.248 671.546 154.838C674.337 152.428 675.734 148.769 675.734 143.862C675.734 139.744 674.904 136.677 673.247 134.659C671.588 132.645 669.537 131.287 667.095 130.582C664.651 129.881 662.206 129.53 659.765 129.53Z" fill="white"/>
<path d="M710.292 92.7182C707.761 92.7182 705.928 92.2581 704.794 91.3378C703.659 90.4175 703.092 88.8633 703.092 86.6719V84.5675C703.092 82.3794 703.701 80.8445 704.925 79.966C706.146 79.0908 707.979 78.6531 710.423 78.6531C713.041 78.6531 714.915 79.1133 716.053 80.0336C717.187 80.9539 717.754 82.4663 717.754 84.5675V86.6719C717.754 88.9534 717.164 90.5301 715.985 91.4053C714.806 92.2806 712.91 92.7182 710.292 92.7182ZM716.966 164.366C716.966 166.294 716.354 167.896 715.133 169.164C713.909 170.435 712.339 171.069 710.42 171.069C708.587 171.069 707.037 170.435 705.774 169.164C704.509 167.893 703.877 166.294 703.877 164.366V108.099C703.877 106.172 704.509 104.573 705.774 103.302C707.037 102.031 708.587 101.397 710.42 101.397C712.339 101.397 713.909 102.034 715.133 103.302C716.354 104.573 716.966 106.172 716.966 108.099V164.366Z" fill="white"/>
<path d="M733.72 102.71H764.481C766.228 102.71 767.689 103.302 768.868 104.486C770.047 105.67 770.633 107.137 770.633 108.891C770.633 110.558 770.044 111.961 768.868 113.097C767.689 114.236 766.228 114.805 764.481 114.805H733.72C731.973 114.805 730.512 114.213 729.333 113.032C728.154 111.848 727.568 110.426 727.568 108.759C727.568 107.005 728.157 105.561 729.333 104.421C730.512 103.282 731.973 102.71 733.72 102.71ZM747.465 85.6197C749.384 85.6197 750.954 86.2568 752.178 87.5246C753.399 88.7957 754.011 90.3949 754.011 92.3224V153.323C754.011 154.899 754.273 156.17 754.796 157.136C755.318 158.101 756.039 158.757 756.955 159.108C757.872 159.459 758.807 159.633 759.768 159.633C760.726 159.633 761.579 159.459 762.322 159.108C763.062 158.761 763.959 158.584 765.007 158.584C766.055 158.584 767.013 159.066 767.887 160.029C768.759 160.994 769.198 162.31 769.198 163.974C769.198 166.078 768.064 167.787 765.795 169.1C763.527 170.412 761.082 171.072 758.464 171.072C756.981 171.072 755.235 170.94 753.229 170.676C751.22 170.412 749.278 169.756 747.404 168.704C745.526 167.652 743.979 165.965 742.758 163.642C741.534 161.322 740.925 158.056 740.925 153.847V92.3224C740.925 90.3949 741.557 88.7957 742.822 87.5246C744.081 86.2568 745.632 85.6197 747.465 85.6197Z" fill="white"/>
<path d="M248.919 126C248.919 194.491 193.636 250 125.46 250C57.2829 250 2 194.491 2 126C2 57.5086 57.2829 2 125.46 2C193.636 2 248.919 57.5086 248.919 126Z" stroke="white" stroke-width="4"/>
<path d="M43.9559 166.007C43.5105 166.007 43.0555 165.914 42.6262 165.714C41.0178 164.974 40.3097 163.066 41.0466 161.451L81.8434 71.9117C82.5803 70.2963 84.4803 69.5852 86.0887 70.3253C87.6971 71.0654 88.4052 72.9735 87.6683 74.5889L46.8715 164.128C46.3332 165.309 45.1734 166.007 43.9559 166.007Z" fill="white"/>
<path d="M125.559 166.007C124.345 166.007 123.182 165.309 122.643 164.128L81.8435 74.5889C81.1065 72.9735 81.8146 71.0622 83.423 70.3253C85.0315 69.5852 86.9346 70.2963 87.6684 71.9117L128.468 161.451C129.205 163.066 128.497 164.977 126.889 165.714C126.456 165.914 126.004 166.007 125.559 166.007Z" fill="white"/>
<path d="M125.552 166.007C125.107 166.007 124.652 165.914 124.223 165.714C122.614 164.974 121.906 163.066 122.643 161.451L163.443 71.9117C164.18 70.2963 166.08 69.5852 167.689 70.3253C169.297 71.0654 170.005 72.9735 169.268 74.5889L128.468 164.128C127.93 165.312 126.77 166.007 125.552 166.007Z" fill="white"/>
<path d="M207.159 166.007C205.944 166.007 204.781 165.309 204.243 164.128L163.443 74.5889C162.706 72.9735 163.414 71.0622 165.023 70.3253C166.631 69.5852 168.534 70.2963 169.268 71.9117L210.068 161.451C210.805 163.066 210.097 164.977 208.488 165.714C208.056 165.914 207.604 166.007 207.159 166.007Z" fill="white"/>
<path d="M43.7573 178.75C50.5186 178.75 55.9998 173.412 55.9998 166.828C55.9998 160.243 50.5186 154.906 43.7573 154.906C36.9959 154.906 31.5147 160.243 31.5147 166.828C31.5147 173.412 36.9959 178.75 43.7573 178.75Z" fill="white"/>
<path d="M125.46 178.75C132.221 178.75 137.702 173.412 137.702 166.828C137.702 160.243 132.221 154.906 125.46 154.906C118.698 154.906 113.217 160.243 113.217 166.828C113.217 173.412 118.698 178.75 125.46 178.75Z" fill="white"/>
<path d="M207.162 178.75C213.923 178.75 219.405 173.412 219.405 166.828C219.405 160.243 213.923 154.906 207.162 154.906C200.401 154.906 194.92 160.243 194.92 166.828C194.92 173.412 200.401 178.75 207.162 178.75Z" fill="white"/>
</svg>
