<svg width="948" height="495" viewBox="0 0 948 495" fill="none" xmlns="http://www.w3.org/2000/svg">
<path opacity="0.81" d="M15.5303 236.853C-2.04114 225.011 -5.14993 203.038 8.5017 187.907C22.1533 172.644 57.0258 159.355 74.5972 171.328C92.1686 183.17 71.6236 207.643 68.1093 226.721C63.2434 253.168 33.1017 248.695 15.5303 236.853Z" fill="#F1F6FF"/>
<path opacity="0.47" d="M919.376 395.53C906.536 392.109 899.372 380.267 903.292 369.215C907.212 358.031 923.702 344.084 936.542 347.505C949.383 350.926 943.841 368.557 946.545 380.004C950.329 395.925 932.217 399.083 919.376 395.53Z" fill="#F1F6FF"/>
<path d="M936.407 46.7278C929.648 65.543 906.67 76.0691 884.909 70.2798C863.147 64.4904 835.979 40.5437 842.737 21.7285C849.496 2.91319 883.828 11.0709 905.995 6.99203C937.082 1.33429 943.165 27.9125 936.407 46.7278Z" fill="#F1F6FF"/>
<path d="M844.464 404.031C852.704 369.907 839.736 340.852 836.629 307.47C833.657 275.819 847.031 249.114 854.461 218.946C861.08 192.117 859.054 161.702 850.813 135.368C839.736 99.3891 813.934 66.1307 776.65 45.8543C718.698 14.2032 641.158 18.1596 576.857 40.0433C549.975 49.1925 523.903 61.4325 495.13 64.5235C453.118 69.098 412.322 53.8907 371.39 44.7415C315.734 32.3778 254.675 31.5124 201.992 51.4179C142.418 73.9199 99.8659 124.611 104.594 180.248C106.755 205.47 118.103 230.321 114.05 255.419C109.862 280.888 91.8958 302.154 82.4397 326.139C68.3907 361.623 44.8752 386.453 94.4625 448.046C144.05 509.638 803.398 475.066 823.931 448.046C844.464 421.025 840.682 419.609 844.464 404.031Z" fill="#F1F6FF"/>
<path opacity="0.47" d="M937.709 206.144C933.25 168.554 911.905 130.964 874.753 104.008C816.795 62.2141 728.981 51.7037 652.109 61.4722C619.821 65.5527 587.937 72.8481 554.973 70.6223C506.878 67.4074 464.592 44.7792 420.82 28.2099C361.241 5.7054 292.881 -6.41243 229.519 3.47968C157.511 14.732 98.4731 56.8971 91.448 112.787C88.2056 138.136 120.494 182.65 110.227 206.639C99.8241 230.998 24.0335 305.56 25.7898 362.192C27.6812 420.927 63.2256 466.007 72.5341 468.409C81.8426 470.811 86.1905 471.767 94.7026 472.888C147.277 479.812 323.3 486.043 465.751 486.043C608.201 486.043 685.045 509.307 819.778 480.85C836.042 477.415 840.559 483.599 865.166 465.964C889.773 448.33 901.907 413.508 883.129 373.444C868.808 342.903 907.852 317.801 922.983 289.362C936.493 264.013 940.951 233.718 937.709 206.144Z" fill="#F1F6FF"/>
<path opacity="0.58" d="M135.997 396.146C137.88 396.146 139.407 394.66 139.407 392.827C139.407 390.993 137.88 389.507 135.997 389.507C134.114 389.507 132.588 390.993 132.588 392.827C132.588 394.66 134.114 396.146 135.997 396.146Z" fill="#FBAF1D"/>
<path opacity="0.58" d="M226.914 144.592C228.797 144.592 230.324 143.106 230.324 141.273C230.324 139.439 228.797 137.953 226.914 137.953C225.031 137.953 223.505 139.439 223.505 141.273C223.505 143.106 225.031 144.592 226.914 144.592Z" fill="#FBAF1D"/>
<path opacity="0.58" d="M105.312 252.295C106.986 252.295 108.343 250.974 108.343 249.344C108.343 247.715 106.986 246.394 105.312 246.394C103.639 246.394 102.282 247.715 102.282 249.344C102.282 250.974 103.639 252.295 105.312 252.295Z" fill="#00B159"/>
<path d="M190.197 145.615C194.284 141.636 194.284 135.185 190.197 131.206C186.111 127.227 179.485 127.227 175.399 131.206C171.313 135.185 171.313 141.636 175.399 145.615C179.485 149.593 186.111 149.593 190.197 145.615Z" fill="#2C3ACF"/>
<path d="M46.9373 222.779C46.7253 223.811 45.6649 224.429 44.7106 224.223C43.6503 224.017 43.0141 222.986 43.2262 222.058C43.4382 221.026 44.4986 220.407 45.4529 220.614C46.4072 220.82 47.1494 221.851 46.9373 222.779Z" fill="#2C3ACF"/>
<path d="M796.814 172.544C800.162 172.544 802.875 169.901 802.875 166.642C802.875 163.382 800.162 160.74 796.814 160.74C793.467 160.74 790.753 163.382 790.753 166.642C790.753 169.901 793.467 172.544 796.814 172.544Z" fill="#2C3ACF"/>
<path d="M522.061 83.8033C525.409 83.8033 528.122 81.161 528.122 77.9016C528.122 74.6423 525.409 72 522.061 72C518.714 72 516 74.6423 516 77.9016C516 81.161 518.714 83.8033 522.061 83.8033Z" fill="#2C3ACF"/>
<path d="M689.835 147.909C691.718 147.909 693.244 146.423 693.244 144.589C693.244 142.756 691.718 141.27 689.835 141.27C687.952 141.27 686.425 142.756 686.425 144.589C686.425 146.423 687.952 147.909 689.835 147.909Z" fill="#FBAF1D"/>
<path d="M904.021 144.592C905.904 144.592 907.43 143.106 907.43 141.273C907.43 139.439 905.904 137.953 904.021 137.953C902.138 137.953 900.611 139.439 900.611 141.273C900.611 143.106 902.138 144.592 904.021 144.592Z" fill="#00B159"/>
<path d="M889.425 254.216C889.173 255.443 887.998 256.178 886.739 255.933C885.48 255.688 884.724 254.543 884.976 253.317C885.228 252.091 886.403 251.355 887.662 251.601C888.922 251.846 889.677 253.072 889.425 254.216Z" fill="#00B159"/>
<path opacity="0.58" d="M538.306 376.231C540.189 376.231 541.715 374.745 541.715 372.911C541.715 371.078 540.189 369.592 538.306 369.592C536.423 369.592 534.896 371.078 534.896 372.911C534.896 374.745 536.423 376.231 538.306 376.231Z" fill="#00B159"/>
<path opacity="0.58" d="M876.973 369.59C878.856 369.59 880.382 368.103 880.382 366.27C880.382 364.436 878.856 362.95 876.973 362.95C875.09 362.95 873.563 364.436 873.563 366.27C873.563 368.103 875.09 369.59 876.973 369.59Z" fill="#FBAF1D"/>
<path d="M668.621 396.146C670.504 396.146 672.03 394.66 672.03 392.827C672.03 390.993 670.504 389.507 668.621 389.507C666.738 389.507 665.211 390.993 665.211 392.827C665.211 394.66 666.738 396.146 668.621 396.146Z" fill="#2C3ACF"/>
</svg>
