<svg width="177" height="80" viewBox="0 0 177 80" fill="none" xmlns="http://www.w3.org/2000/svg">
<g opacity="0.05">
<path d="M101.522 129.807C133.719 134.332 163.488 111.899 168.013 79.7021C172.538 47.505 150.106 17.7358 117.909 13.2108C85.7116 8.68583 55.9423 31.1185 51.4173 63.3156C46.8923 95.5127 69.3251 125.282 101.522 129.807Z" fill="#3782F1"/>
<path d="M69.1971 84.6641C68.9601 84.6308 68.7232 84.5975 68.5195 84.3272C67.8418 83.9903 67.501 82.9757 68.0749 82.3314L92.8621 43.5237C93.199 42.8461 94.2137 42.5053 94.858 43.0792C95.5357 43.4161 95.8764 44.4307 95.3025 45.075L70.5152 83.8827C70.4153 84.5937 69.6711 84.7307 69.1971 84.6641Z" fill="white"/>
<path d="M107.115 89.9936C106.641 89.927 105.963 89.5901 105.826 88.8458L92.6959 44.7092C92.5588 43.9649 92.9292 43.0503 93.6734 42.9132C94.4177 42.7761 95.3323 43.1464 95.4693 43.8906L108.6 88.0273C108.737 88.7715 108.366 89.6861 107.622 89.8232C107.589 90.0602 107.352 90.0269 107.115 89.9936Z" fill="white"/>
<path d="M107.114 89.9934C106.877 89.9601 106.64 89.9268 106.437 89.6565C105.759 89.3196 105.418 88.3051 105.992 87.6608L130.779 48.8531C131.116 48.1754 132.131 47.8346 132.775 48.4085C133.453 48.7454 133.794 49.76 133.22 50.4044L108.432 89.212C108.333 89.923 107.588 90.0601 107.114 89.9934Z" fill="white"/>
<path d="M145.031 95.3224C144.557 95.2558 143.879 94.9189 143.742 94.1747L130.612 50.038C130.475 49.2938 130.845 48.3791 131.589 48.2421C132.333 48.105 133.248 48.4752 133.385 49.2195L146.515 93.3561C146.652 94.1004 146.282 95.015 145.538 95.152C145.505 95.389 145.268 95.3557 145.031 95.3224Z" fill="white"/>
<path d="M68.3648 90.5886C71.506 91.0301 74.3954 88.9476 74.8184 85.9373C75.2415 82.927 73.0381 80.1288 69.8969 79.6873C66.7557 79.2458 63.8663 81.3283 63.4432 84.3386C63.0201 87.3489 65.2237 90.1471 68.3648 90.5886Z" fill="white"/>
</g>
<g opacity="0.13">
<path d="M19.415 96.9854C34.2594 94.171 44.0117 79.8558 41.1974 65.0113C38.383 50.1668 24.0677 40.4145 9.22328 43.2288C-5.62118 46.0432 -15.3735 60.3585 -12.5592 75.203C-9.74481 90.0475 4.57052 99.7998 19.415 96.9854Z" fill="#3782F1"/>
<path d="M-1.54821 81.9445C-1.65747 81.9653 -1.76672 81.986 -1.8967 81.8974C-2.2452 81.8503 -2.54663 81.4547 -2.39025 81.0855L2.72557 60.3076C2.77269 59.9591 3.16836 59.6577 3.53757 59.814C3.88607 59.8612 4.18744 60.2568 4.03106 60.626L-1.08476 81.4039C-1.02262 81.7317 -1.32969 81.9031 -1.54821 81.9445Z" fill="white"/>
<path d="M15.9337 78.6301C15.7152 78.6716 15.3666 78.6245 15.1952 78.3174L2.8292 60.8538C2.65779 60.5468 2.68425 60.089 2.99132 59.9176C3.29839 59.7462 3.75614 59.7726 3.92754 60.0797L16.2936 77.5432C16.465 77.8503 16.4386 78.308 16.1315 78.4794C16.1522 78.5887 16.0429 78.6094 15.9337 78.6301Z" fill="white"/>
<path d="M15.9335 78.6298C15.8242 78.6506 15.715 78.6713 15.585 78.5827C15.2365 78.5356 14.9351 78.14 15.0914 77.7708L20.2072 56.9929C20.2543 56.6444 20.65 56.343 21.0192 56.4993C21.3677 56.5465 21.6691 56.9421 21.5127 57.3113L16.3969 78.0892C16.4591 78.417 16.152 78.5884 15.9335 78.6298Z" fill="white"/>
<path d="M33.4149 75.3159C33.1964 75.3573 32.8478 75.3102 32.6764 75.0032L20.3104 57.5396C20.139 57.2326 20.1654 56.7748 20.4725 56.6034C20.7796 56.432 21.2373 56.4584 21.4087 56.7655L33.7748 74.229C33.9462 74.5361 33.9198 74.9938 33.6127 75.1652C33.6334 75.2745 33.5241 75.2952 33.4149 75.3159Z" fill="white"/>
<path d="M-1.03027 84.6761C0.417973 84.4015 1.37866 83.0538 1.11553 81.6659C0.852396 80.278 -0.534914 79.3755 -1.98316 79.6501C-3.43141 79.9246 -4.39215 81.2724 -4.12902 82.6603C-3.86589 84.0482 -2.47852 84.9507 -1.03027 84.6761Z" fill="white"/>
<path d="M16.4521 81.3614C17.9004 81.0868 18.861 79.7391 18.5979 78.3512C18.3348 76.9633 16.9475 76.0608 15.4992 76.3354C14.051 76.6099 13.0903 77.9577 13.3534 79.3456C13.6165 80.7335 15.0039 81.636 16.4521 81.3614Z" fill="white"/>
<path d="M33.9326 78.0472C35.3808 77.7726 36.3415 76.4249 36.0784 75.037C35.8153 73.6491 34.428 72.7466 32.9797 73.0212C31.5315 73.2957 30.5707 74.6434 30.8339 76.0313C31.097 77.4192 32.4844 78.3218 33.9326 78.0472Z" fill="white"/>
</g>
<g opacity="0.15">
<path d="M36.5861 34.4795C45.1129 36.4685 53.6376 31.1685 55.6265 22.6417C57.6155 14.1149 52.3155 5.59026 43.7887 3.60131C35.262 1.61236 26.7372 6.91233 24.7483 15.4391C22.7594 23.9659 28.0593 32.4906 36.5861 34.4795Z" fill="#3782F1"/>
<path d="M29.0029 21.5932C28.9402 21.5785 28.8774 21.5639 28.8293 21.4865C28.6557 21.3798 28.5887 21.0995 28.7581 20.9405L36.3409 11.1285C36.4476 10.9549 36.7279 10.8879 36.8869 11.0574C37.0606 11.1641 37.1275 11.4444 36.9581 11.6034L29.3753 21.4153C29.3314 21.6036 29.1285 21.6225 29.0029 21.5932Z" fill="white"/>
<path d="M39.0446 23.9359C38.9191 23.9066 38.7454 23.7999 38.7266 23.597L36.2676 11.4427C36.2488 11.2398 36.3701 11.0034 36.5731 10.9846C36.776 10.9657 37.0124 11.0871 37.0312 11.29L39.4902 23.4442C39.509 23.6472 39.3877 23.8836 39.1848 23.9024C39.1701 23.9652 39.1074 23.9505 39.0446 23.9359Z" fill="white"/>
<path d="M39.0444 23.9357C38.9817 23.9211 38.9189 23.9064 38.8708 23.829C38.6972 23.7224 38.6302 23.442 38.7996 23.283L46.3824 13.4711C46.489 13.2974 46.7694 13.2305 46.9284 13.3999C47.102 13.5066 47.169 13.7869 46.9996 13.9459L39.4168 23.7579C39.3729 23.9462 39.17 23.965 39.0444 23.9357Z" fill="white"/>
<path d="M49.0859 26.2777C48.9603 26.2484 48.7867 26.1417 48.7678 25.9388L46.3089 13.7845C46.29 13.5816 46.4114 13.3452 46.6143 13.3264C46.8172 13.3075 47.0536 13.4289 47.0725 13.6318L49.5314 25.786C49.5503 25.989 49.429 26.2254 49.226 26.2442C49.2114 26.307 49.1486 26.2923 49.0859 26.2777Z" fill="white"/>
<path d="M28.6371 23.1622C29.4689 23.3562 30.294 22.8673 30.48 22.07C30.666 21.2728 30.1424 20.4692 29.3105 20.2752C28.4786 20.0811 27.6534 20.5701 27.4675 21.3673C27.2815 22.1646 27.8052 22.9681 28.6371 23.1622Z" fill="white"/>
<path d="M38.679 25.5047C39.5109 25.6987 40.336 25.2098 40.522 24.4126C40.7079 23.6153 40.1843 22.8118 39.3525 22.6177C38.5206 22.4237 37.6954 22.9126 37.5095 23.7099C37.3235 24.5071 37.8472 25.3107 38.679 25.5047Z" fill="white"/>
<path d="M48.7198 27.8467C49.5517 28.0408 50.3768 27.5518 50.5627 26.7546C50.7487 25.9574 50.2251 25.1538 49.3932 24.9597C48.5613 24.7657 47.7362 25.2547 47.5503 26.0519C47.3643 26.8491 47.8879 27.6527 48.7198 27.8467Z" fill="white"/>
</g>
<path d="M69.2645 18.0751C69.9798 15.046 68.104 12.0105 65.0749 11.2952C62.0458 10.5799 59.0104 12.4557 58.2951 15.4849C57.5798 18.5141 59.4556 21.5496 62.4847 22.2649C65.5138 22.9801 68.5493 21.1043 69.2645 18.0751Z" fill="#FBAF1D"/>
<path d="M49 53.5C49 54.8808 47.8808 56 46.5 56C45.1192 56 44 54.8808 44 53.5C44 52.1192 45.1192 51 46.5 51C47.8808 51 49 52.1192 49 53.5Z" fill="#00B159"/>
<path d="M23.1425 30.5979C23.1425 31.9757 22.0189 33.0979 20.6395 33.0979C19.26 33.0979 18.1365 31.9757 18.1365 30.5979C18.1365 29.2201 19.26 28.0979 20.6395 28.0979C22.0189 28.0979 23.1425 29.2201 23.1425 30.5979Z" fill="#EB5757"/>
</svg>
