<?xml version="1.0"?>
<svg xmlns="http://www.w3.org/2000/svg" width="825" height="788" viewBox="0 0 825 788" fill="none">
<path fill-rule="evenodd" clip-rule="evenodd" d="M0.428715 468.458C8.82232 358.744 23.1805 250.143 69.5277 148.48C109.969 59.7717 179.753 11.9965 275.167 2.79582C427.34 -11.8771 563.702 31.6017 684.269 123.863C719.233 150.621 751.794 182.566 778.879 217.317C839.24 294.76 835.282 379.186 794.98 464.755C760.327 538.335 712.739 603.132 660.613 664.774C642.898 685.718 623.926 705.597 605.31 725.756C552.851 782.552 487.978 797.945 414.914 780.565C292.262 751.385 179.221 700.216 77.8005 624.633C26.258 586.222 -4.00634 535.894 0.428715 468.458Z" fill="#2C3ACF"/>
</svg>
