<svg width="133" height="55" viewBox="0 0 133 55" fill="none" xmlns="http://www.w3.org/2000/svg">
<g opacity="0.17">
<path d="M103.5 125C69.0331 125 41 96.9669 41 62.5C41 28.0331 69.0331 0 103.5 0C137.967 0 166 28.0331 166 62.5C166 96.9669 137.967 125 103.5 125ZM103.5 13.0208C76.2328 13.0208 54.0208 35.2328 54.0208 62.5C54.0208 89.7672 76.2328 111.979 103.5 111.979C130.767 111.979 152.979 89.7672 152.979 62.5C152.979 35.2328 130.767 13.0208 103.5 13.0208Z" fill="#DEEAFF"/>
<path d="M11.6455 48.9291L23.6391 28.2129C21.1746 30.6497 19.014 33.3502 17.1747 36.2543L15.4004 39.319C13.795 42.3498 12.5316 45.5785 11.6455 48.9291Z" fill="#93B9FF"/>
<path d="M10.2318 63.2314L35.3384 19.8654C34.4433 20.3043 33.5696 20.7819 32.7119 21.2776L10.1487 60.2505C10.1356 61.2439 10.1667 62.2366 10.2318 63.2314Z" fill="#93B9FF"/>
<path d="M11.6801 72.1658C11.705 72.2592 11.7299 72.3527 11.7549 72.4461L44.0804 16.6109C43.9869 16.6358 43.8935 16.6607 43.8 16.6856C43.1666 16.8545 42.5387 17.0442 41.9108 17.2339L11.2149 70.2544C11.363 70.8934 11.5084 71.5219 11.6801 72.1658Z" fill="#93B9FF"/>
<path d="M14.4226 79.6984L51.7131 15.2873C51.0728 15.3468 50.4221 15.4091 49.7872 15.4894L13.6466 77.9144C13.8882 78.5285 14.145 79.1162 14.4226 79.6984Z" fill="#93B9FF"/>
<path d="M17.8069 85.7143L58.6079 15.2395C58.0181 15.1966 57.4338 15.1744 56.8495 15.1523L16.8633 84.2196C17.1659 84.7285 17.476 85.2241 17.8069 85.7143Z" fill="#93B9FF"/>
<path d="M21.7465 90.7698L64.9614 16.1255C64.42 16.0141 63.8787 15.9026 63.3325 15.8147L20.6555 89.5148C21.0141 89.9419 21.3699 90.3586 21.7465 90.7698Z" fill="#93B9FF"/>
<path d="M26.1327 95.039L70.8402 17.8166C70.3369 17.6394 69.8336 17.4621 69.3331 17.2953L24.9378 93.9784C25.3345 94.3397 25.7284 94.6907 26.1327 95.039Z" fill="#93B9FF"/>
<path d="M30.9407 98.5952L76.3183 20.2154C75.8531 19.9724 75.3803 19.7426 74.9102 19.5232L29.6316 97.732C30.0664 98.0276 30.4984 98.3128 30.9407 98.5952Z" fill="#93B9FF"/>
<path d="M36.1367 101.481L81.4077 23.2852C80.9833 22.9868 80.5486 22.6912 80.1062 22.4088L34.7287 100.789C35.1939 101.032 35.6667 101.261 36.1367 101.481Z" fill="#93B9FF"/>
<path d="M41.729 103.682L86.109 27.0252C85.7124 26.6638 85.3185 26.3129 84.9065 25.9778L40.2143 103.174C40.7176 103.351 41.2209 103.528 41.729 103.682Z" fill="#93B9FF"/>
<path d="M47.7397 105.16L90.376 31.5156C90.0174 31.0885 89.6615 30.6718 89.2953 30.2578L46.1108 104.85C46.6522 104.961 47.1907 105.062 47.7397 105.16Z" fill="#93B9FF"/>
<path d="M54.2307 105.809L94.1816 36.8182C93.8687 36.3121 93.5585 35.8164 93.2408 35.3339L52.4778 105.743C53.0517 105.768 53.6361 105.79 54.2307 105.809Z" fill="#93B9FF"/>
<path d="M61.2975 105.449L97.3772 43.1291C97.128 42.5282 96.8712 41.9405 96.6013 41.3451L59.3717 105.651C60.0148 105.602 60.6523 105.532 61.2975 105.449Z" fill="#93B9FF"/>
<path d="M67.1735 104.293C67.8484 104.113 68.5178 103.913 69.1741 103.704L99.7863 50.8285C99.6402 50.1556 99.481 49.4751 99.301 48.8002C99.2871 48.7482 99.2705 48.6859 99.2567 48.634L67.0149 104.325C67.0565 104.313 67.1216 104.307 67.1735 104.293Z" fill="#93B9FF"/>
</g>
</svg>
