<svg width="1920" height="395" viewBox="0 0 1920 395" fill="none" xmlns="http://www.w3.org/2000/svg">
<path d="M1920 97.2656L1567.57 38.9062C1450.1 19.4531 1332.62 6.99383e-06 1215.14 0C1114.45 -5.9947e-06 1013.76 14.2921 913.062 28.5841L913.06 28.5844C896.278 30.9663 879.497 33.3483 862.715 35.664C745.239 51.8749 627.763 64.8437 510.287 68.0859C392.811 71.328 275.335 64.8437 216.597 61.6015L157.859 58.3593L157.859 215H0V282.5L384 350C512 372.5 640 395 768 395C877.714 395 987.428 378.469 1097.14 361.939C1115.43 359.184 1133.71 356.429 1152 353.75C1194.77 347.485 1237.53 341.639 1280.3 336.492C1297.74 339.04 1315.18 341.673 1332.62 344.306C1381.57 351.694 1430.52 359.083 1479.46 364.625C1626.31 381.25 1773.15 381.25 1846.58 381.25H1920V97.2656Z" fill="#F1F6FF"/>
</svg>
