<svg width="32" height="32" viewBox="0 0 32 32" fill="none" xmlns="http://www.w3.org/2000/svg">
<path fill-rule="evenodd" clip-rule="evenodd" d="M18.2625 16.0001L25.1313 9.13126C25.7569 8.50566 25.7569 7.49446 25.1313 6.86886C24.5057 6.24326 23.4945 6.24326 22.8689 6.86886L16.0001 13.7377L9.13135 6.86886C8.50575 6.24326 7.49455 6.24326 6.86895 6.86886C6.24335 7.49446 6.24335 8.50566 6.86895 9.13126L13.7377 16.0001L6.86895 22.8689C6.24335 23.4945 6.24335 24.5057 6.86895 25.1313C7.18095 25.4433 7.59055 25.6001 8.00015 25.6001C8.40975 25.6001 8.81935 25.4433 9.13135 25.1313L16.0001 18.2625L22.8689 25.1313C23.1809 25.4433 23.5905 25.6001 24.0001 25.6001C24.4097 25.6001 24.8193 25.4433 25.1313 25.1313C25.7569 24.5057 25.7569 23.4945 25.1313 22.8689L18.2625 16.0001Z" fill="#E9EBFA"/>
</svg>
