<svg width="16" height="16" viewBox="0 0 16 16" fill="none" xmlns="http://www.w3.org/2000/svg">
<path fill-rule="evenodd" clip-rule="evenodd" d="M9.6969 8.0001L14.8485 2.8485C15.3177 2.3793 15.3177 1.6209 14.8485 1.1517C14.3793 0.682505 13.6209 0.682505 13.1517 1.1517L8.0001 6.3033L2.8485 1.1517C2.3793 0.682505 1.6209 0.682505 1.1517 1.1517C0.682505 1.6209 0.682505 2.3793 1.1517 2.8485L6.3033 8.0001L1.1517 13.1517C0.682505 13.6209 0.682505 14.3793 1.1517 14.8485C1.3857 15.0825 1.6929 15.2001 2.0001 15.2001C2.3073 15.2001 2.6145 15.0825 2.8485 14.8485L8.0001 9.6969L13.1517 14.8485C13.3857 15.0825 13.6929 15.2001 14.0001 15.2001C14.3073 15.2001 14.6145 15.0825 14.8485 14.8485C15.3177 14.3793 15.3177 13.6209 14.8485 13.1517L9.6969 8.0001Z" fill="white"/>
</svg>
