<svg width="64" height="64" viewBox="0 0 64 64" fill="none" xmlns="http://www.w3.org/2000/svg">
<rect width="64" height="64" rx="32" fill="#FBAF1D"/>
<path d="M29.3615 13.4011C29.0714 14.5395 28.3691 15.3783 27.5581 15.691C27.104 15.8661 27.1064 16.5075 27.5601 16.6829C28.371 16.9965 29.0716 17.838 29.3593 18.977C29.4951 19.5143 30.2547 19.5142 30.3907 18.977C30.6791 17.8382 31.3795 16.9986 32.1909 16.6871C32.6453 16.5127 32.648 15.8712 32.195 15.6951C31.3846 15.3803 30.6801 14.5397 30.3905 13.4011C30.3318 13.1701 30.134 13 29.876 13C29.618 13 29.4175 13.1811 29.3615 13.4011ZM45.827 15.6557C45.537 16.7941 44.8347 17.6329 44.0237 17.9457C43.5696 18.1207 43.5721 18.7622 44.0257 18.9376C44.8366 19.2512 45.5372 20.0926 45.8249 21.2317C45.9606 21.769 46.7203 21.7689 46.8563 21.2317C47.1446 20.0929 47.845 19.2532 48.6565 18.9417C49.1109 18.7673 49.1145 18.1261 48.6605 17.9498C47.8501 17.6351 47.1456 16.7943 46.8561 15.6557C46.7973 15.4244 46.5991 15.2542 46.3416 15.2542C46.0841 15.2542 45.8832 15.4354 45.827 15.6557ZM17.1427 21.8957C16.8527 23.0341 16.1504 23.873 15.3394 24.1857C14.8853 24.3608 14.8877 25.0022 15.3414 25.1776C16.1523 25.4912 16.8529 26.3326 17.1406 27.4717C17.2763 28.009 18.036 28.0089 18.172 27.4717C18.4603 26.3329 19.1607 25.4933 19.9722 25.1818C20.4266 25.0073 20.4302 24.3661 19.9762 24.1898C19.1658 23.8752 18.4613 23.0344 18.1719 21.8957C18.1131 21.6644 17.9148 21.4942 17.6573 21.4942C17.3998 21.4942 17.1989 21.6755 17.1427 21.8957ZM30.672 23.0931C29.6419 23.0931 28.8126 23.9224 28.8126 24.9524C28.8126 25.9825 29.6419 26.8118 30.672 26.8118H46.0782C47.1082 26.8118 47.9375 25.9825 47.9375 24.9524C47.9375 23.9224 47.1082 23.0931 46.0782 23.0931H30.672ZM25.0949 26.8108C19.5267 26.8108 15.0001 31.3371 15.0001 36.9054C15.0001 42.4736 19.5267 47 25.0949 47C30.663 47 35.1886 42.4736 35.1886 36.9054C35.1886 31.3371 30.663 26.8108 25.0949 26.8108ZM31.613 27.8743C32.9649 28.8538 34.0974 30.1193 34.9001 31.593H42.8907C43.9207 31.593 44.75 30.7637 44.75 29.7336C44.75 28.7035 43.9207 27.8743 42.8907 27.8743H31.613ZM25.0918 29.2034C29.3512 29.2034 32.798 32.6575 32.798 36.9054C32.798 41.1532 29.3424 44.6073 25.0918 44.6073C20.8411 44.6073 17.3907 41.1532 17.3907 36.9054C17.3907 32.6575 20.8323 29.2034 25.0918 29.2034ZM25.0918 30.2659C21.4286 30.2659 18.4532 33.2317 18.4532 36.9054C18.4532 40.579 21.43 43.5449 25.0918 43.5449C28.7535 43.5449 31.7355 40.579 31.7355 36.9054C31.7355 33.2317 28.7549 30.2659 25.0918 30.2659ZM25.0978 32.3898C25.3581 32.3914 25.6269 32.5693 25.6269 32.92V33.4399C26.5579 33.676 27.1175 34.3325 27.3805 35.1643C27.5618 35.8601 26.5916 36.1392 26.3647 35.4828C26.1522 34.8107 25.7293 34.4685 25.0781 34.4432C24.3543 34.45 23.7956 34.9914 23.7956 35.6821C23.7956 36.0095 23.9129 36.1115 24.0706 36.1884C24.2825 36.292 24.6947 36.3564 25.1528 36.4042C25.6109 36.4519 26.1168 36.4856 26.5919 36.7176C27.0671 36.9496 27.4625 37.4036 27.4625 38.1764C27.4624 39.2779 26.6698 40.1953 25.627 40.429V40.8907C25.627 41.5828 24.5645 41.6096 24.5645 40.8907V40.4238C23.8693 40.245 23.1579 39.7571 22.8161 38.6983C22.6232 38.0177 23.5979 37.7075 23.8309 38.3767C24.033 39.0426 24.5099 39.4159 25.1175 39.4277C25.8413 39.4209 26.4 38.8547 26.4 38.1764C26.4 37.8145 26.2562 37.744 26.125 37.6711C25.9131 37.5676 25.5009 37.5062 25.0428 37.4584C24.5847 37.4107 24.0788 37.3771 23.6037 37.1451C23.1285 36.913 22.7331 36.4653 22.7331 35.6821C22.7331 34.5697 23.5238 33.6628 24.5645 33.4284C24.5645 33.4284 24.5645 33.0895 24.5645 32.92C24.5645 32.5631 24.8375 32.3883 25.0978 32.3898ZM35.4063 32.6554C35.8855 33.8115 36.1764 35.0633 36.2384 36.3741H47.1415C48.1716 36.3741 49.0009 35.5449 49.0009 34.5148C49.0009 33.4847 48.1716 32.6554 47.1415 32.6554H35.4063ZM36.2384 37.4366C36.1764 38.7475 35.8855 39.9992 35.4063 41.1553H47.1415C48.1716 41.1553 49.0009 40.326 49.0009 39.296C49.0009 38.2659 48.1716 37.4366 47.1415 37.4366H36.2384ZM34.901 42.2178C34.1011 43.6862 32.9738 44.948 31.6284 45.9261C31.6645 45.9281 31.6987 45.9361 31.7352 45.9361H47.1414C48.1715 45.9361 49.0008 45.1069 49.0008 44.0768C49.0008 43.0467 48.1715 42.2174 47.1414 42.2175L34.901 42.2178Z" fill="white"/>
</svg>
