<svg width="64" height="64" viewBox="0 0 64 64" fill="none" xmlns="http://www.w3.org/2000/svg">
<circle cx="32" cy="32" r="28.8799" stroke="white" stroke-width="1.97357"/>
<path d="M31.9844 53C43.591 53 53 43.591 53 31.9844C53 20.3778 43.591 10.9688 31.9844 10.9688C20.3778 10.9688 10.9688 20.3778 10.9688 31.9844C10.9688 43.591 20.3778 53 31.9844 53Z" fill="white"/>
<path d="M16.9311 36.4788V28.1056H20.186C20.8465 28.1056 21.4479 28.2078 21.9904 28.4122C22.5329 28.6088 23.0007 28.8918 23.3938 29.2613C23.7869 29.6308 24.0896 30.0711 24.3019 30.5822C24.5142 31.0932 24.6203 31.6593 24.6203 32.2804C24.6203 32.9015 24.5102 33.4715 24.2901 33.9904C24.0778 34.5015 23.7751 34.9457 23.382 35.3231C22.9889 35.6926 22.5172 35.9795 21.9668 36.184C21.4243 36.3805 20.8229 36.4788 20.1625 36.4788H16.9311ZM18.6883 34.9221H20.0799C20.6381 34.9221 21.1216 34.8159 21.5305 34.6037C21.9393 34.3914 22.2538 34.0887 22.4739 33.6956C22.6941 33.3025 22.8041 32.8347 22.8041 32.2922C22.8041 31.7497 22.6941 31.2819 22.4739 30.8888C22.2538 30.4957 21.9393 30.193 21.5305 29.9807C21.1216 29.7684 20.6381 29.6623 20.0799 29.6623H18.6883V34.9221ZM24.8412 36.4788L28.1669 28.1056H30.0302L33.3677 36.4788H31.5633L30.8793 34.639H27.2588L26.5748 36.4788H24.8412ZM27.8131 33.1531H30.325L29.0631 29.8156L27.8131 33.1531ZM34.3215 36.4788V28.1056H37.0104C37.6944 28.1056 38.2801 28.2196 38.7676 28.4476C39.2629 28.6677 39.6403 28.9901 39.8998 29.4146C40.1671 29.8313 40.3007 30.3384 40.3007 30.936C40.3007 31.3605 40.2221 31.7458 40.0649 32.0917C39.9076 32.4298 39.6835 32.7246 39.3926 32.9762C39.1017 33.2199 38.7519 33.4086 38.343 33.5423C37.9421 33.6759 37.4939 33.7428 36.9986 33.7428C36.7077 33.7428 36.3932 33.7152 36.0552 33.6602V36.4788H34.3215ZM36.0552 29.5915V32.186C36.3696 32.2332 36.6605 32.2568 36.9279 32.2568C37.431 32.2568 37.8202 32.1428 38.0954 31.9148C38.3784 31.6868 38.5199 31.3566 38.5199 30.9242C38.5199 30.4996 38.3863 30.1733 38.119 29.9453C37.8517 29.7095 37.4703 29.5915 36.975 29.5915H36.0552ZM41.3814 36.4788V28.1056H44.0702C44.7542 28.1056 45.34 28.2196 45.8274 28.4476C46.3227 28.6677 46.7001 28.9901 46.9596 29.4146C47.2269 29.8313 47.3605 30.3384 47.3605 30.936C47.3605 31.3605 47.2819 31.7458 47.1247 32.0917C46.9674 32.4298 46.7434 32.7246 46.4525 32.9762C46.1616 33.2199 45.8117 33.4086 45.4029 33.5423C45.0019 33.6759 44.5538 33.7428 44.0584 33.7428C43.7675 33.7428 43.4531 33.7152 43.115 33.6602V36.4788H41.3814ZM43.115 29.5915V32.186C43.4295 32.2332 43.7204 32.2568 43.9877 32.2568C44.4909 32.2568 44.88 32.1428 45.1552 31.9148C45.4382 31.6868 45.5798 31.3566 45.5798 30.9242C45.5798 30.4996 45.4461 30.1733 45.1788 29.9453C44.9115 29.7095 44.5302 29.5915 44.0349 29.5915H43.115Z" fill="#27319B"/>
</svg>
