<svg width="257" height="203" viewBox="0 0 257 203" fill="none" xmlns="http://www.w3.org/2000/svg">
<path d="M27.5398 181.962C26.969 182.11 26.3549 182.143 25.7383 182.032C23.4309 181.625 21.8889 179.426 22.2961 177.119L44.8014 49.2349C45.2086 46.9274 47.407 45.3854 49.7144 45.7926C52.0218 46.1998 53.5638 48.3983 53.1566 50.7057L30.6513 178.59C30.3543 180.277 29.1001 181.555 27.5398 181.962Z" fill="white"/>
<path d="M132.121 154.705C130.564 155.111 128.842 154.608 127.759 153.281L45.6943 52.6499C44.2127 50.8347 44.4845 48.1591 46.3007 46.6816C48.1158 45.2 50.7914 45.4718 52.2689 47.288L134.334 147.919C135.815 149.735 135.543 152.41 133.727 153.888C133.239 154.287 132.691 154.557 132.121 154.705Z" fill="white"/>
<path d="M132.112 154.708C131.541 154.856 130.927 154.889 130.31 154.778C128.003 154.371 126.461 152.172 126.868 149.865L149.378 21.9796C149.785 19.6722 151.983 18.1302 154.291 18.5374C156.598 18.9446 158.14 21.143 157.733 23.4505L135.224 151.336C134.927 153.027 133.672 154.301 132.112 154.708Z" fill="white"/>
<path d="M236.692 127.452C235.136 127.858 233.413 127.355 232.331 126.028L150.266 25.3967C148.784 23.5815 149.056 20.906 150.872 19.4284C152.687 17.9468 155.363 18.2186 156.841 20.0349L238.905 120.666C240.387 122.481 240.115 125.157 238.299 126.634C237.811 127.034 237.263 127.303 236.692 127.452Z" fill="white"/>
<path d="M31.5257 198.288C40.1907 196.03 45.44 187.388 43.2502 178.985C41.0605 170.583 32.261 165.603 23.596 167.861C14.9309 170.119 9.68169 178.761 11.8714 187.163C14.0612 195.565 22.8607 200.546 31.5257 198.288Z" fill="white"/>
<path d="M136.232 170.999C144.897 168.741 150.146 160.099 147.956 151.697C145.767 143.295 136.967 138.314 128.302 140.573C119.637 142.831 114.388 151.473 116.578 159.875C118.767 168.277 127.567 173.258 136.232 170.999Z" fill="white"/>
<path d="M240.935 143.712C249.6 141.454 254.849 132.812 252.66 124.41C250.47 116.008 241.67 111.027 233.005 113.285C224.34 115.544 219.091 124.186 221.281 132.588C223.471 140.99 232.27 145.97 240.935 143.712Z" fill="white"/>
</svg>
