<svg width="68" height="62" viewBox="0 0 68 62" fill="none" xmlns="http://www.w3.org/2000/svg">
<path d="M19.3071 5.20499V6.67768" stroke="white" stroke-linecap="round" stroke-linejoin="round"/>
<path d="M19.3071 9.60017V19.8863" stroke="white" stroke-linecap="round" stroke-linejoin="round"/>
<path d="M19.3071 21.3592V22.8319" stroke="white" stroke-linecap="round" stroke-linejoin="round"/>
<path d="M4.625 30.9205L5.91644 30.2181" stroke="white" stroke-linecap="round" stroke-linejoin="round"/>
<path d="M8.34082 28.8814L16.8144 24.2141" stroke="white" stroke-linecap="round" stroke-linejoin="round"/>
<path d="M18.0376 23.5344L19.3064 22.832" stroke="white" stroke-linecap="round" stroke-linejoin="round"/>
<path d="M19.3071 39.734V41.2067" stroke="white" stroke-linecap="round" stroke-linejoin="round"/>
<path d="M19.3071 43.9931V53.7809" stroke="white" stroke-linecap="round" stroke-linejoin="round"/>
<path d="M19.3071 55.1631V56.6358" stroke="white" stroke-linecap="round" stroke-linejoin="round"/>
<path d="M34.0108 47.8225L32.7646 48.5701" stroke="white" stroke-linecap="round" stroke-linejoin="round"/>
<path d="M30.3178 50.0429L21.7988 55.1634" stroke="white" stroke-linecap="round" stroke-linejoin="round"/>
<path d="M20.5754 55.8883L19.3066 56.6359" stroke="white" stroke-linecap="round" stroke-linejoin="round"/>
<path d="M48.7148 39.009V40.4816" stroke="white" stroke-linecap="round" stroke-linejoin="round"/>
<path d="M48.7148 43.5628V54.3701" stroke="white" stroke-linecap="round" stroke-linejoin="round"/>
<path d="M48.7148 55.9109V57.3836" stroke="white" stroke-linecap="round" stroke-linejoin="round"/>
<path d="M34.0112 47.8225L35.2574 48.6155" stroke="white" stroke-linecap="round" stroke-linejoin="round"/>
<path d="M37.7046 50.2239L46.2688 55.7748" stroke="white" stroke-linecap="round" stroke-linejoin="round"/>
<path d="M47.4922 56.5677L48.7156 57.3833" stroke="white" stroke-linecap="round" stroke-linejoin="round"/>
<path d="M63.4189 30.9206L62.1274 31.6229" stroke="white" stroke-linecap="round" stroke-linejoin="round"/>
<path d="M59.7028 32.9597L51.2065 37.627" stroke="white" stroke-linecap="round" stroke-linejoin="round"/>
<path d="M50.0063 38.307L48.7148 39.0094" stroke="white" stroke-linecap="round" stroke-linejoin="round"/>
<path d="M48.7148 22.832L50.0063 23.5344" stroke="white" stroke-linecap="round" stroke-linejoin="round"/>
<path d="M52.4302 24.8715L60.9038 29.5388" stroke="white" stroke-linecap="round" stroke-linejoin="round"/>
<path d="M62.1274 30.2184L63.4189 30.9208" stroke="white" stroke-linecap="round" stroke-linejoin="round"/>
<path d="M48.7148 4.45728V5.92996" stroke="white" stroke-linecap="round" stroke-linejoin="round"/>
<path d="M48.7148 9.01091V19.8182" stroke="white" stroke-linecap="round" stroke-linejoin="round"/>
<path d="M48.7148 21.359V22.8317" stroke="white" stroke-linecap="round" stroke-linejoin="round"/>
<path d="M34.0112 14.0185L35.2574 13.2255" stroke="white" stroke-linecap="round" stroke-linejoin="round"/>
<path d="M37.7046 11.617L46.2688 6.06606" stroke="white" stroke-linecap="round" stroke-linejoin="round"/>
<path d="M47.4922 5.27293L48.7156 4.45729" stroke="white" stroke-linecap="round" stroke-linejoin="round"/>
<path d="M19.3071 5.20499L20.5759 5.95266" stroke="white" stroke-linecap="round" stroke-linejoin="round"/>
<path d="M23.0229 7.42537L31.5419 12.5231" stroke="white" stroke-linecap="round" stroke-linejoin="round"/>
<path d="M32.7651 13.2707L34.0113 14.0184" stroke="white" stroke-linecap="round" stroke-linejoin="round"/>
<path d="M19.3067 39.7341L18.0605 38.9864" stroke="white" stroke-linecap="round" stroke-linejoin="round"/>
<path d="M15.6137 37.5138L7.09473 32.416" stroke="white" stroke-linecap="round" stroke-linejoin="round"/>
<path d="M5.87112 31.6682L4.625 30.9205" stroke="white" stroke-linecap="round" stroke-linejoin="round"/>
<path d="M49.146 56.6359L49.8937 55.3672" stroke="white" stroke-linecap="round" stroke-linejoin="round"/>
<path d="M51.3662 52.7841L62.536 33.4805" stroke="white" stroke-linecap="round" stroke-linejoin="round"/>
<path d="M63.2612 32.1892L64.0089 30.9204L63.2612 29.6517" stroke="white" stroke-linecap="round" stroke-linejoin="round"/>
<path d="M61.7887 27.0686L50.6416 7.76505" stroke="white" stroke-linecap="round" stroke-linejoin="round"/>
<path d="M49.8946 6.47375L49.147 5.20497" stroke="white" stroke-linecap="round" stroke-linejoin="round"/>
<path d="M19.4423 5.2049L18.7173 6.47367" stroke="white" stroke-linecap="round" stroke-linejoin="round"/>
<path d="M17.2223 9.05678L6.0752 28.3603" stroke="white" stroke-linecap="round" stroke-linejoin="round"/>
<path d="M5.32754 29.6517L4.60254 30.9204L5.32754 32.1892" stroke="white" stroke-linecap="round" stroke-linejoin="round"/>
<path d="M6.82275 34.7723L17.9699 54.0758" stroke="white" stroke-linecap="round" stroke-linejoin="round"/>
<path d="M18.7173 55.3672L19.4423 56.6359" stroke="white" stroke-linecap="round" stroke-linejoin="round"/>
<path d="M20.9382 21.7449L19.6694 22.47V23.9427" stroke="white" stroke-linecap="round" stroke-linejoin="round"/>
<path d="M19.6694 26.7292V36.517" stroke="white" stroke-linecap="round" stroke-linejoin="round"/>
<path d="M19.6694 37.8992V39.3719L20.9382 40.0969" stroke="white" stroke-linecap="round" stroke-linejoin="round"/>
<path d="M23.3623 41.5018L31.8133 46.3956" stroke="white" stroke-linecap="round" stroke-linejoin="round"/>
<path d="M33.0371 47.0978L34.3059 47.8228L35.5747 47.0978" stroke="white" stroke-linecap="round" stroke-linejoin="round"/>
<path d="M37.999 45.6929L46.45 40.7991" stroke="white" stroke-linecap="round" stroke-linejoin="round"/>
<path d="M47.6733 40.0969L48.9421 39.3719V37.8992" stroke="white" stroke-linecap="round" stroke-linejoin="round"/>
<path d="M48.9424 35.1125V25.3248" stroke="white" stroke-linecap="round" stroke-linejoin="round"/>
<path d="M48.9421 23.9427V22.47L47.6733 21.7449" stroke="white" stroke-linecap="round" stroke-linejoin="round"/>
<path d="M45.249 20.3404L36.7754 15.4466" stroke="white" stroke-linecap="round" stroke-linejoin="round"/>
<path d="M35.5747 14.7438L34.3059 14.0188L33.0371 14.7438" stroke="white" stroke-linecap="round" stroke-linejoin="round"/>
<path d="M30.6128 16.1486L22.1392 21.0425" stroke="white" stroke-linecap="round" stroke-linejoin="round"/>
<path d="M19.3063 9.23785C17.086 9.23785 15.2734 7.42531 15.2734 5.20494C15.2734 2.98458 17.086 1.17204 19.3063 1.17204C21.5267 1.17204 23.3392 2.98458 23.3392 5.20494C23.3392 7.42531 21.5494 9.23785 19.3063 9.23785Z" fill="#2BB673"/>
<path d="M19.3067 1.51207C21.3458 1.51207 22.9771 3.16601 22.9771 5.18246C22.9771 7.19891 21.3232 8.85286 19.3067 8.85286C17.2676 8.85286 15.6363 7.19891 15.6363 5.18246C15.6363 3.16601 17.2903 1.51207 19.3067 1.51207ZM19.3067 0.787048C16.8825 0.787048 14.8887 2.75819 14.8887 5.20512C14.8887 7.65205 16.8598 9.62318 19.3067 9.62318C21.731 9.62318 23.7248 7.65205 23.7248 5.20512C23.7248 2.75819 21.7537 0.787048 19.3067 0.787048Z" fill="#717591"/>
<path d="M48.715 9.23785C46.4947 9.23785 44.6821 7.42531 44.6821 5.20494C44.6821 2.98458 46.4947 1.17204 48.715 1.17204C50.9354 1.17204 52.7479 2.98458 52.7479 5.20494C52.7479 7.42531 50.9354 9.23785 48.715 9.23785Z" fill="#2BB673"/>
<path d="M48.7149 1.51207C50.7541 1.51207 52.3853 3.16601 52.3853 5.18246C52.3853 7.19891 50.7314 8.85286 48.7149 8.85286C46.6758 8.85286 45.0446 7.19891 45.0446 5.18246C45.0446 3.16601 46.6758 1.51207 48.7149 1.51207ZM48.7149 0.787048C46.2907 0.787048 44.2969 2.75819 44.2969 5.20512C44.2969 7.65205 46.268 9.62318 48.7149 9.62318C51.1392 9.62318 53.133 7.65205 53.133 5.20512C53.133 2.75819 51.1392 0.787048 48.7149 0.787048Z" fill="#717591"/>
<path d="M19.3063 60.6912C17.086 60.6912 15.2734 58.8786 15.2734 56.6583C15.2734 54.4379 17.086 52.6254 19.3063 52.6254C21.5267 52.6254 23.3392 54.4379 23.3392 56.6583C23.3392 58.8786 21.5494 60.6912 19.3063 60.6912Z" fill="#2BB673"/>
<path d="M19.3067 52.9654C21.3458 52.9654 22.9771 54.6193 22.9771 56.6358C22.9771 58.6522 21.3232 60.3062 19.3067 60.3062C17.2676 60.3062 15.6363 58.6522 15.6363 56.6358C15.6363 54.6193 17.2903 52.9654 19.3067 52.9654ZM19.3067 52.2404C16.8825 52.2404 14.8887 54.2115 14.8887 56.6585C14.8887 59.0827 16.8598 61.0765 19.3067 61.0765C21.731 61.0765 23.7248 59.1054 23.7248 56.6585C23.7248 54.2115 21.7537 52.2404 19.3067 52.2404Z" fill="#717591"/>
<path d="M48.715 60.6912C46.4947 60.6912 44.6821 58.8786 44.6821 56.6583C44.6821 54.4379 46.4947 52.6254 48.715 52.6254C50.9354 52.6254 52.7479 54.4379 52.7479 56.6583C52.7479 58.8786 50.9354 60.6912 48.715 60.6912Z" fill="#2BB673"/>
<path d="M48.7149 52.9654C50.7541 52.9654 52.3853 54.6193 52.3853 56.6358C52.3853 58.6522 50.7314 60.3062 48.7149 60.3062C46.6758 60.3062 45.0446 58.6522 45.0446 56.6358C45.0446 54.6193 46.6758 52.9654 48.7149 52.9654ZM48.7149 52.2404C46.2907 52.2404 44.2969 54.2115 44.2969 56.6585C44.2969 59.0827 46.268 61.0765 48.7149 61.0765C51.1392 61.0765 53.133 59.1054 53.133 56.6585C53.133 54.2115 51.1392 52.2404 48.7149 52.2404Z" fill="#717591"/>
<path d="M63.4196 34.9536C65.6469 34.9536 67.4525 33.148 67.4525 30.9207C67.4525 28.6934 65.6469 26.8878 63.4196 26.8878C61.1923 26.8878 59.3867 28.6934 59.3867 30.9207C59.3867 33.148 61.1923 34.9536 63.4196 34.9536Z" fill="#2BB673"/>
<path d="M63.4195 27.2502C65.4586 27.2502 67.0899 28.9042 67.0899 30.9206C67.0899 32.9371 65.436 34.591 63.4195 34.591C61.3804 34.591 59.7491 32.9371 59.7491 30.9206C59.7491 28.9042 61.3804 27.2502 63.4195 27.2502ZM63.4195 26.5025C60.9953 26.5025 59.0015 28.4737 59.0015 30.9206C59.0015 33.3449 60.9726 35.3387 63.4195 35.3387C65.8438 35.3387 67.8376 33.3675 67.8376 30.9206C67.8149 28.4963 65.8438 26.5025 63.4195 26.5025Z" fill="#717591"/>
<path d="M4.62519 34.9536C6.8525 34.9536 8.65809 33.148 8.65809 30.9207C8.65809 28.6934 6.8525 26.8878 4.62519 26.8878C2.39787 26.8878 0.592285 28.6934 0.592285 30.9207C0.592285 33.148 2.39787 34.9536 4.62519 34.9536Z" fill="#2BB673"/>
<path d="M4.6251 27.2502C6.66421 27.2502 8.2955 28.9042 8.2955 30.9206C8.2955 32.9371 6.64155 34.591 4.6251 34.591C2.58599 34.591 0.954701 32.9371 0.954701 30.9206C0.954701 28.9042 2.58599 27.2502 4.6251 27.2502ZM4.6251 26.5025C2.20083 26.5025 0.207031 28.4737 0.207031 30.9206C0.207031 33.3449 2.17817 35.3387 4.6251 35.3387C7.04937 35.3387 9.04317 33.3675 9.04317 30.9206C9.02051 28.4963 7.04937 26.5025 4.6251 26.5025Z" fill="#717591"/>
<path d="M19.5564 43.2231C17.336 43.2231 15.5234 41.4106 15.5234 39.1902C15.5234 36.9698 17.336 35.1573 19.5564 35.1573C21.7767 35.1573 23.5893 36.9698 23.5893 39.1902C23.5893 41.4106 21.7767 43.2231 19.5564 43.2231Z" fill="#2BB673"/>
<path d="M19.5563 35.52C21.5954 35.52 23.2266 37.174 23.2266 39.1904C23.2266 41.2069 21.5727 42.8608 19.5563 42.8608C17.5171 42.8608 15.8859 41.2069 15.8859 39.1904C15.8632 37.1513 17.5171 35.52 19.5563 35.52ZM19.5563 34.7724C17.132 34.7724 15.1382 36.7435 15.1382 39.1904C15.1382 41.6147 17.1093 43.6085 19.5563 43.6085C21.9805 43.6085 23.9743 41.6374 23.9743 39.1904C23.9517 36.7661 21.9805 34.7724 19.5563 34.7724Z" fill="#717591"/>
<path d="M19.5564 26.684C17.336 26.684 15.5234 24.8714 15.5234 22.6511C15.5234 20.4307 17.336 18.6182 19.5564 18.6182C21.7767 18.6182 23.5893 20.4307 23.5893 22.6511C23.5893 24.8714 21.7767 26.684 19.5564 26.684Z" fill="#2BB673"/>
<path d="M19.5563 18.9804C21.5954 18.9804 23.2266 20.6343 23.2266 22.6508C23.2266 24.6672 21.5727 26.3212 19.5563 26.3212C17.5171 26.3212 15.8859 24.6672 15.8859 22.6508C15.8632 20.6343 17.5171 18.9804 19.5563 18.9804ZM19.5563 18.2327C17.132 18.2327 15.1382 20.2039 15.1382 22.6508C15.1382 25.0751 17.1093 27.0689 19.5563 27.0689C22.0032 27.0689 23.9743 25.0977 23.9743 22.6508C23.9743 20.2039 21.9805 18.2327 19.5563 18.2327Z" fill="#717591"/>
<path d="M48.489 43.2231C46.2686 43.2231 44.4561 41.4106 44.4561 39.1902C44.4561 36.9698 46.2686 35.1573 48.489 35.1573C50.7093 35.1573 52.5219 36.9698 52.5219 39.1902C52.5219 41.4106 50.7093 43.2231 48.489 43.2231Z" fill="#2BB673"/>
<path d="M48.4889 35.52C50.528 35.52 52.1593 37.174 52.1593 39.1904C52.1593 41.2069 50.5053 42.8608 48.4889 42.8608C46.4498 42.8608 44.8185 41.2069 44.8185 39.1904C44.8185 37.174 46.4498 35.52 48.4889 35.52ZM48.4889 34.7724C46.0646 34.7724 44.0708 36.7435 44.0708 39.1904C44.0708 41.6147 46.0419 43.6085 48.4889 43.6085C50.9358 43.6085 52.9069 41.6374 52.9069 39.1904C52.8843 36.7661 50.9131 34.7724 48.4889 34.7724Z" fill="#717591"/>
<path d="M48.489 26.684C46.2686 26.684 44.4561 24.8714 44.4561 22.6511C44.4561 20.4307 46.2686 18.6182 48.489 18.6182C50.7093 18.6182 52.5219 20.4307 52.5219 22.6511C52.5219 24.8714 50.7093 26.684 48.489 26.684Z" fill="#2BB673"/>
<path d="M48.4889 18.9804C50.528 18.9804 52.1593 20.6343 52.1593 22.6508C52.1593 24.6672 50.5053 26.3212 48.4889 26.3212C46.4498 26.3212 44.8185 24.6672 44.8185 22.6508C44.8185 20.6343 46.4498 18.9804 48.4889 18.9804ZM48.4889 18.2327C46.0646 18.2327 44.0708 20.2039 44.0708 22.6508C44.0708 25.0977 46.0419 27.0689 48.4889 27.0689C50.9358 27.0689 52.9069 25.0977 52.9069 22.6508C52.9069 20.2039 50.9131 18.2327 48.4889 18.2327Z" fill="#717591"/>
<path d="M34.0114 18.0517C31.7911 18.0517 29.9785 16.2392 29.9785 14.0188C29.9785 11.7984 31.7911 9.9859 34.0114 9.9859C36.2318 9.9859 38.0443 11.7984 38.0443 14.0188C38.0443 16.2392 36.2544 18.0517 34.0114 18.0517Z" fill="#2BB673"/>
<path d="M34.0113 10.3482C36.0504 10.3482 37.6817 12.0022 37.6817 14.0186C37.6817 16.0351 36.0278 17.689 34.0113 17.689C31.9722 17.689 30.3409 16.0351 30.3409 14.0186C30.3409 12.0022 31.9949 10.3482 34.0113 10.3482ZM34.0113 9.60056C31.5871 9.60056 29.5933 11.5717 29.5933 14.0186C29.5933 16.4656 31.5644 18.4367 34.0113 18.4367C36.4356 18.4367 38.4294 16.4656 38.4294 14.0186C38.4294 11.5717 36.4583 9.60056 34.0113 9.60056Z" fill="#717591"/>
<path d="M34.0114 51.8553C31.7911 51.8553 29.9785 50.0428 29.9785 47.8224C29.9785 45.602 31.7911 43.7895 34.0114 43.7895C36.2318 43.7895 38.0443 45.602 38.0443 47.8224C38.0443 50.0428 36.2544 51.8553 34.0114 51.8553Z" fill="#2BB673"/>
<path d="M34.0113 44.1519C36.0504 44.1519 37.6817 45.8058 37.6817 47.8223C37.6817 49.8387 36.0278 51.4927 34.0113 51.4927C31.9722 51.4927 30.3409 49.8387 30.3409 47.8223C30.3409 45.8058 31.9949 44.1519 34.0113 44.1519ZM34.0113 43.4042C31.5871 43.4042 29.5933 45.3753 29.5933 47.8223C29.5933 50.2465 31.5644 52.2403 34.0113 52.2403C36.4356 52.2403 38.4294 50.2692 38.4294 47.8223C38.4294 45.398 36.4583 43.4042 34.0113 43.4042Z" fill="#717591"/>
<path d="M19.3066 8.87554C21.3337 8.87554 22.977 7.23224 22.977 5.20514C22.977 3.17804 21.3337 1.53474 19.3066 1.53474C17.2795 1.53474 15.6362 3.17804 15.6362 5.20514C15.6362 7.23224 17.2795 8.87554 19.3066 8.87554Z" fill="white"/>
<path d="M48.7153 8.87554C50.7424 8.87554 52.3857 7.23224 52.3857 5.20514C52.3857 3.17804 50.7424 1.53474 48.7153 1.53474C46.6882 1.53474 45.0449 3.17804 45.0449 5.20514C45.0449 7.23224 46.6882 8.87554 48.7153 8.87554Z" fill="white"/>
<path d="M19.3066 60.3062C21.3337 60.3062 22.977 58.6629 22.977 56.6358C22.977 54.6087 21.3337 52.9654 19.3066 52.9654C17.2795 52.9654 15.6362 54.6087 15.6362 56.6358C15.6362 58.6629 17.2795 60.3062 19.3066 60.3062Z" fill="white"/>
<path d="M48.7153 60.3062C50.7424 60.3062 52.3857 58.6629 52.3857 56.6358C52.3857 54.6087 50.7424 52.9654 48.7153 52.9654C46.6882 52.9654 45.0449 54.6087 45.0449 56.6358C45.0449 58.6629 46.6882 60.3062 48.7153 60.3062Z" fill="white"/>
<path d="M63.4194 34.591C65.4465 34.591 67.0898 32.9477 67.0898 30.9206C67.0898 28.8935 65.4465 27.2502 63.4194 27.2502C61.3923 27.2502 59.749 28.8935 59.749 30.9206C59.749 32.9477 61.3923 34.591 63.4194 34.591Z" fill="white"/>
<path d="M4.62548 34.591C6.65258 34.591 8.29587 32.9477 8.29587 30.9206C8.29587 28.8935 6.65258 27.2502 4.62548 27.2502C2.59837 27.2502 0.955078 28.8935 0.955078 30.9206C0.955078 32.9477 2.59837 34.591 4.62548 34.591Z" fill="white"/>
<path d="M19.5561 42.8605C21.5832 42.8605 23.2265 41.2172 23.2265 39.1901C23.2265 37.163 21.5832 35.5197 19.5561 35.5197C17.529 35.5197 15.8857 37.163 15.8857 39.1901C15.8857 41.2172 17.529 42.8605 19.5561 42.8605Z" fill="white"/>
<path d="M19.5561 26.3212C21.5832 26.3212 23.2265 24.6779 23.2265 22.6508C23.2265 20.6237 21.5832 18.9804 19.5561 18.9804C17.529 18.9804 15.8857 20.6237 15.8857 22.6508C15.8857 24.6779 17.529 26.3212 19.5561 26.3212Z" fill="white"/>
<path d="M48.4887 42.8605C50.5158 42.8605 52.1591 41.2172 52.1591 39.1901C52.1591 37.163 50.5158 35.5197 48.4887 35.5197C46.4616 35.5197 44.8184 37.163 44.8184 39.1901C44.8184 41.2172 46.4616 42.8605 48.4887 42.8605Z" fill="white"/>
<path d="M48.4887 26.3212C50.5158 26.3212 52.1591 24.6779 52.1591 22.6508C52.1591 20.6237 50.5158 18.9804 48.4887 18.9804C46.4616 18.9804 44.8184 20.6237 44.8184 22.6508C44.8184 24.6779 46.4616 26.3212 48.4887 26.3212Z" fill="white"/>
<path d="M34.0112 17.6891C36.0383 17.6891 37.6816 16.0458 37.6816 14.0187C37.6816 11.9916 36.0383 10.3483 34.0112 10.3483C31.9841 10.3483 30.3408 11.9916 30.3408 14.0187C30.3408 16.0458 31.9841 17.6891 34.0112 17.6891Z" fill="white"/>
<path d="M34.0112 51.4927C36.0383 51.4927 37.6816 49.8494 37.6816 47.8223C37.6816 45.7952 36.0383 44.1519 34.0112 44.1519C31.9841 44.1519 30.3408 45.7952 30.3408 47.8223C30.3408 49.8494 31.9841 51.4927 34.0112 51.4927Z" fill="white"/>
</svg>
