<svg width="129" height="176" viewBox="0 0 129 176" fill="none" xmlns="http://www.w3.org/2000/svg">
<path d="M64.5683 0L154.238 89.67C129.481 114.428 89.326 114.428 64.5683 89.67C39.8106 64.9123 39.8106 24.7705 64.5683 0Z" fill="#DBE6FF"/>
<path d="M27.9012 114.355L18.1672 74.352C29.2118 71.1246 40.3479 77.4639 43.0354 88.5085C45.723 99.5532 38.948 111.123 27.9012 114.355Z" fill="#DBE6FF"/>
<path d="M4.89874 148.216L46.642 133.527C50.0597 145.052 43.4848 157.688 31.9596 161.743C20.4343 165.799 8.32026 159.743 4.89874 148.216Z" fill="#DBE6FF"/>
<path d="M152.791 152.246L68.925 186.212C60.927 163.056 73.2186 136.674 96.3738 127.296C119.529 117.918 144.785 129.087 152.791 152.246Z" fill="#DBE6FF"/>
</svg>
