<svg width="48" height="48" viewBox="0 0 48 48" fill="none" xmlns="http://www.w3.org/2000/svg">
<rect width="48" height="48" rx="24" fill="#00B159"/>
<g clip-path="url(#clip0_373_3042)">
<path d="M28.2658 36C27.2144 36 26.2004 35.4134 25.712 34.4157L24.2985 31.769L23.4966 33.2996C23.476 33.3389 23.4526 33.3767 23.4268 33.4126C22.9005 34.143 22.0346 34.4025 21.3935 34.4025C21.3884 34.4025 21.3832 34.4025 21.378 34.4025C20.6616 34.3977 19.9482 34.0903 19.4209 33.5589C18.8732 33.0071 18.5717 32.2746 18.5717 31.4962V19.3576C18.5717 18.2504 19.1955 17.273 20.1996 16.8067C21.1942 16.3448 22.3313 16.4916 23.1748 17.1887L29.3505 21.7877C29.7657 22.0969 29.8517 22.6843 29.5425 23.0995C29.2332 23.5148 28.6459 23.6007 28.2306 23.2915L22.0341 18.677C22.0188 18.6655 22.0038 18.6537 21.9891 18.6413C21.5651 18.2832 21.1168 18.4482 20.9894 18.5073C20.8621 18.5664 20.4468 18.8024 20.4468 19.3576V31.4962C20.4468 32.1003 20.9441 32.5246 21.3905 32.5275C21.3919 32.5275 21.3934 32.5275 21.3948 32.5275C21.5772 32.5275 21.7778 32.4519 21.8777 32.3495L23.4601 29.3289C23.6213 29.0212 23.9395 28.8278 24.2868 28.8264C24.2881 28.8264 24.2894 28.8264 24.2906 28.8264C24.6365 28.8264 24.9545 29.0169 25.1176 29.3223L27.3747 33.5483C27.381 33.5603 27.3871 33.5723 27.3929 33.5845C27.6179 34.0533 28.185 34.2573 28.657 34.0389C28.892 33.9302 29.0693 33.7361 29.1563 33.4924C29.2407 33.2561 29.2299 33.0022 29.1263 32.7747L26.8483 28.7211C26.6852 28.4308 26.6883 28.0758 26.8565 27.7884C27.0246 27.501 27.3326 27.3244 27.6656 27.3244H30.8798C31.4237 27.2966 31.6409 26.8682 31.6948 26.7366C31.7501 26.6016 31.9003 26.1292 31.5122 25.7175C31.157 25.3407 31.1744 24.7474 31.5511 24.3922C31.9279 24.037 32.5212 24.0545 32.8764 24.4312C33.6456 25.2471 33.8578 26.4027 33.4299 27.4473C33.0045 28.486 32.0485 29.1571 30.935 29.1987C30.9234 29.1992 30.9117 29.1994 30.9 29.1994H29.2679L30.7771 31.885C30.7863 31.9015 30.7951 31.9183 30.8034 31.9353C31.1376 32.6246 31.1798 33.4016 30.9221 34.1231C30.6644 34.8446 30.1396 35.4191 29.4442 35.7407C29.0634 35.9166 28.6619 35.9999 28.2658 36ZM19.6317 15.6817C20.0858 15.4327 20.2519 14.8629 20.003 14.4089L19.2061 12.9557C18.9571 12.5017 18.3874 12.3356 17.9333 12.5845C17.4793 12.8335 17.3131 13.4033 17.5621 13.8573L18.359 15.3105C18.5295 15.6214 18.8505 15.7974 19.1818 15.7974C19.3342 15.7974 19.4888 15.7601 19.6317 15.6817ZM17.6492 17.8136C17.8567 17.3392 17.6404 16.7864 17.1661 16.5789L15.6661 15.9227C15.1917 15.7151 14.6389 15.9315 14.4314 16.4058C14.2238 16.8802 14.4402 17.433 14.9145 17.6405L16.4145 18.2968C16.5368 18.3503 16.6643 18.3756 16.7898 18.3756C17.151 18.3756 17.4952 18.1656 17.6492 17.8136ZM23.4923 14.7811L24.0079 13.2343C24.1717 12.743 23.9062 12.2121 23.415 12.0484C22.924 11.8846 22.3928 12.1501 22.2291 12.6413L21.7135 14.1882C21.5498 14.6794 21.8152 15.2104 22.3064 15.3741C22.4048 15.4069 22.5047 15.4225 22.603 15.4225C22.9955 15.4225 23.3614 15.174 23.4923 14.7811ZM25.9734 17.1599L27.2391 16.2224C27.6551 15.9142 27.7425 15.3271 27.4344 14.911C27.1262 14.495 26.539 14.4076 26.123 14.7157L24.8574 15.6532C24.4413 15.9614 24.3539 16.5485 24.662 16.9646C24.846 17.2129 25.1292 17.3442 25.4161 17.3442C25.61 17.3442 25.8057 17.2842 25.9734 17.1599ZM15.7323 22.4333L17.1385 21.8708C17.6193 21.6785 17.8531 21.1329 17.6608 20.6522C17.4685 20.1714 16.9228 19.9376 16.4422 20.1299L15.0359 20.6924C14.5552 20.8847 14.3214 21.4303 14.5136 21.911C14.6603 22.2776 15.0123 22.5006 15.3843 22.5006C15.5003 22.5006 15.6181 22.479 15.7323 22.4333Z" fill="white"/>
</g>
<defs>
<clipPath id="clip0_373_3042">
<rect width="24" height="24" fill="white" transform="translate(12 12)"/>
</clipPath>
</defs>
</svg>
