<svg width="61" height="61" viewBox="0 0 61 61" fill="none" xmlns="http://www.w3.org/2000/svg">
<circle cx="30.5" cy="30.5" r="30.5" fill="#E3EBFC"/>
<path d="M41.2049 22.9192L27.4897 36.6344C27.8964 37.2167 28.2422 37.8455 28.5199 38.512L31.942 46.7519L41.2049 22.9174V22.9192ZM25.0763 34.221L38.7933 20.504L14.9587 29.7669L23.1986 33.1908C23.86 33.4651 24.4896 33.8105 25.0763 34.221ZM45.8919 20.1349L35.0935 47.9165C34.4127 49.6723 32.4472 50.5735 30.7057 49.9303C30.2815 49.7736 29.8943 49.5308 29.5684 49.2172C29.2425 48.9036 28.9849 48.5261 28.8119 48.1082L25.3898 39.8683C24.724 38.2626 23.4481 36.9867 21.8423 36.3208L13.6007 32.8988C11.8914 32.1875 11.1102 30.2113 11.8592 28.4805C12.0428 28.0576 12.3083 27.6752 12.6404 27.3554C12.9725 27.0356 13.3646 26.7847 13.7942 26.6172L41.5757 15.8152C42.1794 15.5719 42.8413 15.5116 43.479 15.6416C44.1167 15.7717 44.7021 16.0864 45.1623 16.5466C45.6225 17.0068 45.9372 17.5922 46.0673 18.2299C46.1973 18.8676 46.1369 19.5295 45.8937 20.1331L45.8919 20.1349Z" fill="#434C88"/>
</svg>
