<svg width="64" height="64" viewBox="0 0 64 64" fill="none" xmlns="http://www.w3.org/2000/svg">
<rect width="64" height="64" rx="32" fill="#050C72"/>
<path d="M47.8906 35.7163V28.2837C49.0947 28.0246 50 26.9522 50 25.6719C50 23.5567 47.6518 22.2926 45.892 23.419L40.581 18.108C41.7076 16.3479 40.4431 14 38.3281 14C36.6699 14 35.3981 15.5065 35.7006 17.1549L29.5192 19.7236L27.9166 18.121C29.0501 16.3734 27.8045 14 25.6719 14C23.5595 14 22.2908 16.3453 23.419 18.1081L18.108 23.4191C16.3477 22.2923 14 23.5574 14 25.6719C14 27.3333 15.5093 28.6011 17.1549 28.2994L18.6927 32L17.1549 35.7006C15.5034 35.3976 14 36.6731 14 38.3281C14 40.4433 16.3482 41.7074 18.108 40.581L23.419 45.892C22.2923 47.6523 23.5574 50 25.6719 50C26.9522 50 28.0245 49.0947 28.2836 47.8906H35.7163C35.9754 49.0947 37.0478 50 38.3281 50C39.8013 50 40.9999 48.8014 40.9999 47.3281C40.9999 45.8549 39.8013 44.6562 38.3281 44.6562C37.0477 44.6562 35.9754 45.5616 35.7163 46.7656H28.4906L45.1325 39.8501C46.6083 41.986 50 40.9473 50 38.3281C50 37.0478 49.0947 35.9755 47.8906 35.7163ZM19.3005 37.8513L20.8572 37.2087L24.0785 44.9604L18.9084 39.7903C19.2869 39.2144 19.4217 38.5215 19.3005 37.8513ZM33.9666 25.7621L31.5692 31.5693L21.4654 35.7405L19.911 32L23.4601 23.4596L29.2556 21.051L33.9666 25.7621ZM39.364 29.5685L42.5346 28.2595L45.7197 35.9241L39.364 29.5685ZM43.5745 27.8302L45.1286 27.1886C45.5143 27.7501 46.0991 28.1412 46.7656 28.2836V35.5094L43.5745 27.8302ZM44.6995 26.1487L43.1428 26.7913L39.9215 19.0397L45.0916 24.2097C44.7131 24.7856 44.5783 25.4785 44.6995 26.1487ZM37.8516 19.3005C38.162 19.3567 38.4808 19.36 38.8112 19.2994L42.1029 27.2206L38.5025 28.707L35.2931 25.4976L37.8516 19.3005ZM37.3764 29.1719L33.0364 30.9636L34.8281 26.6237L37.3764 29.1719ZM30.9635 33.0365L26.1487 44.6996C25.8281 44.6416 25.5097 44.6418 25.1888 44.7007L21.8971 36.7794L30.9635 33.0365ZM27.8665 45.8066C27.6829 45.5428 27.4525 45.313 27.1881 45.1299L32.4307 32.4308L38.2378 30.0334L45.0835 36.8791C44.7062 37.4607 44.5797 38.152 44.7008 38.8114L27.8665 45.8066ZM36.1334 18.1933C36.317 18.4572 36.5476 18.6872 36.8121 18.8703L34.4315 24.6359L30.3795 20.5839L36.1334 18.1933ZM24.0718 21.9873L25.1888 19.2993C25.8496 19.4206 26.5405 19.2931 27.121 18.9165L28.3951 20.1907L24.0718 21.9873ZM19.0397 24.0785L24.0785 19.0397L22.5993 22.5993L19.0397 24.0785ZM18.1938 27.8676C19.0537 27.2735 19.4904 26.2304 19.2995 25.1888L21.9874 24.0717L19.3019 30.5342L18.1938 27.8676ZM20.4255 36.1698L18.8701 36.8119C18.687 36.5475 18.4571 36.317 18.1934 36.1334L19.3019 33.4659L20.4255 36.1698Z" fill="white"/>
</svg>
