<svg width="1920" height="561" viewBox="0 0 1920 561" fill="none" xmlns="http://www.w3.org/2000/svg">
<g clip-path="url(#clip0_2728_15463)">
<path fill-rule="evenodd" clip-rule="evenodd" d="M1080 52.5845C1401.36 36.0501 1613.28 29.6707 1920 38.5238V451.046L1920 487.004L1920 561H0V466.533V451.046V0C220.08 58.4041 758.64 69.1189 1080 52.5845Z" fill="#F1F6FF"/>
<path d="M176.241 89.6133C174.674 86.4791 175.943 82.6673 179.077 81.0994C182.211 79.5315 186.023 80.8012 187.591 83.9354C189.159 87.0696 187.889 90.8814 184.755 92.4493C181.621 94.0172 177.809 92.7475 176.241 89.6133Z" fill="#2C3ACF"/>
<g opacity="0.06">
<path d="M75.9068 380.66C1.08158 412.927 -81.5526 377.823 -108.662 302.253C-135.772 226.682 -97.0904 139.263 -22.2652 106.996C52.56 74.7294 135.195 109.834 162.304 185.404C189.414 260.974 150.732 348.393 75.9068 380.66Z" fill="#2C3ACF"/>
<path d="M129.437 252.536C130.008 252.284 130.579 252.033 130.951 251.216C132.464 249.896 132.808 247.135 131.067 245.945L50.4452 167.309C49.2752 165.867 46.5915 165.746 45.2778 167.63C43.7643 168.95 43.421 171.712 45.162 172.901L125.784 251.537C126.383 253.231 128.295 253.04 129.437 252.536Z" fill="white"/>
<path d="M40.6902 289.416C41.8327 288.913 43.3469 287.592 43.3189 285.647L54.0657 166.696C54.0378 164.751 52.6673 162.744 50.7539 162.935C48.8405 163.126 46.7554 164.698 46.7833 166.644L36.0365 285.594C36.0645 287.54 37.4345 289.546 39.3479 289.355C39.5477 289.92 40.119 289.668 40.6902 289.416Z" fill="white"/>
<path d="M43.303 285.962C43.8741 285.71 44.445 285.458 44.8164 284.642C46.3298 283.322 46.6735 280.561 44.9325 279.371L-35.6889 200.735C-36.8589 199.293 -39.5426 199.171 -40.8564 201.056C-42.3698 202.376 -42.7131 205.137 -40.9721 206.327L39.6493 284.963C40.2483 286.657 42.161 286.466 43.303 285.962Z" fill="white"/>
<path d="M-45.4424 322.843C-44.2999 322.339 -42.7857 321.019 -42.8136 319.073L-32.0668 200.123C-32.0948 198.177 -33.4652 196.171 -35.3786 196.362C-37.2921 196.553 -39.3772 198.125 -39.3492 200.07L-50.096 319.021C-50.0681 320.966 -48.6981 322.973 -46.7846 322.782C-46.5849 323.346 -46.0136 323.094 -45.4424 322.843Z" fill="white"/>
<path d="M135.315 269.136C127.993 272.395 120.071 269.39 117.621 262.426C115.172 255.461 119.121 247.174 126.443 243.915C133.766 240.656 141.688 243.661 144.138 250.625C146.588 257.59 142.638 265.878 135.315 269.136Z" fill="white"/>
<path d="M49.1727 302.576C41.8504 305.834 33.9288 302.83 31.4788 295.865C29.0289 288.901 32.9784 280.613 40.3006 277.354C47.6229 274.096 55.5449 277.1 57.9949 284.065C60.4448 291.029 56.4949 299.317 49.1727 302.576Z" fill="white"/>
</g>
<g opacity="0.06">
<path d="M250.621 151.277C218.636 151.531 190.705 124.656 188.236 91.2486C185.767 57.8415 209.694 30.5536 241.679 30.2993C273.664 30.045 301.594 56.9207 304.064 90.3278C306.533 123.735 282.605 151.023 250.621 151.277Z" fill="#2C3ACF"/>
<path d="M284.493 108.785C284.738 108.784 284.982 108.783 285.208 108.532C285.922 108.28 286.335 107.278 285.789 106.53L262.888 62.8483C262.586 62.0992 261.57 61.6026 260.874 62.1052C260.16 62.3578 259.747 63.3597 260.293 64.1079L283.194 107.789C283.251 108.539 284.004 108.786 284.493 108.785Z" fill="white"/>
<path d="M246.94 109.744C247.429 109.742 248.144 109.489 248.331 108.738L264.567 64.9057C264.755 64.1546 264.434 63.1552 263.681 62.9078C262.928 62.6604 261.968 62.9141 261.781 63.6652L245.545 107.498C245.357 108.249 245.678 109.248 246.431 109.496C246.45 109.746 246.695 109.745 246.94 109.744Z" fill="white"/>
<path d="M248.526 110.534C248.771 110.533 249.016 110.532 249.241 110.281C249.956 110.029 250.369 109.027 249.822 108.279L226.921 64.5974C226.619 63.8482 225.603 63.3516 224.907 63.8543C224.193 64.1069 223.78 65.1087 224.326 65.857L247.227 109.538C247.285 110.288 248.037 110.536 248.526 110.534Z" fill="white"/>
<path d="M210.97 111.509C211.46 111.507 212.175 111.255 212.362 110.503L228.598 66.6708C228.786 65.9197 228.465 64.9203 227.712 64.673C226.959 64.4256 225.999 64.6793 225.812 65.4304L209.576 109.263C209.388 110.014 209.709 111.013 210.462 111.261C210.481 111.511 210.726 111.51 210.97 111.509Z" fill="white"/>
<path d="M283.552 115.372C280.411 115.371 277.668 112.872 277.426 109.79C277.184 106.708 279.535 104.211 282.676 104.213C285.817 104.214 288.559 106.713 288.801 109.795C289.043 112.877 286.693 115.373 283.552 115.372Z" fill="white"/>
<path d="M247.579 117.119C244.438 117.117 241.696 114.617 241.454 111.535C241.213 108.454 243.563 105.957 246.704 105.959C249.845 105.961 252.588 108.461 252.829 111.543C253.071 114.624 250.721 117.121 247.579 117.119Z" fill="white"/>
<path d="M211.614 118.876C208.473 118.874 205.731 116.374 205.489 113.293C205.248 110.211 207.598 107.715 210.739 107.717C213.881 107.719 216.623 110.218 216.865 113.3C217.106 116.381 214.756 118.878 211.614 118.876Z" fill="white"/>
</g>
<g opacity="0.06">
<path d="M310.189 282.431C291.304 292.626 269.434 286.633 261.34 269.047C253.245 251.46 261.992 228.939 280.877 218.744C299.761 208.55 321.631 214.542 329.726 232.129C337.82 249.715 329.073 272.236 310.189 282.431Z" fill="#2C3ACF"/>
<path d="M322.077 249.699C322.22 249.621 322.364 249.543 322.447 249.333C322.818 248.968 322.863 248.284 322.394 248.044L300.288 231.179C299.963 230.861 299.266 230.908 298.956 231.406C298.585 231.772 298.54 232.455 299.009 232.695L321.115 249.56C321.297 249.956 321.789 249.854 322.077 249.699Z" fill="white"/>
<path d="M299.793 261.275C300.081 261.119 300.452 260.754 300.414 260.28L301.315 230.953C301.277 230.479 300.891 230.029 300.399 230.131C299.906 230.232 299.392 230.676 299.43 231.15L298.529 260.477C298.567 260.95 298.953 261.401 299.445 261.299C299.506 261.431 299.649 261.353 299.793 261.275Z" fill="white"/>
<path d="M300.512 260.398C300.655 260.32 300.799 260.242 300.882 260.032C301.253 259.667 301.298 258.983 300.829 258.743L278.723 241.878C278.398 241.56 277.701 241.608 277.391 242.105C277.02 242.471 276.975 243.154 277.445 243.394L299.55 260.259C299.732 260.655 300.224 260.554 300.512 260.398Z" fill="white"/>
<path d="M278.229 272.001C278.517 271.845 278.888 271.479 278.85 271.006L279.751 241.679C279.713 241.205 279.327 240.755 278.835 240.856C278.342 240.958 277.828 241.401 277.866 241.875L276.965 271.202C277.003 271.676 277.389 272.126 277.881 272.024C277.942 272.156 278.085 272.079 278.229 272.001Z" fill="white"/>
<path d="M323.797 253.605C321.95 254.614 319.851 254.109 319.108 252.478C318.365 250.847 319.259 248.708 321.105 247.7C322.951 246.691 325.05 247.196 325.794 248.827C326.537 250.458 325.643 252.597 323.797 253.605Z" fill="white"/>
<path d="M302.233 264.329C300.387 265.337 298.288 264.833 297.545 263.202C296.802 261.571 297.696 259.432 299.542 258.423C301.388 257.415 303.487 257.92 304.23 259.55C304.974 261.181 304.079 263.321 302.233 264.329Z" fill="white"/>
<path d="M280.673 275.047C278.827 276.055 276.728 275.55 275.984 273.92C275.241 272.289 276.135 270.149 277.981 269.141C279.827 268.133 281.927 268.637 282.67 270.268C283.413 271.899 282.519 274.038 280.673 275.047Z" fill="white"/>
</g>
<path d="M270.446 192.179C271.155 195.177 274.173 197.042 277.171 196.334C280.168 195.626 282.033 192.607 281.325 189.609C280.617 186.612 277.599 184.747 274.601 185.455C271.603 186.163 269.738 189.182 270.446 192.179Z" fill="#00B159"/>
<path d="M1688.62 362.523C1689.4 359.24 1687.36 355.951 1684.08 355.176C1680.8 354.401 1677.51 356.433 1676.74 359.716C1675.96 362.998 1677.99 366.287 1681.28 367.063C1684.56 367.838 1687.85 365.805 1688.62 362.523Z" fill="#2C3ACF"/>
<g opacity="0.06">
<path d="M1846.99 612.922C1924.22 626.588 1993.84 575.426 2002.52 498.648C2011.19 421.87 1955.62 348.55 1878.39 334.884C1801.17 321.218 1731.54 372.381 1722.87 449.158C1714.2 525.936 1769.77 599.256 1846.99 612.922Z" fill="#2C3ACF"/>
<path d="M1768.51 504.757C1767.92 504.648 1767.33 504.538 1766.8 503.856C1765.09 502.954 1764.16 500.444 1765.52 498.944L1823.63 407.455C1824.41 405.846 1826.9 405.138 1828.55 406.613C1830.26 407.514 1831.19 410.025 1829.82 411.524L1771.71 503.013C1771.52 504.732 1769.69 504.976 1768.51 504.757Z" fill="white"/>
<path d="M1859.79 519.673C1858.6 519.454 1856.89 518.552 1856.49 516.724L1820.11 407.691C1819.7 405.863 1820.54 403.681 1822.38 403.436C1824.21 403.192 1826.51 404.203 1826.91 406.031L1863.3 515.063C1863.7 516.892 1862.86 519.074 1861.03 519.319C1860.97 519.892 1860.38 519.782 1859.79 519.673Z" fill="white"/>
<path d="M1856.58 517.008C1855.99 516.899 1855.4 516.789 1854.87 516.107C1853.16 515.205 1852.23 512.695 1853.59 511.195L1911.7 419.706C1912.48 418.097 1914.97 417.389 1916.62 418.864C1918.33 419.765 1919.26 422.276 1917.89 423.775L1859.78 515.264C1859.59 516.983 1857.76 517.227 1856.58 517.008Z" fill="white"/>
<path d="M1947.85 531.914C1946.67 531.695 1944.96 530.793 1944.56 528.965L1908.17 419.933C1907.77 418.104 1908.61 415.922 1910.44 415.677C1912.28 415.433 1914.58 416.444 1914.98 418.272L1951.37 527.305C1951.77 529.133 1950.93 531.315 1949.1 531.56C1949.03 532.133 1948.44 532.023 1947.85 531.914Z" fill="white"/>
<path d="M1766.68 521.625C1774.26 523.057 1781.02 518.49 1781.77 511.425C1782.52 504.359 1776.99 497.471 1769.41 496.039C1761.83 494.607 1755.08 499.174 1754.32 506.239C1753.57 513.304 1759.1 520.193 1766.68 521.625Z" fill="white"/>
<path d="M1854.75 533.877C1862.33 535.308 1869.09 530.742 1869.84 523.677C1870.6 516.611 1865.06 509.723 1857.48 508.291C1849.9 506.859 1843.15 511.426 1842.4 518.491C1841.64 525.556 1847.18 532.445 1854.75 533.877Z" fill="white"/>
</g>
<g opacity="0.06">
<path d="M1632.6 436.725C1662.61 429.887 1682.83 398.535 1677.75 366.699C1672.67 334.863 1644.22 314.599 1614.21 321.438C1584.19 328.276 1563.98 359.628 1569.06 391.464C1574.14 423.3 1602.59 443.564 1632.6 436.725Z" fill="#2C3ACF"/>
<path d="M1591.47 404.425C1591.24 404.478 1591.01 404.531 1590.74 404.346C1590.02 404.268 1589.41 403.421 1589.76 402.599L1601.54 356.62C1601.66 355.852 1602.5 355.162 1603.26 355.479C1603.99 355.557 1604.6 356.404 1604.25 357.226L1592.47 403.205C1592.58 403.92 1591.93 404.318 1591.47 404.425Z" fill="white"/>
<path d="M1626.86 397.021C1626.4 397.127 1625.67 397.049 1625.33 396.387L1600.43 358.925C1600.08 358.263 1600.16 357.256 1600.81 356.858C1601.46 356.459 1602.42 356.485 1602.76 357.147L1627.67 394.609C1628.01 395.271 1627.93 396.277 1627.28 396.676C1627.32 396.914 1627.09 396.968 1626.86 397.021Z" fill="white"/>
<path d="M1625.55 398.115C1625.32 398.169 1625.09 398.222 1624.82 398.037C1624.1 397.958 1623.49 397.111 1623.84 396.29L1635.62 350.311C1635.74 349.542 1636.58 348.852 1637.34 349.169C1638.07 349.247 1638.67 350.094 1638.33 350.916L1626.54 396.895C1626.66 397.61 1626.01 398.009 1625.55 398.115Z" fill="white"/>
<path d="M1660.93 390.706C1660.47 390.813 1659.75 390.734 1659.41 390.072L1634.5 352.611C1634.16 351.949 1634.24 350.942 1634.89 350.543C1635.54 350.145 1636.5 350.17 1636.84 350.832L1661.74 388.294C1662.08 388.956 1662.01 389.963 1661.35 390.361C1661.39 390.6 1661.16 390.653 1660.93 390.706Z" fill="white"/>
<path d="M1593.81 410.379C1596.75 409.683 1598.77 406.735 1598.31 403.796C1597.86 400.856 1595.1 399.037 1592.16 399.733C1589.22 400.43 1587.2 403.377 1587.66 406.317C1588.11 409.257 1590.87 411.075 1593.81 410.379Z" fill="white"/>
<path d="M1627.89 404.063C1630.83 403.367 1632.85 400.419 1632.39 397.479C1631.94 394.539 1629.18 392.721 1626.24 393.418C1623.3 394.115 1621.28 397.063 1621.74 400.002C1622.19 402.942 1624.95 404.76 1627.89 404.063Z" fill="white"/>
<path d="M1661.97 397.76C1664.91 397.063 1666.92 394.115 1666.47 391.175C1666.01 388.236 1663.26 386.417 1660.32 387.114C1657.37 387.811 1655.36 390.759 1655.81 393.699C1656.27 396.638 1659.02 398.457 1661.97 397.76Z" fill="white"/>
</g>
<g opacity="0.06">
<path d="M1605.83 572.76C1625.77 578.13 1644.93 567.679 1648.62 549.416C1652.31 531.153 1639.13 511.995 1619.19 506.625C1599.25 501.255 1580.09 511.706 1576.4 529.969C1572.71 548.232 1585.89 567.39 1605.83 572.76Z" fill="#2C3ACF"/>
<path d="M1587.45 544.724C1587.3 544.683 1587.14 544.642 1587.02 544.464C1586.59 544.203 1586.4 543.573 1586.79 543.244L1603.76 522.558C1603.99 522.188 1604.66 522.078 1605.06 522.476C1605.48 522.736 1605.68 523.366 1605.29 523.695L1588.32 544.382C1588.24 544.793 1587.75 544.806 1587.45 544.724Z" fill="white"/>
<path d="M1610.88 550.642C1610.58 550.56 1610.15 550.3 1610.08 549.848L1602.75 522.579C1602.68 522.127 1602.94 521.62 1603.43 521.606C1603.91 521.592 1604.49 521.894 1604.56 522.346L1611.89 549.615C1611.96 550.067 1611.7 550.574 1611.22 550.588C1611.19 550.725 1611.04 550.684 1610.88 550.642Z" fill="white"/>
<path d="M1610.02 549.979C1609.86 549.938 1609.71 549.897 1609.59 549.719C1609.16 549.458 1608.97 548.828 1609.35 548.499L1626.33 527.813C1626.56 527.443 1627.22 527.333 1627.62 527.73C1628.05 527.991 1628.25 528.621 1627.86 528.95L1610.89 549.637C1610.8 550.048 1610.32 550.061 1610.02 549.979Z" fill="white"/>
<path d="M1633.45 555.91C1633.15 555.828 1632.72 555.567 1632.65 555.115L1625.32 527.847C1625.25 527.394 1625.51 526.887 1625.99 526.874C1626.48 526.86 1627.06 527.161 1627.13 527.614L1634.46 554.882C1634.53 555.334 1634.27 555.841 1633.78 555.855C1633.75 555.992 1633.6 555.951 1633.45 555.91Z" fill="white"/>
<path d="M1586.7 548.756C1588.65 549.292 1590.51 548.355 1590.84 546.663C1591.18 544.971 1589.87 543.165 1587.92 542.63C1585.96 542.094 1584.11 543.031 1583.77 544.723C1583.44 546.414 1584.75 548.22 1586.7 548.756Z" fill="white"/>
<path d="M1609.27 554.035C1611.22 554.57 1613.08 553.633 1613.41 551.942C1613.75 550.25 1612.44 548.444 1610.48 547.908C1608.53 547.372 1606.68 548.309 1606.34 550.001C1606.01 551.693 1607.32 553.499 1609.27 554.035Z" fill="white"/>
<path d="M1631.84 559.301C1633.79 559.837 1635.64 558.9 1635.98 557.208C1636.31 555.516 1635 553.71 1633.05 553.174C1631.1 552.639 1629.24 553.576 1628.91 555.267C1628.57 556.959 1629.88 558.765 1631.84 559.301Z" fill="white"/>
</g>
<path d="M1623.08 479.431C1623.08 482.395 1620.67 484.81 1617.7 484.81C1614.74 484.81 1612.33 482.395 1612.33 479.431C1612.33 476.466 1614.74 474.052 1617.7 474.052C1620.67 474.052 1623.08 476.466 1623.08 479.431Z" fill="#00B159"/>
</g>
<defs>
<clipPath id="clip0_2728_15463">
<rect width="1920" height="561" fill="white"/>
</clipPath>
</defs>
</svg>
