<svg width="64" height="64" viewBox="0 0 64 64" fill="none" xmlns="http://www.w3.org/2000/svg">
<circle cx="32" cy="32" r="28.5867" stroke="white" stroke-width="2.56"/>
<path fill-rule="evenodd" clip-rule="evenodd" d="M32.04 11.3067C31.5852 11.3067 31.1336 11.3214 30.6859 11.3503C30.3332 11.3731 30.0657 11.6775 30.0885 12.0302C30.1113 12.383 30.4158 12.6504 30.7685 12.6276C31.1887 12.6005 31.6127 12.5867 32.04 12.5867C32.4673 12.5867 32.8913 12.6005 33.3115 12.6276C33.6643 12.6504 33.9687 12.383 33.9915 12.0302C34.0143 11.6775 33.7468 11.3731 33.3941 11.3503C32.9464 11.3214 32.4949 11.3067 32.04 11.3067ZM36.0779 11.7005C35.7311 11.6319 35.3944 11.8574 35.3258 12.2042C35.2572 12.5509 35.4827 12.8876 35.8295 12.9562C36.6679 13.1221 37.4869 13.3419 38.2826 13.612C38.6173 13.7256 38.9808 13.5463 39.0944 13.2116C39.2079 12.8769 39.0287 12.5135 38.694 12.3999C37.8453 12.1119 36.9719 11.8774 36.0779 11.7005ZM28.2506 12.9562C28.5973 12.8876 28.8228 12.5509 28.7542 12.2042C28.6856 11.8574 28.3489 11.6319 28.0022 11.7005C27.1081 11.8774 26.2347 12.1119 25.386 12.3999C25.0513 12.5135 24.8721 12.8769 24.9857 13.2116C25.0993 13.5463 25.4627 13.7256 25.7974 13.612C26.5932 13.3419 27.4121 13.1221 28.2506 12.9562ZM23.4522 14.5845C23.7691 14.4279 23.8991 14.0441 23.7425 13.7272C23.5859 13.4103 23.2021 13.2803 22.8852 13.4369C22.0725 13.8385 21.29 14.2918 20.542 14.7925C20.2483 14.9892 20.1696 15.3867 20.3662 15.6804C20.5629 15.9741 20.9604 16.0528 21.2541 15.8562C21.9559 15.3863 22.6899 14.9611 23.4522 14.5845ZM41.1948 13.4369C40.8779 13.2803 40.4941 13.4103 40.3375 13.7272C40.1809 14.0441 40.3109 14.4279 40.6278 14.5845C41.3901 14.9611 42.1241 15.3863 42.8259 15.8562C43.1196 16.0528 43.5171 15.9741 43.7138 15.6804C43.9104 15.3867 43.8317 14.9892 43.538 14.7925C42.79 14.2918 42.0075 13.8385 41.1948 13.4369ZM19.24 17.4039C19.5057 17.1707 19.532 16.7663 19.2988 16.5007C19.0657 16.235 18.6613 16.2087 18.3957 16.4418C17.7169 17.0375 17.0775 17.6769 16.4818 18.3557C16.3591 18.4955 16.3083 18.6737 16.3264 18.8452C16.6348 18.9927 16.9261 19.1702 17.1965 19.3738C17.2888 19.3377 17.374 19.2796 17.4439 19.2C18.0029 18.563 18.603 17.9629 19.24 17.4039ZM11.7345 27.9982C12.0996 28.1908 12.4908 28.3406 12.9015 28.4408C12.7622 28.6501 12.5061 28.766 12.2442 28.7142C11.9095 28.648 11.6877 28.3319 11.7345 27.9982ZM51.6401 25.346C51.5265 25.0113 51.1631 24.8321 50.8284 24.9457C50.4937 25.0593 50.3144 25.4227 50.428 25.7574C50.6981 26.5532 50.9179 27.3721 51.0838 28.2106C51.1524 28.5573 51.4891 28.7828 51.8359 28.7142C52.1826 28.6456 52.4081 28.3089 52.3395 27.9622C52.1626 27.0681 51.9282 26.1947 51.6401 25.346ZM52.6897 30.6459C52.6669 30.2932 52.3625 30.0257 52.0098 30.0485C51.6571 30.0713 51.3896 30.3757 51.4124 30.7285C51.4396 31.1487 51.4533 31.5727 51.4533 32C51.4533 32.4273 51.4396 32.8513 51.4124 33.2715C51.3896 33.6243 51.6571 33.9287 52.0098 33.9515C52.3625 33.9743 52.6669 33.7068 52.6897 33.3541C52.7187 32.9064 52.7333 32.4549 52.7333 32C52.7333 31.5452 52.7187 31.0936 52.6897 30.6459ZM12.6676 30.7285C12.6904 30.3757 12.423 30.0713 12.0702 30.0485C11.7175 30.0257 11.4131 30.2932 11.3903 30.6459C11.3614 31.0936 11.3467 31.5452 11.3467 32C11.3467 32.4549 11.3614 32.9064 11.3903 33.3541C11.4131 33.7068 11.7175 33.9743 12.0702 33.9515C12.423 33.9287 12.6904 33.6243 12.6676 33.2715C12.6405 32.8513 12.6267 32.4273 12.6267 32C12.6267 31.5727 12.6405 31.1487 12.6676 30.7285ZM52.3395 36.0379C52.4081 35.6911 52.1826 35.3544 51.8359 35.2858C51.4891 35.2172 51.1524 35.4427 51.0838 35.7894C50.9179 36.6279 50.6981 37.4469 50.428 38.2426C50.3144 38.5773 50.4937 38.9407 50.8284 39.0543C51.1631 39.1679 51.5265 38.9887 51.6401 38.654C51.9282 37.8053 52.1626 36.9319 52.3395 36.0379ZM12.9962 35.7894C12.9276 35.4427 12.5909 35.2172 12.2442 35.2858C11.8974 35.3544 11.6719 35.6911 11.7405 36.0379C11.9174 36.9319 12.1519 37.8053 12.4399 38.654C12.5535 38.9887 12.9169 39.1679 13.2516 39.0543C13.5863 38.9408 13.7656 38.5773 13.652 38.2426C13.3819 37.4469 13.1621 36.6279 12.9962 35.7894ZM14.6245 40.5878C14.4679 40.2709 14.0841 40.1409 13.7672 40.2975C13.4503 40.4541 13.3203 40.8379 13.4769 41.1548C13.8785 41.9675 14.3318 42.75 14.8325 43.498C15.0292 43.7917 15.4267 43.8704 15.7204 43.6738C16.0141 43.4771 16.0928 43.0796 15.8962 42.7859C15.4263 42.0841 15.0011 41.3501 14.6245 40.5878ZM50.6031 41.1548C50.7597 40.8379 50.6297 40.4541 50.3128 40.2975C49.9959 40.1409 49.6121 40.2709 49.4556 40.5878C49.0789 41.3501 48.6537 42.0841 48.1839 42.7859C47.9872 43.0796 48.0659 43.4771 48.3596 43.6738C48.6533 43.8704 49.0509 43.7917 49.2475 43.498C49.7482 42.75 50.2016 41.9675 50.6031 41.1548ZM17.4439 44.8C17.2107 44.5344 16.8063 44.508 16.5407 44.7412C16.275 44.9743 16.2487 45.3787 16.4818 45.6444C17.0775 46.3231 17.7169 46.9625 18.3957 47.5582C18.6613 47.7913 19.0657 47.765 19.2988 47.4993C19.532 47.2337 19.5057 46.8293 19.24 46.5961C18.603 46.0371 18.0029 45.437 17.4439 44.8ZM47.5982 45.6444C47.8313 45.3787 47.805 44.9743 47.5393 44.7412C47.2737 44.508 46.8693 44.5344 46.6362 44.8C46.0771 45.437 45.477 46.0371 44.84 46.5962C44.5744 46.8293 44.548 47.2337 44.7812 47.4993C45.0143 47.765 45.4187 47.7913 45.6844 47.5582C46.3631 46.9625 47.0025 46.3231 47.5982 45.6444ZM21.2541 48.1438C20.9604 47.9472 20.5629 48.0259 20.3662 48.3196C20.1696 48.6133 20.2483 49.0108 20.542 49.2075C21.29 49.7082 22.0725 50.1616 22.8852 50.5631C23.2021 50.7197 23.5859 50.5897 23.7425 50.2728C23.8991 49.9559 23.7691 49.5721 23.4522 49.4155C22.69 49.0389 21.9559 48.6137 21.2541 48.1438ZM43.538 49.2075C43.8317 49.0108 43.9104 48.6133 43.7138 48.3196C43.5171 48.0259 43.1196 47.9472 42.8259 48.1438C42.1241 48.6137 41.3901 49.0389 40.6278 49.4155C40.3109 49.5721 40.1809 49.9559 40.3375 50.2728C40.4941 50.5897 40.8779 50.7197 41.1948 50.5631C42.0075 50.1616 42.79 49.7082 43.538 49.2075ZM25.7974 50.388C25.4627 50.2744 25.0993 50.4537 24.9857 50.7884C24.8721 51.1231 25.0513 51.4865 25.386 51.6001C26.2347 51.8881 27.1081 52.1226 28.0022 52.2995C28.3489 52.3681 28.6856 52.1426 28.7542 51.7958C28.8228 51.4491 28.5973 51.1124 28.2506 51.0438C27.4121 50.8779 26.5932 50.6581 25.7974 50.388Z" fill="white"/>
<circle cx="14.08" cy="23.4667" r="4.62" stroke="white"/>
<circle cx="34.9867" cy="50.7733" r="4.62" stroke="white"/>
<circle cx="47.7865" cy="20.48" r="4.62" stroke="white"/>
<mask id="path-6-inside-1_1046_4237" fill="white">
<path fill-rule="evenodd" clip-rule="evenodd" d="M43 32C43 38.0751 38.0751 43 32 43C25.9249 43 21 38.0751 21 32C21 25.9248 25.9249 21 32 21C38.0751 21 43 25.9248 43 32ZM26.3733 34.2883C26.6318 34.4453 26.8037 34.7239 26.8037 35.0415C26.8037 35.532 26.3936 35.9297 25.8877 35.9297C25.3818 35.9297 24.9717 35.532 24.9717 35.0415C24.9717 34.551 25.3818 34.1534 25.8877 34.1534L25.9079 34.1536L28.7371 27.9706C28.7923 27.8503 28.9344 27.7973 29.0548 27.8525C29.0738 27.8612 29.0912 27.8721 29.1067 27.8848C29.1318 27.9052 29.153 27.931 29.1685 27.9615C29.1704 27.9651 29.1721 27.9687 29.1737 27.9723L32.0023 34.1534L32.0129 34.1534L34.8391 27.9778C34.8616 27.9242 34.9034 27.8786 34.9604 27.8526C34.9928 27.8378 35.0267 27.8308 35.0602 27.8308C35.0893 27.8308 35.1189 27.8361 35.1475 27.8473C35.1842 27.8617 35.2175 27.8851 35.2436 27.9161C35.259 27.9345 35.2714 27.9549 35.2807 27.9767L38.1074 34.1534C38.1093 34.1534 38.1113 34.1534 38.1133 34.1534C38.6192 34.1534 39.0293 34.551 39.0293 35.0415C39.0293 35.532 38.6192 35.9297 38.1133 35.9297C37.6075 35.9297 37.1974 35.532 37.1974 35.0415C37.1974 34.7194 37.3742 34.4373 37.639 34.2816L35.0602 28.6465L32.48 34.2847C32.7418 34.441 32.9164 34.7215 32.9164 35.0415C32.9164 35.532 32.5063 35.9297 32.0004 35.9297C31.4945 35.9297 31.0844 35.532 31.0844 35.0415C31.0844 34.7168 31.2641 34.4329 31.5323 34.278L28.9551 28.6463L26.3733 34.2883Z"/>
</mask>
<path fill-rule="evenodd" clip-rule="evenodd" d="M43 32C43 38.0751 38.0751 43 32 43C25.9249 43 21 38.0751 21 32C21 25.9248 25.9249 21 32 21C38.0751 21 43 25.9248 43 32ZM26.3733 34.2883C26.6318 34.4453 26.8037 34.7239 26.8037 35.0415C26.8037 35.532 26.3936 35.9297 25.8877 35.9297C25.3818 35.9297 24.9717 35.532 24.9717 35.0415C24.9717 34.551 25.3818 34.1534 25.8877 34.1534L25.9079 34.1536L28.7371 27.9706C28.7923 27.8503 28.9344 27.7973 29.0548 27.8525C29.0738 27.8612 29.0912 27.8721 29.1067 27.8848C29.1318 27.9052 29.153 27.931 29.1685 27.9615C29.1704 27.9651 29.1721 27.9687 29.1737 27.9723L32.0023 34.1534L32.0129 34.1534L34.8391 27.9778C34.8616 27.9242 34.9034 27.8786 34.9604 27.8526C34.9928 27.8378 35.0267 27.8308 35.0602 27.8308C35.0893 27.8308 35.1189 27.8361 35.1475 27.8473C35.1842 27.8617 35.2175 27.8851 35.2436 27.9161C35.259 27.9345 35.2714 27.9549 35.2807 27.9767L38.1074 34.1534C38.1093 34.1534 38.1113 34.1534 38.1133 34.1534C38.6192 34.1534 39.0293 34.551 39.0293 35.0415C39.0293 35.532 38.6192 35.9297 38.1133 35.9297C37.6075 35.9297 37.1974 35.532 37.1974 35.0415C37.1974 34.7194 37.3742 34.4373 37.639 34.2816L35.0602 28.6465L32.48 34.2847C32.7418 34.441 32.9164 34.7215 32.9164 35.0415C32.9164 35.532 32.5063 35.9297 32.0004 35.9297C31.4945 35.9297 31.0844 35.532 31.0844 35.0415C31.0844 34.7168 31.2641 34.4329 31.5323 34.278L28.9551 28.6463L26.3733 34.2883Z" fill="white"/>
<path d="M26.3733 34.2883L23.6453 33.04L22.5348 35.4668L24.8158 36.8523L26.3733 34.2883ZM25.8877 34.1534L25.919 31.1535L25.9034 31.1534H25.8877V34.1534ZM25.9079 34.1536L25.8765 37.1534L27.825 37.1738L28.6358 35.4019L25.9079 34.1536ZM28.7371 27.9706L26.0098 26.7211L26.0092 26.7224L28.7371 27.9706ZM29.0548 27.8525L30.3044 25.1251L30.3044 25.1251L29.0548 27.8525ZM29.1067 27.8848L27.2099 30.209L27.2116 30.2104L29.1067 27.8848ZM29.1685 27.9615L26.4945 29.3215L26.4956 29.3236L29.1685 27.9615ZM29.1737 27.9723L26.4362 29.1994L26.4409 29.2101L26.4458 29.2207L29.1737 27.9723ZM32.0023 34.1534L29.2744 35.4017L30.0694 37.139L31.9799 37.1533L32.0023 34.1534ZM32.0129 34.1534L31.9905 37.1534L33.9326 37.1679L34.7408 35.4018L32.0129 34.1534ZM34.8391 27.9778L37.567 29.2261L37.5872 29.182L37.606 29.1372L34.8391 27.9778ZM34.9604 27.8526L36.2055 30.582L36.21 30.58L34.9604 27.8526ZM35.0602 27.8308L35.058 30.8308L35.0623 30.8308L35.0602 27.8308ZM35.1475 27.8473L34.051 30.6397L34.0546 30.6412L35.1475 27.8473ZM35.2436 27.9161L32.9463 29.8456L32.9476 29.8471L35.2436 27.9161ZM35.2807 27.9767L32.5202 29.1513L32.536 29.1884L32.5528 29.2251L35.2807 27.9767ZM38.1074 34.1534L35.3794 35.4018L36.1865 37.1654L38.126 37.1533L38.1074 34.1534ZM37.639 34.2816L39.1599 36.8675L41.4934 35.4949L40.3669 33.0332L37.639 34.2816ZM35.0602 28.6465L37.7881 27.3981L35.0602 21.4371L32.3322 27.3981L35.0602 28.6465ZM32.48 34.2847L29.752 33.0363L28.6328 35.4819L30.9422 36.8606L32.48 34.2847ZM31.5323 34.278L33.0329 36.8757L35.3957 35.5108L34.2602 33.0296L31.5323 34.278ZM28.9551 28.6463L31.683 27.3979L28.955 21.4367L26.2271 27.398L28.9551 28.6463ZM32 46C39.732 46 46 39.732 46 32H40C40 36.4183 36.4183 40 32 40V46ZM18 32C18 39.732 24.268 46 32 46V40C27.5817 40 24 36.4183 24 32H18ZM32 18C24.268 18 18 24.268 18 32H24C24 27.5817 27.5817 24 32 24V18ZM46 32C46 24.268 39.732 18 32 18V24C36.4183 24 40 27.5817 40 32H46ZM29.8037 35.0415C29.8037 33.6042 29.0219 32.387 27.9308 31.7243L24.8158 36.8523C24.2417 36.5036 23.8037 35.8437 23.8037 35.0415H29.8037ZM25.8877 38.9297C27.9626 38.9297 29.8037 37.2754 29.8037 35.0415H23.8037C23.8037 33.7887 24.8246 32.9297 25.8877 32.9297V38.9297ZM21.9717 35.0415C21.9717 37.2754 23.8128 38.9297 25.8877 38.9297V32.9297C26.9508 32.9297 27.9717 33.7887 27.9717 35.0415H21.9717ZM25.8877 31.1534C23.8128 31.1534 21.9717 32.8076 21.9717 35.0415H27.9717C27.9717 36.2944 26.9508 37.1534 25.8877 37.1534V31.1534ZM25.9392 31.1537L25.919 31.1535L25.8564 37.1532L25.8765 37.1534L25.9392 31.1537ZM26.0092 26.7224L23.1799 32.9053L28.6358 35.4019L31.4651 29.2189L26.0092 26.7224ZM30.3044 25.1251C28.6747 24.3784 26.7536 25.0975 26.0098 26.7211L31.4645 29.2202C30.8309 30.6031 29.1942 31.2162 27.8052 30.5798L30.3044 25.1251ZM31.0035 25.5605C30.7919 25.3879 30.5574 25.241 30.3044 25.1251L27.8052 30.5798C27.5903 30.4814 27.3904 30.3564 27.2099 30.209L31.0035 25.5605ZM31.8426 26.6015C31.6334 26.1902 31.3437 25.8378 31.0018 25.5591L27.2116 30.2104C26.9198 29.9727 26.6727 29.6719 26.4945 29.3215L31.8426 26.6015ZM31.9113 26.7453C31.8894 26.6963 31.8661 26.6477 31.8415 26.5994L26.4956 29.3236C26.4746 29.2824 26.4548 29.241 26.4362 29.1994L31.9113 26.7453ZM34.7303 32.905L31.9017 26.724L26.4458 29.2207L29.2744 35.4017L34.7303 32.905ZM32.0354 31.1535L32.0248 31.1534L31.9799 37.1533L31.9905 37.1534L32.0354 31.1535ZM32.1112 26.7294L29.285 32.9051L34.7408 35.4018L37.567 29.2261L32.1112 26.7294ZM33.7153 25.1232C32.9439 25.4751 32.3744 26.0972 32.0722 26.8183L37.606 29.1372C37.3487 29.7511 36.8629 30.2821 36.2055 30.582L33.7153 25.1232ZM35.0623 24.8308C34.6059 24.8305 34.144 24.9267 33.7108 25.1252L36.21 30.58C35.8415 30.7488 35.4476 30.8311 35.058 30.8308L35.0623 24.8308ZM36.244 25.0549C35.8589 24.9037 35.456 24.8305 35.058 24.8308L35.0623 30.8308C34.7226 30.831 34.379 30.7685 34.051 30.6397L36.244 25.0549ZM37.5408 25.9867C37.1841 25.562 36.7331 25.2462 36.2405 25.0535L34.0546 30.6412C33.6353 30.4772 33.2509 30.2082 32.9463 29.8456L37.5408 25.9867ZM38.0412 26.802C37.9167 26.5096 37.7485 26.2337 37.5395 25.9852L32.9476 29.8471C32.7694 29.6352 32.6262 29.4002 32.5202 29.1513L38.0412 26.802ZM40.8353 32.905L38.0086 26.7283L32.5528 29.2251L35.3794 35.4018L40.8353 32.905ZM38.1133 31.1534C38.1056 31.1534 38.0974 31.1534 38.0887 31.1534L38.126 37.1533C38.1213 37.1533 38.1171 37.1534 38.1133 37.1534V31.1534ZM42.0293 35.0415C42.0293 32.8076 40.1882 31.1534 38.1133 31.1534V37.1534C37.0502 37.1534 36.0293 36.2944 36.0293 35.0415H42.0293ZM38.1133 38.9297C40.1882 38.9297 42.0293 37.2754 42.0293 35.0415H36.0293C36.0293 33.7887 37.0502 32.9297 38.1133 32.9297V38.9297ZM34.1974 35.0415C34.1974 37.2754 36.0385 38.9297 38.1133 38.9297V32.9297C39.1765 32.9297 40.1974 33.7887 40.1974 35.0415H34.1974ZM36.118 31.6957C35.0017 32.3523 34.1974 33.5831 34.1974 35.0415H40.1974C40.1974 35.8556 39.7468 36.5223 39.1599 36.8675L36.118 31.6957ZM32.3322 29.8949L34.911 35.53L40.3669 33.0332L37.7881 27.3981L32.3322 29.8949ZM35.2079 35.533L37.7881 29.8949L32.3322 27.3981L29.752 33.0363L35.2079 35.533ZM35.9164 35.0415C35.9164 33.5928 35.1224 32.3682 34.0177 31.7087L30.9422 36.8606C30.3612 36.5137 29.9164 35.8501 29.9164 35.0415H35.9164ZM32.0004 38.9297C34.0753 38.9297 35.9164 37.2754 35.9164 35.0415H29.9164C29.9164 33.7887 30.9373 32.9297 32.0004 32.9297V38.9297ZM28.0844 35.0415C28.0844 37.2754 29.9255 38.9297 32.0004 38.9297V32.9297C33.0635 32.9297 34.0844 33.7887 34.0844 35.0415H28.0844ZM30.0317 31.6802C28.9014 32.3331 28.0844 33.5715 28.0844 35.0415H34.0844C34.0844 35.8622 33.6268 36.5326 33.0329 36.8757L30.0317 31.6802ZM26.2271 29.8946L28.8044 35.5263L34.2602 33.0296L31.683 27.3979L26.2271 29.8946ZM29.1013 35.5366L31.683 29.8946L26.2271 27.398L23.6453 33.04L29.1013 35.5366Z" fill="white" mask="url(#path-6-inside-1_1046_4237)"/>
</svg>
