<svg xmlns="http://www.w3.org/2000/svg" viewBox="0 0 2441.7 819.4">
  <style type="text/css">
    
	.logo-w0{enable-background:new    ;}
	.logo-w1{fill:#FFFFFF;}
	.logo-w2{fill:none;stroke:#FFFFFF;stroke-width:18;stroke-miterlimit:10;}

  </style>
  <g class="logo-w0">
    <path class="logo-w1" d="M999.5 263.4c3.3 0 6.7 0.8 10.2 2.4s6.3 3.9 8.2 6.9L1121.7 431l-17.6-0.8 105.8-157.3c4.3-6.3 9.9-9.4 16.8-9.4 5.4 0 10.3 2 14.5 5.9s6.3 8.9 6.3 14.9V529c0 6-1.9 11-5.7 14.9 -3.8 4-8.8 5.9-15.1 5.9 -6.5 0-11.8-2-15.7-5.9s-5.9-8.9-5.9-14.9V321.9l13.1 2.9 -89.9 136.9c-1.9 2.5-4.4 4.6-7.3 6.3 -3 1.8-6.1 2.5-9.4 2.2 -3 0.3-6.1-0.5-9.2-2.2 -3.1-1.8-5.7-3.9-7.6-6.3l-86.6-134.8 9.8-16.3v218.6c0 6-1.8 11-5.5 14.9 -3.7 4-8.5 5.9-14.5 5.9 -5.7 0-10.4-2-14.1-5.9 -3.7-4-5.5-8.9-5.5-14.9V284.3c0-5.7 2.1-10.6 6.3-14.7C988.8 265.5 993.8 263.4 999.5 263.4z"/>
    <path class="logo-w1" d="M1484 331.7c5.7 0 10.6 2 14.5 5.9 3.9 4 5.9 8.9 5.9 14.9V529c0 6-2 11-5.9 14.9 -3.9 4-8.8 5.9-14.5 5.9 -6 0-10.9-2-14.7-5.9 -3.8-4-5.7-8.9-5.7-14.9v-29.4l8.2 1.2c0 4.9-2 10.4-5.9 16.3 -3.9 6-9.3 11.8-16.1 17.4 -6.8 5.6-14.8 10.2-24.1 13.9 -9.3 3.7-19.2 5.5-29.8 5.5 -18.8 0-35.7-4.8-50.7-14.5s-26.8-22.9-35.5-39.8 -13.1-36.1-13.1-57.6c0-22.1 4.3-41.5 13.1-58.2 8.7-16.8 20.5-29.9 35.3-39.4s31.4-14.3 49.6-14.3c11.7 0 22.5 1.9 32.5 5.7 9.9 3.8 18.6 8.7 25.9 14.7s13.1 12.3 17.2 19 6.1 13 6.1 19l-12.7 1.2v-37.2c0-5.7 1.9-10.6 5.7-14.7C1473.1 333.7 1478 331.7 1484 331.7zM1400.7 516.3c12.8 0 24-3.3 33.7-9.8s17.2-15.5 22.7-26.8c5.4-11.3 8.2-23.9 8.2-37.8 0-14.2-2.7-26.8-8.2-38 -5.4-11.2-13-20-22.7-26.6 -9.7-6.5-20.9-9.8-33.7-9.8 -12.5 0-23.7 3.3-33.5 9.8s-17.4 15.4-22.9 26.6c-5.4 11.2-8.2 23.8-8.2 38 0 13.9 2.7 26.5 8.2 37.8 5.4 11.3 13 20.2 22.7 26.8C1376.7 513.1 1387.9 516.3 1400.7 516.3z"/>
    <path class="logo-w1" d="M1548.6 516.3c-2.4-3.8-3.5-8.2-3.3-13.3 0.3-5 3.1-9.3 8.6-12.9 3.8-2.5 7.8-3.5 12.1-3.1 4.2 0.4 8.2 2.5 12.1 6.3 7.6 8.5 16.1 15.1 25.5 20 9.4 4.9 20.8 7.4 34.1 7.4 5.4-0.3 11-1.2 16.8-2.7 5.7-1.5 10.6-4.2 14.7-8.2 4.1-4 6.1-9.7 6.1-17.4 0-6.8-2.2-12.3-6.5-16.3 -4.4-4.1-10.1-7.4-17.2-10s-14.7-5-22.9-7.1c-8.7-2.5-17.5-5.2-26.3-8.2s-16.8-6.9-23.9-11.6c-7.1-4.8-12.9-11-17.4-18.6s-6.7-17-6.7-28.2c0-12.8 3.6-23.8 10.8-33.1 7.2-9.3 16.6-16.5 28.2-21.6 11.6-5.2 24.2-7.8 37.8-7.8 7.9 0 16.2 1 24.9 3.1 8.7 2 17.2 5.2 25.3 9.6 8.2 4.4 15.2 10.1 21.2 17.2 2.7 3.5 4.3 7.8 4.7 12.7 0.4 4.9-1.8 9.3-6.7 13.1 -3.3 2.7-7.2 4-11.8 3.7 -4.6-0.3-8.4-1.8-11.4-4.5 -5.2-6.5-11.8-11.6-20-15.3s-17.4-5.5-27.8-5.5c-5.2 0-10.6 0.8-16.1 2.2s-10.3 4.2-14.1 8c-3.8 3.8-5.7 9.4-5.7 16.8 0 6.8 2.2 12.3 6.7 16.3 4.5 4.1 10.4 7.5 17.8 10.2 7.3 2.7 15.4 5.2 24.1 7.4 8.4 2.2 16.8 4.8 25.1 7.8 8.3 3 15.8 6.9 22.5 11.6 6.7 4.8 12.1 10.9 16.3 18.4 4.2 7.5 6.3 17 6.3 28.4 0 13.4-3.9 24.7-11.6 34.1 -7.8 9.4-17.6 16.5-29.4 21.5s-24.3 7.3-37.4 7.3c-15.5 0-31-2.8-46.4-8.4C1572.2 540 1559.2 530.2 1548.6 516.3z"/>
    <path class="logo-w1" d="M1743.9 516.3c-2.4-3.8-3.5-8.2-3.3-13.3 0.3-5 3.1-9.3 8.6-12.9 3.8-2.5 7.8-3.5 12.1-3.1 4.2 0.4 8.2 2.5 12.1 6.3 7.6 8.5 16.1 15.1 25.5 20 9.4 4.9 20.8 7.4 34.1 7.4 5.4-0.3 11-1.2 16.8-2.7 5.7-1.5 10.6-4.2 14.7-8.2 4.1-4 6.1-9.7 6.1-17.4 0-6.8-2.2-12.3-6.5-16.3 -4.4-4.1-10.1-7.4-17.2-10s-14.7-5-22.9-7.1c-8.7-2.5-17.5-5.2-26.3-8.2s-16.8-6.9-23.9-11.6c-7.1-4.8-12.9-11-17.4-18.6s-6.7-17-6.7-28.2c0-12.8 3.6-23.8 10.8-33.1 7.2-9.3 16.6-16.5 28.2-21.6 11.6-5.2 24.2-7.8 37.8-7.8 7.9 0 16.2 1 24.9 3.1 8.7 2 17.2 5.2 25.3 9.6 8.2 4.4 15.2 10.1 21.2 17.2 2.7 3.5 4.3 7.8 4.7 12.7 0.4 4.9-1.8 9.3-6.7 13.1 -3.3 2.7-7.2 4-11.8 3.7 -4.6-0.3-8.4-1.8-11.4-4.5 -5.2-6.5-11.8-11.6-20-15.3s-17.4-5.5-27.8-5.5c-5.2 0-10.6 0.8-16.1 2.2s-10.3 4.2-14.1 8c-3.8 3.8-5.7 9.4-5.7 16.8 0 6.8 2.2 12.3 6.7 16.3 4.5 4.1 10.4 7.5 17.8 10.2 7.3 2.7 15.4 5.2 24.1 7.4 8.4 2.2 16.8 4.8 25.1 7.8 8.3 3 15.8 6.9 22.5 11.6 6.7 4.8 12.1 10.9 16.3 18.4 4.2 7.5 6.3 17 6.3 28.4 0 13.4-3.9 24.7-11.6 34.1 -7.8 9.4-17.6 16.5-29.4 21.5s-24.3 7.3-37.4 7.3c-15.5 0-31-2.8-46.4-8.4C1767.5 540 1754.5 530.2 1743.9 516.3z"/>
    <path class="logo-w1" d="M2081.7 263.8c25.1 0 44.1 6.1 57 18.4s19.4 30.1 19.4 53.5c0 12.3-2.9 23.4-8.8 33.3 -5.9 10-14.4 17.8-25.7 23.5s-25.4 8.7-42.3 9l0.8-15.1c9 0 18.7 1.2 29.2 3.7s20.4 6.7 29.6 12.7c9.3 6 16.9 14.1 22.9 24.3 6 10.2 9 23 9 38.2 0 16.6-2.7 30.4-8.2 41.5 -5.4 11-12.7 19.7-21.6 25.9 -9 6.3-18.9 10.7-29.6 13.3s-21.3 3.9-31.7 3.9h-104.6c-5.7 0-10.6-2-14.7-5.9s-6.1-8.9-6.1-14.9V284.7c0-6 2-11 6.1-14.9s9-5.9 14.7-5.9L2081.7 263.8 2081.7 263.8zM2076 303.9h-80.5l4.9-6.5v87.8l-4.5-4.5h80.9c9.8-0.3 18.4-3.6 25.9-10s11.2-15.9 11.2-28.4c0-12.8-3.4-22.4-10.2-28.8C2097 307.1 2087.7 303.9 2076 303.9zM2078.9 420.7h-81.3l2.9-2.9v96.4l-3.3-3.7h84.2c14.2 0 25.6-3.7 34.3-11.2s13.1-18.9 13.1-34.1c0-12.8-2.6-22.3-7.8-28.6 -5.2-6.3-11.6-10.5-19.2-12.7C2094.1 421.8 2086.5 420.7 2078.9 420.7z"/>
    <path class="logo-w1" d="M2236.6 306.3c-7.9 0-13.6-1.4-17.2-4.3 -3.5-2.9-5.3-7.7-5.3-14.5V281c0-6.8 1.9-11.6 5.7-14.3 3.8-2.7 9.5-4.1 17.2-4.1 8.2 0 14 1.4 17.6 4.3 3.5 2.9 5.3 7.6 5.3 14.1v6.5c0 7.1-1.8 12-5.5 14.7S2244.8 306.3 2236.6 306.3zM2257.4 529c0 6-1.9 11-5.7 14.9 -3.8 4-8.7 5.9-14.7 5.9 -5.7 0-10.6-2-14.5-5.9 -3.9-4-5.9-8.9-5.9-14.9V354.1c0-6 2-11 5.9-14.9 3.9-4 8.8-5.9 14.5-5.9 6 0 10.9 2 14.7 5.9 3.8 4 5.7 8.9 5.7 14.9V529z"/>
    <path class="logo-w1" d="M2309.7 337.4h96c5.4 0 10 1.8 13.7 5.5s5.5 8.2 5.5 13.7c0 5.2-1.8 9.5-5.5 13.1 -3.7 3.5-8.2 5.3-13.7 5.3h-96c-5.4 0-10-1.8-13.7-5.5s-5.5-8.1-5.5-13.3c0-5.5 1.8-9.9 5.5-13.5C2299.7 339.2 2304.3 337.4 2309.7 337.4zM2352.6 284.3c6 0 10.9 2 14.7 5.9 3.8 4 5.7 8.9 5.7 14.9v189.6c0 4.9 0.8 8.9 2.4 11.9s3.9 5 6.7 6.1c2.8 1.1 5.8 1.6 8.8 1.6s5.6-0.5 8-1.6c2.3-1.1 5.1-1.6 8.4-1.6s6.3 1.5 9 4.5 4.1 7.1 4.1 12.3c0 6.5-3.5 11.8-10.6 15.9s-14.7 6.1-22.9 6.1c-4.6 0-10.1-0.4-16.3-1.2 -6.3-0.8-12.3-2.9-18.2-6.1 -5.9-3.3-10.7-8.5-14.5-15.7s-5.7-17.4-5.7-30.4V305.1c0-6 2-11 5.9-14.9C2342 286.3 2346.9 284.3 2352.6 284.3z"/>
  </g>
      <circle class="logo-w2" cx="411.3" cy="409.8" r="391.6"/>
          <path class="logo-w1" d="M156.9 534.1c-1.4 0-2.8-0.3-4.1-0.9 -5-2.3-7.2-8.2-4.9-13.2l127.3-278.3c2.3-5 8.2-7.2 13.2-4.9s7.2 8.2 4.9 13.2L166 528.3C164.3 531.9 160.7 534.1 156.9 534.1z"/>
          <path class="logo-w1" d="M411.6 534.1c-3.8 0-7.4-2.2-9.1-5.8L275.1 250c-2.3-5-0.1-11 4.9-13.2 5-2.3 11-0.1 13.2 4.9l127.5 278.2c2.3 5 0.1 11-4.9 13.2C414.4 533.8 413 534.1 411.6 534.1z"/>
          <path class="logo-w1" d="M411.6 534.1c-1.4 0-2.8-0.3-4.1-0.9 -5-2.3-7.2-8.2-4.9-13.2l127.3-278.3c2.3-5 8.2-7.2 13.2-4.9s7.2 8.2 4.9 13.2L420.7 528.3C419 531.9 415.4 534.1 411.6 534.1z"/>
          <path class="logo-w1" d="M666.3 534.1c-3.8 0-7.4-2.2-9.1-5.8L529.8 250c-2.3-5-0.1-11 4.9-13.2 5-2.3 11-0.1 13.2 4.9L675.2 520c2.3 5 0.1 11-4.9 13.2C669.1 533.8 667.7 534.1 666.3 534.1z"/>
          <ellipse class="logo-w1" cx="156.3" cy="536.7" rx="38.2" ry="37"/>
          <ellipse class="logo-w1" cx="411.3" cy="536.7" rx="38.2" ry="37"/>
          <ellipse class="logo-w1" cx="666.3" cy="536.7" rx="38.2" ry="37"/>
</svg>