<svg width="100" height="100" viewBox="0 0 100 100" fill="none" xmlns="http://www.w3.org/2000/svg">
<rect x="0.5" y="0.5" width="99" height="99" rx="49.5" fill="white" stroke="#E9EBFA"/>
<path d="M35.3069 24.2051V25.6778" stroke="#27319B" stroke-linecap="round" stroke-linejoin="round"/>
<path d="M35.3069 28.6003V38.8865" stroke="#27319B" stroke-linecap="round" stroke-linejoin="round"/>
<path d="M35.3069 40.3594V41.8321" stroke="#27319B" stroke-linecap="round" stroke-linejoin="round"/>
<path d="M20.625 49.9204L21.9164 49.218" stroke="#27319B" stroke-linecap="round" stroke-linejoin="round"/>
<path d="M24.3408 47.8814L32.8144 43.2141" stroke="#27319B" stroke-linecap="round" stroke-linejoin="round"/>
<path d="M34.0378 42.5344L35.3066 41.832" stroke="#27319B" stroke-linecap="round" stroke-linejoin="round"/>
<path d="M35.3069 58.7339V60.2066" stroke="#27319B" stroke-linecap="round" stroke-linejoin="round"/>
<path d="M35.3069 62.9929V72.7806" stroke="#27319B" stroke-linecap="round" stroke-linejoin="round"/>
<path d="M35.3069 74.1631V75.6358" stroke="#27319B" stroke-linecap="round" stroke-linejoin="round"/>
<path d="M50.011 66.8225L48.7649 67.5702" stroke="#27319B" stroke-linecap="round" stroke-linejoin="round"/>
<path d="M46.3178 69.043L37.7988 74.1634" stroke="#27319B" stroke-linecap="round" stroke-linejoin="round"/>
<path d="M36.5754 74.8882L35.3066 75.6359" stroke="#27319B" stroke-linecap="round" stroke-linejoin="round"/>
<path d="M64.7151 58.009V59.4817" stroke="#27319B" stroke-linecap="round" stroke-linejoin="round"/>
<path d="M64.7151 62.563V73.3703" stroke="#27319B" stroke-linecap="round" stroke-linejoin="round"/>
<path d="M64.7151 74.9109V76.3836" stroke="#27319B" stroke-linecap="round" stroke-linejoin="round"/>
<path d="M50.0112 66.8225L51.2574 67.6155" stroke="#27319B" stroke-linecap="round" stroke-linejoin="round"/>
<path d="M53.7043 69.2239L62.2686 74.7748" stroke="#27319B" stroke-linecap="round" stroke-linejoin="round"/>
<path d="M63.4919 75.5676L64.7154 76.3833" stroke="#27319B" stroke-linecap="round" stroke-linejoin="round"/>
<path d="M79.4194 49.9204L78.1279 50.6228" stroke="#27319B" stroke-linecap="round" stroke-linejoin="round"/>
<path d="M75.7031 51.9597L67.2068 56.627" stroke="#27319B" stroke-linecap="round" stroke-linejoin="round"/>
<path d="M66.0065 57.3069L64.7151 58.0092" stroke="#27319B" stroke-linecap="round" stroke-linejoin="round"/>
<path d="M64.7151 41.832L66.0065 42.5344" stroke="#27319B" stroke-linecap="round" stroke-linejoin="round"/>
<path d="M68.4307 43.8716L76.9043 48.5389" stroke="#27319B" stroke-linecap="round" stroke-linejoin="round"/>
<path d="M78.1279 49.2185L79.4194 49.9209" stroke="#27319B" stroke-linecap="round" stroke-linejoin="round"/>
<path d="M64.7151 23.4573V24.93" stroke="#27319B" stroke-linecap="round" stroke-linejoin="round"/>
<path d="M64.7151 28.011V38.8183" stroke="#27319B" stroke-linecap="round" stroke-linejoin="round"/>
<path d="M64.7151 40.3589V41.8316" stroke="#27319B" stroke-linecap="round" stroke-linejoin="round"/>
<path d="M50.0112 33.0186L51.2574 32.2256" stroke="#27319B" stroke-linecap="round" stroke-linejoin="round"/>
<path d="M53.7043 30.6171L62.2686 25.0662" stroke="#27319B" stroke-linecap="round" stroke-linejoin="round"/>
<path d="M63.4919 24.2729L64.7154 23.4573" stroke="#27319B" stroke-linecap="round" stroke-linejoin="round"/>
<path d="M35.3069 24.2051L36.5757 24.9528" stroke="#27319B" stroke-linecap="round" stroke-linejoin="round"/>
<path d="M39.0229 26.4255L47.5419 31.5233" stroke="#27319B" stroke-linecap="round" stroke-linejoin="round"/>
<path d="M48.7651 32.2708L50.0113 33.0184" stroke="#27319B" stroke-linecap="round" stroke-linejoin="round"/>
<path d="M35.3067 58.734L34.0605 57.9863" stroke="#27319B" stroke-linecap="round" stroke-linejoin="round"/>
<path d="M31.6137 56.5138L23.0947 51.416" stroke="#27319B" stroke-linecap="round" stroke-linejoin="round"/>
<path d="M21.8711 50.6681L20.625 49.9204" stroke="#27319B" stroke-linecap="round" stroke-linejoin="round"/>
<path d="M65.1458 75.636L65.8934 74.3672" stroke="#27319B" stroke-linecap="round" stroke-linejoin="round"/>
<path d="M67.3662 71.7843L78.536 52.4807" stroke="#27319B" stroke-linecap="round" stroke-linejoin="round"/>
<path d="M79.2612 51.1894L80.0089 49.9206L79.2612 48.6519" stroke="#27319B" stroke-linecap="round" stroke-linejoin="round"/>
<path d="M77.7882 46.0687L66.6411 26.7651" stroke="#27319B" stroke-linecap="round" stroke-linejoin="round"/>
<path d="M65.8942 25.4739L65.1465 24.2051" stroke="#27319B" stroke-linecap="round" stroke-linejoin="round"/>
<path d="M35.4423 24.2051L34.7173 25.4739" stroke="#27319B" stroke-linecap="round" stroke-linejoin="round"/>
<path d="M33.2223 28.0569L22.0752 47.3604" stroke="#27319B" stroke-linecap="round" stroke-linejoin="round"/>
<path d="M21.3275 48.6519L20.6025 49.9206L21.3275 51.1894" stroke="#27319B" stroke-linecap="round" stroke-linejoin="round"/>
<path d="M22.823 53.7725L33.9701 73.076" stroke="#27319B" stroke-linecap="round" stroke-linejoin="round"/>
<path d="M34.7173 74.3672L35.4423 75.636" stroke="#27319B" stroke-linecap="round" stroke-linejoin="round"/>
<path d="M36.9377 40.7449L35.6689 41.4699V42.9426" stroke="#27319B" stroke-linecap="round" stroke-linejoin="round"/>
<path d="M35.6689 45.7292V55.517" stroke="#27319B" stroke-linecap="round" stroke-linejoin="round"/>
<path d="M35.6689 56.8992V58.3719L36.9377 59.0969" stroke="#27319B" stroke-linecap="round" stroke-linejoin="round"/>
<path d="M39.3618 60.5017L47.8128 65.3956" stroke="#27319B" stroke-linecap="round" stroke-linejoin="round"/>
<path d="M49.0364 66.0977L50.3052 66.8227L51.5739 66.0977" stroke="#27319B" stroke-linecap="round" stroke-linejoin="round"/>
<path d="M53.9985 64.6929L62.4495 59.7991" stroke="#27319B" stroke-linecap="round" stroke-linejoin="round"/>
<path d="M63.6726 59.0969L64.9414 58.3719V56.8992" stroke="#27319B" stroke-linecap="round" stroke-linejoin="round"/>
<path d="M64.9417 54.1124V44.3247" stroke="#27319B" stroke-linecap="round" stroke-linejoin="round"/>
<path d="M64.9414 42.9426V41.4699L63.6726 40.7449" stroke="#27319B" stroke-linecap="round" stroke-linejoin="round"/>
<path d="M61.2483 39.3404L52.7747 34.4465" stroke="#27319B" stroke-linecap="round" stroke-linejoin="round"/>
<path d="M51.5739 33.7438L50.3052 33.0188L49.0364 33.7438" stroke="#27319B" stroke-linecap="round" stroke-linejoin="round"/>
<path d="M46.6121 35.1487L38.1384 40.0425" stroke="#27319B" stroke-linecap="round" stroke-linejoin="round"/>
<path d="M35.3063 28.2379C33.086 28.2379 31.2734 26.4254 31.2734 24.205C31.2734 21.9847 33.086 20.1721 35.3063 20.1721C37.5267 20.1721 39.3392 21.9847 39.3392 24.205C39.3392 26.4254 37.5494 28.2379 35.3063 28.2379Z" fill="#2BB673"/>
<path d="M35.3065 20.5121C37.3456 20.5121 38.9769 22.1661 38.9769 24.1825C38.9769 26.199 37.3229 27.8529 35.3065 27.8529C33.2674 27.8529 31.6361 26.199 31.6361 24.1825C31.6361 22.1661 33.29 20.5121 35.3065 20.5121ZM35.3065 19.7871C32.8822 19.7871 30.8884 21.7582 30.8884 24.2052C30.8884 26.6521 32.8596 28.6232 35.3065 28.6232C37.7308 28.6232 39.7246 26.6521 39.7246 24.2052C39.7246 21.7582 37.7534 19.7871 35.3065 19.7871Z" fill="white"/>
<path d="M64.715 28.2379C62.4947 28.2379 60.6821 26.4254 60.6821 24.205C60.6821 21.9847 62.4947 20.1721 64.715 20.1721C66.9354 20.1721 68.7479 21.9847 68.7479 24.205C68.7479 26.4254 66.9354 28.2379 64.715 28.2379Z" fill="#2BB673"/>
<path d="M64.7149 20.5121C66.7541 20.5121 68.3853 22.1661 68.3853 24.1825C68.3853 26.199 66.7314 27.8529 64.7149 27.8529C62.6758 27.8529 61.0446 26.199 61.0446 24.1825C61.0446 22.1661 62.6758 20.5121 64.7149 20.5121ZM64.7149 19.7871C62.2907 19.7871 60.2969 21.7582 60.2969 24.2052C60.2969 26.6521 62.268 28.6232 64.7149 28.6232C67.1392 28.6232 69.133 26.6521 69.133 24.2052C69.133 21.7582 67.1392 19.7871 64.7149 19.7871Z" fill="white"/>
<path d="M35.3063 79.6913C33.086 79.6913 31.2734 77.8788 31.2734 75.6584C31.2734 73.438 33.086 71.6255 35.3063 71.6255C37.5267 71.6255 39.3392 73.438 39.3392 75.6584C39.3392 77.8788 37.5494 79.6913 35.3063 79.6913Z" fill="#2BB673"/>
<path d="M35.3065 71.9655C37.3456 71.9655 38.9769 73.6194 38.9769 75.6359C38.9769 77.6523 37.3229 79.3063 35.3065 79.3063C33.2674 79.3063 31.6361 77.6523 31.6361 75.6359C31.6361 73.6194 33.29 71.9655 35.3065 71.9655ZM35.3065 71.2405C32.8822 71.2405 30.8884 73.2116 30.8884 75.6585C30.8884 78.0828 32.8596 80.0766 35.3065 80.0766C37.7308 80.0766 39.7246 78.1055 39.7246 75.6585C39.7246 73.2116 37.7534 71.2405 35.3065 71.2405Z" fill="white"/>
<path d="M64.715 79.6913C62.4947 79.6913 60.6821 77.8788 60.6821 75.6584C60.6821 73.438 62.4947 71.6255 64.715 71.6255C66.9354 71.6255 68.7479 73.438 68.7479 75.6584C68.7479 77.8788 66.9354 79.6913 64.715 79.6913Z" fill="#2BB673"/>
<path d="M64.7149 71.9655C66.7541 71.9655 68.3853 73.6194 68.3853 75.6359C68.3853 77.6523 66.7314 79.3063 64.7149 79.3063C62.6758 79.3063 61.0446 77.6523 61.0446 75.6359C61.0446 73.6194 62.6758 71.9655 64.7149 71.9655ZM64.7149 71.2405C62.2907 71.2405 60.2969 73.2116 60.2969 75.6585C60.2969 78.0828 62.268 80.0766 64.7149 80.0766C67.1392 80.0766 69.133 78.1055 69.133 75.6585C69.133 73.2116 67.1392 71.2405 64.7149 71.2405Z" fill="white"/>
<path d="M79.4196 53.9537C81.6469 53.9537 83.4525 52.1482 83.4525 49.9208C83.4525 47.6935 81.6469 45.8879 79.4196 45.8879C77.1923 45.8879 75.3867 47.6935 75.3867 49.9208C75.3867 52.1482 77.1923 53.9537 79.4196 53.9537Z" fill="#2BB673"/>
<path d="M79.4193 46.2504C81.4584 46.2504 83.0897 47.9043 83.0897 49.9208C83.0897 51.9372 81.4357 53.5912 79.4193 53.5912C77.3802 53.5912 75.7489 51.9372 75.7489 49.9208C75.7489 47.9043 77.3802 46.2504 79.4193 46.2504ZM79.4193 45.5027C76.995 45.5027 75.0012 47.4738 75.0012 49.9208C75.0012 52.345 76.9724 54.3388 79.4193 54.3388C81.8436 54.3388 83.8374 52.3677 83.8374 49.9208C83.8147 47.4965 81.8436 45.5027 79.4193 45.5027Z" fill="white"/>
<path d="M20.6247 53.9537C22.852 53.9537 24.6576 52.1482 24.6576 49.9208C24.6576 47.6935 22.852 45.8879 20.6247 45.8879C18.3974 45.8879 16.5918 47.6935 16.5918 49.9208C16.5918 52.1482 18.3974 53.9537 20.6247 53.9537Z" fill="#2BB673"/>
<path d="M20.6249 46.2504C22.664 46.2504 24.2953 47.9043 24.2953 49.9208C24.2953 51.9372 22.6413 53.5912 20.6249 53.5912C18.5857 53.5912 16.9545 51.9372 16.9545 49.9208C16.9545 47.9043 18.5857 46.2504 20.6249 46.2504ZM20.6249 45.5027C18.2006 45.5027 16.2068 47.4738 16.2068 49.9208C16.2068 52.345 18.1779 54.3388 20.6249 54.3388C23.0491 54.3388 25.0429 52.3677 25.0429 49.9208C25.0203 47.4965 23.0491 45.5027 20.6249 45.5027Z" fill="white"/>
<path d="M35.5561 62.2233C33.3357 62.2233 31.5232 60.4107 31.5232 58.1904C31.5232 55.97 33.3357 54.1575 35.5561 54.1575C37.7765 54.1575 39.589 55.97 39.589 58.1904C39.589 60.4107 37.7765 62.2233 35.5561 62.2233Z" fill="#2BB673"/>
<path d="M35.5558 54.5201C37.5949 54.5201 39.2261 56.1741 39.2261 58.1905C39.2261 60.207 37.5722 61.8609 35.5558 61.8609C33.5167 61.8609 31.8854 60.207 31.8854 58.1905C31.8627 56.1514 33.5167 54.5201 35.5558 54.5201ZM35.5558 53.7725C33.1315 53.7725 31.1377 55.7436 31.1377 58.1905C31.1377 60.6148 33.1088 62.6086 35.5558 62.6086C37.98 62.6086 39.9738 60.6375 39.9738 58.1905C39.9512 55.7663 37.98 53.7725 35.5558 53.7725Z" fill="white"/>
<path d="M35.5561 45.684C33.3357 45.684 31.5232 43.8714 31.5232 41.6511C31.5232 39.4307 33.3357 37.6182 35.5561 37.6182C37.7765 37.6182 39.589 39.4307 39.589 41.6511C39.589 43.8714 37.7765 45.684 35.5561 45.684Z" fill="#2BB673"/>
<path d="M35.5558 37.9803C37.5949 37.9803 39.2261 39.6343 39.2261 41.6507C39.2261 43.6672 37.5722 45.3211 35.5558 45.3211C33.5167 45.3211 31.8854 43.6672 31.8854 41.6507C31.8627 39.6343 33.5167 37.9803 35.5558 37.9803ZM35.5558 37.2327C33.1315 37.2327 31.1377 39.2038 31.1377 41.6507C31.1377 44.075 33.1088 46.0688 35.5558 46.0688C38.0027 46.0688 39.9738 44.0977 39.9738 41.6507C39.9738 39.2038 37.98 37.2327 35.5558 37.2327Z" fill="white"/>
<path d="M64.4887 62.2233C62.2683 62.2233 60.4558 60.4107 60.4558 58.1904C60.4558 55.97 62.2683 54.1575 64.4887 54.1575C66.7091 54.1575 68.5216 55.97 68.5216 58.1904C68.5216 60.4107 66.7091 62.2233 64.4887 62.2233Z" fill="#2BB673"/>
<path d="M64.4886 54.5201C66.5277 54.5201 68.159 56.1741 68.159 58.1905C68.159 60.207 66.5051 61.8609 64.4886 61.8609C62.4495 61.8609 60.8182 60.207 60.8182 58.1905C60.8182 56.1741 62.4495 54.5201 64.4886 54.5201ZM64.4886 53.7725C62.0644 53.7725 60.0706 55.7436 60.0706 58.1905C60.0706 60.6148 62.0417 62.6086 64.4886 62.6086C66.9356 62.6086 68.9067 60.6375 68.9067 58.1905C68.884 55.7663 66.9129 53.7725 64.4886 53.7725Z" fill="white"/>
<path d="M64.4887 45.684C62.2683 45.684 60.4558 43.8714 60.4558 41.6511C60.4558 39.4307 62.2683 37.6182 64.4887 37.6182C66.7091 37.6182 68.5216 39.4307 68.5216 41.6511C68.5216 43.8714 66.7091 45.684 64.4887 45.684Z" fill="#2BB673"/>
<path d="M64.4886 37.9803C66.5277 37.9803 68.159 39.6343 68.159 41.6507C68.159 43.6672 66.5051 45.3211 64.4886 45.3211C62.4495 45.3211 60.8182 43.6672 60.8182 41.6507C60.8182 39.6343 62.4495 37.9803 64.4886 37.9803ZM64.4886 37.2327C62.0644 37.2327 60.0706 39.2038 60.0706 41.6507C60.0706 44.0977 62.0417 46.0688 64.4886 46.0688C66.9356 46.0688 68.9067 44.0977 68.9067 41.6507C68.9067 39.2038 66.9129 37.2327 64.4886 37.2327Z" fill="white"/>
<path d="M50.0112 37.0516C47.7908 37.0516 45.9783 35.2391 45.9783 33.0187C45.9783 30.7984 47.7908 28.9858 50.0112 28.9858C52.2315 28.9858 54.0441 30.7984 54.0441 33.0187C54.0441 35.2391 52.2542 37.0516 50.0112 37.0516Z" fill="#2BB673"/>
<path d="M50.0111 29.3483C52.0502 29.3483 53.6815 31.0022 53.6815 33.0187C53.6815 35.0351 52.0275 36.689 50.0111 36.689C47.972 36.689 46.3407 35.0351 46.3407 33.0187C46.3407 31.0022 47.9946 29.3483 50.0111 29.3483ZM50.0111 28.6006C47.5868 28.6006 45.593 30.5717 45.593 33.0187C45.593 35.4656 47.5642 37.4367 50.0111 37.4367C52.4354 37.4367 54.4292 35.4656 54.4292 33.0187C54.4292 30.5717 52.458 28.6006 50.0111 28.6006Z" fill="white"/>
<path d="M50.0112 70.8554C47.7908 70.8554 45.9783 69.0428 45.9783 66.8225C45.9783 64.6021 47.7908 62.7896 50.0112 62.7896C52.2315 62.7896 54.0441 64.6021 54.0441 66.8225C54.0441 69.0428 52.2542 70.8554 50.0112 70.8554Z" fill="#2BB673"/>
<path d="M50.0111 63.152C52.0502 63.152 53.6815 64.8059 53.6815 66.8224C53.6815 68.8388 52.0275 70.4928 50.0111 70.4928C47.972 70.4928 46.3407 68.8388 46.3407 66.8224C46.3407 64.8059 47.9946 63.152 50.0111 63.152ZM50.0111 62.4043C47.5868 62.4043 45.593 64.3754 45.593 66.8224C45.593 69.2466 47.5642 71.2404 50.0111 71.2404C52.4354 71.2404 54.4292 69.2693 54.4292 66.8224C54.4292 64.3981 52.458 62.4043 50.0111 62.4043Z" fill="white"/>
<path d="M35.3066 27.8755C37.3337 27.8755 38.977 26.2322 38.977 24.2051C38.977 22.178 37.3337 20.5347 35.3066 20.5347C33.2795 20.5347 31.6362 22.178 31.6362 24.2051C31.6362 26.2322 33.2795 27.8755 35.3066 27.8755Z" fill="#27319B"/>
<path d="M64.7148 27.8755C66.7419 27.8755 68.3852 26.2322 68.3852 24.2051C68.3852 22.178 66.7419 20.5347 64.7148 20.5347C62.6877 20.5347 61.0444 22.178 61.0444 24.2051C61.0444 26.2322 62.6877 27.8755 64.7148 27.8755Z" fill="#27319B"/>
<path d="M35.3066 79.3064C37.3337 79.3064 38.977 77.6631 38.977 75.636C38.977 73.6089 37.3337 71.9656 35.3066 71.9656C33.2795 71.9656 31.6362 73.6089 31.6362 75.636C31.6362 77.6631 33.2795 79.3064 35.3066 79.3064Z" fill="#27319B"/>
<path d="M64.7148 79.3064C66.7419 79.3064 68.3852 77.6631 68.3852 75.636C68.3852 73.6089 66.7419 71.9656 64.7148 71.9656C62.6877 71.9656 61.0444 73.6089 61.0444 75.636C61.0444 77.6631 62.6877 79.3064 64.7148 79.3064Z" fill="#27319B"/>
<path d="M79.4194 53.591C81.4465 53.591 83.0898 51.9477 83.0898 49.9206C83.0898 47.8935 81.4465 46.2502 79.4194 46.2502C77.3923 46.2502 75.749 47.8935 75.749 49.9206C75.749 51.9477 77.3923 53.591 79.4194 53.591Z" fill="#27319B"/>
<path d="M20.625 53.591C22.6521 53.591 24.2954 51.9477 24.2954 49.9206C24.2954 47.8935 22.6521 46.2502 20.625 46.2502C18.5979 46.2502 16.9546 47.8935 16.9546 49.9206C16.9546 51.9477 18.5979 53.591 20.625 53.591Z" fill="#27319B"/>
<path d="M35.5559 61.8606C37.583 61.8606 39.2263 60.2173 39.2263 58.1902C39.2263 56.1631 37.583 54.5198 35.5559 54.5198C33.5288 54.5198 31.8855 56.1631 31.8855 58.1902C31.8855 60.2173 33.5288 61.8606 35.5559 61.8606Z" fill="#27319B"/>
<path d="M35.5559 45.3213C37.583 45.3213 39.2263 43.678 39.2263 41.6509C39.2263 39.6238 37.583 37.9805 35.5559 37.9805C33.5288 37.9805 31.8855 39.6238 31.8855 41.6509C31.8855 43.678 33.5288 45.3213 35.5559 45.3213Z" fill="#27319B"/>
<path d="M64.4885 61.8606C66.5156 61.8606 68.1589 60.2173 68.1589 58.1902C68.1589 56.1631 66.5156 54.5198 64.4885 54.5198C62.4614 54.5198 60.8181 56.1631 60.8181 58.1902C60.8181 60.2173 62.4614 61.8606 64.4885 61.8606Z" fill="#27319B"/>
<path d="M64.4885 45.3213C66.5156 45.3213 68.1589 43.678 68.1589 41.6509C68.1589 39.6238 66.5156 37.9805 64.4885 37.9805C62.4614 37.9805 60.8181 39.6238 60.8181 41.6509C60.8181 43.678 62.4614 45.3213 64.4885 45.3213Z" fill="#27319B"/>
<path d="M50.011 36.6892C52.0381 36.6892 53.6814 35.0459 53.6814 33.0188C53.6814 30.9917 52.0381 29.3484 50.011 29.3484C47.9839 29.3484 46.3406 30.9917 46.3406 33.0188C46.3406 35.0459 47.9839 36.6892 50.011 36.6892Z" fill="#27319B"/>
<path d="M50.011 70.4927C52.0381 70.4927 53.6814 68.8494 53.6814 66.8223C53.6814 64.7952 52.0381 63.1519 50.011 63.1519C47.9839 63.1519 46.3406 64.7952 46.3406 66.8223C46.3406 68.8494 47.9839 70.4927 50.011 70.4927Z" fill="#27319B"/>
<!-- <circle cx="23" cy="9" r="5" fill="#FBAF1D"/>
<circle cx="77" cy="91" r="5" fill="#2C3ACF"/> -->
</svg>
