<svg width="64" height="64" viewBox="0 0 64 64" fill="none" xmlns="http://www.w3.org/2000/svg">
<rect width="64" height="64" rx="32" fill="#00B159"/>
<path d="M37.2 40.9084V46.1751L32.625 48.8168V43.5501L37.2 40.9084Z" fill="white"/>
<path d="M31.3748 43.5501V48.8168L26.7998 46.1751V40.9084L31.3748 43.5501Z" fill="white"/>
<path d="M36.5748 39.825L31.9998 42.4667L27.4248 39.825L31.9998 37.1833L36.5748 39.825Z" fill="white"/>
<path d="M36.5748 17.4669L31.9998 20.1085L27.4248 17.4669L31.9998 14.8252L36.5748 17.4669Z" fill="white"/>
<path d="M17.825 32.5501V37.8168L13.25 35.1751V29.9084L14.5833 30.6834L17.825 32.5501Z" fill="white"/>
<path d="M23.025 28.825L18.45 31.4667L13.875 28.825L18.45 26.1833L23.025 28.825Z" fill="white"/>
<path d="M50.7498 29.9084V35.1751L46.1748 37.8168V32.5501L49.4165 30.6834L50.7498 29.9084Z" fill="white"/>
<path d="M50.1251 28.825L45.5501 31.4667L40.9751 28.825L45.5501 26.1833L50.1251 28.825Z" fill="white"/>
<path d="M41.0975 25.3511L37.2 23.1011V23.8177L36.5708 24.1811L40.4725 26.4311C40.5671 26.4861 40.6747 26.5149 40.7841 26.5144C40.9219 26.5147 41.056 26.4695 41.1654 26.3858C41.2748 26.3021 41.3536 26.1846 41.3893 26.0515C41.425 25.9185 41.4158 25.7773 41.363 25.65C41.3102 25.5227 41.2169 25.4165 41.0975 25.3477V25.3511Z" fill="white"/>
<path d="M34.5258 22.2773C34.5669 22.2062 34.6216 22.1439 34.6868 22.0939C34.7519 22.044 34.8263 22.0074 34.9056 21.9862C34.9849 21.965 35.0677 21.9596 35.1491 21.9704C35.2305 21.9811 35.3089 22.0079 35.38 22.049L37.2 23.0998V18.5498L32.625 21.1915V26.4581L36.5708 24.1798L34.755 23.1315C34.6838 23.0905 34.6214 23.0358 34.5714 22.9707C34.5214 22.9056 34.4847 22.8312 34.4634 22.7519C34.4421 22.6726 34.4367 22.5898 34.4474 22.5084C34.4581 22.4269 34.4847 22.3484 34.5258 22.2773Z" fill="white"/>
<path d="M26.8001 23.0999L22.9026 25.3499C22.7831 25.4186 22.6898 25.5249 22.637 25.6521C22.5842 25.7794 22.575 25.9206 22.6107 26.0536C22.6465 26.1867 22.7252 26.3042 22.8346 26.388C22.9441 26.4717 23.0781 26.5169 23.2159 26.5165C23.3253 26.517 23.4329 26.4882 23.5276 26.4332L27.4292 24.1832L26.8001 23.8199V23.0999Z" fill="white"/>
<path d="M31.3748 21.1915L26.7998 18.5498V23.0998L28.6198 22.049C28.6909 22.0079 28.7695 21.9813 28.8509 21.9706C28.9323 21.9599 29.015 21.9654 29.0944 21.9867C29.1737 22.0079 29.248 22.0446 29.3132 22.0946C29.3783 22.1447 29.4329 22.207 29.474 22.2781C29.515 22.3493 29.5416 22.4278 29.5523 22.5092C29.563 22.5906 29.5576 22.6734 29.5363 22.7527C29.515 22.832 29.4783 22.9063 29.4283 22.9715C29.3783 23.0366 29.3159 23.0913 29.2448 23.1323L27.429 24.1806L31.3748 26.4581V21.1915Z" fill="white"/>
<path d="M27.2762 36.5443L23.6503 34.4509V35.1751L23.0278 35.5343L26.6512 37.6259C26.7458 37.681 26.8534 37.7097 26.9628 37.7093C27.1006 37.7096 27.2346 37.6644 27.3441 37.5807C27.4535 37.497 27.5322 37.3795 27.568 37.2464C27.6037 37.1133 27.5945 36.9722 27.5417 36.8449C27.4889 36.7176 27.3956 36.6113 27.2762 36.5426V36.5443Z" fill="white"/>
<path d="M20.6669 33.4484C20.7079 33.3774 20.7625 33.3151 20.8275 33.2651C20.8926 33.2152 20.9669 33.1786 21.0462 33.1574C21.1254 33.1362 21.2081 33.1308 21.2894 33.1415C21.3708 33.1523 21.4492 33.179 21.5202 33.2201L23.6527 34.4509V29.9084L19.0752 32.5501V37.8168L23.0277 35.5343L20.8927 34.3026C20.7495 34.2192 20.6453 34.0824 20.603 33.9223C20.5606 33.7621 20.5836 33.5917 20.6669 33.4484Z" fill="white"/>
<path d="M40.3502 34.4509L36.7243 36.5442C36.6049 36.613 36.5116 36.7193 36.4588 36.8465C36.406 36.9738 36.3968 37.115 36.4325 37.248C36.4683 37.3811 36.547 37.4986 36.6564 37.5823C36.7658 37.666 36.8999 37.7112 37.0377 37.7109C37.1471 37.7114 37.2547 37.6826 37.3493 37.6276L40.9727 35.5359L40.3502 35.1768V34.4509Z" fill="white"/>
<path d="M44.9251 32.5501L40.3501 29.9084V34.4509L42.4826 33.2201C42.5537 33.1791 42.6323 33.1524 42.7137 33.1418C42.7951 33.1311 42.8778 33.1365 42.9571 33.1578C43.0365 33.1791 43.1108 33.2158 43.176 33.2658C43.2411 33.3158 43.2957 33.3781 43.3368 33.4493C43.3778 33.5204 43.4044 33.5989 43.4151 33.6803C43.4258 33.7618 43.4204 33.8445 43.3991 33.9238C43.3778 34.0031 43.3411 34.0775 43.2911 34.1426C43.2411 34.2078 43.1787 34.2624 43.1076 34.3034L40.9726 35.5351L44.9251 37.8168V32.5501Z" fill="white"/>
</svg>
