<svg width="100" height="100" viewBox="0 0 100 100" fill="none" xmlns="http://www.w3.org/2000/svg">
<rect x="0.5" y="0.5" width="99" height="99" rx="49.5" fill="white" stroke="#E9EBFA"/>
<g clip-path="url(#clip0_103_1157)">
<path d="M74.9537 75.0486H25.0463C24.4684 75.0486 24 74.5802 24 74.0023V72.7128C24 72.1349 24.4684 71.6665 25.0463 71.6665H74.9537C75.5316 71.6665 76 72.1349 76 72.7128V74.0023C76 74.5802 75.5316 75.0486 74.9537 75.0486Z" fill="#27319B"/>
<path d="M32.0437 57.5039H27.372C26.7941 57.5039 26.3257 57.9723 26.3257 58.5502V71.6665H33.0899V58.5502C33.0899 57.9723 32.6215 57.5039 32.0437 57.5039Z" fill="#27319B"/>
<path d="M45.572 43.7642H40.9003C40.3224 43.7642 39.854 44.2326 39.854 44.8105V71.6666H46.6183V44.8105C46.6183 44.2326 46.1499 43.7642 45.572 43.7642Z" fill="#27319B"/>
<path d="M59.1003 51.1624H54.4286C53.8507 51.1624 53.3823 51.6308 53.3823 52.2087V71.6664H60.1466V52.2087C60.1465 51.6308 59.6781 51.1624 59.1003 51.1624Z" fill="#27319B"/>
<path d="M72.6286 38.4797H67.9569C67.3791 38.4797 66.9106 38.9481 66.9106 39.526V71.6667H73.6749V39.526C73.6749 38.9481 73.2064 38.4797 72.6286 38.4797Z" fill="#27319B"/>
<path d="M56.7632 41.8011C56.636 41.8011 56.507 41.7701 56.3874 41.7047L42.859 34.3064C42.4788 34.0985 42.3391 33.6217 42.5471 33.2414C42.755 32.8612 43.2316 32.7213 43.6121 32.9295L57.1405 40.3278C57.5207 40.5357 57.6604 41.0126 57.4524 41.3928C57.3098 41.6535 57.0408 41.8011 56.7632 41.8011Z" fill="#27319B"/>
<path d="M56.7645 41.8009C56.5552 41.8009 56.3462 41.7176 56.1918 41.5529C55.8953 41.2366 55.9113 40.7401 56.2275 40.4436L69.756 27.7608C70.0722 27.4644 70.5688 27.4805 70.8652 27.7966C71.1616 28.1128 71.1456 28.6094 70.8295 28.9058L57.3009 41.5887C57.1495 41.7305 56.9567 41.8009 56.7645 41.8009Z" fill="#27319B"/>
<path d="M29.7075 48.1425C29.5088 48.1425 29.3099 48.0674 29.157 47.917C28.8482 47.6129 28.8444 47.1161 29.1483 46.8072L42.6769 33.0675C42.9808 32.7585 43.4777 32.7548 43.7866 33.0587C44.0954 33.3628 44.0992 33.8596 43.7953 34.1685L30.2667 47.9083C30.1132 48.0644 29.9104 48.1425 29.7075 48.1425Z" fill="#27319B"/>
<path d="M29.7078 50.7399C31.5757 50.7399 33.0899 49.2256 33.0899 47.3577C33.0899 45.4898 31.5757 43.9756 29.7078 43.9756C27.8399 43.9756 26.3257 45.4898 26.3257 47.3577C26.3257 49.2256 27.8399 50.7399 29.7078 50.7399Z" fill="#27319B"/>
<path d="M43.2361 36.9999C45.104 36.9999 46.6183 35.4856 46.6183 33.6177C46.6183 31.7498 45.104 30.2356 43.2361 30.2356C41.3682 30.2356 39.854 31.7498 39.854 33.6177C39.854 35.4856 41.3682 36.9999 43.2361 36.9999Z" fill="#27319B"/>
<path d="M56.7645 44.3985C58.6324 44.3985 60.1466 42.8843 60.1466 41.0164C60.1466 39.1485 58.6324 37.6343 56.7645 37.6343C54.8966 37.6343 53.3823 39.1485 53.3823 41.0164C53.3823 42.8843 54.8966 44.3985 56.7645 44.3985Z" fill="#27319B"/>
<path d="M70.2928 31.7154C72.1607 31.7154 73.6749 30.2012 73.6749 28.3333C73.6749 26.4654 72.1607 24.9512 70.2928 24.9512C68.4249 24.9512 66.9106 26.4654 66.9106 28.3333C66.9106 30.2012 68.4249 31.7154 70.2928 31.7154Z" fill="#27319B"/>
</g>
<!-- <circle cx="87" cy="84" r="5" fill="#FBAF1D"/>
<circle cx="11" cy="20" r="5" fill="#2C3ACF"/> -->
<defs>
<clipPath id="clip0_103_1157">
<rect width="52" height="52" fill="white" transform="translate(24 24)"/>
</clipPath>
</defs>
</svg>
