<svg width="100" height="100" viewBox="0 0 100 100" fill="none" xmlns="http://www.w3.org/2000/svg">
<rect x="0.5" y="0.5" width="99" height="99" rx="49.5" fill="white" stroke="#E9EBFA"/>
<path d="M26.5813 24.657V40.2363H73.3191V24.657" stroke="#27319B" stroke-width="1.06422" stroke-miterlimit="10"/>
<path d="M42.1606 24.657V40.2363" stroke="#27319B" stroke-width="1.06422" stroke-miterlimit="10"/>
<path d="M57.7397 24.657V40.2363" stroke="#27319B" stroke-width="1.06422" stroke-miterlimit="10"/>
<path d="M49.9622 40.2363V51.9268V79.1725" stroke="#27319B" stroke-width="1.06422" stroke-miterlimit="10"/>
<path d="M34.3828 71.3947V63.593H65.5174V71.3947" stroke="#27319B" stroke-width="1.06422" stroke-miterlimit="10"/>
<path d="M73.319 28.9298C75.6789 28.9298 77.5919 27.0168 77.5919 24.6569C77.5919 22.2971 75.6789 20.384 73.319 20.384C70.9592 20.384 69.0461 22.2971 69.0461 24.6569C69.0461 27.0168 70.9592 28.9298 73.319 28.9298Z" fill="#2BB673"/>
<path d="M73.3189 20.7682C75.4794 20.7682 77.2077 22.5205 77.2077 24.657C77.2077 26.8174 75.4554 28.5458 73.3189 28.5458C71.1825 28.5458 69.4301 26.7934 69.4301 24.657C69.4301 22.5205 71.1585 20.7682 73.3189 20.7682ZM73.3189 20C70.7504 20 68.6379 22.0884 68.6379 24.681C68.6379 27.2495 70.7264 29.362 73.3189 29.362C75.8875 29.362 77.9999 27.2735 77.9999 24.681C77.9759 22.0884 75.8875 20 73.3189 20Z" fill="white"/>
<path d="M73.319 28.546C75.4667 28.546 77.2078 26.8049 77.2078 24.6571C77.2078 22.5094 75.4667 20.7683 73.319 20.7683C71.1713 20.7683 69.4302 22.5094 69.4302 24.6571C69.4302 26.8049 71.1713 28.546 73.319 28.546Z" fill="#27319B"/>
<path d="M57.7397 28.9298C60.0996 28.9298 62.0126 27.0168 62.0126 24.6569C62.0126 22.2971 60.0996 20.384 57.7397 20.384C55.3798 20.384 53.4668 22.2971 53.4668 24.6569C53.4668 27.0168 55.3798 28.9298 57.7397 28.9298Z" fill="#2BB673"/>
<path d="M57.7396 20.7682C59.9 20.7682 61.6284 22.5205 61.6284 24.657C61.6284 26.8174 59.876 28.5458 57.7396 28.5458C55.6031 28.5458 53.8508 26.7934 53.8508 24.657C53.8508 22.5205 55.5791 20.7682 57.7396 20.7682ZM57.7396 20C55.171 20 53.0586 22.0884 53.0586 24.681C53.0586 27.2495 55.147 29.362 57.7396 29.362C60.3081 29.362 62.4206 27.2735 62.4206 24.681C62.4206 22.0884 60.3081 20 57.7396 20Z" fill="white"/>
<path d="M57.7396 28.546C59.8874 28.546 61.6285 26.8049 61.6285 24.6571C61.6285 22.5094 59.8874 20.7683 57.7396 20.7683C55.5919 20.7683 53.8508 22.5094 53.8508 24.6571C53.8508 26.8049 55.5919 28.546 57.7396 28.546Z" fill="#27319B"/>
<path d="M42.1606 28.9298C44.5204 28.9298 46.4335 27.0168 46.4335 24.6569C46.4335 22.2971 44.5204 20.384 42.1606 20.384C39.8007 20.384 37.8877 22.2971 37.8877 24.6569C37.8877 27.0168 39.8007 28.9298 42.1606 28.9298Z" fill="#2BB673"/>
<path d="M42.1602 20.7682C44.3207 20.7682 46.0491 22.5205 46.0491 24.657C46.0491 26.8174 44.2967 28.5458 42.1602 28.5458C40.0238 28.5458 38.2714 26.7934 38.2714 24.657C38.2714 22.5205 40.0238 20.7682 42.1602 20.7682ZM42.1602 20C39.5917 20 37.4792 22.0884 37.4792 24.681C37.4792 27.2495 39.5677 29.362 42.1602 29.362C44.7288 29.362 46.8412 27.2735 46.8412 24.681C46.8412 22.0884 44.7528 20 42.1602 20Z" fill="white"/>
<path d="M42.1605 28.546C44.3083 28.546 46.0494 26.8049 46.0494 24.6571C46.0494 22.5094 44.3083 20.7683 42.1605 20.7683C40.0128 20.7683 38.2717 22.5094 38.2717 24.6571C38.2717 26.8049 40.0128 28.546 42.1605 28.546Z" fill="#27319B"/>
<path d="M26.5815 28.9298C28.9413 28.9298 30.8544 27.0168 30.8544 24.6569C30.8544 22.2971 28.9413 20.384 26.5815 20.384C24.2216 20.384 22.3086 22.2971 22.3086 24.6569C22.3086 27.0168 24.2216 28.9298 26.5815 28.9298Z" fill="#2BB673"/>
<path d="M26.5811 20.7682C28.7416 20.7682 30.4699 22.5205 30.4699 24.657C30.4699 26.8174 28.7176 28.5458 26.5811 28.5458C24.4447 28.5458 22.6923 26.7934 22.6923 24.657C22.6923 22.5205 24.4447 20.7682 26.5811 20.7682ZM26.5811 20C24.0126 20 21.9001 22.0884 21.9001 24.681C21.9001 27.2495 23.9886 29.362 26.5811 29.362C29.1737 29.362 31.2621 27.2735 31.2621 24.681C31.2621 22.0884 29.1737 20 26.5811 20Z" fill="white"/>
<path d="M26.5814 28.546C28.7292 28.546 30.4703 26.8049 30.4703 24.6571C30.4703 22.5094 28.7292 20.7683 26.5814 20.7683C24.4337 20.7683 22.6926 22.5094 22.6926 24.6571C22.6926 26.8049 24.4337 28.546 26.5814 28.546Z" fill="#27319B"/>
<path d="M34.383 75.6676C32.0305 75.6676 30.1101 73.7472 30.1101 71.3947C30.1101 69.0422 32.0305 67.1218 34.383 67.1218C36.7355 67.1218 38.6559 69.0422 38.6559 71.3947C38.6559 73.7472 36.7355 75.6676 34.383 75.6676Z" fill="#2BB673"/>
<path d="M34.3829 67.4823C36.5433 67.4823 38.2717 69.2346 38.2717 71.3711C38.2717 73.5315 36.5193 75.2599 34.3829 75.2599C32.2464 75.2599 30.4941 73.5075 30.4941 71.3711C30.4941 69.2346 32.2224 67.4823 34.3829 67.4823ZM34.3829 66.7141C31.8143 66.7141 29.7019 68.8026 29.7019 71.3951C29.7019 73.9636 31.7903 76.0761 34.3829 76.0761C36.9754 76.0761 39.0639 73.9876 39.0639 71.3951C39.0399 68.8026 36.9514 66.7141 34.3829 66.7141Z" fill="white"/>
<path d="M34.383 75.2837C36.5307 75.2837 38.2718 73.5427 38.2718 71.3949C38.2718 69.2472 36.5307 67.5061 34.383 67.5061C32.2352 67.5061 30.4941 69.2472 30.4941 71.3949C30.4941 73.5427 32.2352 75.2837 34.383 75.2837Z" fill="#27319B"/>
<path d="M65.5173 75.6676C63.1648 75.6676 61.2444 73.7472 61.2444 71.3947C61.2444 69.0422 63.1648 67.1218 65.5173 67.1218C67.8698 67.1218 69.7902 69.0422 69.7902 71.3947C69.7902 73.7472 67.8938 75.6676 65.5173 75.6676Z" fill="#2BB673"/>
<path d="M65.5174 67.4823C67.6779 67.4823 69.4062 69.2346 69.4062 71.3711C69.4062 73.5315 67.6539 75.2599 65.5174 75.2599C63.381 75.2599 61.6286 73.5075 61.6286 71.3711C61.6286 69.2346 63.381 67.4823 65.5174 67.4823ZM65.5174 66.7141C62.9489 66.7141 60.8364 68.8026 60.8364 71.3951C60.8364 73.9636 62.9249 76.0761 65.5174 76.0761C68.086 76.0761 70.1984 73.9876 70.1984 71.3951C70.1984 68.8026 68.11 66.7141 65.5174 66.7141Z" fill="white"/>
<path d="M65.5175 75.2837C67.6652 75.2837 69.4063 73.5427 69.4063 71.3949C69.4063 69.2472 67.6652 67.5061 65.5175 67.5061C63.3697 67.5061 61.6287 69.2472 61.6287 71.3949C61.6287 73.5427 63.3697 75.2837 65.5175 75.2837Z" fill="#27319B"/>
<path d="M49.9623 83.4452C47.6099 83.4452 45.6895 81.5248 45.6895 79.1723C45.6895 76.8198 47.6099 74.8994 49.9623 74.8994C52.3148 74.8994 54.2352 76.8198 54.2352 79.1723C54.2352 81.5248 52.3148 83.4452 49.9623 83.4452Z" fill="#2BB673"/>
<path d="M49.9622 75.2839C52.1227 75.2839 53.8511 77.0362 53.8511 79.1727C53.8511 81.3331 52.0987 83.0615 49.9622 83.0615C47.8258 83.0615 46.0734 81.3091 46.0734 79.1727C46.0494 77.0122 47.8018 75.2839 49.9622 75.2839ZM49.9622 74.4917C47.3937 74.4917 45.2812 76.5801 45.2812 79.1727C45.2812 81.7652 47.3697 83.8537 49.9622 83.8537C52.5308 83.8537 54.6432 81.7652 54.6432 79.1727C54.6432 76.5801 52.5308 74.4917 49.9622 74.4917Z" fill="white"/>
<path d="M49.9623 83.0613C52.11 83.0613 53.8511 81.3202 53.8511 79.1725C53.8511 77.0248 52.11 75.2837 49.9623 75.2837C47.8146 75.2837 46.0735 77.0248 46.0735 79.1725C46.0735 81.3202 47.8146 83.0613 49.9623 83.0613Z" fill="#27319B"/>
<path d="M45.497 59.7045H54.4269L58.8918 51.9748L54.4269 44.2212H45.497L41.0081 51.9748L45.497 59.7045Z" fill="#27319B"/>
<path d="M49.9622 57.3759V54.3752" stroke="white" stroke-width="1.16801" stroke-miterlimit="10" stroke-linecap="round" stroke-linejoin="round"/>
<path d="M49.9622 49.5741V46.5735" stroke="white" stroke-width="1.16801" stroke-miterlimit="10" stroke-linecap="round" stroke-linejoin="round"/>
<path d="M44.561 51.9746H47.5617" stroke="white" stroke-width="1.16801" stroke-miterlimit="10" stroke-linecap="round" stroke-linejoin="round"/>
<path d="M52.363 51.9746H55.3637" stroke="white" stroke-width="1.16801" stroke-miterlimit="10" stroke-linecap="round" stroke-linejoin="round"/>
<path d="M46.1216 55.7915L48.258 53.655" stroke="white" stroke-width="1.16801" stroke-miterlimit="10" stroke-linecap="round" stroke-linejoin="round"/>
<path d="M51.6423 50.2702L53.7788 48.1577" stroke="white" stroke-width="1.16801" stroke-miterlimit="10" stroke-linecap="round" stroke-linejoin="round"/>
<path d="M46.1216 48.1577L48.258 50.2702" stroke="white" stroke-width="1.16801" stroke-miterlimit="10" stroke-linecap="round" stroke-linejoin="round"/>
<path d="M51.6423 53.655L53.7788 55.7915" stroke="white" stroke-width="1.16801" stroke-miterlimit="10" stroke-linecap="round" stroke-linejoin="round"/>
<!-- <circle cx="90" cy="21" r="5" fill="#FBAF1D"/>
<circle cx="8" cy="76" r="5" fill="#2C3ACF"/> -->
</svg>
