<svg width="64" height="64" viewBox="0 0 64 64" fill="none" xmlns="http://www.w3.org/2000/svg">
<path d="M46.6609 21.8502H40.7402" stroke="white" stroke-width="1.12775" stroke-miterlimit="10" stroke-linecap="round"/>
<circle cx="32" cy="32" r="28.8799" stroke="white" stroke-width="1.97357"/>
<circle cx="13.155" cy="22.6001" r="4.32493" fill="white"/>
<circle cx="15.3205" cy="43.3734" r="4.32493" fill="white"/>
<circle cx="49.2942" cy="42.3866" r="4.32493" fill="white"/>
<circle cx="50.281" cy="21.3822" r="4.32493" fill="white"/>
<path d="M24.6697 25.6564L21.5684 22.5551" stroke="white" stroke-width="1.12775" stroke-miterlimit="10" stroke-linecap="round"/>
<path d="M26.9251 40.3172L23.8237 43.2775" stroke="white" stroke-width="1.12775" stroke-miterlimit="10" stroke-linecap="round"/>
<path d="M38.3435 39.4714L41.4448 42.4317" stroke="white" stroke-width="1.12775" stroke-miterlimit="10" stroke-linecap="round"/>
<path d="M21.568 22.5551H16.916" stroke="white" stroke-width="1.12775" stroke-miterlimit="10" stroke-linecap="round"/>
<path d="M23.7335 43.3283H19.0815" stroke="white" stroke-width="1.12775" stroke-miterlimit="10" stroke-linecap="round"/>
<path d="M46.0968 42.4317H41.4448" stroke="white" stroke-width="1.12775" stroke-miterlimit="10" stroke-linecap="round"/>
<path d="M38.0615 24.5286L40.7399 21.8502" stroke="white" stroke-width="1.12775" stroke-miterlimit="10" stroke-linecap="round"/>
<path d="M32 22L32 15" stroke="white" stroke-width="1.12775" stroke-miterlimit="10" stroke-linecap="round"/>
<path d="M32 50L32 42" stroke="white" stroke-width="1.12775" stroke-miterlimit="10" stroke-linecap="round"/>
<circle cx="31.9548" cy="11.3249" r="4.32493" fill="white"/>
<circle cx="31.9548" cy="52.3249" r="4.32493" fill="white"/>
<circle cx="32.0001" cy="32" r="9.44494" stroke="white" stroke-width="1.12775" stroke-linecap="round"/>
<path d="M25.9021 34.9807C25.8688 34.9807 25.8347 34.9737 25.8026 34.9588C25.6823 34.9037 25.6293 34.7616 25.6844 34.6412L28.7368 27.9708C28.7919 27.8505 28.934 27.7975 29.0544 27.8526C29.1747 27.9078 29.2277 28.0499 29.1726 28.1703L26.1202 34.8407C26.08 34.9286 25.9932 34.9807 25.9021 34.9807Z" fill="white"/>
<path d="M32.0079 34.9808C31.917 34.9808 31.83 34.9288 31.7897 34.8408L28.7372 28.1704C28.682 28.05 28.735 27.9076 28.8553 27.8528C28.9757 27.7976 29.1181 27.8506 29.173 27.9709L32.2255 34.6413C32.2807 34.7617 32.2277 34.9041 32.1074 34.959C32.075 34.9738 32.0412 34.9808 32.0079 34.9808Z" fill="white"/>
<path d="M32.0071 34.9808C31.9737 34.9808 31.9397 34.9738 31.9076 34.959C31.7872 34.9038 31.7343 34.7617 31.7894 34.6413L34.842 27.9709C34.8971 27.8506 35.0393 27.7976 35.1596 27.8528C35.2799 27.9079 35.3329 28.05 35.2778 28.1704L32.2252 34.8408C32.1849 34.929 32.0982 34.9808 32.0071 34.9808Z" fill="white"/>
<path d="M38.1128 34.9808C38.022 34.9808 37.935 34.9288 37.8947 34.8408L34.8421 28.1704C34.787 28.05 34.84 27.9076 34.9603 27.8528C35.0807 27.7976 35.223 27.8506 35.2779 27.9709L38.3305 34.6413C38.3856 34.7617 38.3327 34.9041 38.2123 34.959C38.18 34.9738 38.1462 34.9808 38.1128 34.9808Z" fill="white"/>
<path d="M25.8872 35.9297C26.393 35.9297 26.8031 35.5321 26.8031 35.0415C26.8031 34.551 26.393 34.1534 25.8872 34.1534C25.3813 34.1534 24.9712 34.551 24.9712 35.0415C24.9712 35.5321 25.3813 35.9297 25.8872 35.9297Z" fill="white"/>
<path d="M32 35.9297C32.5058 35.9297 32.9159 35.5321 32.9159 35.0415C32.9159 34.551 32.5058 34.1534 32 34.1534C31.4941 34.1534 31.084 34.551 31.084 35.0415C31.084 35.5321 31.4941 35.9297 32 35.9297Z" fill="white"/>
<path d="M38.1127 35.9297C38.6186 35.9297 39.0287 35.5321 39.0287 35.0415C39.0287 34.551 38.6186 34.1534 38.1127 34.1534C37.6069 34.1534 37.1968 34.551 37.1968 35.0415C37.1968 35.5321 37.6069 35.9297 38.1127 35.9297Z" fill="white"/>
</svg>
