<svg width="64" height="64" viewBox="0 0 64 64" fill="none" xmlns="http://www.w3.org/2000/svg">
<rect width="64" height="64" rx="32" fill="#EB5757"/>
<path d="M33.7307 43.1705V40.8701H15.269V43.1798C15.269 45.2714 16.9593 47 19.0512 47H35.5914C35.4328 46.8557 35.2798 46.7293 35.1353 46.5845C34.2319 45.6782 33.7265 44.45 33.7307 43.1705Z" fill="white"/>
<path d="M28.3406 29.2252L31.0196 31.0645L33.709 29.2252C34.4445 28.7235 35.0288 27.5913 35.0288 26.7012V22.9004L31.0264 20.9209L27.0239 22.8954V26.7012C27.0239 27.5911 27.6048 28.7235 28.3406 29.2252ZM28.9437 25.6329C29.1418 25.4369 29.4615 25.4383 29.6576 25.6366L30.4621 26.449L32.3985 24.5129C32.5957 24.3157 32.9155 24.3157 33.1127 24.5132C33.3098 24.7104 33.3096 25.0301 33.1124 25.2273L30.8173 27.5235C30.7227 27.6184 30.5945 27.6725 30.4604 27.673H30.4593C30.3246 27.6722 30.1959 27.6178 30.1018 27.5215L28.9401 26.3479C28.744 26.1493 28.7457 25.8296 28.9437 25.6329Z" fill="white"/>
<path d="M46.0551 16.9998H46.039C44.5558 16.9998 43.3223 18.239 43.3223 19.723V24.3556H48.731V19.714C48.7377 18.2271 47.5419 17.0141 46.0551 16.9998Z" fill="white"/>
<path d="M23.0197 16.9998C21.6171 16.9998 20.4757 18.126 20.4757 19.5075L20.3267 39.8605H34.236C34.5191 39.8718 34.7425 40.1053 34.7408 40.389V43.1705C34.7358 45.2734 36.4311 46.9848 38.5337 47H38.5464C40.6414 46.9848 42.3274 45.2743 42.313 43.1793V19.7238C42.313 18.6626 42.7905 17.7209 43.508 16.9998L23.0197 16.9998ZM26.0148 22.5803C26.0083 22.3904 26.1123 22.2138 26.2816 22.127L30.8024 19.9052C30.9412 19.8365 31.1041 19.8365 31.2429 19.9052L35.7719 22.1332C35.9412 22.22 36.0451 22.3963 36.0389 22.5865V26.701C36.0389 27.9256 35.2916 29.3693 34.2794 30.0592L31.3136 32.0928C31.2305 32.15 31.1319 32.1807 31.0311 32.1807C30.9305 32.1807 30.8325 32.1503 30.75 32.0928L27.7755 30.0592C26.7639 29.3691 26.0148 27.9253 26.0148 26.701V22.5803ZM38.2024 37.5528H24.3561C24.0773 37.5528 23.8513 37.3269 23.8513 37.048C23.8513 36.7691 24.0773 36.5432 24.3561 36.5432H38.2024C38.4813 36.5432 38.7072 36.7691 38.7072 37.048C38.7072 37.3269 38.4813 37.5528 38.2024 37.5528ZM38.2024 34.8845H24.3561C24.0773 34.8845 23.8513 34.6586 23.8513 34.3797C23.8513 34.1008 24.0773 33.8749 24.3561 33.8749H38.2024C38.4813 33.8749 38.7072 34.1008 38.7072 34.3797C38.7072 34.6586 38.4813 34.8845 38.2024 34.8845Z" fill="white"/>
</svg>
