<svg width="849" height="336" viewBox="0 0 849 336" fill="none" xmlns="http://www.w3.org/2000/svg">
<g opacity="0.17">
<path d="M776.068 374.417C717.65 374.417 670.136 330.232 670.136 275.907C670.136 221.581 717.65 177.397 776.068 177.397C834.486 177.397 882 221.581 882 275.907C882 330.232 834.486 374.417 776.068 374.417ZM776.068 197.92C729.853 197.92 692.205 232.929 692.205 275.907C692.205 318.884 729.853 353.894 776.068 353.894C822.283 353.894 859.931 318.884 859.931 275.907C859.931 232.929 822.283 197.92 776.068 197.92Z" fill="#DEEAFF"/>
<path d="M614.764 254.173L645.272 221.452C639.67 225.964 634.552 230.605 629.974 235.291L625.46 240.132C621.282 244.825 617.685 249.543 614.764 254.173Z" fill="#93B9FF"/>
<path d="M606.822 276.763L670.685 208.267C668.813 209.364 666.969 210.494 665.149 211.636L607.756 273.192C607.367 274.408 607.062 275.595 606.822 276.763Z" fill="#93B9FF"/>
<path d="M606.318 291.024C606.332 291.121 606.345 291.219 606.358 291.317L688.583 203.127C688.395 203.216 688.208 203.305 688.02 203.394C686.748 203.998 685.479 204.623 684.209 205.249L606.13 288.993C606.179 289.677 606.226 290.349 606.318 291.024Z" fill="#93B9FF"/>
<path d="M608.789 302.623L703.645 200.882C702.4 201.357 701.134 201.842 699.891 202.339L607.959 300.943C608.196 301.537 608.471 302.09 608.789 302.623Z" fill="#93B9FF"/>
<path d="M613.053 312.003L716.839 200.685C715.728 201.003 714.619 201.344 713.511 201.685L611.798 310.78C612.189 311.208 612.6 311.616 613.053 312.003Z" fill="#93B9FF"/>
<path d="M618.73 319.883L728.65 201.99C727.657 202.195 726.664 202.4 725.652 202.637L617.105 319.044C617.634 319.338 618.161 319.621 618.73 319.883Z" fill="#93B9FF"/>
<path d="M625.543 326.549L739.266 204.573C738.369 204.674 737.472 204.776 736.577 204.888L623.648 326.012C624.274 326.201 624.898 326.38 625.543 326.549Z" fill="#93B9FF"/>
<path d="M633.432 332.084L748.854 208.29C748.054 208.288 747.235 208.306 746.417 208.335L631.247 331.858C631.969 331.944 632.69 332.019 633.432 332.084Z" fill="#93B9FF"/>
<path d="M642.299 336.569L757.453 213.061C756.751 212.966 756.029 212.88 755.287 212.815L639.863 336.614C640.662 336.616 641.482 336.598 642.299 336.569Z" fill="#93B9FF"/>
<path d="M652.177 339.968L765.061 218.897C764.436 218.707 763.812 218.528 763.148 218.38L649.469 340.304C650.366 340.203 651.262 340.101 652.177 339.968Z" fill="#93B9FF"/>
<path d="M663.12 342.221L771.572 225.901C771.043 225.607 770.516 225.325 769.968 225.052L660.122 342.868C661.116 342.662 662.108 342.447 663.12 342.221Z" fill="#93B9FF"/>
<path d="M675.284 343.152L776.897 234.182C776.484 233.764 776.073 233.357 775.643 232.97L671.959 344.174C673.046 343.843 674.155 343.503 675.284 343.152Z" fill="#93B9FF"/>
<path d="M688.916 342.461L780.693 244.023C780.437 243.45 780.161 242.897 779.864 242.343L685.162 343.918C686.409 343.454 687.652 342.968 688.916 342.461Z" fill="#93B9FF"/>
<path d="M700.566 341.537C701.921 340.893 703.274 340.228 704.604 339.562L782.474 256.041C782.441 255.315 782.386 254.588 782.29 253.881C782.282 253.827 782.273 253.761 782.266 253.707L700.251 341.674C700.335 341.635 700.461 341.586 700.566 341.537Z" fill="#93B9FF"/>
<path d="M723.766 333.076L780.791 271.914C781.18 270.699 781.504 269.491 781.744 268.323L718.192 336.486C720.082 335.369 721.947 334.229 723.766 333.076Z" fill="#93B9FF"/>
<path d="M773.566 291.163L743.853 323.032C756.548 312.734 766.814 301.723 773.566 291.163Z" fill="#93B9FF"/>
</g>
<path d="M47.1064 99.731C48.1997 95.4916 45.9227 91.371 42.0206 90.5274C38.1185 89.6838 34.0689 92.4366 32.9755 96.676C31.8822 100.915 34.1592 105.036 38.0613 105.88C41.9634 106.723 46.013 103.97 47.1064 99.731Z" fill="#FBAF1D"/>
<path d="M11.7415 299.347C12.4262 296.692 10.6305 294.031 7.73052 293.404C4.83058 292.777 1.92462 294.422 1.23986 297.077C0.555104 299.732 2.35086 302.393 5.2508 303.019C8.15073 303.646 11.0567 302.002 11.7415 299.347Z" fill="#2C3ACF"/>
<path d="M107 237.937C107 239.87 105.289 241.436 103.179 241.436C101.068 241.436 99.3571 239.87 99.3571 237.937C99.3571 236.005 101.068 234.438 103.179 234.438C105.289 234.438 107 236.005 107 237.937Z" fill="#00B159"/>
<path d="M67.4753 205.886C67.4753 207.814 65.7578 209.385 63.6492 209.385C61.5407 209.385 59.8232 207.814 59.8232 205.886C59.8232 203.958 61.5407 202.387 63.6492 202.387C65.7578 202.387 67.4753 203.958 67.4753 205.886Z" fill="#EB5757"/>
<g opacity="0.05">
<path d="M199.56 305.825C232.941 312.908 262.71 289.548 266.051 253.65C269.393 217.751 245.042 182.908 211.661 175.825C178.281 168.742 148.512 192.102 145.17 228C141.828 263.899 166.18 298.742 199.56 305.825Z" fill="#3782F1"/>
<path d="M165.224 254.652C164.968 254.595 164.712 254.538 164.479 254.212C163.733 253.772 163.315 252.584 163.899 251.893L188.564 209.514C188.892 208.766 189.965 208.459 190.687 209.167C191.433 209.607 191.85 210.795 191.266 211.486L166.601 253.865C166.53 254.67 165.737 254.767 165.224 254.652Z" fill="white"/>
<path d="M204.697 262.362C204.184 262.247 203.438 261.807 203.253 260.944L186.887 209.389C186.701 208.526 187.053 207.51 187.846 207.413C188.64 207.317 189.642 207.814 189.827 208.677L206.193 260.232C206.378 261.095 206.027 262.111 205.234 262.208C205.21 262.476 204.953 262.419 204.697 262.362Z" fill="white"/>
<path d="M203.142 260.89C202.885 260.833 202.629 260.775 202.396 260.45C201.651 260.01 201.233 258.822 201.817 258.131L226.482 215.752C226.809 215.004 227.882 214.696 228.604 215.405C229.35 215.845 229.768 217.033 229.184 217.724L204.519 260.103C204.448 260.908 203.655 261.005 203.142 260.89Z" fill="white"/>
<path d="M242.613 268.599C242.1 268.485 241.354 268.044 241.168 267.182L224.803 215.626C224.617 214.763 224.969 213.747 225.762 213.65C226.555 213.554 227.558 214.051 227.743 214.914L244.109 266.47C244.294 267.332 243.943 268.349 243.149 268.445C243.126 268.714 242.869 268.656 242.613 268.599Z" fill="white"/>
<path d="M164.508 262.743C167.786 263.488 170.675 261.422 170.961 258.127C171.248 254.832 168.822 251.557 165.544 250.811C162.266 250.066 159.377 252.133 159.091 255.428C158.804 258.723 161.23 261.998 164.508 262.743Z" fill="white"/>
<path d="M202.426 268.981C205.704 269.726 208.593 267.66 208.88 264.365C209.166 261.07 206.741 257.795 203.463 257.049C200.185 256.304 197.295 258.371 197.009 261.666C196.723 264.961 199.148 268.236 202.426 268.981Z" fill="white"/>
<path d="M240.341 275.217C243.619 275.963 246.508 273.896 246.794 270.601C247.08 267.306 244.655 264.031 241.377 263.285C238.099 262.54 235.21 264.607 234.923 267.902C234.637 271.197 237.063 274.472 240.341 275.217Z" fill="white"/>
</g>
<g opacity="0.13">
<path d="M44.0588 236.873C59.5373 232.671 70.3177 215.915 68.1374 199.449C65.9572 182.982 51.6419 173.039 36.1633 177.241C20.6848 181.443 9.90436 198.199 12.0846 214.666C14.2649 231.132 28.5802 241.075 44.0588 236.873Z" fill="#3782F1"/>
<path d="M23.4273 220.853C23.3086 220.886 23.1898 220.919 23.055 220.828C22.6826 220.803 22.3809 220.375 22.5704 219.938L29.2683 195.673C29.339 195.269 29.7822 194.891 30.1705 195.039C30.5429 195.064 30.8445 195.492 30.655 195.929L23.9571 220.194C24.0052 220.565 23.6649 220.787 23.4273 220.853Z" fill="white"/>
<path d="M41.6743 216.283C41.4366 216.348 41.0641 216.324 40.8972 215.986L28.5855 196.984C28.4186 196.646 28.4734 196.119 28.8138 195.896C29.1542 195.674 29.6455 195.666 29.8124 196.004L42.1241 215.005C42.291 215.343 42.2363 215.871 41.8959 216.093C41.9119 216.217 41.7931 216.25 41.6743 216.283Z" fill="white"/>
<path d="M40.9091 216.973C40.7903 217.006 40.6715 217.039 40.5367 216.949C40.1644 216.924 39.8627 216.495 40.0522 216.059L46.75 191.794C46.8207 191.39 47.2638 191.011 47.6522 191.159C48.0246 191.184 48.3262 191.613 48.1367 192.049L41.4388 216.314C41.4869 216.685 41.1466 216.907 40.9091 216.973Z" fill="white"/>
<path d="M59.1554 212.404C58.9178 212.47 58.5452 212.445 58.3783 212.107L46.0667 193.105C45.8998 192.767 45.9545 192.24 46.2949 192.017C46.6353 191.795 47.1267 191.787 47.2936 192.125L59.6052 211.126C59.7721 211.464 59.7174 211.992 59.377 212.214C59.3931 212.338 59.2742 212.371 59.1554 212.404Z" fill="white"/>
<path d="M24.6355 223.916C26.1534 223.488 27.2271 221.911 27.0336 220.393C26.8402 218.875 25.4529 217.992 23.935 218.42C22.417 218.848 21.3433 220.425 21.5367 221.943C21.7302 223.461 23.1175 224.344 24.6355 223.916Z" fill="white"/>
<path d="M42.1177 220.036C43.6357 219.608 44.7093 218.031 44.5159 216.513C44.3224 214.995 42.9351 214.112 41.4172 214.54C39.8993 214.968 38.8256 216.546 39.019 218.063C39.2124 219.581 40.5998 220.464 42.1177 220.036Z" fill="white"/>
<path d="M59.5982 216.157C61.1162 215.729 62.1898 214.152 61.9964 212.634C61.8029 211.116 60.4156 210.233 58.8977 210.661C57.3798 211.089 56.3061 212.666 56.4995 214.184C56.6929 215.702 58.0803 216.585 59.5982 216.157Z" fill="white"/>
</g>
<g opacity="0.15">
<path d="M63.2958 164.182C75.2036 168.007 86.5882 160.885 88.7242 148.273C90.8602 135.661 82.9386 122.335 71.0308 118.51C59.1231 114.684 47.7384 121.807 45.6024 134.419C43.4664 147.031 51.3881 160.356 63.2958 164.182Z" fill="#3782F1"/>
<path d="M52.276 144.773C52.1849 144.743 52.0939 144.714 52.0187 144.589C51.7614 144.406 51.643 143.968 51.8731 143.742L61.954 129.497C62.093 129.242 62.4894 129.17 62.7307 129.448C62.988 129.632 63.1064 130.07 62.8763 130.296L52.7953 144.54C52.7475 144.825 52.4582 144.831 52.276 144.773Z" fill="white"/>
<path d="M66.2686 148.963C66.0864 148.904 65.8289 148.721 65.7857 148.407L61.2908 129.445C61.2476 129.131 61.4027 128.781 61.692 128.774C61.9814 128.768 62.3299 128.981 62.3731 129.295L66.868 148.256C66.9112 148.57 66.7562 148.92 66.4668 148.927C66.4509 149.022 66.3597 148.992 66.2686 148.963Z" fill="white"/>
<path d="M65.6868 148.434C65.5957 148.405 65.5046 148.375 65.4295 148.251C65.1721 148.068 65.0538 147.63 65.2838 147.404L75.3647 133.159C75.5037 132.904 75.9001 132.832 76.1414 133.11C76.3987 133.294 76.5171 133.732 76.287 133.958L66.2061 148.202C66.1582 148.487 65.8689 148.493 65.6868 148.434Z" fill="white"/>
<path d="M79.6787 152.624C79.4964 152.565 79.239 152.382 79.1958 152.067L74.7009 133.106C74.6577 132.792 74.8128 132.442 75.1021 132.435C75.3915 132.429 75.74 132.641 75.7832 132.956L80.278 151.917C80.3212 152.231 80.1662 152.581 79.8769 152.588C79.8609 152.683 79.7698 152.653 79.6787 152.624Z" fill="white"/>
<path d="M51.8374 147.645C53.0033 148.028 54.1053 147.392 54.2986 146.225C54.492 145.059 53.7036 143.803 52.5376 143.42C51.3716 143.037 50.2697 143.673 50.0763 144.839C49.8829 146.006 50.6714 147.262 51.8374 147.645Z" fill="white"/>
<path d="M65.2484 151.307C66.4144 151.689 67.5163 151.054 67.7096 149.887C67.903 148.72 67.1146 147.464 65.9486 147.082C64.7827 146.699 63.6807 147.334 63.4873 148.501C63.294 149.668 64.0824 150.924 65.2484 151.307Z" fill="white"/>
<path d="M78.6581 154.968C79.8241 155.35 80.926 154.715 81.1194 153.548C81.3127 152.382 80.5243 151.125 79.3584 150.743C78.1924 150.36 77.0904 150.995 76.8971 152.162C76.7037 153.329 77.4922 154.585 78.6581 154.968Z" fill="white"/>
</g>
</svg>
