<svg width="12" height="20" viewBox="0 0 12 20" fill="none" xmlns="http://www.w3.org/2000/svg">
<path d="M5.44681 13.7227C5.85106 13.7227 6.15957 13.6143 6.37234 13.3974C6.58511 13.1738 6.70567 12.8892 6.73404 12.5436C6.73404 12.4894 6.73404 12.4352 6.73404 12.3809C6.73404 12.3267 6.73404 12.2759 6.73404 12.2285C6.75532 11.8151 6.83333 11.4627 6.96809 11.1713C7.10993 10.8799 7.34043 10.5987 7.65957 10.3276C7.98582 10.0498 8.43617 9.73127 9.01064 9.37211C9.94681 8.78254 10.6773 8.13537 11.2021 7.4306C11.734 6.71905 12 5.87536 12 4.89952C12 3.86947 11.7305 2.99189 11.1915 2.26679C10.6596 1.53491 9.93617 0.975838 9.02128 0.589569C8.10638 0.196523 7.08156 0 5.94681 0C5.09574 0 4.30142 0.118591 3.56383 0.355774C2.83333 0.592957 2.18794 0.935178 1.62766 1.38244C1.07447 1.8297 0.64539 2.36505 0.340426 2.9885C0.219858 3.23246 0.131206 3.47303 0.0744681 3.71022C0.0248227 3.94062 0 4.16086 0 4.37094C0 4.72333 0.106383 5.01133 0.319149 5.23496C0.539007 5.45182 0.843972 5.56024 1.23404 5.56024C1.55319 5.56024 1.8227 5.48231 2.04255 5.32645C2.2695 5.16381 2.43262 4.94357 2.53191 4.66573C2.70922 4.08971 2.9539 3.62551 3.26596 3.27312C3.58511 2.92074 3.96099 2.66661 4.39362 2.51075C4.83333 2.34811 5.31206 2.26679 5.82979 2.26679C6.46809 2.26679 7.03901 2.37522 7.54255 2.59207C8.0461 2.80215 8.44681 3.1071 8.74468 3.50692C9.04965 3.90674 9.20213 4.37433 9.20213 4.90968C9.20213 5.3705 9.10993 5.77371 8.92553 6.11932C8.74113 6.46493 8.47518 6.78343 8.12766 7.07483C7.78014 7.36622 7.36525 7.67117 6.88298 7.98967C6.34397 8.33528 5.86525 8.70122 5.44681 9.08749C5.02837 9.46698 4.70213 9.88375 4.46809 10.3378C4.23404 10.7918 4.11702 11.3035 4.11702 11.8727C4.11702 11.9676 4.11702 12.0591 4.11702 12.1471C4.11702 12.2352 4.11702 12.3267 4.11702 12.4216C4.11702 12.8079 4.2305 13.123 4.45745 13.3669C4.69149 13.6041 5.02128 13.7227 5.44681 13.7227ZM5.46809 19.3846C5.78723 19.3846 6.07801 19.3101 6.34043 19.161C6.60993 19.0119 6.8227 18.812 6.97872 18.5613C7.14184 18.3173 7.2234 18.0428 7.2234 17.7379C7.2234 17.4397 7.14184 17.1653 6.97872 16.9145C6.8227 16.6638 6.60993 16.4673 6.34043 16.325C6.07801 16.1759 5.78723 16.1013 5.46809 16.1013C5.14184 16.1013 4.84752 16.1759 4.58511 16.325C4.3227 16.4673 4.11348 16.6638 3.95745 16.9145C3.80142 17.1653 3.7234 17.4397 3.7234 17.7379C3.7234 18.0428 3.80142 18.3173 3.95745 18.5613C4.11348 18.812 4.3227 19.0119 4.58511 19.161C4.84752 19.3101 5.14184 19.3846 5.46809 19.3846Z" fill="white"/>
</svg>
