<svg width="1920" height="568" viewBox="0 0 1920 568" fill="none" xmlns="http://www.w3.org/2000/svg">
<path fill-rule="evenodd" clip-rule="evenodd" d="M1920 0H0V91.0471V493.254C0 493.254 234.5 520.331 366.5 536.62C498.5 552.908 640 568 768 568C877.714 568 987.429 552.31 1097.14 536.62C1115.43 534.004 1133.71 531.39 1152 528.847C1280 511.05 1408 496.813 1536 493.254C1664 489.694 1792 496.813 1856 500.372L1920 503.932V91.0471V0Z" fill="#F1F6FF"/>
<path opacity="0.58" d="M549.5 532C551.985 532 554 529.985 554 527.5C554 525.015 551.985 523 549.5 523C547.015 523 545 525.015 545 527.5C545 529.985 547.015 532 549.5 532Z" fill="#FBAF1D"/>
<path opacity="0.58" d="M669.5 191C671.985 191 674 188.985 674 186.5C674 184.015 671.985 182 669.5 182C667.015 182 665 184.015 665 186.5C665 188.985 667.015 191 669.5 191Z" fill="#FBAF1D"/>
<path opacity="0.58" d="M509 337C511.209 337 513 335.209 513 333C513 330.791 511.209 329 509 329C506.791 329 505 330.791 505 333C505 335.209 506.791 337 509 337Z" fill="#00B159"/>
<path d="M520.298 227.298C525.691 221.904 525.691 213.159 520.298 207.766C514.904 202.372 506.159 202.372 500.766 207.766C495.372 213.159 495.372 221.904 500.766 227.298C506.159 232.691 514.904 232.691 520.298 227.298Z" fill="#2C3ACF"/>
<path d="M431.952 296.989C431.672 298.387 430.273 299.226 429.013 298.946C427.613 298.667 426.774 297.269 427.054 296.011C427.334 294.613 428.733 293.774 429.993 294.054C431.252 294.333 432.232 295.731 431.952 296.989Z" fill="#2C3ACF"/>
<path d="M1421.7 228.9C1426.12 228.9 1429.7 225.318 1429.7 220.9C1429.7 216.482 1426.12 212.9 1421.7 212.9C1417.28 212.9 1413.7 216.482 1413.7 220.9C1413.7 225.318 1417.28 228.9 1421.7 228.9Z" fill="#2C3ACF"/>
<path d="M751 487C755.418 487 759 483.418 759 479C759 474.582 755.418 471 751 471C746.582 471 743 474.582 743 479C743 483.418 746.582 487 751 487Z" fill="#2C3ACF"/>
<path d="M1280.5 195.5C1282.99 195.5 1285 193.485 1285 191C1285 188.515 1282.99 186.5 1280.5 186.5C1278.01 186.5 1276 188.515 1276 191C1276 193.485 1278.01 195.5 1280.5 195.5Z" fill="#FBAF1D"/>
<path d="M1563.2 191C1565.69 191 1567.7 188.985 1567.7 186.5C1567.7 184.015 1565.69 182 1563.2 182C1560.71 182 1558.7 184.015 1558.7 186.5C1558.7 188.985 1560.71 191 1563.2 191Z" fill="#00B159"/>
<path d="M1543.94 339.609C1543.6 341.271 1542.05 342.269 1540.39 341.936C1538.73 341.604 1537.73 340.053 1538.06 338.391C1538.4 336.729 1539.95 335.731 1541.61 336.064C1543.27 336.396 1544.27 338.058 1543.94 339.609Z" fill="#00B159"/>
<path opacity="0.58" d="M1080.5 505C1082.99 505 1085 502.985 1085 500.5C1085 498.015 1082.99 496 1080.5 496C1078.01 496 1076 498.015 1076 500.5C1076 502.985 1078.01 505 1080.5 505Z" fill="#00B159"/>
<path opacity="0.58" d="M1527.5 496C1529.99 496 1532 493.985 1532 491.5C1532 489.015 1529.99 487 1527.5 487C1525.01 487 1523 489.015 1523 491.5C1523 493.985 1525.01 496 1527.5 496Z" fill="#FBAF1D"/>
<path d="M1252.5 532C1254.99 532 1257 529.985 1257 527.5C1257 525.015 1254.99 523 1252.5 523C1250.01 523 1248 525.015 1248 527.5C1248 529.985 1250.01 532 1252.5 532Z" fill="#2C3ACF"/>
<g opacity="0.6">
<path d="M131.59 451.474C220.387 428.332 273.611 337.585 250.469 248.786C227.326 159.986 136.58 106.761 47.7826 129.903C-41.0152 153.045 -94.2392 243.792 -71.0965 332.591C-47.9539 421.39 42.7918 474.616 131.59 451.474Z" fill="#9FBEFF" fill-opacity="0.23"/>
<path d="M-1.46043 368.962C-2.03117 369.111 -2.64528 369.144 -3.26185 369.033C-5.56924 368.625 -7.11128 366.427 -6.70408 364.119L15.8012 236.235C16.2084 233.928 18.4068 232.386 20.7142 232.793C23.0216 233.2 24.5636 235.399 24.1564 237.706L1.65116 365.59C1.35407 367.277 0.0998911 368.556 -1.46043 368.962Z" fill="white"/>
<path d="M103.121 341.706C101.565 342.111 99.842 341.609 98.7595 340.281L16.6947 239.65C15.2131 237.835 15.4849 235.159 17.3011 233.682C19.1162 232.2 21.7917 232.472 23.2692 234.288L105.334 334.92C106.816 336.735 106.544 339.41 104.728 340.888C104.24 341.287 103.692 341.557 103.121 341.706Z" fill="white"/>
<path d="M103.112 341.708C102.541 341.856 101.927 341.889 101.31 341.778C99.003 341.371 97.461 339.173 97.8682 336.865L120.378 208.98C120.785 206.672 122.983 205.13 125.291 205.538C127.598 205.945 129.14 208.143 128.733 210.451L106.223 338.336C105.927 340.027 104.672 341.301 103.112 341.708Z" fill="white"/>
<path d="M207.692 314.453C206.136 314.858 204.413 314.356 203.331 313.029L121.266 212.397C119.784 210.582 120.056 207.906 121.872 206.429C123.687 204.947 126.363 205.219 127.841 207.035L209.905 307.667C211.387 309.482 211.115 312.157 209.299 313.635C208.811 314.034 208.263 314.304 207.692 314.453Z" fill="white"/>
<path d="M2.52639 385.288C11.1914 383.03 16.4407 374.388 14.2509 365.986C12.0612 357.584 3.26165 352.603 -5.40337 354.861C-14.0684 357.12 -19.3176 365.761 -17.1279 374.164C-14.9382 382.566 -6.13863 387.546 2.52639 385.288Z" fill="white"/>
<path d="M107.232 358C115.897 355.742 121.147 347.1 118.957 338.698C116.767 330.296 107.968 325.315 99.3027 327.573C90.6377 329.831 85.3884 338.473 87.5782 346.876C89.7679 355.278 98.5674 360.258 107.232 358Z" fill="white"/>
<path d="M211.936 330.712C220.601 328.454 225.85 319.812 223.66 311.41C221.47 303.008 212.671 298.027 204.006 300.286C195.341 302.544 190.092 311.186 192.281 319.588C194.471 327.99 203.271 332.971 211.936 330.712Z" fill="white"/>
</g>
<g opacity="0.6">
<path d="M278.261 260.018C314.857 268.021 351.011 244.842 359.015 208.246C367.019 171.65 343.841 135.495 307.245 127.492C270.65 119.488 234.495 142.667 226.491 179.263C218.488 215.859 241.666 252.014 278.261 260.018Z" fill="#9FBEFF" fill-opacity="0.23"/>
<path d="M245.106 205.38C244.871 205.329 244.641 205.227 244.438 205.072C243.673 204.497 243.519 203.412 244.094 202.648L275.939 160.272C276.514 159.508 277.599 159.353 278.363 159.928C279.128 160.503 279.282 161.588 278.707 162.353L246.862 204.728C246.442 205.287 245.749 205.521 245.106 205.38Z" fill="white"/>
<path d="M288.206 214.806C287.565 214.666 287.031 214.165 286.882 213.481L275.632 161.68C275.428 160.746 276.022 159.822 276.957 159.621C277.891 159.417 278.815 160.011 279.016 160.945L290.266 212.746C290.47 213.681 289.876 214.604 288.942 214.806C288.69 214.861 288.441 214.858 288.206 214.806Z" fill="white"/>
<path d="M288.203 214.805C287.968 214.754 287.738 214.652 287.534 214.498C286.77 213.923 286.615 212.837 287.19 212.073L319.037 169.698C319.612 168.933 320.698 168.779 321.462 169.354C322.226 169.929 322.381 171.014 321.806 171.778L289.959 214.154C289.538 214.714 288.846 214.946 288.203 214.805Z" fill="white"/>
<path d="M331.303 224.232C330.661 224.091 330.127 223.59 329.979 222.907L318.729 171.106C318.525 170.171 319.119 169.248 320.053 169.046C320.988 168.843 321.911 169.436 322.113 170.371L333.363 222.171C333.567 223.106 332.973 224.029 332.039 224.231C331.787 224.286 331.538 224.283 331.303 224.232Z" fill="white"/>
<path d="M243.536 212.059C247.107 212.84 250.616 210.666 251.373 207.203C252.13 203.74 249.849 200.3 246.278 199.519C242.707 198.738 239.199 200.912 238.441 204.375C237.684 207.837 239.965 211.278 243.536 212.059Z" fill="white"/>
<path d="M286.687 221.496C290.258 222.277 293.767 220.103 294.525 216.64C295.282 213.178 293.001 209.738 289.43 208.957C285.859 208.176 282.35 210.35 281.593 213.812C280.835 217.275 283.116 220.715 286.687 221.496Z" fill="white"/>
<path d="M329.838 230.933C333.409 231.714 336.918 229.54 337.675 226.077C338.432 222.615 336.151 219.175 332.58 218.394C329.009 217.613 325.5 219.787 324.743 223.249C323.986 226.712 326.267 230.152 329.838 230.933Z" fill="white"/>
</g>
</svg>
