<svg width="1250" height="671" viewBox="0 0 1250 671" fill="none" xmlns="http://www.w3.org/2000/svg">
<path opacity="0.81" d="M20.4981 321.069C-2.69407 305.017 -6.79729 275.231 11.2212 254.72C29.2398 234.031 75.2673 216.017 98.4595 232.247C121.652 248.299 94.5347 281.474 89.8962 307.336C83.4738 343.186 43.6903 337.121 20.4981 321.069Z" fill="#F1F6FF"/>
<path opacity="0.47" d="M1213.47 536.168C1196.52 531.531 1187.07 515.479 1192.24 500.497C1197.41 485.336 1219.18 466.43 1236.13 471.068C1253.07 475.705 1245.76 499.605 1249.33 515.122C1254.32 536.703 1230.42 540.984 1213.47 536.168Z" fill="#F1F6FF"/>
<path d="M1235.95 63.3423C1227.03 88.8474 1196.7 103.116 1167.98 95.2683C1139.25 87.4206 1103.39 54.9595 1112.31 29.4543C1121.23 3.94917 1166.55 15.0073 1195.81 9.47826C1236.84 1.80888 1244.87 37.8371 1235.95 63.3423Z" fill="#F1F6FF"/>
<path d="M1114.59 547.689C1125.47 501.432 1108.35 462.047 1104.25 416.795C1100.33 373.891 1117.98 337.69 1127.79 296.796C1136.52 260.427 1133.85 219.199 1122.97 183.5C1108.35 134.73 1074.3 89.6462 1025.09 62.1603C948.596 19.2554 846.253 24.6185 761.383 54.2832C725.901 66.6854 691.49 83.2775 653.512 87.4674C598.061 93.6685 544.215 73.0541 490.191 60.6519C416.732 43.8922 336.141 42.719 266.605 69.7021C187.975 100.205 131.811 168.919 138.051 244.338C140.904 278.528 155.881 312.215 150.532 346.237C145.005 380.762 121.291 409.589 108.81 442.102C90.2674 490.203 59.2297 523.861 124.679 607.353C190.128 690.845 1060.39 643.981 1087.49 607.353C1114.59 570.726 1109.6 568.806 1114.59 547.689Z" fill="#F1F6FF"/>
<path opacity="0.47" d="M1237.66 279.44C1231.78 228.485 1203.61 177.529 1154.57 140.989C1078.07 84.3346 962.168 70.0872 860.707 83.3289C818.09 88.8603 776.008 98.7496 732.499 95.7325C669.019 91.3745 613.206 60.7007 555.432 38.2401C476.795 7.73399 386.568 -8.6924 302.938 4.7169C207.897 19.97 129.973 77.1271 120.701 152.89C116.421 187.251 159.038 247.593 145.486 280.11C131.756 313.131 31.7216 414.203 34.0397 490.972C36.5361 570.589 83.4504 631.698 95.7366 634.954C108.023 638.21 113.761 639.506 124.996 641.026C194.389 650.411 426.718 658.858 614.736 658.858C802.754 658.858 904.179 690.394 1082.01 651.819C1103.48 647.163 1109.44 655.545 1141.92 631.64C1174.4 607.736 1190.41 560.532 1165.63 506.225C1146.72 464.824 1198.26 430.797 1218.23 392.246C1236.06 357.884 1241.94 316.818 1237.66 279.44Z" fill="#F1F6FF"/>
</svg>
