<svg width="100" height="100" viewBox="0 0 100 100" fill="none" xmlns="http://www.w3.org/2000/svg">
<g opacity="0.5">
<path d="M31.8503 14.8537C31.3052 15.4118 31 16.161 31 16.9412C31 17.7214 31.3052 18.4706 31.8503 19.0287L62.3066 50.2724L31.8503 81.5099C31.3052 82.0681 31 82.8173 31 83.5974C31 84.3776 31.3052 85.1268 31.8503 85.6849C32.1153 85.9571 32.4321 86.1734 32.7821 86.3211C33.132 86.4688 33.508 86.5449 33.8878 86.5449C34.2677 86.5449 34.6437 86.4688 34.9936 86.3211C35.3435 86.1734 35.6604 85.9571 35.9253 85.6849L68.3128 52.4537C68.8817 51.8701 69.2 51.0874 69.2 50.2724C69.2 49.4575 68.8817 48.6748 68.3128 48.0912L35.9253 14.8599C35.6604 14.5878 35.3435 14.3715 34.9936 14.2238C34.6437 14.0761 34.2677 14 33.8878 14C33.508 14 33.132 14.0761 32.7821 14.2238C32.4321 14.3715 32.1153 14.5878 31.8503 14.8599V14.8537Z" fill="#717591"/>
</g>
</svg>
