<svg width="100" height="100" viewBox="0 0 100 100" fill="none" xmlns="http://www.w3.org/2000/svg">
<g opacity="0.5">
<path d="M68.1497 14.8537C68.6948 15.4118 69 16.161 69 16.9412C69 17.7214 68.6948 18.4706 68.1497 19.0287L37.6934 50.2724L68.1497 81.5099C68.6948 82.0681 69 82.8173 69 83.5974C69 84.3776 68.6948 85.1268 68.1497 85.6849C67.8847 85.9571 67.5679 86.1734 67.2179 86.3211C66.868 86.4688 66.492 86.5449 66.1122 86.5449C65.7323 86.5449 65.3563 86.4688 65.0064 86.3211C64.6565 86.1734 64.3396 85.9571 64.0747 85.6849L31.6872 52.4537C31.1183 51.8701 30.8 51.0874 30.8 50.2724C30.8 49.4575 31.1183 48.6748 31.6872 48.0912L64.0747 14.8599C64.3396 14.5878 64.6565 14.3715 65.0064 14.2238C65.3563 14.0761 65.7323 14 66.1122 14C66.492 14 66.868 14.0761 67.2179 14.2238C67.5679 14.3715 67.8847 14.5878 68.1497 14.8599V14.8537Z" fill="#717591"/>
</g>
</svg>
