<svg width="169" height="202" viewBox="0 0 169 202" fill="none" xmlns="http://www.w3.org/2000/svg">
<path d="M108.698 -35L204.848 61.1498C178.301 87.6965 135.245 87.6965 108.698 61.1498C82.1514 34.603 82.1514 -8.43952 108.698 -35Z" fill="#ECA00E"/>
<path d="M49.7171 86.5585L37.6671 23.1738C55.1675 17.1809 72.0575 26.5129 75.3844 44.0133C78.7114 61.5137 67.2211 80.5595 49.7171 86.5585Z" fill="#ECA00E"/>
<path d="M46.4141 122.067L100.057 100.167C103.542 114.978 94.3571 131.892 79.5465 137.938C64.7358 143.985 49.9038 136.88 46.4141 122.067Z" fill="#ECA00E"/>
<path d="M208.443 135.192L118.517 177.023C111.604 152.194 126.133 122.694 150.961 111.145C175.79 99.5953 201.522 110.361 208.443 135.192Z" fill="#ECA00E"/>
</svg>
