<svg width="124" height="168" viewBox="0 0 124 168" fill="none" xmlns="http://www.w3.org/2000/svg">
<path d="M77.3525 112.654C74.0084 114.898 70.5796 115.335 67.2354 112.753C63.9195 110.199 63.6091 106.7 64.8931 102.41C60.5472 103.356 56.6387 103.327 54.0706 99.4611C51.8694 96.1452 52.4056 92.8999 54.5786 89.7674C54.8467 89.4993 55.1148 89.2453 55.3829 88.9773C56.935 87.8625 58.7411 86.7761 60.5472 87.1429C63.849 87.8061 63.2422 86.2822 63.4257 83.954C63.6655 80.7369 63.3269 79.4246 59.7288 79.9467C58.4165 80.1301 56.9067 78.9731 55.4957 78.4228C55.1147 78.0418 54.7338 77.6608 54.3528 77.294C52.4479 74.091 51.8553 70.8315 54.1693 67.6003C56.7374 64.0163 60.3638 63.7058 64.8226 64.8911C63.6938 60.5028 63.8631 56.6507 67.7152 54.0967C71.017 51.9238 74.2623 52.46 77.3666 54.6188C77.6347 54.8869 77.8887 55.155 78.1567 55.4231C78.7917 56.9894 80.1604 58.6685 79.9205 60.0795C79.2856 63.8893 81.0917 63.1979 83.7303 63.4095C86.9051 63.6635 87.1732 62.8028 87.0886 60.0936C87.0321 58.5556 88.2456 56.9894 88.8805 55.4231C89.1627 55.1409 89.445 54.8446 89.7272 54.5624C93.0572 52.2201 96.486 51.825 99.8301 54.3648C103.16 56.9047 103.555 60.3758 102.271 64.6371C106.504 63.9034 110.455 63.7199 113.051 67.6285C115.253 70.9444 114.745 74.1897 112.656 77.3504C112.332 77.675 112.007 77.9854 111.697 78.3099C110.116 78.9308 108.466 80.2007 106.97 80.0314C103.739 79.6645 103.781 80.8074 103.823 83.5448C103.866 86.1975 103.71 87.4675 106.984 87.1006C108.48 86.9313 110.131 88.2153 111.697 88.8361C112.021 89.1607 112.346 89.4852 112.684 89.8097C114.914 93.1398 115.351 96.5686 112.797 99.8845C110.258 103.172 106.843 103.694 102.539 102.283C103.414 106.714 103.273 110.749 99.181 113.289C96.0345 115.236 92.9302 114.7 89.9388 112.795C89.5296 112.386 89.1345 111.977 88.7253 111.582C87.145 109.24 86.7358 106.629 87.1732 103.906C82.672 103.398 78.9328 103.525 79.3985 109.494C79.4549 110.213 78.6647 110.989 78.2555 111.737C77.9451 112.062 77.6488 112.358 77.3525 112.654ZM98.9129 98.925C96.3308 97.3587 101.749 92.4342 95.9921 92.406C93.0572 92.3919 92.3658 93.3938 92.394 96.117C92.4363 101.832 97.2903 96.4274 98.9129 98.925ZM68.3642 98.9955C69.9587 96.8367 75.7016 101.959 74.6998 94.9318C73.8955 89.3441 70.3538 93.7465 68.3925 92.3073C69.1968 94.6355 68.3501 96.5827 68.3642 98.9955ZM99.1105 68.3622C92.2952 69.0677 92.4645 69.0959 92.267 70.6763C91.6038 76.1652 95.7522 74.3026 98.9693 75.1633C98.0099 72.6094 98.7577 70.5211 99.1105 68.3622ZM68.3078 68.0659C68.6888 70.5493 68.9287 72.6799 68.5477 75.0787C70.4243 73.3995 74.1918 77.548 74.8268 72.0168C75.6028 65.1733 69.8317 70.6057 68.3078 68.0659ZM80.9506 83.178C81.0635 84.6313 79.9629 86.7196 82.9401 86.127C84.4499 85.8307 86.3971 86.903 86.1431 83.7706C85.9738 81.6399 85.861 80.8074 83.4199 80.9626C81.5856 81.0755 80.2733 80.8921 80.9506 83.178Z" fill="#03A353"/>
<path d="M78.185 55.4231C77.9169 55.155 77.6629 54.8869 77.3949 54.6188C77.3525 54.2802 77.3949 53.8992 77.2679 53.6029C75.5323 49.7791 75.4759 46.1668 79.0316 43.373C81.9242 41.1013 85.1837 41.0871 88.0904 43.3448C91.6603 46.1104 91.6179 49.7367 89.9247 53.5606C89.7977 53.8569 89.826 54.2379 89.7836 54.5765C89.5014 54.8587 89.2192 55.155 88.937 55.4372C85.3389 56.8906 81.7549 56.8624 78.185 55.4231Z" fill="#03A353"/>
<path d="M112.685 89.8237C112.36 89.4992 112.036 89.1746 111.697 88.8501C110.187 85.3366 110.215 81.8373 111.697 78.3239C112.022 77.9993 112.346 77.6889 112.656 77.3643C113.799 77.0116 114.914 76.5742 116.085 76.3484C119.401 75.7134 122.251 76.5178 124.156 79.4668C125.892 82.1618 125.892 84.998 124.17 87.693C122.28 90.6421 119.415 91.4605 116.099 90.8255C114.942 90.628 113.828 90.1765 112.685 89.8237Z" fill="#03A353"/>
<path d="M88.7108 111.596C89.12 112.005 89.515 112.414 89.9242 112.809C90.15 113.628 90.3758 114.46 90.5874 115.279C91.5187 118.778 90.9543 121.896 87.8501 124.055C84.9998 126.031 81.9238 125.988 79.1158 123.942C76.068 121.713 75.5742 118.58 76.6042 115.109C76.8441 114.291 77.1122 113.472 77.352 112.654C77.6484 112.358 77.9446 112.047 78.241 111.751C81.7121 110.284 85.2114 110.326 88.7108 111.596Z" fill="#03A353"/>
<path d="M55.3966 88.9773C55.1285 89.2454 54.8604 89.4994 54.5923 89.7675C50.4015 91.1079 46.1967 92.3073 43.0783 87.792C41.2581 85.1675 41.2158 82.3032 42.9513 79.594C45.9286 74.9799 50.1476 75.9959 54.3806 77.2658C54.7616 77.6468 55.1426 78.0277 55.5236 78.3946C56.8923 81.9504 56.7653 85.4779 55.3966 88.9773Z" fill="#03A353"/>
<path d="M125.116 106.375C125.2 110.255 121.701 113.755 117.821 113.684C114.138 113.613 110.85 110.34 110.78 106.643C110.695 102.749 114.18 99.2633 118.075 99.3339C121.743 99.4185 125.031 102.692 125.116 106.375Z" fill="#03A353"/>
<path d="M49.2451 113.628C45.4071 113.67 41.9501 110.157 42.0771 106.333C42.19 102.678 45.4636 99.461 49.1181 99.4186C52.9561 99.3763 56.4131 102.89 56.2861 106.714C56.1873 110.368 52.8997 113.585 49.2451 113.628Z" fill="#03A353"/>
<path d="M67.7715 117.72C67.9267 121.558 64.4979 125.099 60.6317 125.099C56.9772 125.099 53.6613 121.882 53.5061 118.228C53.3508 114.39 56.7796 110.848 60.6458 110.848C64.3145 110.848 67.6304 114.051 67.7715 117.72Z" fill="#03A353"/>
<path d="M117.538 67.8259C113.644 67.5861 110.427 63.8469 110.822 60.023C111.203 56.3261 114.702 53.3065 118.329 53.5323C122.223 53.7722 125.44 57.5255 125.045 61.3352C124.678 65.0321 121.179 68.0517 117.538 67.8259Z" fill="#03A353"/>
<path d="M48.9343 53.5746C52.5465 53.4335 55.9753 56.5096 56.2716 60.1782C56.582 63.9739 53.2943 67.6426 49.4281 67.7978C45.6042 67.953 42.0626 64.5383 42.0767 60.6862C42.0908 57.0316 45.2797 53.7157 48.9343 53.5746Z" fill="#03A353"/>
<path d="M113.63 49.2567C113.616 53.137 110.046 56.5517 106.194 56.3683C102.511 56.1989 99.3219 52.8689 99.336 49.1862C99.3501 45.3058 102.92 41.8912 106.772 42.0746C110.455 42.2439 113.644 45.5881 113.63 49.2567Z" fill="#03A353"/>
<path d="M60.6741 42.1169C64.5262 42.131 67.9268 45.6868 67.7434 49.5107C67.574 53.1793 64.244 56.3541 60.6035 56.3259C56.7515 56.3118 53.3509 52.756 53.5202 48.9322C53.7037 45.2776 57.0337 42.0887 60.6741 42.1169Z" fill="#03A353"/>
<path d="M113.63 117.889C113.686 121.769 110.173 125.226 106.307 125.128C102.624 125.029 99.3785 121.741 99.3361 118.058C99.2797 114.178 102.779 110.721 106.659 110.834C110.342 110.933 113.573 114.206 113.63 117.889Z" fill="#03A353"/>
<path d="M65.4858 129.022C66.0644 124.986 68.3502 122.828 72.414 122.87C76.2943 122.912 79.1304 126.214 78.6365 130.108C78.1145 134.186 75.5746 136.232 71.5532 135.95C67.4471 135.654 65.5987 133.001 65.4858 129.022Z" fill="#03A353"/>
<path d="M129.391 101.719C125.355 101.366 122.999 99.2636 122.802 95.1717C122.618 91.2772 125.779 88.173 129.673 88.4552C133.737 88.7515 136.051 91.1361 135.966 95.1999C135.896 99.2918 133.412 101.38 129.391 101.719Z" fill="#03A353"/>
<path d="M44.3064 94.988C43.996 99.0235 41.95 101.507 37.8016 101.535C33.6955 101.563 31.2968 99.2493 31.2403 95.1291C31.198 91.023 33.5262 88.6384 37.6322 88.5678C41.7807 88.5114 43.9113 90.9384 44.3064 94.988Z" fill="#03A353"/>
<path d="M101.693 129.361C101.397 133.354 99.3507 135.88 95.2587 136.007C91.2091 136.119 88.7821 133.862 88.4293 129.784C88.0907 125.89 91.1667 122.687 95.0612 122.828C99.1531 122.983 101.284 125.311 101.693 129.361Z" fill="#03A353"/>
<path d="M129.292 78.8038C125.242 78.3805 122.928 76.2216 122.801 72.1296C122.688 68.2352 125.905 65.1733 129.8 65.5402C133.864 65.9211 136.121 68.3481 135.98 72.3977C135.825 76.5038 133.285 78.5216 129.292 78.8038Z" fill="#03A353"/>
<path d="M37.9989 65.5681C42.0344 66.062 44.3626 68.2914 44.2073 72.3975C44.0521 76.5177 41.5546 78.7612 37.4768 78.6201C33.3566 78.479 31.1272 75.9815 31.2542 71.8895C31.3812 67.7411 33.9492 65.7798 37.9989 65.5681Z" fill="#03A353"/>
<path d="M78.7353 37.616C78.2979 41.9196 76.1532 44.3466 72.0189 44.276C67.8987 44.2054 65.5564 41.7926 65.6128 37.6724C65.6693 33.5522 68.0962 31.224 72.2023 31.2522C76.3789 31.2805 78.3543 33.8485 78.7353 37.616Z" fill="#03A353"/>
<path d="M101.651 37.8416C101.27 41.8631 99.1531 44.1913 95.0611 44.3324C91.1525 44.4735 88.133 41.3269 88.4575 37.4183C88.782 33.3546 91.1808 31.1111 95.2304 31.224C99.3224 31.3368 101.354 33.8343 101.651 37.8416Z" fill="#03A353"/>
<path d="M49.358 135.47C45.7599 135.061 43.3612 133.17 43.2765 129.558C43.206 125.96 45.4636 123.618 49.0476 123.533C52.6457 123.448 54.988 125.72 55.0727 129.304C55.1856 132.916 52.8291 134.878 49.358 135.47Z" fill="#03A353"/>
<path d="M83.6599 146.956C80.1182 146.533 77.7054 144.642 77.6207 141.016C77.5502 137.404 79.836 135.047 83.42 134.948C87.0322 134.864 89.3886 137.15 89.4874 140.748C89.6003 144.402 87.2439 146.378 83.6599 146.956Z" fill="#03A353"/>
<path d="M32.2845 83.5447C31.7059 87.2557 29.7305 89.5698 26.1324 89.471C22.5625 89.3722 20.3048 87.044 20.3895 83.46C20.4742 79.8901 22.8165 77.6466 26.4005 77.7171C30.0127 77.7877 31.8188 80.2429 32.2845 83.5447Z" fill="#03A353"/>
<path d="M83.4763 20.2745C87.0038 20.6837 89.4026 22.5745 89.459 26.1867C89.5296 29.7848 87.2578 32.1271 83.6738 32.1976C80.0757 32.2682 77.7475 29.9965 77.6629 26.4125C77.5782 22.8002 79.9205 20.8389 83.4763 20.2745Z" fill="#03A353"/>
<path d="M55.1849 37.6723C54.7898 41.1858 52.9132 43.5563 49.3151 43.641C45.7311 43.7115 43.4029 41.468 43.3182 37.8981C43.2336 34.3141 45.4912 31.9859 49.0611 31.9013C52.6592 31.8025 54.6205 34.1166 55.1849 37.6723Z" fill="#03A353"/>
<path d="M124.001 129.544C123.408 133.114 121.433 135.47 117.806 135.371C114.208 135.273 111.922 132.916 112.007 129.304C112.106 125.706 114.462 123.42 118.075 123.505C121.701 123.575 123.592 126.002 124.001 129.544Z" fill="#03A353"/>
<path d="M117.849 31.7036C121.391 32.1269 123.804 34.0176 123.888 37.644C123.959 41.2562 121.673 43.6126 118.075 43.6973C114.463 43.7819 112.106 41.482 112.021 37.8839C111.909 34.2575 114.265 32.2821 117.849 31.7036Z" fill="#03A353"/>
<path d="M37.6742 111.963C41.3852 112.527 43.6993 114.503 43.6006 118.101C43.5159 121.671 41.1877 123.928 37.6037 123.858C34.0338 123.773 31.7903 121.445 31.8467 117.861C31.9173 114.235 34.3583 112.428 37.6742 111.963Z" fill="#03A353"/>
<path d="M129.49 55.2819C125.948 54.8586 123.536 52.9537 123.465 49.3274C123.394 45.7152 125.68 43.3588 129.293 43.2741C132.905 43.1894 135.247 45.4894 135.346 49.0875C135.43 52.7421 133.06 54.7175 129.49 55.2819Z" fill="#03A353"/>
<path d="M43.7278 49.045C43.3186 52.6431 41.442 55.0277 37.8439 55.0983C34.2599 55.1688 31.9317 52.9112 31.847 49.3413C31.7624 45.7573 34.02 43.4432 37.5899 43.3445C41.2162 43.2457 43.1493 45.6021 43.7278 49.045Z" fill="#03A353"/>
<path d="M135.487 118.101C134.908 121.614 132.975 123.801 129.377 123.97C126.118 124.14 122.957 120.753 123.394 117.55C123.888 114.037 126.089 111.807 129.673 111.991C133.243 112.188 135.106 114.587 135.487 118.101Z" fill="#03A353"/>
<path d="M26.0476 111.977C22.5906 111.582 20.6998 109.663 20.8974 106.178C21.0949 102.65 23.2961 100.914 26.739 101.14C29.9843 101.352 31.7199 103.37 31.6494 106.601C31.5929 110.143 29.4905 111.808 26.0476 111.977Z" fill="#03A353"/>
<path d="M106.476 20.8246C109.947 21.0927 111.965 22.8988 111.894 26.4264C111.809 29.9681 109.721 31.8165 106.236 31.7177C102.976 31.619 101.128 29.7 101.071 26.4405C101.015 22.8989 103.005 21.0927 106.476 20.8246Z" fill="#03A353"/>
<path d="M26.6262 66.1466C22.9575 65.935 20.8833 64.2135 20.8833 60.6859C20.8974 57.1725 22.8869 55.2535 26.3863 55.2958C29.6316 55.3241 31.5083 57.1725 31.6494 60.4178C31.8046 63.9595 29.8151 65.7374 26.6262 66.1466Z" fill="#03A353"/>
<path d="M112.021 140.889C111.612 144.614 109.651 146.519 106.152 146.321C102.596 146.124 100.832 143.88 101.058 140.409C101.269 137.135 103.315 135.386 106.575 135.428C110.173 135.499 111.767 137.686 112.021 140.889Z" fill="#03A353"/>
<path d="M60.8295 146.392C57.1185 146.081 55.129 144.233 55.2419 140.705C55.3547 137.164 57.4713 135.343 60.9565 135.47C64.2159 135.597 66.0221 137.545 66.0644 140.804C66.1209 144.402 64.0043 146.067 60.8295 146.392Z" fill="#03A353"/>
<path d="M66.1067 26.5253C65.7116 29.9823 63.7926 31.873 60.3074 31.6755C56.7798 31.478 55.0442 29.2768 55.27 25.8339C55.4817 22.5885 57.4995 20.853 60.7307 20.9235C64.2724 20.9799 65.9374 23.0824 66.1067 26.5253Z" fill="#03A353"/>
<path d="M14.8299 99.8562C11.9091 99.5598 10.0324 97.9372 10.103 94.9035C10.1594 92.1379 11.9514 90.36 14.7312 90.3459C17.7507 90.3318 19.5992 92.1943 19.5427 95.228C19.4722 97.9795 17.6661 99.5175 14.8299 99.8562Z" fill="#03A353"/>
<path d="M94.8775 10.0022C97.5443 10.1856 99.4915 11.5543 99.7596 14.3482C100.042 17.4101 98.278 19.4279 95.2725 19.5972C92.2388 19.7665 90.3058 17.8757 90.2634 14.842C90.2211 12.0482 92.0131 10.4537 94.8775 10.0022Z" fill="#03A353"/>
<path d="M14.6745 67.3461C17.3132 67.5154 19.2322 68.8559 19.5003 71.6356C19.7825 74.6693 18.0469 76.6729 15.0555 76.8423C12.05 76.9975 10.131 75.1631 10.0887 72.1294C10.0605 69.3497 11.8102 67.7694 14.6745 67.3461Z" fill="#03A353"/>
<path d="M77.0135 152.247C76.7172 155.14 75.151 157.144 72.1596 157.158C69.1823 157.172 67.3057 155.267 67.3057 152.276C67.3057 149.524 69.1118 147.704 71.821 147.549C74.8123 147.379 76.5055 149.242 77.0135 152.247Z" fill="#03A353"/>
<path d="M76.9435 14.7572C76.7318 17.4663 75.2925 19.3712 72.5128 19.5829C69.465 19.8087 67.4472 18.0167 67.3485 14.9971C67.2356 11.9634 69.1546 10.0585 72.2024 10.0726C74.9821 10.1008 76.5484 11.921 76.9435 14.7572Z" fill="#03A353"/>
<path d="M95.0322 157.257C92.0972 156.876 90.1359 155.253 90.2064 152.247C90.277 149.27 92.2524 147.436 95.2438 147.535C97.9671 147.633 99.7732 149.454 99.8296 152.191C99.9002 155.211 97.9953 156.833 95.0322 157.257Z" fill="#03A353"/>
<path d="M42.0349 26.3982C41.781 28.9945 40.4123 30.5608 37.7595 30.5466C34.8387 30.5325 33.3148 28.8111 33.4982 25.9608C33.6534 23.3363 35.3326 21.9535 37.9571 22.0664C40.6098 22.1793 41.8797 23.8019 42.0349 26.3982Z" fill="#03A353"/>
<path d="M26.4284 125.099C29.0387 125.381 30.5768 126.778 30.5344 129.459C30.478 132.408 28.7284 133.904 25.8499 133.692C23.1971 133.509 21.8425 131.787 21.9836 129.149C22.153 126.468 23.8038 125.212 26.4284 125.099Z" fill="#03A353"/>
<path d="M122.025 14.7008C121.814 17.0713 120.572 18.7081 118.202 18.8351C115.563 18.9762 113.912 17.3676 113.94 14.729C113.969 12.3585 115.535 10.8628 117.919 10.8346C120.332 10.8205 121.616 12.3867 122.025 14.7008Z" fill="#03A353"/>
<path d="M53.2377 14.8561C52.8991 17.1702 51.6433 18.7929 49.2869 18.807C46.6906 18.8211 45.0679 17.1702 45.2231 14.5739C45.3642 12.2739 46.9446 10.7782 49.3292 10.877C51.6997 10.9758 52.9273 12.5561 53.2377 14.8561Z" fill="#03A353"/>
<path d="M37.717 136.557C40.3415 136.74 41.9642 138.067 42.0065 140.748C42.0488 143.668 40.398 145.263 37.4913 145.15C34.8244 145.051 33.3993 143.414 33.4557 140.776C33.5122 138.095 35.0925 136.769 37.717 136.557Z" fill="#03A353"/>
<path d="M14.5052 113.896C17.0309 114.178 18.6677 115.406 18.7665 117.748C18.8793 120.344 17.2567 121.995 14.6604 121.939C12.3322 121.896 10.8506 120.316 10.8365 117.959C10.8224 115.547 12.4874 114.39 14.5052 113.896Z" fill="#03A353"/>
<path d="M26.4286 42.103C23.5643 41.7926 21.998 40.438 22.0263 37.7853C22.0545 34.8645 23.776 33.3547 26.6403 33.5381C29.2648 33.7074 30.6335 35.3865 30.5206 38.011C30.4078 40.692 28.6863 41.849 26.4286 42.103Z" fill="#03A353"/>
<path d="M53.2801 152.515C52.8568 154.829 51.5587 156.382 49.1599 156.353C46.7753 156.325 45.2232 154.815 45.2091 152.445C45.195 149.806 46.86 148.212 49.4845 148.367C51.8268 148.494 53.0685 150.145 53.2801 152.515Z" fill="#03A353"/>
<path d="M117.665 148.184C120.417 148.579 122.068 149.919 121.969 152.544C121.87 154.872 120.346 156.382 117.99 156.368C115.394 156.354 113.842 154.745 113.898 152.135C113.969 149.778 115.662 148.649 117.665 148.184Z" fill="#03A353"/>
<path d="M18.8371 49.3274C18.3996 51.6697 17.0874 53.25 14.6745 53.1371C12.304 53.0384 10.7942 51.458 10.8789 49.0734C10.9776 46.7029 12.5439 45.1931 14.9426 45.2777C17.3273 45.3765 18.569 46.9992 18.8371 49.3274Z" fill="#03A353"/>
<path d="M109.623 163.409C109.538 165.511 108.635 166.724 106.857 166.894C104.825 167.091 103.485 166.019 103.414 163.931C103.343 161.856 104.571 160.699 106.631 160.728C108.48 160.756 109.312 161.998 109.623 163.409Z" fill="#03A353"/>
<path d="M80.0474 163.874C80.3719 161.405 81.6701 160.192 83.8713 160.375C86.1148 160.558 87.2154 162.082 86.9896 164.255C86.7921 166.188 85.4939 167.317 83.4903 167.261C81.2326 167.204 80.2308 165.779 80.0474 163.874Z" fill="#03A353"/>
<path d="M63.7638 163.79C63.5381 165.737 62.508 166.95 60.462 166.866C58.6983 166.781 57.5977 165.652 57.5977 163.888C57.5977 161.871 58.8111 160.7 60.8289 160.77C62.6068 160.827 63.5239 162.012 63.7638 163.79Z" fill="#03A353"/>
<path d="M63.7223 3.41266C63.4824 5.17644 62.537 6.37581 60.745 6.38992C58.699 6.40403 57.4855 5.13411 57.6548 3.10223C57.7959 1.36667 58.9953 0.266086 60.8156 0.378967C62.5935 0.477739 63.5106 1.64888 63.7223 3.41266Z" fill="#03A353"/>
<path d="M87.004 3.39853C86.7218 5.88193 85.339 6.98253 83.1237 6.77087C81.1201 6.57333 80.0477 5.21874 80.1747 3.21509C80.3158 0.886898 81.7974 -0.185472 84.0127 0.0261819C86.0304 0.195505 86.9335 1.59242 87.004 3.39853Z" fill="#03A353"/>
<path d="M109.636 3.27162C109.27 5.47282 108.127 6.64397 106.123 6.43232C104.416 6.24889 103.315 5.06363 103.442 3.28574C103.569 1.26798 104.853 0.16738 106.857 0.350813C108.606 0.506026 109.411 1.80416 109.636 3.27162Z" fill="#03A353"/>
<path d="M6.42021 60.6719C6.20856 62.4357 5.26319 63.6492 3.4853 63.6774C1.43932 63.7197 0.225836 62.4639 0.352828 60.4179C0.46571 58.6682 1.66507 57.5818 3.47118 57.6523C5.27729 57.7511 6.19445 58.9222 6.42021 60.6719Z" fill="#03A353"/>
<path d="M6.73068 83.6152C6.58958 85.774 5.41843 87.0298 3.16079 86.9452C1.15714 86.8746 0.0142253 85.6752 0.000115081 83.6716C-0.0139952 81.3998 1.27004 80.1864 3.52767 80.2569C5.54544 80.3134 6.57547 81.541 6.73068 83.6152Z" fill="#03A353"/>
<path d="M6.42008 106.601C6.15198 108.35 5.19251 109.55 3.40051 109.521C1.35453 109.493 0.15515 108.209 0.352693 106.177C0.522016 104.456 1.74959 103.355 3.5557 103.496C5.33359 103.638 6.26486 104.823 6.42008 106.601Z" fill="#03A353"/>
</svg>
