<svg width="64" height="64" viewBox="0 0 64 64" fill="none" xmlns="http://www.w3.org/2000/svg">
<rect width="64" height="64" rx="8" fill="#EB5757"/>
<path d="M16.6581 24.0979L16.3994 24.8607C16.2602 25.2706 16.0451 25.6505 15.7653 25.9807L15.5906 26.1864C15.4386 26.3653 15.3287 26.5762 15.2692 26.8034C15.2097 27.0306 15.2021 27.2683 15.2469 27.4989L15.5078 28.8354C15.5338 28.9681 15.6047 29.0878 15.7085 29.1745L16.306 29.6726C16.3807 29.7344 16.4389 29.8138 16.4755 29.9036C16.5121 29.9934 16.5259 30.0909 16.5156 30.1873L16.375 31.4685C16.3514 31.684 16.3728 31.902 16.4378 32.1087C16.5028 32.3154 16.6101 32.5064 16.7528 32.6695L17.0053 32.9582C17.1387 33.1109 17.3179 33.2162 17.5162 33.2584C17.7145 33.3006 17.9211 33.2774 18.105 33.1923L19.71 32.4517C19.7889 32.4153 19.8748 32.3968 19.9616 32.3976C20.0484 32.3984 20.134 32.4184 20.2122 32.4561C20.2904 32.4939 20.3592 32.5485 20.4138 32.616C20.4684 32.6835 20.5073 32.7623 20.5278 32.8467L20.6691 33.4273C20.691 33.5172 20.7338 33.6007 20.7941 33.6709C20.8543 33.7412 20.9303 33.7962 21.0158 33.8316C21.1014 33.867 21.194 33.8817 21.2863 33.8746C21.3786 33.8674 21.4679 33.8386 21.5469 33.7904L23.2656 32.742C23.3868 32.6684 23.4897 32.5684 23.5666 32.4493C23.6435 32.3302 23.6924 32.1953 23.7096 32.0546C23.7269 31.9139 23.712 31.7712 23.6661 31.6371C23.6202 31.503 23.5445 31.381 23.4447 31.2804L22.3885 30.2123C22.2638 30.0859 22.1058 29.9975 21.9329 29.9574C21.7599 29.9173 21.5792 29.9271 21.4116 29.9857L21.1616 30.0729C21.0484 30.1124 20.9258 30.1163 20.8103 30.0842C20.6948 30.0521 20.5919 29.9855 20.5153 29.8932L19.8869 29.1367C19.8264 29.0639 19.7843 28.9776 19.7643 28.8851C19.7442 28.7927 19.7467 28.6967 19.7716 28.6054L19.9553 27.9279C20.0077 27.734 20.121 27.562 20.2786 27.4373C20.4361 27.3126 20.6295 27.2419 20.8303 27.2354L21.6741 27.2067C21.742 27.2044 21.8097 27.2139 21.8744 27.2348L23.9881 27.9157C24.0779 27.9447 24.1593 27.9948 24.2257 28.0618C24.292 28.1288 24.3413 28.2107 24.3694 28.3007L24.565 28.9289C24.87 29.9076 25.4106 30.7966 26.1394 31.5176L26.605 31.9779C26.6607 32.033 26.7268 32.0764 26.7994 32.1055C26.8721 32.1347 26.9499 32.149 27.0281 32.1476L27.3331 32.1426C27.4701 32.1401 27.6059 32.1676 27.731 32.2232C27.8561 32.2789 27.9676 32.3612 28.0575 32.4645C28.1474 32.5678 28.2136 32.6895 28.2514 32.8212C28.2892 32.9528 28.2977 33.0911 28.2763 33.2264L28.1691 33.9101C28.1149 34.2561 28.1095 34.6079 28.1528 34.9554L28.4297 37.1776C28.4422 37.279 28.481 37.3754 28.5422 37.4573L29.3506 38.5379C29.41 38.6173 29.4884 38.6803 29.5786 38.7213C29.6689 38.7622 29.768 38.7797 29.8668 38.7721C29.9656 38.7645 30.0608 38.732 30.1437 38.6777C30.2266 38.6235 30.2945 38.5492 30.341 38.4617L31.25 36.7535C31.2903 36.6777 31.3136 36.5939 31.3181 36.5081C31.3225 36.4223 31.3082 36.3366 31.276 36.257L30.8522 35.2104C30.7958 35.0707 30.7951 34.9147 30.8503 34.7744C30.9054 34.6342 31.0123 34.5205 31.1488 34.4567L32.4081 33.8689C32.5268 33.8138 32.6236 33.7206 32.6831 33.6042L33.1541 32.6845C33.2519 32.493 33.4126 32.341 33.6091 32.2539C33.8057 32.1668 34.0262 32.1499 34.2338 32.206L35.3163 32.4976C35.4409 32.5315 35.5509 32.6054 35.6293 32.708C35.7077 32.8107 35.7501 32.9363 35.75 33.0654V34.2867C35.7501 34.4248 35.7987 34.5585 35.8875 34.6644C35.9762 34.7702 36.0993 34.8415 36.2353 34.8657L37.1681 35.0317C37.3129 35.0574 37.4427 35.1363 37.5322 35.253C37.6216 35.3696 37.6641 35.5155 37.6513 35.662L37.5678 36.6107C37.5406 36.9229 37.6313 37.234 37.8222 37.4826L38.6253 38.5289C38.6594 38.5729 38.6995 38.6121 38.7444 38.6451L39.6416 39.3014C39.7293 39.3656 39.833 39.4042 39.9413 39.4131C40.0496 39.4219 40.1583 39.4005 40.2552 39.3514C40.3521 39.3022 40.4335 39.2271 40.4903 39.1345C40.5472 39.0419 40.5772 38.9353 40.5772 38.8267V38.3373C40.5773 38.0868 40.5022 37.8421 40.3616 37.6348L39.7991 36.8035C39.7186 36.6848 39.6844 36.5407 39.7027 36.3984C39.7211 36.2561 39.7908 36.1255 39.8988 36.031L40.0756 35.8748C40.1614 35.7996 40.2672 35.751 40.3801 35.7349C40.4931 35.7188 40.6082 35.7359 40.7116 35.7842C40.8386 35.8435 40.9826 35.8555 41.1176 35.8181C41.2527 35.7806 41.3699 35.6961 41.4481 35.5798L42.0147 34.7385C42.0739 34.6502 42.1081 34.5475 42.1136 34.4413C42.1191 34.3351 42.0957 34.2294 42.046 34.1354L41.7681 33.6092C41.6887 33.4584 41.5792 33.3255 41.4464 33.2186C41.3137 33.1117 41.1605 33.0331 40.9963 32.9876L40.6394 32.8882C40.5141 32.8534 40.4038 32.778 40.3259 32.6739C40.248 32.5697 40.2068 32.4427 40.2088 32.3126L40.2288 31.0314C40.23 30.9523 40.2471 30.8742 40.2792 30.8019C40.3113 30.7296 40.3576 30.6645 40.4154 30.6105C40.4733 30.5565 40.5414 30.5147 40.6158 30.4877C40.6901 30.4607 40.7691 30.449 40.8481 30.4532L42.5003 30.5414C42.7038 30.5527 42.9069 30.5141 43.0921 30.429C43.2772 30.3438 43.4387 30.2147 43.5625 30.0529L44.3791 28.9864C44.5919 28.7083 44.735 28.3833 44.7963 28.0385L44.9797 27.0054C45.0328 26.7075 44.9983 26.4006 44.8803 26.122L44.3988 24.9842C44.3099 24.7734 44.1471 24.6024 43.9409 24.5033C43.7347 24.4043 43.4995 24.384 43.2794 24.4464L42.9266 24.5457C42.8498 24.5674 42.7694 24.5733 42.6903 24.5629C42.6112 24.5525 42.535 24.5262 42.4664 24.4854C42.3979 24.4447 42.3383 24.3904 42.2913 24.3258C42.2444 24.2613 42.2111 24.1879 42.1935 24.1101L41.9547 23.0623C41.9325 22.9655 41.9352 22.8646 41.9625 22.769C41.9898 22.6735 42.0409 22.5865 42.111 22.516L42.6825 21.9445C42.7739 21.8534 42.8927 21.7949 43.0206 21.778C43.1485 21.761 43.2784 21.7866 43.3903 21.8507L44.4672 22.466C44.5329 22.5036 44.6053 22.5281 44.6803 22.5382L45.4656 22.6445C45.5549 22.6565 45.6458 22.6479 45.7312 22.6193C45.8167 22.5906 45.8944 22.5428 45.9584 22.4794C46.0224 22.416 46.071 22.3387 46.1004 22.2536C46.1299 22.1684 46.1393 22.0776 46.1281 21.9882L45.9013 20.1735C45.89 20.083 45.8577 19.9962 45.807 19.9203C45.7564 19.8444 45.6887 19.7813 45.6094 19.736L44.4935 19.0982C44.3678 19.0264 44.273 18.9108 44.2272 18.7735L43.9116 17.827C43.8251 17.567 43.6719 17.3343 43.4671 17.1523C43.2624 16.9702 43.0133 16.8452 42.745 16.7898L40.6366 16.3523C40.5529 16.335 40.4665 16.3361 40.3834 16.3555C40.3002 16.375 40.2223 16.4123 40.155 16.4649C40.0877 16.5175 40.0326 16.5841 39.9937 16.6602C39.9547 16.7362 39.9328 16.8198 39.9294 16.9051L39.8756 18.2754C39.8705 18.4162 39.8151 18.5505 39.7194 18.6539L38.25 20.226C38.1721 20.3096 38.0714 20.3687 37.9604 20.396C37.8494 20.4233 37.7329 20.4177 37.625 20.3798L36.5156 19.991C36.135 19.8577 35.7301 19.8077 35.3285 19.8444C34.9268 19.8811 34.5377 20.0037 34.1875 20.2039L33.1078 20.821C33.014 20.8746 32.9072 20.9013 32.7991 20.8982C32.6911 20.8951 32.586 20.8624 32.4953 20.8035L31.4541 20.1267C31.3124 20.0345 31.1535 19.9719 30.987 19.9429C30.8205 19.9138 30.6499 19.9188 30.4853 19.9576L30.0166 20.0682C29.872 20.1022 29.72 20.0802 29.5909 20.0067C29.4619 19.9332 29.3655 19.8136 29.321 19.672L29.0985 18.9642C29.0664 18.8623 29.0072 18.771 28.9272 18.7002C28.8472 18.6294 28.7494 18.5818 28.6444 18.5623L26.0244 18.077C25.8324 18.0412 25.634 18.0664 25.457 18.1488C25.2799 18.2313 25.1331 18.367 25.0369 18.537L24.5938 19.3201C24.5357 19.4223 24.5097 19.5395 24.5191 19.6567L24.5503 20.0726C24.5573 20.161 24.5442 20.2498 24.512 20.3324C24.4798 20.415 24.4293 20.4893 24.3644 20.5497C24.2994 20.61 24.2217 20.655 24.1369 20.6811C24.0522 20.7072 23.9627 20.7138 23.875 20.7004L23.3697 20.6226C23.2927 20.6108 23.2141 20.6143 23.1385 20.6331C23.0628 20.6519 22.9917 20.6856 22.9292 20.7321C22.8667 20.7786 22.814 20.8371 22.7743 20.9041C22.7346 20.9712 22.7086 21.0454 22.6978 21.1226L22.5313 22.3001C22.5101 22.4517 22.5487 22.6055 22.6388 22.7292L22.9513 23.1567C23.0158 23.245 23.0544 23.3496 23.0628 23.4587C23.0712 23.5677 23.049 23.677 22.9988 23.7742L22.4675 24.7995C22.4258 24.8802 22.3659 24.9502 22.2925 25.004C22.2192 25.0577 22.1344 25.0937 22.0448 25.1091C21.9551 25.1245 21.8632 25.1189 21.7761 25.0928C21.689 25.0667 21.6092 25.0207 21.5428 24.9585L20.6606 24.1317C20.5877 24.0632 20.5334 23.9773 20.5029 23.8821C20.4724 23.7868 20.4667 23.6854 20.4863 23.5873L20.62 22.9185C20.6353 22.8421 20.6352 22.7633 20.6198 22.6869C20.6044 22.6104 20.574 22.5378 20.5303 22.4732L19.4303 20.8482C19.3608 20.7457 19.2607 20.6677 19.1443 20.6254C19.0278 20.5831 18.901 20.5786 18.7819 20.6126L17.9247 20.8576C17.7891 20.8966 17.644 20.8855 17.516 20.8264L16.2716 20.2498C16.0233 20.135 15.7493 20.0874 15.4768 20.1115C15.2044 20.1356 14.943 20.2307 14.7188 20.3873L14.5891 20.4779C14.3983 20.6113 14.2639 20.8109 14.2119 21.0378C14.16 21.2647 14.1941 21.5029 14.3078 21.706L14.7722 22.536C14.8334 22.6463 14.9283 22.7339 15.0431 22.786L16.3438 23.3729C16.4768 23.4331 16.5828 23.5407 16.6409 23.6748C16.699 23.8088 16.7051 23.9596 16.6581 24.0979Z" fill="white"/>
<path d="M43.2062 39.2186L43.17 39.2267C42.9998 39.2651 42.8478 39.3603 42.739 39.4966C42.6303 39.633 42.5712 39.8023 42.5715 39.9767V40.3345C42.5715 40.4354 42.5932 40.5351 42.6353 40.6268C42.6774 40.7185 42.7388 40.8 42.8153 40.8658L43.4431 41.4061C43.5492 41.4975 43.6745 41.564 43.8097 41.6007C43.9449 41.6374 44.0866 41.6433 44.2243 41.618L44.5131 41.5648C44.7036 41.53 44.8787 41.437 45.0142 41.2986C45.1498 41.1602 45.2391 40.9833 45.27 40.792L45.4609 39.617C45.4876 39.4531 45.5717 39.3039 45.6981 39.1961L46.1928 38.7745C46.3159 38.6692 46.3987 38.5244 46.4271 38.3649C46.4556 38.2054 46.428 38.041 46.349 37.8995L46.1928 37.6208C46.128 37.5048 46.0975 37.3728 46.1047 37.2402L46.155 36.3208C46.161 36.212 46.1415 36.1034 46.0982 36.0035C46.0549 35.9035 45.9889 35.8151 45.9054 35.7452C45.8219 35.6752 45.7233 35.6257 45.6173 35.6005C45.5114 35.5753 45.401 35.5752 45.295 35.6002L45.144 35.6358C45.0291 35.6628 44.9229 35.7184 44.8352 35.7975C44.7475 35.8765 44.6812 35.9765 44.6425 36.088L43.7128 38.7664C43.6735 38.8785 43.6065 38.9788 43.5179 39.0579C43.4293 39.137 43.322 39.1923 43.2062 39.2186Z" fill="white"/>
<path d="M39.1923 43.6248L39.291 43.2388C39.3369 43.0597 39.3101 42.8697 39.2163 42.7104L38.7735 41.9557C38.6907 41.8145 38.5725 41.6974 38.4304 41.6161C38.2884 41.5348 38.1275 41.4921 37.9638 41.4923H37.5435C37.3989 41.4923 37.2579 41.4476 37.1398 41.3641L35.4957 40.2054C35.4165 40.1495 35.3266 40.1106 35.2316 40.0913L34.8338 40.0104C34.7074 39.9847 34.5764 39.9944 34.4552 40.0383C34.334 40.0823 34.2273 40.1589 34.1468 40.2597C34.0663 40.3604 34.0152 40.4814 33.999 40.6093C33.9829 40.7373 34.0024 40.8672 34.0554 40.9848L34.4376 41.8363C34.6733 42.3595 35.0482 42.8079 35.5213 43.1326L37.0898 44.2079C37.2064 44.2879 37.3445 44.3308 37.486 44.3307H38.2819C38.4906 44.3311 38.6934 44.2619 38.8583 44.1341C39.0232 44.0062 39.1407 43.827 39.1923 43.6248Z" fill="white"/>
<path d="M48.3281 44.4836L48.9065 44.3961C49.0175 44.3792 49.122 44.3328 49.2088 44.2616C49.2957 44.1905 49.3617 44.0973 49.4001 43.9917C49.4385 43.8862 49.4477 43.7723 49.4268 43.662C49.406 43.5517 49.3558 43.449 49.2815 43.3648L49.1909 43.2617C49.083 43.1391 49.0212 42.9827 49.0163 42.8195C49.0114 42.6563 49.0637 42.4965 49.164 42.3676L49.664 41.727C49.7683 41.5933 49.8205 41.4263 49.811 41.257C49.8015 41.0877 49.7308 40.9276 49.6122 40.8064L49.3706 40.5592C49.2866 40.4735 49.182 40.4107 49.0669 40.3769C48.9517 40.3432 48.8298 40.3396 48.7128 40.3664L48.0303 40.5226C47.9212 40.5478 47.8197 40.5986 47.7343 40.671C47.6489 40.7433 47.582 40.8351 47.5394 40.9386L46.9422 42.3886C46.85 42.6127 46.8248 42.8589 46.8697 43.0971C46.9147 43.3353 47.0278 43.5553 47.1953 43.7305L47.7169 44.2755C47.7946 44.3566 47.8907 44.4179 47.9971 44.4541C48.1035 44.4903 48.217 44.5004 48.3281 44.4836Z" fill="white"/>
<path d="M40.9406 44.9882L41.3437 44.9373C41.4755 44.9205 41.6094 44.9319 41.7365 44.9707C41.8635 45.0095 41.9809 45.0748 42.0809 45.1623L42.21 45.2751C42.3378 45.3869 42.5018 45.4485 42.6715 45.4485H42.9737C43.0821 45.4485 43.189 45.4234 43.286 45.3752C43.383 45.3269 43.4675 45.2568 43.5328 45.1704L43.8634 44.7329C43.9493 44.619 44.0679 44.534 44.2034 44.4893C44.3389 44.4447 44.4847 44.4424 44.6215 44.4829L45.3475 44.6979C45.5152 44.7475 45.6583 44.8581 45.7487 45.0079L46.174 45.7132C46.2978 45.9178 46.3387 46.1619 46.2884 46.3957C46.2381 46.6294 46.1004 46.8351 45.9034 46.9707L45.3044 47.3841C45.121 47.5106 44.9128 47.5965 44.6936 47.636C44.4745 47.6756 44.2494 47.6679 44.0334 47.6135L41.5209 46.9801L40.5209 46.6798C40.4176 46.6487 40.3228 46.5942 40.244 46.5206C40.1651 46.4469 40.1044 46.356 40.0664 46.255C40.0284 46.154 40.0143 46.0456 40.0251 45.9382C40.0359 45.8308 40.0714 45.7274 40.1287 45.636L40.2644 45.4201C40.3381 45.3025 40.437 45.2028 40.5539 45.1281C40.6709 45.0534 40.803 45.0056 40.9406 44.9882Z" fill="white"/>
</svg>
