<svg width="64" height="64" viewBox="0 0 64 64" fill="none" xmlns="http://www.w3.org/2000/svg">
<rect width="64" height="64" rx="8" fill="#00B159"/>
<path d="M42.7489 46.3693C42.1338 46.4774 41.4306 46.6593 41.169 47.2263C40.9854 47.6242 41.1095 48.1404 41.4538 48.4114C41.8369 48.7128 42.3942 48.6984 42.7918 48.9805C43.2772 49.3249 43.4557 50.0602 44.0254 50.2328C44.2807 50.3103 44.5554 50.2496 44.8134 50.1818C45.3592 50.0385 45.8969 49.8642 46.4231 49.6601C46.5883 49.596 46.763 49.5203 46.8569 49.3701C47.326 48.6199 46.8821 46.7241 46.0491 46.3453C45.2777 45.9945 43.5361 46.2309 42.7489 46.3693Z" fill="white"/>
<path d="M46.8566 49.3698C46.7631 49.5204 46.5884 49.596 46.4233 49.6597C46.0408 49.8079 45.6526 49.9407 45.2605 50.0559C45.3458 50.0043 45.4216 49.9407 45.4747 49.8562C46.0094 48.9994 45.5029 46.8355 44.5519 46.4031C44.3473 46.3097 44.0832 46.2533 43.7869 46.2227C44.5922 46.1382 45.5351 46.1116 46.0489 46.3451C46.8823 46.7237 47.3261 48.6201 46.8566 49.3698Z" fill="white"/>
<path d="M29.9538 15.7558L28.6538 16.0856C28.348 16.1632 28.1028 16.3911 28.0031 16.6903L27.6289 17.813C27.5029 18.1911 27.149 18.4461 26.7504 18.4461C26.5204 18.4461 26.2986 18.3605 26.1283 18.2059L25.4424 17.5836C25.0848 17.2592 24.5379 17.2639 24.186 17.5947L20.9815 20.6069C20.5533 21.0095 20.1735 21.4606 19.8497 21.9511L19.6045 22.3227C18.864 23.4448 17.8376 24.3491 16.6312 24.9424L13.8918 26.2896C13.1801 26.6396 12.6139 27.2283 12.2918 27.953C11.8979 28.8394 11.903 29.8521 12.3058 30.7345L15.2959 37.2841C15.4804 37.6883 15.4873 38.1513 15.3149 38.5609L15.2548 38.7035C15.004 39.2991 15.1389 39.9872 15.5958 40.4442C16.1315 40.9799 16.9708 41.063 17.6012 40.6428L19.8168 39.1657C20.036 39.0196 20.2879 38.9303 20.5501 38.9057L22.8658 38.6886C23.0397 38.6723 23.2055 38.6071 23.344 38.5006L25.3879 36.9283C25.4975 36.844 25.6246 36.7853 25.7598 36.7566L29.5698 35.946C29.8031 35.8963 30.0465 35.9386 30.2494 36.064L34.5582 38.7277C34.8631 38.9161 35.2493 38.9117 35.5497 38.7164C36.2184 38.2818 37.1158 38.6401 37.3013 39.4157L37.8243 41.6026C37.9015 41.9257 38.1143 42.1999 38.4081 42.3549L39.1426 42.7425C40.5494 43.485 42.1442 43.7953 43.7267 43.6343C45.6743 43.4363 47.4367 42.3928 48.5469 40.7803L50.6121 37.781C50.6768 37.687 50.7236 37.5819 50.75 37.471L51.9252 32.5499C52.1009 31.8141 51.9637 31.0385 51.5464 30.4075L48.5918 25.9413C48.3275 25.5418 48.0237 25.1699 47.685 24.8312L46.5345 23.6807C45.9213 23.0675 45.5417 22.2592 45.4613 21.3957L45.2559 19.1878C45.2289 18.8969 45.0661 18.6359 44.8168 18.4835L43.8411 17.8874C43.6433 17.7665 43.4916 17.5828 43.4104 17.3657L42.6703 15.3896C42.5185 14.9842 42.1311 14.7156 41.6982 14.7156C41.1574 14.7156 40.7072 15.1308 40.6636 15.6698L40.4725 18.0282C40.4651 18.1199 40.444 18.2101 40.41 18.2956L39.9351 19.4899C39.5824 20.377 38.502 20.7135 37.7079 20.1837L35.725 18.8606C35.1225 18.4586 34.8932 17.6836 35.1798 17.0185L35.6593 15.9061C35.7538 15.6869 35.7967 15.4489 35.7847 15.2106C35.7427 14.3816 35.0584 13.731 34.2283 13.731H32.5198C31.9092 13.731 31.3548 14.0876 31.1017 14.6434L30.9887 14.8913C30.7927 15.3216 30.412 15.6396 29.9538 15.7558Z" fill="white"/>
<path d="M51.9249 32.5498L50.75 37.4708C50.7234 37.582 50.6767 37.6867 50.6123 37.7809L48.5468 40.7806C47.9912 41.5867 47.2737 42.251 46.4506 42.7374C45.6277 43.2253 44.7008 43.5354 43.7264 43.6345C43.443 43.6635 43.1587 43.6771 42.876 43.6756C43.5404 43.5202 44.1741 43.2641 44.7548 42.9202C45.577 42.433 46.2952 41.7695 46.8509 40.9625L48.9156 37.9637C48.98 37.8695 49.0267 37.7648 49.0534 37.6536L50.2291 32.7325C50.4046 31.9965 50.2677 31.221 49.8498 30.5897L46.8952 26.1236C46.6311 25.7242 46.3275 25.3521 45.9885 25.0139L44.8386 23.8631C44.225 23.2503 43.8457 22.4418 43.7652 21.5778L43.5598 19.3705C43.5324 19.079 43.3698 18.8181 43.1209 18.6659L42.1448 18.0701C41.9467 17.9493 41.7954 17.7657 41.714 17.5483L40.9739 15.5721C40.9304 15.4546 40.8668 15.3491 40.7863 15.2581C40.841 15.1574 40.9111 15.0672 40.9948 14.9907C41.1801 14.8192 41.4281 14.7153 41.6978 14.7153C42.1311 14.7153 42.5184 14.9843 42.6706 15.3893L43.4107 17.3655C43.492 17.5829 43.6434 17.7665 43.8416 17.8873L44.8167 18.4832C45.0663 18.6362 45.2291 18.8971 45.2556 19.1878L45.4609 21.3959C45.5415 22.2592 45.9216 23.0677 46.5344 23.6804L47.6852 24.8312C48.0234 25.1702 48.3277 25.5414 48.5919 25.9417L51.5464 30.4078C51.9636 31.0383 52.1005 31.8138 51.9249 32.5498Z" fill="white"/>
</svg>
