<svg width="64" height="64" viewBox="0 0 64 64" fill="none" xmlns="http://www.w3.org/2000/svg">
<rect width="64" height="64" rx="8" fill="#2C3ACF"/>
<path d="M18.6313 40.8591L17.0938 40.4285C16.7711 40.3379 16.4275 40.3567 16.1166 40.4818C15.8057 40.607 15.545 40.8315 15.375 41.1204L14.4813 42.6419C14.2502 43.0345 14.1513 43.4909 14.1993 43.9439C14.2473 44.3969 14.4396 44.8224 14.7478 45.1579L15.23 45.6832C15.3631 45.828 15.5449 45.9186 15.7407 45.9379L18.5247 46.2107C18.7236 46.2302 18.9225 46.1745 19.0822 46.0544L21.8125 44.0063C21.9533 43.9005 22.0553 43.7512 22.1025 43.5816L22.33 42.7669C22.3597 42.6607 22.411 42.5617 22.4808 42.4763C22.5505 42.3909 22.6372 42.3208 22.7353 42.2705C22.8335 42.2202 22.941 42.1907 23.0511 42.184C23.1612 42.1772 23.2715 42.1933 23.375 42.2313L24.5032 42.6447C24.6974 42.7157 24.9115 42.7086 25.1007 42.625C25.2034 42.5798 25.3146 42.5568 25.4268 42.5574C25.5391 42.558 25.65 42.5823 25.7522 42.6286C25.8545 42.6749 25.9459 42.7422 26.0204 42.8262C26.0949 42.9102 26.1509 43.0089 26.1847 43.116L26.61 44.4625C26.6433 44.5681 26.6981 44.6655 26.771 44.7487C26.8439 44.832 26.9332 44.8991 27.0335 44.946L28.0647 45.4272C28.2515 45.5146 28.4649 45.5263 28.6602 45.46C28.8555 45.3937 29.0176 45.2544 29.1125 45.0713L29.916 43.5229C29.9649 43.4285 30.0322 43.3449 30.1139 43.2768C30.1955 43.2088 30.29 43.1577 30.3916 43.1266C30.4932 43.0955 30.6001 43.085 30.7058 43.0957C30.8116 43.1063 30.9142 43.138 31.0075 43.1888L31.695 43.5638C31.8612 43.6538 31.99 43.7998 32.0587 43.9759C32.1273 44.1519 32.1314 44.3466 32.07 44.5254L32.0257 44.6547C31.9159 44.9736 31.8837 45.314 31.9315 45.6478C31.9794 45.9816 32.106 46.2992 32.301 46.5744L32.9847 47.5397C33.0504 47.6325 33.1352 47.7102 33.2333 47.7677C33.3314 47.8251 33.4407 47.8609 33.5538 47.8728C33.6668 47.8846 33.7811 47.8722 33.889 47.8363C33.9969 47.8004 34.0959 47.7419 34.1794 47.6647L35.6553 46.3C35.7909 46.1754 35.8792 46.0077 35.9053 45.8254L36.1678 43.9697C36.1887 43.8226 36.2501 43.6842 36.3452 43.5701C36.4403 43.4559 36.5653 43.3705 36.7063 43.3235L37.2603 43.1391C37.4194 43.086 37.5577 42.9842 37.6558 42.8482C37.7538 42.7121 37.8066 42.5487 37.8066 42.381V39.7097C37.8066 39.4611 37.9054 39.2226 38.0812 39.0468C38.257 38.871 38.4954 38.7722 38.7441 38.7722H41.3228C41.4325 38.7723 41.541 38.7949 41.6416 38.8386C41.7422 38.8824 41.8327 38.9464 41.9075 39.0266L43.1182 40.3254C43.2064 40.4202 43.3163 40.4921 43.4386 40.5349C43.5608 40.5777 43.6916 40.5901 43.8197 40.571L49.1303 39.7844C49.3077 39.7582 49.4711 39.673 49.5943 39.5427C49.7174 39.4123 49.7931 39.2443 49.8091 39.0657C49.8355 38.7762 49.7713 38.4857 49.6254 38.2343C49.4794 37.9829 49.2589 37.7831 48.9944 37.6625L46.75 36.6404C46.6468 36.5933 46.5548 36.5248 46.4801 36.4394C46.4054 36.354 46.3497 36.2536 46.3168 36.145C46.2839 36.0364 46.2745 35.9221 46.2892 35.8096C46.3039 35.6971 46.3425 35.589 46.4022 35.4925L47.2844 34.0685C47.482 33.7494 47.5943 33.3849 47.6103 33.01C47.6263 32.635 47.5456 32.2623 47.376 31.9275L46.6153 30.4275C46.55 30.2986 46.5209 30.1543 46.531 30.01C46.5412 29.8658 46.5903 29.727 46.6732 29.6085L48.0969 27.5713C48.1686 27.4685 48.2151 27.3504 48.2326 27.2264C48.2502 27.1024 48.2384 26.9759 48.1981 26.8573C48.1579 26.7387 48.0903 26.6312 48.0008 26.5435C47.9114 26.4558 47.8025 26.3904 47.6832 26.3525L45.4625 25.6488C45.3007 25.5975 45.1593 25.4961 45.059 25.3591C44.9587 25.2221 44.9047 25.0567 44.9047 24.8869V24.2219C44.9048 24.0865 44.8704 23.9532 44.8048 23.8347C44.7392 23.7162 44.6445 23.6163 44.5297 23.5444L44.0675 23.2554C43.935 23.1729 43.8296 23.0534 43.7644 22.9116L42.2419 19.5835C42.1979 19.4873 42.1734 19.3833 42.1697 19.2775L42.1244 17.9163C42.1099 17.4819 41.9406 17.067 41.647 16.7465C41.3534 16.4259 40.9549 16.2209 40.5235 16.1685L40.2003 16.1291C40.0147 16.1066 39.8271 16.1499 39.6701 16.2514C39.5131 16.3529 39.3966 16.5062 39.341 16.6847L37.4316 22.8119C37.3084 23.2055 37.1086 23.5708 36.8438 23.8869L35.8822 25.0344C35.7815 25.1542 35.6478 25.2417 35.4978 25.2862C35.3477 25.3307 35.1879 25.3301 35.0382 25.2846C34.8885 25.2392 34.7554 25.1507 34.6554 25.0303C34.5555 24.9099 34.4931 24.7628 34.476 24.6072L34.1747 21.8238C34.1434 21.5346 34.0319 21.2599 33.853 21.0306C33.674 20.8013 33.4345 20.6266 33.1616 20.526L32.6444 20.3354C32.2849 20.203 31.8887 20.2115 31.5352 20.359C31.1817 20.5065 30.897 20.7821 30.7382 21.1307L28.5822 25.8616C28.5374 25.96 28.4731 26.0484 28.3932 26.1213L26.6678 27.6925C26.3321 27.9985 26.0692 28.3758 25.8986 28.7968C25.7279 29.2178 25.6539 29.6717 25.6819 30.125L25.74 31.0625C25.7469 31.1739 25.7771 31.2826 25.8285 31.3816C25.88 31.4806 25.9516 31.5678 26.0387 31.6375C26.1259 31.7072 26.2267 31.7578 26.3346 31.7862C26.4425 31.8146 26.5552 31.82 26.6653 31.8022L29.2903 31.3772C29.4243 31.3556 29.5506 31.3002 29.6572 31.2162C29.7638 31.1322 29.8473 31.0224 29.8997 30.8972L31.1903 27.8185C31.2463 27.685 31.3325 27.5663 31.442 27.4716C31.5516 27.377 31.6816 27.309 31.8218 27.2731C31.962 27.2371 32.1086 27.234 32.2502 27.2642C32.3918 27.2944 32.5245 27.3569 32.6378 27.4469L32.9938 27.7282C33.101 27.8133 33.1846 27.9245 33.2365 28.0512C33.2883 28.1779 33.3068 28.3157 33.29 28.4516L32.9485 31.23C32.9241 31.4273 32.8272 31.6084 32.6766 31.7382L29.2003 34.731C29.0882 34.8277 28.9513 34.8912 28.805 34.9144L25.0938 35.5072C24.2094 35.6486 23.3672 35.9837 22.6275 36.4888L20.6053 37.8691C20.395 38.013 20.2162 38.1983 20.0799 38.4137C19.9436 38.629 19.8526 38.8699 19.8125 39.1216L19.6375 40.2154C19.6198 40.3268 19.5787 40.4332 19.5168 40.5276C19.455 40.622 19.3739 40.7023 19.2789 40.7631C19.1838 40.8239 19.077 40.8639 18.9654 40.8804C18.8537 40.897 18.7399 40.8897 18.6313 40.8591Z" fill="white"/>
<path d="M18.6116 29.4927L19.5966 27.872C19.7259 27.6599 19.917 27.4926 20.1443 27.3925C20.3717 27.2924 20.6242 27.2644 20.8679 27.3124L21.9335 27.5208C22.2328 27.5797 22.499 27.749 22.6793 27.9951C22.8595 28.2412 22.9405 28.5461 22.9063 28.8492L22.6148 31.4061C22.5875 31.6453 22.5107 31.8761 22.3892 32.0839C22.2677 32.2917 22.1042 32.4719 21.9091 32.613L19.0226 34.7008C18.8197 34.8475 18.5874 34.9486 18.3417 34.9968C18.096 35.0451 17.8428 35.0395 17.5994 34.9805L17.1798 34.8789C16.9035 34.8119 16.6594 34.6501 16.4901 34.4217C16.3208 34.1933 16.237 33.9128 16.2532 33.6289L16.3576 31.8255C16.3777 31.4771 16.5026 31.1429 16.7159 30.8667C16.9292 30.5906 17.2209 30.3852 17.5529 30.2777L17.6654 30.2414C18.0603 30.1133 18.3962 29.8476 18.6116 29.4927Z" fill="white"/>
</svg>
