<svg width="64" height="64" viewBox="0 0 64 64" fill="none" xmlns="http://www.w3.org/2000/svg">
<rect width="64" height="64" rx="8" fill="#050C72"/>
<g clip-path="url(#clip0_2244_582896)">
<path d="M35.6756 12.6302C35.6756 12.6302 35.2934 13.0124 35.6756 14.0315C36.0577 15.0506 34.6989 15.7725 35.5057 17.0039C36.3125 18.2353 37.544 17.6409 38.3932 18.66C39.2425 19.6791 38.7754 20.7407 40.5164 21.038C42.2574 21.3352 41.3657 22.0995 42.682 22.0995C43.9984 22.0995 43.4464 21.1653 44.8902 21.5475C46.3339 21.9297 43.9984 20.1462 43.1916 18.6175C42.3849 17.0888 43.7861 15.4752 42.6396 14.1163C41.4931 12.7575 37.3316 11.059 35.6756 12.6302Z" fill="white"/>
<path d="M42.8302 19.447C41.0891 19.1497 41.5563 18.0882 40.707 17.069C39.8577 16.0499 38.6263 16.6444 37.8195 15.4129C37.0127 14.1814 38.3715 13.4596 37.9893 12.4405C37.9294 12.2808 37.89 12.1385 37.8632 12.009C36.9975 11.9588 36.2073 12.1257 35.6756 12.6303C35.6756 12.6303 35.2934 13.0125 35.6756 14.0316C36.0577 15.0507 34.6989 15.7726 35.5057 17.004C36.3125 18.2354 37.544 17.641 38.3932 18.6601C39.2425 19.6793 38.7754 20.7408 40.5164 21.0381C42.2574 21.3354 41.3657 22.0997 42.682 22.0997C43.9984 22.0997 43.4464 21.1654 44.8902 21.5476C45.7358 21.7714 45.2848 21.2522 44.6039 20.4764C43.8584 20.3286 44.3585 19.7079 42.8302 19.447Z" fill="white"/>
<path d="M32.6099 18.1845C32.0112 17.3238 32.0486 16.931 31.4686 16.2605C31.1968 15.9462 31.1798 15.6218 31.2384 15.3657C31.3278 14.9754 30.8877 14.672 30.5506 14.8881C29.9894 15.248 29.4795 16.0688 29.5977 16.613C29.7849 17.4736 28.8307 17.9226 28.8681 18.3528C28.9056 18.7831 30.5145 18.5399 30.926 19.1905C31.3376 19.841 31.8988 19.0263 32.404 19.1573C32.9092 19.2882 33.2085 19.045 32.6099 18.1845Z" fill="white"/>
<path d="M46.169 28.7194C46.4636 27.9245 46.7417 27.7678 46.9188 27.0732C47.0019 26.7475 47.2093 26.5864 47.4064 26.507C47.7068 26.386 47.7048 25.9538 47.4057 25.8299C46.9076 25.6236 46.1272 25.6643 45.8207 25.9943C45.3359 26.516 44.5971 26.0901 44.3288 26.3137C44.0605 26.5373 44.9652 27.4928 44.7235 28.0666C44.4819 28.6403 45.2819 28.6365 45.4283 29.0322C45.5747 29.4279 45.8743 29.5143 46.169 28.7194Z" fill="white"/>
<path d="M45.3457 51.3287C45.2325 49.7434 41.7222 50.6493 40.9295 49.8567C40.1368 49.064 39.0045 47.6486 36.5699 47.9883C34.1353 48.328 34.9279 46.5162 34.3618 46.2332C33.7956 45.9501 31.8139 47.592 31.3044 45.5537C30.7949 43.5154 33.1162 41.5904 34.8714 42.4397C36.6265 43.289 37.0229 41.5904 37.8722 42.1C38.7214 42.6096 39.4008 43.8552 40.2501 43.1192C41.0994 42.3832 38.495 41.0243 39.231 39.8919C39.967 38.7596 40.5332 37.9103 40.2501 36.7213C39.9671 35.5323 41.7788 34.5052 41.4957 33.1221C41.2126 31.739 43.3641 31.3993 43.1943 30.55C43.0244 29.7007 41.6656 28.9647 41.6656 28.2853C41.6656 27.6059 42.7979 26.983 41.7222 25.8507C40.6465 24.7183 39.4009 23.4727 38.7214 24.4918C38.3592 25.0353 37.9968 24.9348 37.5574 24.8342C38.0634 25.7453 38.3519 26.7938 38.3519 27.9099C38.3519 30.4172 36.8971 32.584 34.7858 33.614C34.6075 33.7011 34.4588 33.8389 34.3613 34.0117L32.3525 37.5712C32.2011 37.8396 31.8145 37.8396 31.6631 37.5712L29.6545 34.0117C29.5568 33.8386 29.4078 33.7008 29.2292 33.6136C27.162 32.6047 25.7243 30.506 25.6656 28.0651C25.6065 25.6068 26.9267 23.4589 28.926 22.3551C28.6605 22.2346 28.3854 22.0568 28.1055 21.8025C26.7042 20.5286 24.4961 21.5901 23.3071 18.278C22.1182 14.9658 17.6454 16.8343 16.697 18.8301C16.697 18.8301 15.961 20.019 16.697 20.6418C17.433 21.2646 16.0742 22.397 19.6411 22.6235C23.2081 22.85 20.0941 26.8133 22.5286 30.2669C24.9632 33.7207 20.1507 35.1361 22.0757 39.0428C24.0007 42.9495 24.2838 44.9311 25.6426 45.2708C27.0014 45.6106 26.5485 44.195 27.2279 44.5347C27.9074 44.8744 28.4736 49.0076 31.814 49.1208C35.1545 49.2341 35.2677 50.6495 37.1361 50.3098C39.0046 49.9701 38.3818 52.4613 41.1561 51.7819C43.9303 51.1023 45.459 52.9141 45.3457 51.3287Z" fill="white"/>
<path d="M40.9296 49.8566C40.1369 49.064 39.0046 47.6485 36.57 47.9882C34.1354 48.3279 34.928 46.5161 34.3618 46.233C33.7957 45.95 31.814 47.5919 31.3045 45.5536C31.1704 45.0172 31.2337 44.4894 31.4297 44.0172C30.7663 43.0249 30.4423 41.9978 30.1003 41.8268C29.4208 41.4871 29.8738 42.9026 28.515 42.5629C27.1561 42.2232 26.873 40.2415 24.948 36.3348C23.5631 33.5243 25.6652 32.0031 26.0475 30.0848C25.8165 29.4524 25.6826 28.7732 25.6656 28.0648C25.6649 28.035 25.6653 28.0055 25.665 27.9758C25.5882 27.84 25.5013 27.7014 25.4009 27.5589C22.9663 24.1053 26.0803 20.142 22.5134 19.9155C18.9464 19.689 20.3053 18.5567 19.5693 17.9339C19.1822 17.6064 19.2024 17.1225 19.3083 16.7371C18.1488 17.1497 17.1018 17.978 16.697 18.8299C16.697 18.8299 15.961 20.0189 16.697 20.6417C17.433 21.2644 16.0742 22.3968 19.6411 22.6233C23.2081 22.8498 20.0941 26.8131 22.5286 30.2668C24.9632 33.7205 20.1507 35.1359 22.0757 39.0426C24.0007 42.9493 24.2838 44.9309 25.6426 45.2707C27.0014 45.6104 26.5486 44.1949 27.2279 44.5346C27.9073 44.8743 28.4736 49.0075 31.8139 49.1207C35.1544 49.234 35.2677 50.6494 37.1361 50.3097C39.0045 49.97 38.3817 52.4612 41.156 51.7818C43.9303 51.1023 45.4589 52.9141 45.3457 51.3288C45.2325 49.7434 41.7222 50.6493 40.9296 49.8566Z" fill="white"/>
<path d="M36.7213 23.6662C37.4642 23.6015 38.2122 22.6831 38.053 22.2055C37.8699 21.6564 37.2211 21.5733 36.8052 21.0243C36.6129 20.7704 36.2891 20.4917 35.9964 20.2654C35.6392 19.9892 35.1352 20.0107 34.8001 20.3134C34.433 20.645 34.0266 21.6255 34.3113 21.9985C35.2414 22.3612 36.0645 22.9371 36.7213 23.6662Z" fill="white"/>
<path d="M31.8574 21.5269C28.3137 21.6083 25.5486 24.5131 25.6338 28.0568C25.6927 30.5098 27.1376 32.619 29.215 33.6329C29.3945 33.7205 29.5442 33.859 29.6424 34.033L31.661 37.6102C31.8133 37.88 32.2017 37.88 32.3539 37.6102L34.3726 34.0329C34.4706 33.8591 34.62 33.7207 34.7993 33.6332C36.9211 32.598 38.3831 30.4205 38.3831 27.9007C38.3831 24.3297 35.4472 21.4444 31.8574 21.5269Z" fill="white"/>
<path d="M32.3934 34.0332C32.2952 33.8592 32.1455 33.7207 31.9659 33.6331C29.8885 32.6192 28.4436 30.5101 28.3847 28.057C28.3097 24.9365 30.4452 22.3125 33.376 21.6744C32.8881 21.5677 32.3801 21.515 31.8574 21.5271C28.3137 21.6085 25.5486 24.5133 25.6338 28.057C25.6927 30.5101 27.1376 32.6193 29.215 33.6331C29.3945 33.7207 29.5442 33.8592 29.6424 34.0332L31.661 37.6104C31.8133 37.8801 32.2017 37.8801 32.3539 37.6104L33.3829 35.7868L32.3934 34.0332Z" fill="white"/>
<path d="M33.9254 30.9856C35.629 29.9326 36.1565 27.6979 35.1035 25.9943C34.0505 24.2907 31.8158 23.7633 30.1121 24.8163C28.4085 25.8693 27.8811 28.104 28.9341 29.8076C29.9871 31.5112 32.2218 32.0386 33.9254 30.9856Z" fill="white"/>
<path d="M31.1336 27.9009C31.1336 26.386 32.0632 25.0888 33.3829 24.547C32.9587 24.3728 32.4945 24.2761 32.0075 24.2761C30.0055 24.2761 28.3827 25.899 28.3827 27.9009C28.3827 29.9028 30.0055 31.5257 32.0075 31.5257C32.4945 31.5257 32.9587 31.4289 33.3829 31.2548C32.0632 30.713 31.1336 29.4158 31.1336 27.9009Z" fill="white"/>
</g>
<defs>
<clipPath id="clip0_2244_582896">
<rect width="40" height="40" fill="white" transform="translate(12 12)"/>
</clipPath>
</defs>
</svg>
