<svg width="64" height="64" viewBox="0 0 64 64" fill="none" xmlns="http://www.w3.org/2000/svg">
<rect width="64" height="64" rx="8" fill="#717591"/>
<path d="M42.6276 20.2117C42.6276 19.9046 42.6794 19.6035 42.376 19.5453L41.0305 19.2865C40.6937 19.2217 39.6884 20.0371 39.3588 19.8312L38.5799 19.3445C38.2015 19.1079 36.344 20.2332 36.0096 19.8715L35.1013 18.8892C34.5874 18.3334 36.2909 18.0859 36.2909 17.5895C36.2909 15.5104 36.4059 16.47 35.5488 15.3629C34.3669 13.8364 34.428 13.8668 34.2655 13.8393C34.1091 13.8129 30.4323 13.1978 30.2774 13.1267C29.251 12.6545 28.8076 12.3332 28.1401 12.6576L26.6023 13.4051C25.7124 13.8378 23.8115 13.0703 23.0427 13.9939C21.3166 16.0679 21.1412 15.9051 21.288 16.2173C21.8424 17.3953 22.043 17.629 21.7318 17.8157C18.9312 19.4962 19.0546 19.3857 19.0046 19.542C18.2609 21.8664 18.2184 21.8292 18.3759 22.0064L18.8871 22.5815C19.2537 22.994 18.0915 23.7621 18.3626 24.1882C19.6376 26.1917 19.623 26.1253 19.6324 26.2525C19.7377 27.6748 19.7026 27.7104 19.8588 27.824L20.958 28.6237C21.2732 28.8529 24.3669 29.5795 24.3669 30.195V34.2357C24.3669 34.4887 23.7684 35.2009 23.8157 35.4689C24.068 36.8985 24.1816 37.7317 24.181 37.7279C24.1923 37.8028 24.0726 38.5789 24.0819 38.5137C24.0244 38.9157 24.8394 39.1037 24.8394 39.482C24.8394 41.5934 24.8715 41.5692 24.7874 41.6954C24.1659 42.6276 24.2516 41.8553 24.7091 45.592C25.0394 48.6314 24.9737 48.5623 25.1988 48.6615C27.7038 49.7665 27.6644 49.7046 27.7438 49.8609C28.3715 51.0975 28.4427 51.4562 28.9373 51.4562C30.7501 51.4562 31.6079 51.6398 31.6079 50.8312V49.769C31.6079 49.1482 30.378 48.6031 30.378 48.1957C30.378 43.6359 30.3359 43.821 30.4444 43.6831L31.5335 42.2982C31.7554 42.016 32.7177 42.2254 32.8474 41.8293L33.2951 40.4625C33.4755 39.9115 35.2154 40.5939 35.3443 39.9593L35.6366 38.5193C35.6684 38.3631 35.1137 37.159 35.1694 37.2893C35.0787 37.0775 35.2426 36.844 35.4727 36.8575L36.486 36.917C36.791 36.935 37.4401 35.95 37.7327 35.7348L39.1071 34.725C39.5819 34.376 38.4429 33.341 38.8437 32.966L39.8669 32.0084C40.064 31.824 42.2271 31.9943 42.4555 31.9021C43.4685 31.4942 43.5634 31.5014 43.6041 31.2854C44.5613 26.2084 44.5082 26.2365 44.5082 26.2365C44.5235 26.1346 44.156 24.7642 44.179 24.8542C44.0288 24.2689 45.6904 24.1662 45.6904 23.6365C45.6904 21.5337 45.7654 21.4075 45.4716 21.3168C42.7069 20.4651 42.6276 20.5248 42.6276 20.2117Z" fill="white"/>
<path d="M30.3553 51.7863C30.1801 51.7863 29.9887 51.7827 29.7792 51.7786C29.526 51.7738 29.2454 51.7685 28.9368 51.7685C28.3337 51.7685 28.1493 51.3921 27.7456 50.5675C27.6659 50.4047 27.5746 50.2186 27.467 50.0063C27.3834 49.9558 27.0929 49.8296 26.5956 49.6135C26.2378 49.458 25.7473 49.2449 25.0723 48.9472C24.7298 48.7967 24.7265 48.7666 24.5629 47.1847C24.5218 46.7866 24.4692 46.2777 24.3982 45.6255C24.306 44.8735 24.2303 44.3136 24.1693 43.8639C23.9693 42.3861 23.9573 42.2977 24.3276 41.8014C24.3826 41.7278 24.4481 41.64 24.5253 41.5246C24.5348 41.4481 24.5334 41.193 24.5309 40.7877C24.5292 40.4821 24.5268 40.0627 24.5268 39.4817C24.5089 39.4455 24.3643 39.3394 24.2779 39.2761C24.041 39.1024 23.717 38.8646 23.7723 38.4711C23.7725 38.4706 23.7725 38.47 23.7726 38.4694C23.7734 38.4642 23.7742 38.4591 23.7753 38.4539C23.7929 38.3425 23.8628 37.8646 23.8689 37.7519C23.8517 37.6281 23.7378 36.8258 23.5079 35.5231C23.4623 35.2644 23.6368 34.9702 23.839 34.6294C23.9179 34.4966 24.0359 34.2977 24.0545 34.2238V30.223C23.8681 29.9381 22.4157 29.466 21.7901 29.2627C21.1975 29.07 20.9068 28.973 20.7742 28.8766L19.675 28.0767C19.4321 27.9002 19.424 27.7772 19.3701 26.978C19.3578 26.7931 19.3423 26.5642 19.3212 26.2794C19.2875 26.2124 19.1512 26 18.8968 25.6036C18.7129 25.3172 18.4567 24.918 18.099 24.356C17.8551 23.9728 18.1484 23.5606 18.3842 23.2296C18.4739 23.1033 18.6381 22.8728 18.6467 22.7813L18.1423 22.2139C17.8976 21.9388 17.9225 21.8624 18.3382 20.5871C18.4353 20.2892 18.5568 19.9163 18.707 19.4469C18.7754 19.2171 18.7754 19.2171 20.0868 18.4352C20.4545 18.2161 20.9339 17.9303 21.5603 17.5546C21.5314 17.4386 21.4032 17.175 21.2685 16.898C21.1928 16.7421 21.1046 16.5613 21.0054 16.3505C20.8301 15.9781 20.9848 15.8155 21.3584 15.4225C21.6256 15.1416 22.0728 14.6711 22.8028 13.7944C23.3537 13.1325 24.3071 13.1785 25.1487 13.2189C25.6512 13.2431 26.1701 13.2681 26.466 13.1244L28.004 12.3769C28.7101 12.0335 29.2232 12.2791 30 12.6505C30.1214 12.7086 30.2518 12.771 30.3937 12.8363C30.5551 12.881 31.6481 13.0828 34.2575 13.5213L34.3181 13.5314C34.5671 13.5731 34.579 13.5886 35.2028 14.4013C35.3549 14.5994 35.5482 14.8511 35.7964 15.1719C36.0284 15.4716 36.1768 15.6017 36.285 15.6967C36.6151 15.9866 36.6142 16.0961 36.6071 16.948C36.6057 17.1216 36.6039 17.3322 36.6039 17.5896C36.6039 17.9961 36.1885 18.2124 35.7868 18.4214C35.6478 18.4938 35.4282 18.608 35.341 18.6877L36.2142 19.6321C36.3926 19.6531 36.9404 19.4478 37.2734 19.3231C38.0168 19.0444 38.4521 18.8958 38.7457 19.0794L39.5029 19.5524C39.6278 19.5505 39.974 19.3727 40.1631 19.2756C40.5384 19.0827 40.8353 18.9306 41.0899 18.9796L42.4354 19.2383C42.9589 19.3389 42.9479 19.8341 42.9421 20.1002C42.9414 20.1322 42.9406 20.1646 42.9404 20.1971C43.0839 20.2696 43.5204 20.4005 44.1476 20.5888C44.5165 20.6996 44.9804 20.8388 45.5637 21.0185C46.0212 21.1592 46.0189 21.4071 46.0085 22.5977C46.006 22.8752 46.0031 23.2163 46.0031 23.6366C46.0031 24.0971 45.5009 24.305 45.0579 24.4886C44.8785 24.563 44.5504 24.6989 44.4848 24.7894C44.4859 24.7946 44.4868 24.7997 44.4876 24.805C44.5237 24.9208 44.5714 25.1092 44.6523 25.4303C44.7532 25.8303 44.7964 26.0264 44.8129 26.1339C44.8162 26.1486 44.8182 26.1649 44.8193 26.1833C44.8245 26.2335 44.8214 26.2566 44.8176 26.2813C44.8081 26.4114 44.7735 26.6146 44.7159 26.9535C44.5721 27.7977 44.3015 29.2746 43.9117 31.3435C43.8462 31.6899 43.6589 31.7635 43.0376 32.0075C42.9096 32.058 42.7562 32.1181 42.5726 32.1921C42.4307 32.2494 42.179 32.2502 41.4389 32.2377C40.9892 32.2302 40.2489 32.2178 40.0476 32.2675L39.0687 33.1836C39.0642 33.2799 39.197 33.5442 39.2698 33.6889C39.4718 34.091 39.7484 34.6416 39.2926 34.9766L37.9182 35.9864C37.8393 36.0442 37.6782 36.2341 37.536 36.4014C37.0881 36.9288 36.7904 37.2471 36.4681 37.2286L35.4612 37.1694C35.5099 37.2646 35.5798 37.428 35.7029 37.7244C35.9612 38.346 35.9656 38.4714 35.9432 38.581L35.6509 40.0211C35.531 40.6117 34.8356 40.5785 34.2764 40.5516C34.0551 40.541 33.6903 40.5235 33.5862 40.5785L33.1448 41.9261C33.0109 42.335 32.5478 42.3853 32.1757 42.4258C32.0471 42.4397 31.8339 42.463 31.7726 42.4997L30.695 43.87C30.6803 43.9971 30.682 44.446 30.6853 45.3502C30.6878 45.993 30.691 46.8985 30.691 48.1797C30.7293 48.266 30.9514 48.4552 31.0996 48.5816C31.4846 48.9096 31.9209 49.2814 31.9209 49.7686V50.8307C31.9209 51.1038 31.8403 51.3211 31.6814 51.4771C31.4157 51.7374 30.9956 51.7863 30.3553 51.7863ZM25.3364 48.3805C26.0085 48.6769 26.4914 48.8867 26.8446 49.0403C27.9134 49.5046 27.9134 49.5046 28.0212 49.7172C28.1323 49.9363 28.2256 50.1266 28.3068 50.2927C28.7004 51.0961 28.7476 51.1435 28.9368 51.1435C29.2496 51.1435 29.5342 51.1489 29.7912 51.1538C30.4895 51.1672 31.0926 51.1786 31.2429 51.0313C31.2557 51.0186 31.2951 50.98 31.2951 50.831V49.7689C31.2951 49.5703 30.9473 49.2739 30.6935 49.0577C30.3564 48.7703 30.0653 48.5222 30.0653 48.1956C30.0653 46.9072 30.062 45.9978 30.0595 45.353C30.0532 43.6694 30.0532 43.6694 30.1923 43.4975L31.2876 42.105C31.4689 41.8744 31.7935 41.8391 32.1075 41.805C32.2415 41.7905 32.4867 41.7638 32.555 41.7174L32.9979 40.3652C33.1592 39.8727 33.7687 39.9022 34.3057 39.9278C34.5346 39.9388 34.9606 39.9592 35.0456 39.8855L35.322 38.498C35.2801 38.3106 34.9914 37.6416 34.8993 37.4472C34.8939 37.4375 34.8887 37.4277 34.8839 37.4172C34.8832 37.4156 34.8825 37.4139 34.8817 37.4124C34.796 37.2125 34.8198 36.9871 34.9446 36.8091C35.0696 36.6313 35.2739 36.5328 35.4907 36.5455L36.4715 36.6031C36.6009 36.5361 36.897 36.1877 37.0589 35.9971C37.2471 35.7755 37.4096 35.5841 37.5475 35.483L38.9129 34.4796C38.9178 34.3821 38.7839 34.1158 38.7106 33.9699C38.5115 33.5736 38.2637 33.0806 38.6296 32.738L39.6529 31.7803C39.8342 31.6106 40.1978 31.5921 41.4485 31.613C41.7832 31.6188 42.239 31.6263 42.3529 31.6066C42.532 31.5346 42.682 31.4756 42.8081 31.426C43.0399 31.3349 43.2285 31.2606 43.2979 31.22C44.094 26.9971 44.1851 26.3392 44.195 26.2389C44.195 26.2372 44.195 26.2355 44.195 26.2338C44.1739 26.0667 43.9329 25.1388 43.8803 24.9488C43.8785 24.9433 43.877 24.9377 43.8756 24.9322C43.8756 24.9322 43.8756 24.9322 43.8756 24.9321C43.8754 24.9314 43.8753 24.9306 43.8751 24.9299C43.731 24.3616 44.3592 24.1014 44.8178 23.9113C44.9924 23.8389 45.3131 23.7061 45.3771 23.6196C45.3773 23.2049 45.3803 22.8675 45.3826 22.5922C45.3868 22.1083 45.3901 21.7444 45.3664 21.6119C44.7907 21.4346 44.3325 21.2969 43.9673 21.1874C42.4712 20.7383 42.3148 20.6914 42.3148 20.2117C42.3148 20.1697 42.3157 20.1278 42.3167 20.0866C42.3182 20.0119 42.3206 19.9047 42.3104 19.8519L40.9834 19.5958C40.8893 19.6049 40.6245 19.741 40.4481 19.8316C39.9746 20.075 39.527 20.305 39.1929 20.0961L38.4364 19.6233C38.282 19.6128 37.7901 19.7967 37.4923 19.9083C36.7145 20.1999 36.1 20.4297 35.78 20.0836L34.8717 19.1013C34.6909 18.9058 34.6784 18.7185 34.6996 18.5958C34.7598 18.251 35.1346 18.0558 35.4973 17.8669C35.6565 17.7841 35.9182 17.6478 35.9779 17.5663C35.9781 17.3174 35.9798 17.1124 35.9812 16.9425C35.9843 16.5849 35.9867 16.3024 35.9607 16.2502C35.9529 16.2374 35.9079 16.198 35.8718 16.1661C35.7517 16.0606 35.5701 15.9014 35.3015 15.5541C35.0525 15.2327 34.8587 14.9802 34.7062 14.7816C34.4421 14.4375 34.2723 14.2161 34.2048 14.1461L34.1531 14.1374C30.3303 13.495 30.2062 13.438 30.1465 13.4106C29.9959 13.3414 29.8578 13.2753 29.7296 13.2141C28.9564 12.8444 28.692 12.7369 28.2764 12.9388L26.7384 13.6863C26.2989 13.9 25.7253 13.8722 25.1179 13.8428C24.3887 13.8078 23.6342 13.7714 23.2825 14.1939C22.5393 15.0866 22.0832 15.5663 21.8107 15.853C21.7171 15.9513 21.6276 16.0455 21.5793 16.1033C21.6737 16.3033 21.7575 16.4755 21.83 16.6244C22.1934 17.3713 22.3935 17.7827 21.8923 18.0836C21.2598 18.4631 20.7764 18.7513 20.4064 18.9719C19.7573 19.3589 19.4017 19.5708 19.2982 19.6481C19.1492 20.1138 19.0282 20.4844 18.9317 20.7808C18.7537 21.3267 18.639 21.6786 18.6171 21.8083L19.1201 22.3741C19.4751 22.7735 19.1384 23.2466 18.8926 23.5921C18.8043 23.7161 18.6425 23.9435 18.6334 24.0328C18.9864 24.5874 19.24 24.9824 19.4221 25.2663C19.931 26.0592 19.931 26.0592 19.9434 26.2266C19.965 26.518 19.9804 26.7496 19.9931 26.9363C20.0145 27.2539 20.0304 27.4917 20.0485 27.5763L21.1412 28.3713C21.2209 28.4206 21.6432 28.558 21.9828 28.6683C23.8471 29.2744 24.6789 29.6388 24.6789 30.1952V34.2358C24.6789 34.4281 24.5639 34.6321 24.376 34.9485C24.2884 35.0958 24.144 35.3394 24.126 35.433C24.3723 36.8289 24.4748 37.4116 24.4845 37.6822L24.4893 37.6816C24.4967 37.7299 24.5029 37.7714 24.4445 38.1927C24.4221 38.3524 24.4071 38.4619 24.3928 38.5394C24.3923 38.5456 24.3915 38.5519 24.3906 38.5581L24.3892 38.558L24.3906 38.5581C24.4082 38.5972 24.5576 38.7069 24.6471 38.7724C24.8718 38.9372 25.1514 39.1424 25.1514 39.4821C25.1514 40.0614 25.1539 40.4797 25.1554 40.7842C25.1606 41.6633 25.1607 41.6977 25.0467 41.8688C24.9614 41.9967 24.8887 42.0941 24.8282 42.1753C24.6106 42.4669 24.6106 42.4669 24.7884 43.7802C24.8464 44.2078 24.9257 44.7936 25.0189 45.5538C25.0904 46.2116 25.1431 46.7217 25.1845 47.1206C25.2548 47.7985 25.3 48.2352 25.3364 48.3805ZM35.3301 38.4571C35.33 38.4577 35.3298 38.4585 35.3296 38.4591L35.3301 38.4571ZM23.8703 37.7619C23.8707 37.7667 23.8715 37.771 23.872 37.7742C23.8717 37.7722 23.8714 37.7702 23.871 37.768C23.8709 37.7672 23.8706 37.7652 23.8703 37.7619ZM42.3409 31.6114C42.3401 31.6117 42.3393 31.6121 42.3385 31.6124C42.3393 31.6122 42.3401 31.6119 42.3409 31.6114ZM44.1987 26.1903C44.1985 26.1905 44.1985 26.1906 44.1985 26.191C44.1985 26.1908 44.1985 26.1906 44.1987 26.1903ZM44.4812 24.7761V24.7763V24.7761ZM45.405 21.6247H45.4065H45.405ZM42.9409 20.2455H42.9424H42.9409ZM30.4051 12.8414C30.4057 12.8416 30.4065 12.8419 30.4071 12.8422C30.4065 12.8421 30.4059 12.8417 30.4051 12.8414Z" fill="white"/>
</svg>
