<svg width="44" height="44" viewBox="0 0 44 44" fill="none" xmlns="http://www.w3.org/2000/svg">
<path d="M22 44C34.1503 44 44 34.1503 44 22C44 9.84974 34.1503 0 22 0C9.84974 0 0 9.84974 0 22C0 34.1503 9.84974 44 22 44Z" fill="#2C3ACF"/>
<path d="M7.70814 28.9854C7.63004 28.9854 7.55026 28.9691 7.47497 28.9342C7.19293 28.805 7.06876 28.4718 7.19799 28.1898L14.3519 12.556C14.4811 12.274 14.8143 12.1498 15.0963 12.279C15.3784 12.4083 15.5026 12.7414 15.3733 13.0235L8.21941 28.6572C8.12502 28.8634 7.92164 28.9854 7.70814 28.9854Z" fill="white"/>
<path d="M22.0178 28.9854C21.8049 28.9854 21.6009 28.8634 21.5065 28.6572L14.352 13.0235C14.2228 12.7414 14.347 12.4077 14.629 12.279C14.9111 12.1498 15.2448 12.274 15.3735 12.556L22.5279 28.1898C22.6572 28.4718 22.533 28.8056 22.251 28.9342C22.1751 28.9691 22.0959 28.9854 22.0178 28.9854Z" fill="white"/>
<path d="M22.017 28.9854C21.9389 28.9854 21.8591 28.9691 21.7838 28.9342C21.5018 28.805 21.3776 28.4718 21.5068 28.1898L28.6613 12.556C28.7905 12.274 29.1237 12.1498 29.4058 12.279C29.6878 12.4083 29.812 12.7414 29.6827 13.0235L22.5283 28.6572C22.4339 28.864 22.2305 28.9854 22.017 28.9854Z" fill="white"/>
<path d="M36.3264 28.9854C36.1134 28.9854 35.9095 28.8634 35.8151 28.6572L28.6606 13.0235C28.5314 12.7414 28.6556 12.4077 28.9376 12.279C29.2197 12.1498 29.5534 12.274 29.6821 12.556L36.8365 28.1898C36.9658 28.4718 36.8416 28.8056 36.5595 28.9342C36.4837 28.9691 36.4045 28.9854 36.3264 28.9854Z" fill="white"/>
<path d="M7.67316 31.2102C8.8588 31.2102 9.81995 30.2783 9.81995 29.1286C9.81995 27.979 8.8588 27.047 7.67316 27.047C6.48752 27.047 5.52637 27.979 5.52637 29.1286C5.52637 30.2783 6.48752 31.2102 7.67316 31.2102Z" fill="white"/>
<path d="M21.9993 31.2102C23.185 31.2102 24.1461 30.2783 24.1461 29.1286C24.1461 27.979 23.185 27.047 21.9993 27.047C20.8137 27.047 19.8525 27.979 19.8525 29.1286C19.8525 30.2783 20.8137 31.2102 21.9993 31.2102Z" fill="white"/>
<path d="M36.3265 31.2102C37.5121 31.2102 38.4733 30.2783 38.4733 29.1286C38.4733 27.979 37.5121 27.047 36.3265 27.047C35.1408 27.047 34.1797 27.979 34.1797 29.1286C34.1797 30.2783 35.1408 31.2102 36.3265 31.2102Z" fill="white"/>
</svg>
